%TF.GenerationSoftware,KiCad,Pcbnew,10.0.3*%
%TF.CreationDate,2026-07-08T12:10:21-04:00*%
%TF.ProjectId,a7s_backplane_rev2,6137735f-6261-4636-9b70-6c616e655f72,rev?*%
%TF.SameCoordinates,Original*%
%TF.FileFunction,Other,User*%
%FSLAX46Y46*%
G04 Gerber Fmt 4.6, Leading zero omitted, Abs format (unit mm)*
G04 Created by KiCad (PCBNEW 10.0.3) date 2026-07-08 12:10:21*
%MOMM*%
%LPD*%
G01*
G04 APERTURE LIST*
%ADD10C,0.050000*%
G04 APERTURE END LIST*
%TO.C,J8*%
D10*
X82230000Y-71190000D02*
X85770000Y-71190000D01*
X85770000Y-84890000D01*
X82230000Y-84890000D01*
X82230000Y-71190000D01*
%TO.C,J11*%
X75270000Y-88730000D02*
X83890000Y-88730000D01*
X83890000Y-92270000D01*
X75270000Y-92270000D01*
X75270000Y-88730000D01*
%TO.C,C2*%
X50950000Y-42500000D02*
X58050000Y-42500000D01*
X58050000Y-45500000D01*
X50950000Y-45500000D01*
X50950000Y-42500000D01*
%TO.C,J10*%
X2730000Y-77610000D02*
X6270000Y-77610000D01*
X6270000Y-88770000D01*
X2730000Y-88770000D01*
X2730000Y-77610000D01*
%TO.C,C1*%
X50950000Y-50500000D02*
X58050000Y-50500000D01*
X58050000Y-53500000D01*
X50950000Y-53500000D01*
X50950000Y-50500000D01*
%TO.C,J6b*%
X76000000Y-32000000D02*
G75*
G02*
X73000000Y-32000000I-1500000J0D01*
G01*
X73000000Y-32000000D02*
G75*
G02*
X76000000Y-32000000I1500000J0D01*
G01*
%TO.C,A1*%
X21750000Y-45000000D02*
X21750000Y-63000000D01*
X21750000Y-63000000D02*
X45250000Y-63000000D01*
X45250000Y-45000000D02*
X21750000Y-45000000D01*
X45250000Y-63000000D02*
X45250000Y-45000000D01*
%TO.C,F1*%
X20750000Y-66650000D02*
X28350000Y-66650000D01*
X28350000Y-70150000D01*
X20750000Y-70150000D01*
X20750000Y-66650000D01*
%TO.C,J5b*%
X77960000Y-40040000D02*
G75*
G02*
X74960000Y-40040000I-1500000J0D01*
G01*
X74960000Y-40040000D02*
G75*
G02*
X77960000Y-40040000I1500000J0D01*
G01*
%TO.C,J6*%
X72610000Y-22690000D02*
X72610000Y-28770000D01*
X72610000Y-28770000D02*
X83770000Y-28770000D01*
X83770000Y-22690000D02*
X72610000Y-22690000D01*
X83770000Y-28770000D02*
X83770000Y-22690000D01*
%TO.C,J2*%
X9930000Y-77490000D02*
X9930000Y-81030000D01*
X9930000Y-81030000D02*
X49030000Y-81030000D01*
X49030000Y-77490000D02*
X9930000Y-77490000D01*
X49030000Y-81030000D02*
X49030000Y-77490000D01*
%TO.C,F2*%
X32700000Y-66750000D02*
X40300000Y-66750000D01*
X40300000Y-70250000D01*
X32700000Y-70250000D01*
X32700000Y-66750000D01*
%TO.C,J5*%
X79190000Y-38230000D02*
X79190000Y-49390000D01*
X79190000Y-49390000D02*
X85270000Y-49390000D01*
X85270000Y-38230000D02*
X79190000Y-38230000D01*
X85270000Y-49390000D02*
X85270000Y-38230000D01*
%TO.C,J1*%
X9960000Y-30530000D02*
X9960000Y-36610000D01*
X9960000Y-36610000D02*
X49060000Y-36610000D01*
X49060000Y-30530000D02*
X9960000Y-30530000D01*
X49060000Y-36610000D02*
X49060000Y-30530000D01*
%TD*%
M02*
