%TF.GenerationSoftware,KiCad,Pcbnew,10.0.3*%
%TF.CreationDate,2026-07-08T12:10:21-04:00*%
%TF.ProjectId,a7s_backplane_rev2,6137735f-6261-4636-9b70-6c616e655f72,rev?*%
%TF.SameCoordinates,Original*%
%TF.FileFunction,Copper,L2,Bot*%
%TF.FilePolarity,Positive*%
%FSLAX46Y46*%
G04 Gerber Fmt 4.6, Leading zero omitted, Abs format (unit mm)*
G04 Created by KiCad (PCBNEW 10.0.3) date 2026-07-08 12:10:21*
%MOMM*%
%LPD*%
G01*
G04 APERTURE LIST*
%TA.AperFunction,ComponentPad*%
%ADD10C,2.000000*%
%TD*%
%TA.AperFunction,ComponentPad*%
%ADD11C,1.600000*%
%TD*%
%TA.AperFunction,ComponentPad*%
%ADD12R,1.700000X1.700000*%
%TD*%
%TA.AperFunction,ComponentPad*%
%ADD13O,1.700000X1.700000*%
%TD*%
%TA.AperFunction,ComponentPad*%
%ADD14C,1.700000*%
%TD*%
%TA.AperFunction,ComponentPad*%
%ADD15C,2.010000*%
%TD*%
%TA.AperFunction,ViaPad*%
%ADD16C,0.600000*%
%TD*%
%TA.AperFunction,Conductor*%
%ADD17C,0.200000*%
%TD*%
G04 APERTURE END LIST*
D10*
%TO.P,SW2,1*%
%TO.N,BTN2*%
X46750000Y-85750000D03*
%TO.N,N/C*%
X53250000Y-85750000D03*
%TO.P,SW2,2*%
%TO.N,GND*%
X46750000Y-90250000D03*
%TO.N,N/C*%
X53250000Y-90250000D03*
%TD*%
%TO.P,SW1,1*%
%TO.N,BTN1*%
X61750000Y-85750000D03*
%TO.N,N/C*%
X68250000Y-85750000D03*
%TO.P,SW1,2*%
%TO.N,GND*%
X61750000Y-90250000D03*
%TO.N,N/C*%
X68250000Y-90250000D03*
%TD*%
%TO.P,SW4,1*%
%TO.N,BTN4*%
X16750000Y-85750000D03*
%TO.N,N/C*%
X23250000Y-85750000D03*
%TO.P,SW4,2*%
%TO.N,GND*%
X16750000Y-90250000D03*
%TO.N,N/C*%
X23250000Y-90250000D03*
%TD*%
%TO.P,SW3,1*%
%TO.N,BTN3*%
X31750000Y-85750000D03*
%TO.N,N/C*%
X38250000Y-85750000D03*
%TO.P,SW3,2*%
%TO.N,GND*%
X31750000Y-90250000D03*
%TO.N,N/C*%
X38250000Y-90250000D03*
%TD*%
D11*
%TO.P,J3,1*%
%TO.N,+5V*%
X5500000Y-38990000D03*
%TO.P,J3,2*%
%TO.N,GND*%
X5500000Y-41530000D03*
%TO.P,J3,3*%
%TO.N,TFT_CS*%
X5500000Y-44070000D03*
%TO.P,J3,4*%
%TO.N,TFT_RST*%
X5500000Y-46610000D03*
%TO.P,J3,5*%
%TO.N,TFT_DC*%
X5500000Y-49150000D03*
%TO.P,J3,6*%
%TO.N,SPI_MOSI*%
X5500000Y-51690000D03*
%TO.P,J3,7*%
%TO.N,SPI_SCK*%
X5500000Y-54230000D03*
%TO.P,J3,8*%
%TO.N,TFT_BL*%
X5500000Y-56770000D03*
%TO.P,J3,9*%
%TO.N,N/C*%
X5500000Y-59310000D03*
%TO.P,J3,10*%
%TO.N,SPI_SCK*%
X5500000Y-61850000D03*
%TO.P,J3,11*%
%TO.N,TOUCH_CS*%
X5500000Y-64390000D03*
%TO.P,J3,12*%
%TO.N,SPI_MOSI*%
X5500000Y-66930000D03*
%TO.P,J3,13*%
%TO.N,SPI_MISO*%
X5500000Y-69470000D03*
%TO.P,J3,14*%
%TO.N,TOUCH_IRQ*%
X5500000Y-72010000D03*
%TD*%
D12*
%TO.P,J12,1*%
%TO.N,+5V*%
X6840000Y-25000000D03*
D13*
%TO.P,J12,2*%
%TO.N,SPI_MOSI*%
X9380000Y-25000000D03*
%TO.P,J12,3*%
%TO.N,SPI_MISO*%
X11920000Y-25000000D03*
%TO.P,J12,4*%
%TO.N,SPARE0*%
X14460000Y-25000000D03*
%TO.P,J12,5*%
%TO.N,SPI_SCK*%
X17000000Y-25000000D03*
%TO.P,J12,6*%
%TO.N,SPARE1*%
X19540000Y-25000000D03*
%TO.P,J12,7*%
%TO.N,SPARE2*%
X22080000Y-25000000D03*
%TO.P,J12,8*%
%TO.N,GND*%
X24620000Y-25000000D03*
D12*
%TO.P,J12,9*%
%TO.N,+3V3*%
X42400000Y-25000000D03*
D13*
%TO.P,J12,10*%
%TO.N,N/C*%
X44940000Y-25000000D03*
%TO.P,J12,11*%
%TO.N,GND*%
X47480000Y-25000000D03*
%TO.P,J12,12*%
%TO.N,N/C*%
X50020000Y-25000000D03*
%TO.P,J12,13*%
%TO.N,UART3_TX*%
X52560000Y-25000000D03*
%TO.P,J12,14*%
%TO.N,UART3_RX*%
X55100000Y-25000000D03*
%TO.P,J12,15*%
%TO.N,I2C_SDA*%
X57640000Y-25000000D03*
%TO.P,J12,16*%
%TO.N,I2C_SCK*%
X60180000Y-25000000D03*
%TO.P,J12,17*%
%TO.N,SPARE3*%
X62720000Y-25000000D03*
%TO.P,J12,18*%
%TO.N,GND*%
X65260000Y-25000000D03*
%TD*%
D12*
%TO.P,J8,1*%
%TO.N,RP_3V3*%
X84000000Y-83120000D03*
D14*
%TO.P,J8,2*%
%TO.N,GND*%
X84000000Y-80580000D03*
%TO.P,J8,3*%
%TO.N,JOY_X*%
X84000000Y-78040000D03*
%TO.P,J8,4*%
%TO.N,JOY_Y*%
X84000000Y-75500000D03*
%TO.P,J8,5*%
%TO.N,JOY_SW*%
X84000000Y-72960000D03*
%TD*%
D12*
%TO.P,J11,1*%
%TO.N,BTN5*%
X77040000Y-90500000D03*
D14*
%TO.P,J11,2*%
%TO.N,BTN6*%
X79580000Y-90500000D03*
%TO.P,J11,3*%
%TO.N,GND*%
X82120000Y-90500000D03*
%TD*%
D11*
%TO.P,C2,1*%
%TO.N,+3V3*%
X52000000Y-44000000D03*
%TO.P,C2,2*%
%TO.N,GND*%
X57000000Y-44000000D03*
%TD*%
D12*
%TO.P,J10,1*%
%TO.N,ENC_A*%
X4500000Y-87000000D03*
D14*
%TO.P,J10,2*%
%TO.N,ENC_B*%
X4500000Y-84460000D03*
%TO.P,J10,3*%
%TO.N,ENC_SW*%
X4500000Y-81920000D03*
%TO.P,J10,4*%
%TO.N,GND*%
X4500000Y-79380000D03*
%TD*%
D11*
%TO.P,C1,1*%
%TO.N,+3V3*%
X52000000Y-52000000D03*
%TO.P,C1,2*%
%TO.N,GND*%
X57000000Y-52000000D03*
%TD*%
D10*
%TO.P,J6b,1*%
%TO.N,RADIO2_AUX*%
X74500000Y-32000000D03*
%TD*%
D14*
%TO.P,A1,3V3*%
%TO.N,RP_3V3*%
X38580000Y-61620000D03*
%TO.P,A1,5V*%
%TO.N,+5V*%
X43660000Y-61620000D03*
%TO.P,A1,GND*%
%TO.N,GND*%
X41120000Y-61620000D03*
%TO.P,A1,GP0*%
%TO.N,A7S_U2RX*%
X43660000Y-46380000D03*
%TO.P,A1,GP1*%
%TO.N,A7S_U2TX*%
X41120000Y-46380000D03*
%TO.P,A1,GP2*%
%TO.N,BTN1*%
X38580000Y-46380000D03*
%TO.P,A1,GP3*%
%TO.N,BTN2*%
X36040000Y-46380000D03*
%TO.P,A1,GP4*%
%TO.N,BTN3*%
X33500000Y-46380000D03*
%TO.P,A1,GP5*%
%TO.N,BTN4*%
X30960000Y-46380000D03*
%TO.P,A1,GP6*%
%TO.N,BTN5*%
X28420000Y-46380000D03*
%TO.P,A1,GP7*%
%TO.N,BTN6*%
X25880000Y-46380000D03*
%TO.P,A1,GP8*%
%TO.N,JOY_SW*%
X23340000Y-46380000D03*
%TO.P,A1,GP9*%
%TO.N,ENC_A*%
X23150000Y-59080000D03*
%TO.P,A1,GP10*%
%TO.N,ENC_B*%
X23150000Y-56540000D03*
%TO.P,A1,GP11*%
%TO.N,ENC_SW*%
X23150000Y-54000000D03*
%TO.P,A1,GP12*%
%TO.N,N/C*%
X23150000Y-51460000D03*
%TO.P,A1,GP13*%
X23150000Y-48920000D03*
%TO.P,A1,GP14*%
X23340000Y-61620000D03*
%TO.P,A1,GP15*%
X25880000Y-61620000D03*
%TO.P,A1,GP26*%
%TO.N,JOY_X*%
X28420000Y-61620000D03*
%TO.P,A1,GP27*%
%TO.N,JOY_Y*%
X30960000Y-61620000D03*
%TO.P,A1,GP28*%
%TO.N,N/C*%
X33500000Y-61620000D03*
%TO.P,A1,GP29*%
X36040000Y-61620000D03*
%TD*%
D15*
%TO.P,F1,1*%
%TO.N,+5V_IN*%
X22000000Y-69000000D03*
%TO.P,F1,2*%
%TO.N,+5V*%
X27100000Y-67800000D03*
%TD*%
D10*
%TO.P,J5b,1*%
%TO.N,RADIO1_AUX*%
X76460000Y-40040000D03*
%TD*%
D12*
%TO.P,J6,1*%
%TO.N,GND*%
X74380000Y-27000000D03*
D14*
%TO.P,J6,2*%
%TO.N,+3V3*%
X74380000Y-24460000D03*
%TO.P,J6,3*%
%TO.N,RADIO2_FLEXA*%
X76920000Y-27000000D03*
%TO.P,J6,4*%
%TO.N,RADIO2_CS*%
X76920000Y-24460000D03*
%TO.P,J6,5*%
%TO.N,SPI_SCK*%
X79460000Y-27000000D03*
%TO.P,J6,6*%
%TO.N,SPI_MOSI*%
X79460000Y-24460000D03*
%TO.P,J6,7*%
%TO.N,SPI_MISO*%
X82000000Y-27000000D03*
%TO.P,J6,8*%
%TO.N,RADIO2_FLEXB*%
X82000000Y-24460000D03*
%TD*%
D12*
%TO.P,J2,1*%
%TO.N,RADIO1_FLEXA*%
X47260000Y-79260000D03*
D14*
%TO.P,J2,2*%
%TO.N,TOUCH_CS*%
X44720000Y-79260000D03*
%TO.P,J2,3*%
%TO.N,TOUCH_IRQ*%
X42180000Y-79260000D03*
%TO.P,J2,4*%
%TO.N,GND*%
X39640000Y-79260000D03*
%TO.P,J2,5*%
%TO.N,TFT_BL*%
X37100000Y-79260000D03*
%TO.P,J2,6*%
%TO.N,SPARE3*%
X34560000Y-79260000D03*
%TO.P,J2,7*%
%TO.N,RADIO2_FLEXA*%
X32020000Y-79260000D03*
%TO.P,J2,8*%
%TO.N,RADIO2_CS*%
X29480000Y-79260000D03*
%TO.P,J2,9*%
%TO.N,GND*%
X26940000Y-79260000D03*
%TO.P,J2,10*%
%TO.N,RADIO2_FLEXB*%
X24400000Y-79260000D03*
%TO.P,J2,11*%
%TO.N,RADIO1_AUX*%
X21860000Y-79260000D03*
%TO.P,J2,12*%
%TO.N,RADIO2_AUX*%
X19320000Y-79260000D03*
%TO.P,J2,13*%
%TO.N,SPARE0*%
X16780000Y-79260000D03*
%TO.P,J2,14*%
%TO.N,SPARE1*%
X14240000Y-79260000D03*
%TO.P,J2,15*%
%TO.N,SPARE2*%
X11700000Y-79260000D03*
%TD*%
D15*
%TO.P,F2,1*%
%TO.N,+3V3_IN*%
X33950000Y-69100000D03*
%TO.P,F2,2*%
%TO.N,+3V3*%
X39050000Y-67900000D03*
%TD*%
D12*
%TO.P,J5,1*%
%TO.N,GND*%
X80960000Y-40000000D03*
D14*
%TO.P,J5,2*%
%TO.N,+3V3*%
X83500000Y-40000000D03*
%TO.P,J5,3*%
%TO.N,RADIO1_FLEXA*%
X80960000Y-42540000D03*
%TO.P,J5,4*%
%TO.N,RADIO1_CS*%
X83500000Y-42540000D03*
%TO.P,J5,5*%
%TO.N,SPI_SCK*%
X80960000Y-45080000D03*
%TO.P,J5,6*%
%TO.N,SPI_MOSI*%
X83500000Y-45080000D03*
%TO.P,J5,7*%
%TO.N,SPI_MISO*%
X80960000Y-47620000D03*
%TO.P,J5,8*%
%TO.N,RADIO1_FLEXB*%
X83500000Y-47620000D03*
%TD*%
D12*
%TO.P,J1,1*%
%TO.N,+3V3_IN*%
X47290000Y-32300000D03*
D14*
%TO.P,J1,2*%
%TO.N,+5V_IN*%
X47290000Y-34840000D03*
%TO.P,J1,3*%
%TO.N,UART3_RX*%
X44750000Y-32300000D03*
%TO.P,J1,4*%
%TO.N,+5V_IN*%
X44750000Y-34840000D03*
%TO.P,J1,5*%
%TO.N,UART3_TX*%
X42210000Y-32300000D03*
%TO.P,J1,6*%
%TO.N,GND*%
X42210000Y-34840000D03*
%TO.P,J1,7*%
%TO.N,A7S_U2TX*%
X39670000Y-32300000D03*
%TO.P,J1,8*%
%TO.N,CONSOLE_TX*%
X39670000Y-34840000D03*
%TO.P,J1,9*%
%TO.N,GND*%
X37130000Y-32300000D03*
%TO.P,J1,10*%
%TO.N,CONSOLE_RX*%
X37130000Y-34840000D03*
%TO.P,J1,11*%
%TO.N,A7S_U2RX*%
X34590000Y-32300000D03*
%TO.P,J1,12*%
%TO.N,N/C*%
X34590000Y-34840000D03*
%TO.P,J1,13*%
X32050000Y-32300000D03*
%TO.P,J1,14*%
%TO.N,GND*%
X32050000Y-34840000D03*
%TO.P,J1,15*%
%TO.N,N/C*%
X29510000Y-32300000D03*
%TO.P,J1,16*%
%TO.N,RADIO1_CS*%
X29510000Y-34840000D03*
%TO.P,J1,17*%
%TO.N,+3V3_IN*%
X26970000Y-32300000D03*
%TO.P,J1,18*%
%TO.N,RADIO1_FLEXB*%
X26970000Y-34840000D03*
%TO.P,J1,19*%
%TO.N,SPI_MOSI*%
X24430000Y-32300000D03*
%TO.P,J1,20*%
%TO.N,GND*%
X24430000Y-34840000D03*
%TO.P,J1,21*%
%TO.N,SPI_MISO*%
X21890000Y-32300000D03*
%TO.P,J1,22*%
%TO.N,N/C*%
X21890000Y-34840000D03*
%TO.P,J1,23*%
%TO.N,SPI_SCK*%
X19350000Y-32300000D03*
%TO.P,J1,24*%
%TO.N,TFT_CS*%
X19350000Y-34840000D03*
%TO.P,J1,25*%
%TO.N,GND*%
X16810000Y-32300000D03*
%TO.P,J1,26*%
%TO.N,TFT_DC*%
X16810000Y-34840000D03*
%TO.P,J1,27*%
%TO.N,I2C_SDA*%
X14270000Y-32300000D03*
%TO.P,J1,28*%
%TO.N,I2C_SCK*%
X14270000Y-34840000D03*
%TO.P,J1,29*%
%TO.N,TFT_RST*%
X11730000Y-32300000D03*
%TO.P,J1,30*%
%TO.N,GND*%
X11730000Y-34840000D03*
%TD*%
D16*
%TO.N,CONSOLE_RX*%
X37310000Y-62980100D03*
%TO.N,BTN1*%
X61750000Y-57536000D03*
%TO.N,CONSOLE_TX*%
X41150300Y-64864400D03*
%TO.N,SPI_MOSI*%
X23455400Y-22426900D03*
%TO.N,SPI_MISO*%
X18290100Y-26639700D03*
%TO.N,SPARE0*%
X7697700Y-73921900D03*
%TO.N,SPARE1*%
X10854900Y-76984600D03*
%TO.N,+3V3*%
X59247200Y-38735700D03*
%TO.N,SPARE3*%
X40493200Y-68774700D03*
%TO.N,RP_3V3*%
X41699000Y-66306900D03*
%TO.N,BTN5*%
X60117100Y-57775000D03*
%TO.N,BTN6*%
X79580000Y-58379200D03*
%TO.N,RADIO2_AUX*%
X32113300Y-36712600D03*
%TO.N,A7S_U2RX*%
X42970700Y-35991700D03*
%TO.N,+5V_IN*%
X37564800Y-67063300D03*
%TO.N,RADIO1_AUX*%
X71627900Y-65654000D03*
X29140700Y-63587600D03*
%TO.N,RADIO2_CS*%
X40257800Y-72302700D03*
%TO.N,RADIO2_FLEXB*%
X39097600Y-71589200D03*
%TO.N,RADIO1_FLEXA*%
X72016900Y-45008700D03*
%TD*%
%TO.N,CONSOLE_RX*%
D17*
X37130000Y-34840000D02*
X37310000Y-35020000D01*
X37310000Y-35020000D02*
X37310000Y-62980100D01*
%TO.N,BTN2*%
X32230000Y-50190000D02*
X32230000Y-77150000D01*
X42650000Y-78065900D02*
X43450000Y-78865900D01*
X43450000Y-82450000D02*
X46750000Y-85750000D01*
X36040000Y-46380000D02*
X32230000Y-50190000D01*
X32527900Y-80414700D02*
X33290000Y-79652600D01*
X30854900Y-78525100D02*
X30854900Y-79760300D01*
X43450000Y-78865900D02*
X43450000Y-82450000D01*
X30854900Y-79760300D02*
X31509300Y-80414700D01*
X31509300Y-80414700D02*
X32527900Y-80414700D01*
X32230000Y-77150000D02*
X30854900Y-78525100D01*
X34096200Y-78065900D02*
X42650000Y-78065900D01*
X33290000Y-79652600D02*
X33290000Y-78872100D01*
X33290000Y-78872100D02*
X34096200Y-78065900D01*
%TO.N,GND*%
X33320000Y-33570000D02*
X35860000Y-33570000D01*
X73228300Y-27771700D02*
X73228300Y-27000000D01*
X42210000Y-34187200D02*
X40942800Y-32920000D01*
X42300000Y-34930000D02*
X42210000Y-34840000D01*
X39640000Y-83140000D02*
X46750000Y-90250000D01*
X40942800Y-32920000D02*
X40942800Y-31537200D01*
X3149300Y-78029300D02*
X4500000Y-79380000D01*
X47480000Y-26151700D02*
X46328300Y-26151700D01*
X47480000Y-25000000D02*
X47480000Y-26151700D01*
X46328300Y-26151700D02*
X40942800Y-31537200D01*
X42300000Y-60440000D02*
X42300000Y-34930000D01*
X26940000Y-79260000D02*
X26940000Y-85440000D01*
X82120000Y-82460000D02*
X84000000Y-80580000D01*
X74380000Y-27000000D02*
X73228300Y-27000000D01*
X39640000Y-79260000D02*
X39640000Y-83140000D01*
X57000000Y-52000000D02*
X57000000Y-44000000D01*
X26940000Y-85440000D02*
X31750000Y-90250000D01*
X3149300Y-43880700D02*
X3149300Y-78029300D01*
X41120000Y-61620000D02*
X42300000Y-60440000D01*
X40550800Y-31145200D02*
X38284800Y-31145200D01*
X57000000Y-44000000D02*
X73228300Y-27771700D01*
X82120000Y-90500000D02*
X82120000Y-82460000D01*
X35860000Y-33570000D02*
X37130000Y-32300000D01*
X40942800Y-31537200D02*
X40550800Y-31145200D01*
X5500000Y-41530000D02*
X3149300Y-43880700D01*
X38284800Y-31145200D02*
X37130000Y-32300000D01*
X42210000Y-34840000D02*
X42210000Y-34187200D01*
X32050000Y-34840000D02*
X33320000Y-33570000D01*
%TO.N,BTN1*%
X61750000Y-85750000D02*
X61750000Y-57536000D01*
%TO.N,BTN4*%
X18050000Y-77058400D02*
X20596100Y-74512300D01*
X24704800Y-64257300D02*
X24704800Y-56002900D01*
X16750000Y-85750000D02*
X18050000Y-84450000D01*
X25105100Y-52234900D02*
X30960000Y-46380000D01*
X20596100Y-74512300D02*
X20596100Y-68366000D01*
X25105100Y-55602600D02*
X25105100Y-52234900D01*
X20596100Y-68366000D02*
X24704800Y-64257300D01*
X18050000Y-84450000D02*
X18050000Y-77058400D01*
X24704800Y-56002900D02*
X25105100Y-55602600D01*
%TO.N,CONSOLE_TX*%
X39850000Y-35020000D02*
X39850000Y-63564100D01*
X39850000Y-63564100D02*
X41150300Y-64864400D01*
X39670000Y-34840000D02*
X39850000Y-35020000D01*
%TO.N,BTN3*%
X29757100Y-77334800D02*
X29757100Y-51474700D01*
X28282900Y-82282900D02*
X28282900Y-78809000D01*
X28282900Y-78809000D02*
X29757100Y-77334800D01*
X29757100Y-51474700D02*
X33500000Y-47731800D01*
X31750000Y-85750000D02*
X28282900Y-82282900D01*
X33500000Y-47731800D02*
X33500000Y-46380000D01*
%TO.N,+5V*%
X6840000Y-26151700D02*
X5500000Y-27491700D01*
X5500000Y-27491700D02*
X5500000Y-38990000D01*
X6840000Y-25000000D02*
X6840000Y-26151700D01*
%TO.N,TFT_RST*%
X5500000Y-46610000D02*
X10317300Y-41792700D01*
X10317300Y-33712700D02*
X11730000Y-32300000D01*
X10317300Y-41792700D02*
X10317300Y-33712700D01*
%TO.N,TFT_DC*%
X16810000Y-34840000D02*
X16810000Y-37840000D01*
X16810000Y-37840000D02*
X5500000Y-49150000D01*
%TO.N,SPI_MOSI*%
X5500000Y-51690000D02*
X4384800Y-51690000D01*
X23455400Y-31325400D02*
X23455400Y-22426900D01*
X80730000Y-25730000D02*
X79460000Y-24460000D01*
X3967800Y-65397800D02*
X3967800Y-52107000D01*
X9915600Y-26687300D02*
X9380000Y-26151700D01*
X83500000Y-45080000D02*
X84659800Y-43920200D01*
X5365600Y-45171700D02*
X5963900Y-45171700D01*
X4384800Y-46152500D02*
X5365600Y-45171700D01*
X3967800Y-52107000D02*
X4384800Y-51690000D01*
X5500000Y-66930000D02*
X3967800Y-65397800D01*
X84659800Y-43920200D02*
X84659800Y-27968000D01*
X9380000Y-25000000D02*
X9380000Y-26151700D01*
X4384800Y-51690000D02*
X4384800Y-46152500D01*
X82421800Y-25730000D02*
X80730000Y-25730000D01*
X84659800Y-27968000D02*
X82421800Y-25730000D01*
X24430000Y-32300000D02*
X23455400Y-31325400D01*
X9915600Y-41220000D02*
X9915600Y-26687300D01*
X5963900Y-45171700D02*
X9915600Y-41220000D01*
%TO.N,SPI_SCK*%
X18080000Y-33570000D02*
X18080000Y-41650000D01*
X5500000Y-61850000D02*
X4371000Y-60721000D01*
X17000000Y-29950000D02*
X19350000Y-32300000D01*
X79460000Y-43580000D02*
X80960000Y-45080000D01*
X18080000Y-41650000D02*
X5500000Y-54230000D01*
X19350000Y-32300000D02*
X18080000Y-33570000D01*
X17000000Y-26151700D02*
X17000000Y-29950000D01*
X17000000Y-25000000D02*
X17000000Y-26151700D01*
X4371000Y-60721000D02*
X4371000Y-55359000D01*
X79460000Y-27000000D02*
X79460000Y-43580000D01*
X4371000Y-55359000D02*
X5500000Y-54230000D01*
%TO.N,SPI_MISO*%
X82115000Y-46465000D02*
X80960000Y-47620000D01*
X5500000Y-69470000D02*
X20620000Y-54350000D01*
X20620000Y-32300000D02*
X21890000Y-32300000D01*
X20620000Y-28969600D02*
X18290100Y-26639700D01*
X20620000Y-32300000D02*
X20620000Y-28969600D01*
X82115000Y-27115000D02*
X82115000Y-46465000D01*
X20620000Y-54350000D02*
X20620000Y-32300000D01*
X82000000Y-27000000D02*
X82115000Y-27115000D01*
%TO.N,SPARE0*%
X5008500Y-42968300D02*
X3551000Y-44425800D01*
X9513900Y-39082900D02*
X5628500Y-42968300D01*
X5789600Y-70740000D02*
X7697700Y-72648100D01*
X5628500Y-42968300D02*
X5008500Y-42968300D01*
X8214900Y-29954400D02*
X9513900Y-31253400D01*
X13308300Y-25000000D02*
X13308300Y-24712100D01*
X3551000Y-44425800D02*
X3551000Y-69109400D01*
X13308300Y-24712100D02*
X12434900Y-23838700D01*
X12434900Y-23838700D02*
X8866500Y-23838700D01*
X5181600Y-70740000D02*
X5789600Y-70740000D01*
X14460000Y-25000000D02*
X13308300Y-25000000D01*
X8214900Y-24490300D02*
X8214900Y-29954400D01*
X9513900Y-31253400D02*
X9513900Y-39082900D01*
X3551000Y-69109400D02*
X5181600Y-70740000D01*
X7697700Y-72648100D02*
X7697700Y-73921900D01*
X8866500Y-23838700D02*
X8214900Y-24490300D01*
%TO.N,SPARE1*%
X23545400Y-52730000D02*
X22772600Y-52730000D01*
X24301700Y-54514900D02*
X24301700Y-53486300D01*
X22772600Y-52730000D02*
X21954400Y-51911800D01*
X23055200Y-40330100D02*
X23055200Y-31836400D01*
X21954400Y-41430900D02*
X23055200Y-40330100D01*
X22791300Y-55270000D02*
X23546600Y-55270000D01*
X23055200Y-31836400D02*
X22858800Y-31640000D01*
X24301700Y-53486300D02*
X23545400Y-52730000D01*
X10854900Y-67206400D02*
X22791300Y-55270000D01*
X22858800Y-29470500D02*
X19540000Y-26151700D01*
X22858800Y-31640000D02*
X22858800Y-29470500D01*
X21954400Y-51911800D02*
X21954400Y-41430900D01*
X19540000Y-25000000D02*
X19540000Y-26151700D01*
X10854900Y-76984600D02*
X10854900Y-67206400D01*
X23546600Y-55270000D02*
X24301700Y-54514900D01*
%TO.N,SPARE2*%
X23590200Y-60292800D02*
X24301700Y-59581300D01*
X22080000Y-22897700D02*
X22080000Y-25000000D01*
X24703400Y-55436200D02*
X24703400Y-37789600D01*
X20073000Y-70887000D02*
X20073000Y-63254400D01*
X25770200Y-25749800D02*
X25846800Y-25673200D01*
X25846800Y-25673200D02*
X25846800Y-23967200D01*
X23034600Y-60292800D02*
X23590200Y-60292800D01*
X25770200Y-36722800D02*
X25770200Y-25749800D01*
X25846800Y-23967200D02*
X23704600Y-21825000D01*
X23152700Y-21825000D02*
X22080000Y-22897700D01*
X23704600Y-21825000D02*
X23152700Y-21825000D01*
X24301700Y-59581300D02*
X24301700Y-55837900D01*
X20073000Y-63254400D02*
X23034600Y-60292800D01*
X11700000Y-79260000D02*
X20073000Y-70887000D01*
X24703400Y-37789600D02*
X25770200Y-36722800D01*
X24301700Y-55837900D02*
X24703400Y-55436200D01*
%TO.N,+3V3*%
X52000000Y-52000000D02*
X52000000Y-44000000D01*
X52000000Y-58118800D02*
X44751100Y-65367700D01*
X41850500Y-68268300D02*
X40529400Y-69589400D01*
X39050000Y-68192600D02*
X39050000Y-67900000D01*
X44751100Y-65367700D02*
X44751100Y-65652800D01*
X43119200Y-67760300D02*
X42611200Y-68268300D01*
X42611200Y-68268300D02*
X41850500Y-68268300D01*
X44415600Y-66554200D02*
X43209500Y-67760300D01*
X52000000Y-52000000D02*
X52000000Y-58118800D01*
X73522900Y-24460000D02*
X74380000Y-24460000D01*
X44415600Y-65988300D02*
X44415600Y-66554200D01*
X40446800Y-69589400D02*
X39050000Y-68192600D01*
X59247200Y-38735700D02*
X73522900Y-24460000D01*
X44751100Y-65652800D02*
X44415600Y-65988300D01*
X40529400Y-69589400D02*
X40446800Y-69589400D01*
X43209500Y-67760300D02*
X43119200Y-67760300D01*
%TO.N,UART3_TX*%
X47357300Y-27152700D02*
X49524100Y-27152700D01*
X49524100Y-27152700D02*
X51408300Y-25268500D01*
X42210000Y-32300000D02*
X47357300Y-27152700D01*
X51408300Y-25268500D02*
X51408300Y-25000000D01*
X52560000Y-25000000D02*
X51408300Y-25000000D01*
%TO.N,UART3_RX*%
X55100000Y-25000000D02*
X53948300Y-25000000D01*
X53948300Y-25268500D02*
X53948300Y-25000000D01*
X51500100Y-27716700D02*
X53948300Y-25268500D01*
X49333300Y-27716700D02*
X51500100Y-27716700D01*
X44750000Y-32300000D02*
X49333300Y-27716700D01*
%TO.N,SPARE3*%
X46186300Y-63083700D02*
X44232800Y-65037200D01*
X44349400Y-65153900D02*
X44349400Y-65486500D01*
X46386300Y-63083700D02*
X46186300Y-63083700D01*
X62720000Y-25000000D02*
X62720000Y-27942600D01*
X48009300Y-61460700D02*
X46386300Y-63083700D01*
X42444900Y-67866600D02*
X41401300Y-67866600D01*
X44349400Y-65486500D02*
X43937500Y-65898400D01*
X44232800Y-65037200D02*
X44232800Y-65037300D01*
X43937500Y-65981000D02*
X44013900Y-66057400D01*
X44232800Y-65037300D02*
X44349400Y-65153900D01*
X43043200Y-67358600D02*
X42952900Y-67358600D01*
X48009300Y-42653300D02*
X48009300Y-61460700D01*
X44013900Y-66057400D02*
X44013900Y-66387900D01*
X44013900Y-66387900D02*
X43043200Y-67358600D01*
X62720000Y-27942600D02*
X48009300Y-42653300D01*
X43937500Y-65898400D02*
X43937500Y-65981000D01*
X41401300Y-67866600D02*
X40493200Y-68774700D01*
X42952900Y-67358600D02*
X42444900Y-67866600D01*
%TO.N,RP_3V3*%
X38580000Y-61620000D02*
X38580000Y-63187900D01*
X38580000Y-63187900D02*
X41699000Y-66306900D01*
%TO.N,BTN5*%
X60957900Y-56934200D02*
X60117100Y-57775000D01*
X77040000Y-90500000D02*
X77040000Y-71924300D01*
X77040000Y-71924300D02*
X62049900Y-56934200D01*
X62049900Y-56934200D02*
X60957900Y-56934200D01*
%TO.N,BTN6*%
X79580000Y-90500000D02*
X79580000Y-58379200D01*
%TO.N,ENC_A*%
X4500000Y-85848300D02*
X4787900Y-85848300D01*
X4787900Y-85848300D02*
X10145600Y-80490600D01*
X17605800Y-71652600D02*
X17605800Y-64624200D01*
X10145600Y-80490600D02*
X10145600Y-79112800D01*
X10145600Y-79112800D02*
X17605800Y-71652600D01*
X17605800Y-64624200D02*
X23150000Y-59080000D01*
X4500000Y-87000000D02*
X4500000Y-85848300D01*
%TO.N,ENC_B*%
X11456600Y-77233800D02*
X11456600Y-68233400D01*
X11456600Y-68233400D02*
X23150000Y-56540000D01*
X4500000Y-84115800D02*
X11029500Y-77586300D01*
X11104100Y-77586300D02*
X11456600Y-77233800D01*
X11029500Y-77586300D02*
X11104100Y-77586300D01*
X4500000Y-84460000D02*
X4500000Y-84115800D01*
%TO.N,ENC_SW*%
X7907000Y-74523600D02*
X7946900Y-74523600D01*
X5688300Y-80731700D02*
X5688300Y-76742300D01*
X8378000Y-68772000D02*
X23150000Y-54000000D01*
X4500000Y-81920000D02*
X5688300Y-80731700D01*
X8378000Y-74092500D02*
X8378000Y-68772000D01*
X7946900Y-74523600D02*
X8378000Y-74092500D01*
X5688300Y-76742300D02*
X7907000Y-74523600D01*
%TO.N,RADIO2_AUX*%
X27150000Y-64597700D02*
X27150000Y-52447200D01*
X32113300Y-47483900D02*
X32113300Y-36712600D01*
X19320000Y-79260000D02*
X24332700Y-74247300D01*
X27150000Y-52447200D02*
X32113300Y-47483900D01*
X24332700Y-67415000D02*
X27150000Y-64597700D01*
X24332700Y-74247300D02*
X24332700Y-67415000D01*
%TO.N,A7S_U2RX*%
X43660000Y-46380000D02*
X42970700Y-45690700D01*
X42970700Y-45690700D02*
X42970700Y-35991700D01*
%TO.N,A7S_U2TX*%
X40868100Y-46128100D02*
X41120000Y-46380000D01*
X39670000Y-32300000D02*
X40868100Y-33498100D01*
X40868100Y-33498100D02*
X40868100Y-46128100D01*
%TO.N,+5V_IN*%
X42342000Y-67401400D02*
X40603000Y-67401400D01*
X40603000Y-67401400D02*
X39776200Y-66574600D01*
X43806300Y-64895700D02*
X43806300Y-65178800D01*
X47290000Y-34840000D02*
X47290000Y-61512000D01*
X43906400Y-65278900D02*
X43906400Y-65361500D01*
X47290000Y-61512000D02*
X46120000Y-62682000D01*
X39776200Y-66574600D02*
X38053500Y-66574600D01*
X43520200Y-66131700D02*
X43570900Y-66182400D01*
X46020000Y-62682000D02*
X43806300Y-64895700D01*
X43570900Y-66262900D02*
X42876900Y-66956900D01*
X43906400Y-65361500D02*
X43520200Y-65747700D01*
X46120000Y-62682000D02*
X46020000Y-62682000D01*
X43570900Y-66182400D02*
X43570900Y-66262900D01*
X38053500Y-66574600D02*
X37564800Y-67063300D01*
X43520200Y-65747700D02*
X43520200Y-66131700D01*
X42876900Y-66956900D02*
X42786500Y-66956900D01*
X42786500Y-66956900D02*
X42342000Y-67401400D01*
X43806300Y-65178800D02*
X43906400Y-65278900D01*
%TO.N,RADIO1_AUX*%
X21860000Y-79260000D02*
X29140700Y-71979300D01*
X29140700Y-71979300D02*
X29140700Y-63587600D01*
X76460000Y-60821900D02*
X71627900Y-65654000D01*
X76460000Y-40040000D02*
X76460000Y-60821900D01*
%TO.N,RADIO2_FLEXA*%
X43034100Y-69071700D02*
X42468200Y-69071700D01*
X76920000Y-27000000D02*
X68459600Y-35460400D01*
X32279900Y-79260000D02*
X32020000Y-79260000D01*
X68459600Y-35460400D02*
X68459600Y-43646200D01*
X42468200Y-69071700D02*
X32279900Y-79260000D01*
X68459600Y-43646200D02*
X43034100Y-69071700D01*
%TO.N,RADIO2_CS*%
X78118000Y-25658000D02*
X76920000Y-24460000D01*
X40371100Y-72302700D02*
X78118000Y-34555800D01*
X40257800Y-72302700D02*
X40371100Y-72302700D01*
X78118000Y-34555800D02*
X78118000Y-25658000D01*
%TO.N,RADIO2_FLEXB*%
X75650000Y-24074600D02*
X76441600Y-23283000D01*
X53300500Y-45899400D02*
X73469900Y-25730000D01*
X43285500Y-68162000D02*
X43375800Y-68162000D01*
X42777500Y-68670000D02*
X43285500Y-68162000D01*
X80823000Y-23283000D02*
X82000000Y-24460000D01*
X41735000Y-68951800D02*
X42020100Y-68951800D01*
X42020100Y-68951800D02*
X42301900Y-68670000D01*
X76441600Y-23283000D02*
X80823000Y-23283000D01*
X43375800Y-68162000D02*
X44817300Y-66720500D01*
X53300500Y-57671400D02*
X53300500Y-45899400D01*
X44817300Y-66154600D02*
X53300500Y-57671400D01*
X44817300Y-66720500D02*
X44817300Y-66154600D01*
X42301900Y-68670000D02*
X42777500Y-68670000D01*
X74759400Y-25730000D02*
X75650000Y-24839400D01*
X75650000Y-24839400D02*
X75650000Y-24074600D01*
X73469900Y-25730000D02*
X74759400Y-25730000D01*
X39097600Y-71589200D02*
X41735000Y-68951800D01*
%TO.N,RADIO1_FLEXA*%
X47260000Y-69765600D02*
X47260000Y-79260000D01*
X72016900Y-45008700D02*
X47260000Y-69765600D01*
%TO.N,+3V3_IN*%
X43067900Y-65841300D02*
X41957300Y-66951900D01*
X47290000Y-32300000D02*
X47290000Y-33451700D01*
X41957300Y-66951900D02*
X40775600Y-66951900D01*
X47002100Y-33451700D02*
X46020000Y-34433800D01*
X36877100Y-66172900D02*
X33950000Y-69100000D01*
X43067900Y-65066100D02*
X43067900Y-65841300D01*
X46020000Y-34433800D02*
X46020000Y-62114000D01*
X47290000Y-33451700D02*
X47002100Y-33451700D01*
X46020000Y-62114000D02*
X43067900Y-65066100D01*
X40775600Y-66951900D02*
X39996600Y-66172900D01*
X39996600Y-66172900D02*
X36877100Y-66172900D01*
%TD*%
M02*
