%TF.GenerationSoftware,KiCad,Pcbnew,10.0.3*%
%TF.CreationDate,2026-07-08T12:10:21-04:00*%
%TF.ProjectId,a7s_backplane_rev2,6137735f-6261-4636-9b70-6c616e655f72,rev?*%
%TF.SameCoordinates,Original*%
%TF.FileFunction,AssemblyDrawing,Bot*%
%FSLAX46Y46*%
G04 Gerber Fmt 4.6, Leading zero omitted, Abs format (unit mm)*
G04 Created by KiCad (PCBNEW 10.0.3) date 2026-07-08 12:10:21*
%MOMM*%
%LPD*%
G01*
G04 APERTURE LIST*
%ADD10C,0.150000*%
%ADD11C,0.100000*%
%ADD12C,0.120000*%
G04 APERTURE END LIST*
D10*
X23933922Y-19200180D02*
X24505350Y-19200180D01*
X24219636Y-18200180D02*
X24219636Y-19200180D01*
X24838684Y-18200180D02*
X24838684Y-19200180D01*
X25267255Y-18200180D02*
X25267255Y-18723990D01*
X25267255Y-18723990D02*
X25219636Y-18819228D01*
X25219636Y-18819228D02*
X25124398Y-18866847D01*
X25124398Y-18866847D02*
X24981541Y-18866847D01*
X24981541Y-18866847D02*
X24886303Y-18819228D01*
X24886303Y-18819228D02*
X24838684Y-18771609D01*
X25743446Y-18200180D02*
X25743446Y-18866847D01*
X25743446Y-19200180D02*
X25695827Y-19152561D01*
X25695827Y-19152561D02*
X25743446Y-19104942D01*
X25743446Y-19104942D02*
X25791065Y-19152561D01*
X25791065Y-19152561D02*
X25743446Y-19200180D01*
X25743446Y-19200180D02*
X25743446Y-19104942D01*
X26172017Y-18247800D02*
X26267255Y-18200180D01*
X26267255Y-18200180D02*
X26457731Y-18200180D01*
X26457731Y-18200180D02*
X26552969Y-18247800D01*
X26552969Y-18247800D02*
X26600588Y-18343038D01*
X26600588Y-18343038D02*
X26600588Y-18390657D01*
X26600588Y-18390657D02*
X26552969Y-18485895D01*
X26552969Y-18485895D02*
X26457731Y-18533514D01*
X26457731Y-18533514D02*
X26314874Y-18533514D01*
X26314874Y-18533514D02*
X26219636Y-18581133D01*
X26219636Y-18581133D02*
X26172017Y-18676371D01*
X26172017Y-18676371D02*
X26172017Y-18723990D01*
X26172017Y-18723990D02*
X26219636Y-18819228D01*
X26219636Y-18819228D02*
X26314874Y-18866847D01*
X26314874Y-18866847D02*
X26457731Y-18866847D01*
X26457731Y-18866847D02*
X26552969Y-18819228D01*
X27743446Y-18247800D02*
X27886303Y-18200180D01*
X27886303Y-18200180D02*
X28124398Y-18200180D01*
X28124398Y-18200180D02*
X28219636Y-18247800D01*
X28219636Y-18247800D02*
X28267255Y-18295419D01*
X28267255Y-18295419D02*
X28314874Y-18390657D01*
X28314874Y-18390657D02*
X28314874Y-18485895D01*
X28314874Y-18485895D02*
X28267255Y-18581133D01*
X28267255Y-18581133D02*
X28219636Y-18628752D01*
X28219636Y-18628752D02*
X28124398Y-18676371D01*
X28124398Y-18676371D02*
X27933922Y-18723990D01*
X27933922Y-18723990D02*
X27838684Y-18771609D01*
X27838684Y-18771609D02*
X27791065Y-18819228D01*
X27791065Y-18819228D02*
X27743446Y-18914466D01*
X27743446Y-18914466D02*
X27743446Y-19009704D01*
X27743446Y-19009704D02*
X27791065Y-19104942D01*
X27791065Y-19104942D02*
X27838684Y-19152561D01*
X27838684Y-19152561D02*
X27933922Y-19200180D01*
X27933922Y-19200180D02*
X28172017Y-19200180D01*
X28172017Y-19200180D02*
X28314874Y-19152561D01*
X28743446Y-18200180D02*
X28743446Y-18866847D01*
X28743446Y-19200180D02*
X28695827Y-19152561D01*
X28695827Y-19152561D02*
X28743446Y-19104942D01*
X28743446Y-19104942D02*
X28791065Y-19152561D01*
X28791065Y-19152561D02*
X28743446Y-19200180D01*
X28743446Y-19200180D02*
X28743446Y-19104942D01*
X29648207Y-18200180D02*
X29648207Y-19200180D01*
X29648207Y-18247800D02*
X29552969Y-18200180D01*
X29552969Y-18200180D02*
X29362493Y-18200180D01*
X29362493Y-18200180D02*
X29267255Y-18247800D01*
X29267255Y-18247800D02*
X29219636Y-18295419D01*
X29219636Y-18295419D02*
X29172017Y-18390657D01*
X29172017Y-18390657D02*
X29172017Y-18676371D01*
X29172017Y-18676371D02*
X29219636Y-18771609D01*
X29219636Y-18771609D02*
X29267255Y-18819228D01*
X29267255Y-18819228D02*
X29362493Y-18866847D01*
X29362493Y-18866847D02*
X29552969Y-18866847D01*
X29552969Y-18866847D02*
X29648207Y-18819228D01*
X30505350Y-18247800D02*
X30410112Y-18200180D01*
X30410112Y-18200180D02*
X30219636Y-18200180D01*
X30219636Y-18200180D02*
X30124398Y-18247800D01*
X30124398Y-18247800D02*
X30076779Y-18343038D01*
X30076779Y-18343038D02*
X30076779Y-18723990D01*
X30076779Y-18723990D02*
X30124398Y-18819228D01*
X30124398Y-18819228D02*
X30219636Y-18866847D01*
X30219636Y-18866847D02*
X30410112Y-18866847D01*
X30410112Y-18866847D02*
X30505350Y-18819228D01*
X30505350Y-18819228D02*
X30552969Y-18723990D01*
X30552969Y-18723990D02*
X30552969Y-18628752D01*
X30552969Y-18628752D02*
X30076779Y-18533514D01*
X31600589Y-19200180D02*
X32172017Y-19200180D01*
X31886303Y-18200180D02*
X31886303Y-19200180D01*
X32648208Y-18200180D02*
X32552970Y-18247800D01*
X32552970Y-18247800D02*
X32505351Y-18295419D01*
X32505351Y-18295419D02*
X32457732Y-18390657D01*
X32457732Y-18390657D02*
X32457732Y-18676371D01*
X32457732Y-18676371D02*
X32505351Y-18771609D01*
X32505351Y-18771609D02*
X32552970Y-18819228D01*
X32552970Y-18819228D02*
X32648208Y-18866847D01*
X32648208Y-18866847D02*
X32791065Y-18866847D01*
X32791065Y-18866847D02*
X32886303Y-18819228D01*
X32886303Y-18819228D02*
X32933922Y-18771609D01*
X32933922Y-18771609D02*
X32981541Y-18676371D01*
X32981541Y-18676371D02*
X32981541Y-18390657D01*
X32981541Y-18390657D02*
X32933922Y-18295419D01*
X32933922Y-18295419D02*
X32886303Y-18247800D01*
X32886303Y-18247800D02*
X32791065Y-18200180D01*
X32791065Y-18200180D02*
X32648208Y-18200180D01*
X33314875Y-18866847D02*
X33505351Y-18200180D01*
X33505351Y-18200180D02*
X33695827Y-18676371D01*
X33695827Y-18676371D02*
X33886303Y-18200180D01*
X33886303Y-18200180D02*
X34076779Y-18866847D01*
X34886303Y-18200180D02*
X34886303Y-18723990D01*
X34886303Y-18723990D02*
X34838684Y-18819228D01*
X34838684Y-18819228D02*
X34743446Y-18866847D01*
X34743446Y-18866847D02*
X34552970Y-18866847D01*
X34552970Y-18866847D02*
X34457732Y-18819228D01*
X34886303Y-18247800D02*
X34791065Y-18200180D01*
X34791065Y-18200180D02*
X34552970Y-18200180D01*
X34552970Y-18200180D02*
X34457732Y-18247800D01*
X34457732Y-18247800D02*
X34410113Y-18343038D01*
X34410113Y-18343038D02*
X34410113Y-18438276D01*
X34410113Y-18438276D02*
X34457732Y-18533514D01*
X34457732Y-18533514D02*
X34552970Y-18581133D01*
X34552970Y-18581133D02*
X34791065Y-18581133D01*
X34791065Y-18581133D02*
X34886303Y-18628752D01*
X35362494Y-18200180D02*
X35362494Y-18866847D01*
X35362494Y-18676371D02*
X35410113Y-18771609D01*
X35410113Y-18771609D02*
X35457732Y-18819228D01*
X35457732Y-18819228D02*
X35552970Y-18866847D01*
X35552970Y-18866847D02*
X35648208Y-18866847D01*
X36410113Y-18200180D02*
X36410113Y-19200180D01*
X36410113Y-18247800D02*
X36314875Y-18200180D01*
X36314875Y-18200180D02*
X36124399Y-18200180D01*
X36124399Y-18200180D02*
X36029161Y-18247800D01*
X36029161Y-18247800D02*
X35981542Y-18295419D01*
X35981542Y-18295419D02*
X35933923Y-18390657D01*
X35933923Y-18390657D02*
X35933923Y-18676371D01*
X35933923Y-18676371D02*
X35981542Y-18771609D01*
X35981542Y-18771609D02*
X36029161Y-18819228D01*
X36029161Y-18819228D02*
X36124399Y-18866847D01*
X36124399Y-18866847D02*
X36314875Y-18866847D01*
X36314875Y-18866847D02*
X36410113Y-18819228D01*
X37981542Y-18723990D02*
X37648209Y-18723990D01*
X37648209Y-18200180D02*
X37648209Y-19200180D01*
X37648209Y-19200180D02*
X38124399Y-19200180D01*
X38648209Y-18200180D02*
X38552971Y-18247800D01*
X38552971Y-18247800D02*
X38505352Y-18343038D01*
X38505352Y-18343038D02*
X38505352Y-19200180D01*
X39029162Y-18200180D02*
X39029162Y-18866847D01*
X39029162Y-19200180D02*
X38981543Y-19152561D01*
X38981543Y-19152561D02*
X39029162Y-19104942D01*
X39029162Y-19104942D02*
X39076781Y-19152561D01*
X39076781Y-19152561D02*
X39029162Y-19200180D01*
X39029162Y-19200180D02*
X39029162Y-19104942D01*
X39505352Y-18866847D02*
X39505352Y-17866847D01*
X39505352Y-18819228D02*
X39600590Y-18866847D01*
X39600590Y-18866847D02*
X39791066Y-18866847D01*
X39791066Y-18866847D02*
X39886304Y-18819228D01*
X39886304Y-18819228D02*
X39933923Y-18771609D01*
X39933923Y-18771609D02*
X39981542Y-18676371D01*
X39981542Y-18676371D02*
X39981542Y-18390657D01*
X39981542Y-18390657D02*
X39933923Y-18295419D01*
X39933923Y-18295419D02*
X39886304Y-18247800D01*
X39886304Y-18247800D02*
X39791066Y-18200180D01*
X39791066Y-18200180D02*
X39600590Y-18200180D01*
X39600590Y-18200180D02*
X39505352Y-18247800D01*
X40410114Y-18866847D02*
X40410114Y-17866847D01*
X40410114Y-18819228D02*
X40505352Y-18866847D01*
X40505352Y-18866847D02*
X40695828Y-18866847D01*
X40695828Y-18866847D02*
X40791066Y-18819228D01*
X40791066Y-18819228D02*
X40838685Y-18771609D01*
X40838685Y-18771609D02*
X40886304Y-18676371D01*
X40886304Y-18676371D02*
X40886304Y-18390657D01*
X40886304Y-18390657D02*
X40838685Y-18295419D01*
X40838685Y-18295419D02*
X40791066Y-18247800D01*
X40791066Y-18247800D02*
X40695828Y-18200180D01*
X40695828Y-18200180D02*
X40505352Y-18200180D01*
X40505352Y-18200180D02*
X40410114Y-18247800D01*
X41695828Y-18247800D02*
X41600590Y-18200180D01*
X41600590Y-18200180D02*
X41410114Y-18200180D01*
X41410114Y-18200180D02*
X41314876Y-18247800D01*
X41314876Y-18247800D02*
X41267257Y-18343038D01*
X41267257Y-18343038D02*
X41267257Y-18723990D01*
X41267257Y-18723990D02*
X41314876Y-18819228D01*
X41314876Y-18819228D02*
X41410114Y-18866847D01*
X41410114Y-18866847D02*
X41600590Y-18866847D01*
X41600590Y-18866847D02*
X41695828Y-18819228D01*
X41695828Y-18819228D02*
X41743447Y-18723990D01*
X41743447Y-18723990D02*
X41743447Y-18628752D01*
X41743447Y-18628752D02*
X41267257Y-18533514D01*
X42172019Y-18200180D02*
X42172019Y-18866847D01*
X42172019Y-18676371D02*
X42219638Y-18771609D01*
X42219638Y-18771609D02*
X42267257Y-18819228D01*
X42267257Y-18819228D02*
X42362495Y-18866847D01*
X42362495Y-18866847D02*
X42457733Y-18866847D01*
X84809523Y-70034819D02*
X84809523Y-70749104D01*
X84809523Y-70749104D02*
X84857142Y-70891961D01*
X84857142Y-70891961D02*
X84952380Y-70987200D01*
X84952380Y-70987200D02*
X85095237Y-71034819D01*
X85095237Y-71034819D02*
X85190475Y-71034819D01*
X84142856Y-70034819D02*
X83952380Y-70034819D01*
X83952380Y-70034819D02*
X83857142Y-70082438D01*
X83857142Y-70082438D02*
X83761904Y-70177676D01*
X83761904Y-70177676D02*
X83714285Y-70368152D01*
X83714285Y-70368152D02*
X83714285Y-70701485D01*
X83714285Y-70701485D02*
X83761904Y-70891961D01*
X83761904Y-70891961D02*
X83857142Y-70987200D01*
X83857142Y-70987200D02*
X83952380Y-71034819D01*
X83952380Y-71034819D02*
X84142856Y-71034819D01*
X84142856Y-71034819D02*
X84238094Y-70987200D01*
X84238094Y-70987200D02*
X84333332Y-70891961D01*
X84333332Y-70891961D02*
X84380951Y-70701485D01*
X84380951Y-70701485D02*
X84380951Y-70368152D01*
X84380951Y-70368152D02*
X84333332Y-70177676D01*
X84333332Y-70177676D02*
X84238094Y-70082438D01*
X84238094Y-70082438D02*
X84142856Y-70034819D01*
X83095237Y-70558628D02*
X83095237Y-71034819D01*
X83428570Y-70034819D02*
X83095237Y-70558628D01*
X83095237Y-70558628D02*
X82761904Y-70034819D01*
X83454819Y-77706666D02*
X84169104Y-77706666D01*
X84169104Y-77706666D02*
X84311961Y-77659047D01*
X84311961Y-77659047D02*
X84407200Y-77563809D01*
X84407200Y-77563809D02*
X84454819Y-77420952D01*
X84454819Y-77420952D02*
X84454819Y-77325714D01*
X83883390Y-78325714D02*
X83835771Y-78230476D01*
X83835771Y-78230476D02*
X83788152Y-78182857D01*
X83788152Y-78182857D02*
X83692914Y-78135238D01*
X83692914Y-78135238D02*
X83645295Y-78135238D01*
X83645295Y-78135238D02*
X83550057Y-78182857D01*
X83550057Y-78182857D02*
X83502438Y-78230476D01*
X83502438Y-78230476D02*
X83454819Y-78325714D01*
X83454819Y-78325714D02*
X83454819Y-78516190D01*
X83454819Y-78516190D02*
X83502438Y-78611428D01*
X83502438Y-78611428D02*
X83550057Y-78659047D01*
X83550057Y-78659047D02*
X83645295Y-78706666D01*
X83645295Y-78706666D02*
X83692914Y-78706666D01*
X83692914Y-78706666D02*
X83788152Y-78659047D01*
X83788152Y-78659047D02*
X83835771Y-78611428D01*
X83835771Y-78611428D02*
X83883390Y-78516190D01*
X83883390Y-78516190D02*
X83883390Y-78325714D01*
X83883390Y-78325714D02*
X83931009Y-78230476D01*
X83931009Y-78230476D02*
X83978628Y-78182857D01*
X83978628Y-78182857D02*
X84073866Y-78135238D01*
X84073866Y-78135238D02*
X84264342Y-78135238D01*
X84264342Y-78135238D02*
X84359580Y-78182857D01*
X84359580Y-78182857D02*
X84407200Y-78230476D01*
X84407200Y-78230476D02*
X84454819Y-78325714D01*
X84454819Y-78325714D02*
X84454819Y-78516190D01*
X84454819Y-78516190D02*
X84407200Y-78611428D01*
X84407200Y-78611428D02*
X84359580Y-78659047D01*
X84359580Y-78659047D02*
X84264342Y-78706666D01*
X84264342Y-78706666D02*
X84073866Y-78706666D01*
X84073866Y-78706666D02*
X83978628Y-78659047D01*
X83978628Y-78659047D02*
X83931009Y-78611428D01*
X83931009Y-78611428D02*
X83883390Y-78516190D01*
X84431009Y-88333333D02*
X84478628Y-88476190D01*
X84478628Y-88476190D02*
X84526247Y-88523809D01*
X84526247Y-88523809D02*
X84621485Y-88571428D01*
X84621485Y-88571428D02*
X84764342Y-88571428D01*
X84764342Y-88571428D02*
X84859580Y-88523809D01*
X84859580Y-88523809D02*
X84907200Y-88476190D01*
X84907200Y-88476190D02*
X84954819Y-88380952D01*
X84954819Y-88380952D02*
X84954819Y-88000000D01*
X84954819Y-88000000D02*
X83954819Y-88000000D01*
X83954819Y-88000000D02*
X83954819Y-88333333D01*
X83954819Y-88333333D02*
X84002438Y-88428571D01*
X84002438Y-88428571D02*
X84050057Y-88476190D01*
X84050057Y-88476190D02*
X84145295Y-88523809D01*
X84145295Y-88523809D02*
X84240533Y-88523809D01*
X84240533Y-88523809D02*
X84335771Y-88476190D01*
X84335771Y-88476190D02*
X84383390Y-88428571D01*
X84383390Y-88428571D02*
X84431009Y-88333333D01*
X84431009Y-88333333D02*
X84431009Y-88000000D01*
X83954819Y-88857143D02*
X83954819Y-89428571D01*
X84954819Y-89142857D02*
X83954819Y-89142857D01*
X84954819Y-89761905D02*
X83954819Y-89761905D01*
X83954819Y-89761905D02*
X84954819Y-90333333D01*
X84954819Y-90333333D02*
X83954819Y-90333333D01*
X83954819Y-91285714D02*
X83954819Y-90809524D01*
X83954819Y-90809524D02*
X84431009Y-90761905D01*
X84431009Y-90761905D02*
X84383390Y-90809524D01*
X84383390Y-90809524D02*
X84335771Y-90904762D01*
X84335771Y-90904762D02*
X84335771Y-91142857D01*
X84335771Y-91142857D02*
X84383390Y-91238095D01*
X84383390Y-91238095D02*
X84431009Y-91285714D01*
X84431009Y-91285714D02*
X84526247Y-91333333D01*
X84526247Y-91333333D02*
X84764342Y-91333333D01*
X84764342Y-91333333D02*
X84859580Y-91285714D01*
X84859580Y-91285714D02*
X84907200Y-91238095D01*
X84907200Y-91238095D02*
X84954819Y-91142857D01*
X84954819Y-91142857D02*
X84954819Y-90904762D01*
X84954819Y-90904762D02*
X84907200Y-90809524D01*
X84907200Y-90809524D02*
X84859580Y-90761905D01*
X85050057Y-91523810D02*
X85050057Y-92285714D01*
X83954819Y-92952381D02*
X83954819Y-92761905D01*
X83954819Y-92761905D02*
X84002438Y-92666667D01*
X84002438Y-92666667D02*
X84050057Y-92619048D01*
X84050057Y-92619048D02*
X84192914Y-92523810D01*
X84192914Y-92523810D02*
X84383390Y-92476191D01*
X84383390Y-92476191D02*
X84764342Y-92476191D01*
X84764342Y-92476191D02*
X84859580Y-92523810D01*
X84859580Y-92523810D02*
X84907200Y-92571429D01*
X84907200Y-92571429D02*
X84954819Y-92666667D01*
X84954819Y-92666667D02*
X84954819Y-92857143D01*
X84954819Y-92857143D02*
X84907200Y-92952381D01*
X84907200Y-92952381D02*
X84859580Y-93000000D01*
X84859580Y-93000000D02*
X84764342Y-93047619D01*
X84764342Y-93047619D02*
X84526247Y-93047619D01*
X84526247Y-93047619D02*
X84431009Y-93000000D01*
X84431009Y-93000000D02*
X84383390Y-92952381D01*
X84383390Y-92952381D02*
X84335771Y-92857143D01*
X84335771Y-92857143D02*
X84335771Y-92666667D01*
X84335771Y-92666667D02*
X84383390Y-92571429D01*
X84383390Y-92571429D02*
X84431009Y-92523810D01*
X84431009Y-92523810D02*
X84526247Y-92476191D01*
X80389523Y-89954819D02*
X80389523Y-90669104D01*
X80389523Y-90669104D02*
X80437142Y-90811961D01*
X80437142Y-90811961D02*
X80532380Y-90907200D01*
X80532380Y-90907200D02*
X80675237Y-90954819D01*
X80675237Y-90954819D02*
X80770475Y-90954819D01*
X79389523Y-90954819D02*
X79960951Y-90954819D01*
X79675237Y-90954819D02*
X79675237Y-89954819D01*
X79675237Y-89954819D02*
X79770475Y-90097676D01*
X79770475Y-90097676D02*
X79865713Y-90192914D01*
X79865713Y-90192914D02*
X79960951Y-90240533D01*
X78437142Y-90954819D02*
X79008570Y-90954819D01*
X78722856Y-90954819D02*
X78722856Y-89954819D01*
X78722856Y-89954819D02*
X78818094Y-90097676D01*
X78818094Y-90097676D02*
X78913332Y-90192914D01*
X78913332Y-90192914D02*
X79008570Y-90240533D01*
X56142856Y-40954819D02*
X56047618Y-40954819D01*
X56047618Y-40954819D02*
X55952380Y-41002438D01*
X55952380Y-41002438D02*
X55904761Y-41050057D01*
X55904761Y-41050057D02*
X55857142Y-41145295D01*
X55857142Y-41145295D02*
X55809523Y-41335771D01*
X55809523Y-41335771D02*
X55809523Y-41573866D01*
X55809523Y-41573866D02*
X55857142Y-41764342D01*
X55857142Y-41764342D02*
X55904761Y-41859580D01*
X55904761Y-41859580D02*
X55952380Y-41907200D01*
X55952380Y-41907200D02*
X56047618Y-41954819D01*
X56047618Y-41954819D02*
X56142856Y-41954819D01*
X56142856Y-41954819D02*
X56238094Y-41907200D01*
X56238094Y-41907200D02*
X56285713Y-41859580D01*
X56285713Y-41859580D02*
X56333332Y-41764342D01*
X56333332Y-41764342D02*
X56380951Y-41573866D01*
X56380951Y-41573866D02*
X56380951Y-41335771D01*
X56380951Y-41335771D02*
X56333332Y-41145295D01*
X56333332Y-41145295D02*
X56285713Y-41050057D01*
X56285713Y-41050057D02*
X56238094Y-41002438D01*
X56238094Y-41002438D02*
X56142856Y-40954819D01*
X55380951Y-41859580D02*
X55333332Y-41907200D01*
X55333332Y-41907200D02*
X55380951Y-41954819D01*
X55380951Y-41954819D02*
X55428570Y-41907200D01*
X55428570Y-41907200D02*
X55380951Y-41859580D01*
X55380951Y-41859580D02*
X55380951Y-41954819D01*
X54380952Y-41954819D02*
X54952380Y-41954819D01*
X54666666Y-41954819D02*
X54666666Y-40954819D01*
X54666666Y-40954819D02*
X54761904Y-41097676D01*
X54761904Y-41097676D02*
X54857142Y-41192914D01*
X54857142Y-41192914D02*
X54952380Y-41240533D01*
X53523809Y-41288152D02*
X53523809Y-41954819D01*
X53952380Y-41288152D02*
X53952380Y-41811961D01*
X53952380Y-41811961D02*
X53904761Y-41907200D01*
X53904761Y-41907200D02*
X53809523Y-41954819D01*
X53809523Y-41954819D02*
X53666666Y-41954819D01*
X53666666Y-41954819D02*
X53571428Y-41907200D01*
X53571428Y-41907200D02*
X53523809Y-41859580D01*
X52714285Y-41431009D02*
X53047618Y-41431009D01*
X53047618Y-41954819D02*
X53047618Y-40954819D01*
X53047618Y-40954819D02*
X52571428Y-40954819D01*
X56666666Y-46359580D02*
X56714285Y-46407200D01*
X56714285Y-46407200D02*
X56857142Y-46454819D01*
X56857142Y-46454819D02*
X56952380Y-46454819D01*
X56952380Y-46454819D02*
X57095237Y-46407200D01*
X57095237Y-46407200D02*
X57190475Y-46311961D01*
X57190475Y-46311961D02*
X57238094Y-46216723D01*
X57238094Y-46216723D02*
X57285713Y-46026247D01*
X57285713Y-46026247D02*
X57285713Y-45883390D01*
X57285713Y-45883390D02*
X57238094Y-45692914D01*
X57238094Y-45692914D02*
X57190475Y-45597676D01*
X57190475Y-45597676D02*
X57095237Y-45502438D01*
X57095237Y-45502438D02*
X56952380Y-45454819D01*
X56952380Y-45454819D02*
X56857142Y-45454819D01*
X56857142Y-45454819D02*
X56714285Y-45502438D01*
X56714285Y-45502438D02*
X56666666Y-45550057D01*
X56285713Y-45550057D02*
X56238094Y-45502438D01*
X56238094Y-45502438D02*
X56142856Y-45454819D01*
X56142856Y-45454819D02*
X55904761Y-45454819D01*
X55904761Y-45454819D02*
X55809523Y-45502438D01*
X55809523Y-45502438D02*
X55761904Y-45550057D01*
X55761904Y-45550057D02*
X55714285Y-45645295D01*
X55714285Y-45645295D02*
X55714285Y-45740533D01*
X55714285Y-45740533D02*
X55761904Y-45883390D01*
X55761904Y-45883390D02*
X56333332Y-46454819D01*
X56333332Y-46454819D02*
X55714285Y-46454819D01*
X5738094Y-76931009D02*
X5404761Y-76931009D01*
X5261904Y-77454819D02*
X5738094Y-77454819D01*
X5738094Y-77454819D02*
X5738094Y-76454819D01*
X5738094Y-76454819D02*
X5261904Y-76454819D01*
X4833332Y-77454819D02*
X4833332Y-76454819D01*
X4833332Y-76454819D02*
X4261904Y-77454819D01*
X4261904Y-77454819D02*
X4261904Y-76454819D01*
X3214285Y-77359580D02*
X3261904Y-77407200D01*
X3261904Y-77407200D02*
X3404761Y-77454819D01*
X3404761Y-77454819D02*
X3499999Y-77454819D01*
X3499999Y-77454819D02*
X3642856Y-77407200D01*
X3642856Y-77407200D02*
X3738094Y-77311961D01*
X3738094Y-77311961D02*
X3785713Y-77216723D01*
X3785713Y-77216723D02*
X3833332Y-77026247D01*
X3833332Y-77026247D02*
X3833332Y-76883390D01*
X3833332Y-76883390D02*
X3785713Y-76692914D01*
X3785713Y-76692914D02*
X3738094Y-76597676D01*
X3738094Y-76597676D02*
X3642856Y-76502438D01*
X3642856Y-76502438D02*
X3499999Y-76454819D01*
X3499999Y-76454819D02*
X3404761Y-76454819D01*
X3404761Y-76454819D02*
X3261904Y-76502438D01*
X3261904Y-76502438D02*
X3214285Y-76550057D01*
X3954819Y-82380476D02*
X4669104Y-82380476D01*
X4669104Y-82380476D02*
X4811961Y-82332857D01*
X4811961Y-82332857D02*
X4907200Y-82237619D01*
X4907200Y-82237619D02*
X4954819Y-82094762D01*
X4954819Y-82094762D02*
X4954819Y-81999524D01*
X4954819Y-83380476D02*
X4954819Y-82809048D01*
X4954819Y-83094762D02*
X3954819Y-83094762D01*
X3954819Y-83094762D02*
X4097676Y-82999524D01*
X4097676Y-82999524D02*
X4192914Y-82904286D01*
X4192914Y-82904286D02*
X4240533Y-82809048D01*
X3954819Y-83999524D02*
X3954819Y-84094762D01*
X3954819Y-84094762D02*
X4002438Y-84190000D01*
X4002438Y-84190000D02*
X4050057Y-84237619D01*
X4050057Y-84237619D02*
X4145295Y-84285238D01*
X4145295Y-84285238D02*
X4335771Y-84332857D01*
X4335771Y-84332857D02*
X4573866Y-84332857D01*
X4573866Y-84332857D02*
X4764342Y-84285238D01*
X4764342Y-84285238D02*
X4859580Y-84237619D01*
X4859580Y-84237619D02*
X4907200Y-84190000D01*
X4907200Y-84190000D02*
X4954819Y-84094762D01*
X4954819Y-84094762D02*
X4954819Y-83999524D01*
X4954819Y-83999524D02*
X4907200Y-83904286D01*
X4907200Y-83904286D02*
X4859580Y-83856667D01*
X4859580Y-83856667D02*
X4764342Y-83809048D01*
X4764342Y-83809048D02*
X4573866Y-83761429D01*
X4573866Y-83761429D02*
X4335771Y-83761429D01*
X4335771Y-83761429D02*
X4145295Y-83809048D01*
X4145295Y-83809048D02*
X4050057Y-83856667D01*
X4050057Y-83856667D02*
X4002438Y-83904286D01*
X4002438Y-83904286D02*
X3954819Y-83999524D01*
X56142856Y-48954819D02*
X56047618Y-48954819D01*
X56047618Y-48954819D02*
X55952380Y-49002438D01*
X55952380Y-49002438D02*
X55904761Y-49050057D01*
X55904761Y-49050057D02*
X55857142Y-49145295D01*
X55857142Y-49145295D02*
X55809523Y-49335771D01*
X55809523Y-49335771D02*
X55809523Y-49573866D01*
X55809523Y-49573866D02*
X55857142Y-49764342D01*
X55857142Y-49764342D02*
X55904761Y-49859580D01*
X55904761Y-49859580D02*
X55952380Y-49907200D01*
X55952380Y-49907200D02*
X56047618Y-49954819D01*
X56047618Y-49954819D02*
X56142856Y-49954819D01*
X56142856Y-49954819D02*
X56238094Y-49907200D01*
X56238094Y-49907200D02*
X56285713Y-49859580D01*
X56285713Y-49859580D02*
X56333332Y-49764342D01*
X56333332Y-49764342D02*
X56380951Y-49573866D01*
X56380951Y-49573866D02*
X56380951Y-49335771D01*
X56380951Y-49335771D02*
X56333332Y-49145295D01*
X56333332Y-49145295D02*
X56285713Y-49050057D01*
X56285713Y-49050057D02*
X56238094Y-49002438D01*
X56238094Y-49002438D02*
X56142856Y-48954819D01*
X55380951Y-49859580D02*
X55333332Y-49907200D01*
X55333332Y-49907200D02*
X55380951Y-49954819D01*
X55380951Y-49954819D02*
X55428570Y-49907200D01*
X55428570Y-49907200D02*
X55380951Y-49859580D01*
X55380951Y-49859580D02*
X55380951Y-49954819D01*
X54380952Y-49954819D02*
X54952380Y-49954819D01*
X54666666Y-49954819D02*
X54666666Y-48954819D01*
X54666666Y-48954819D02*
X54761904Y-49097676D01*
X54761904Y-49097676D02*
X54857142Y-49192914D01*
X54857142Y-49192914D02*
X54952380Y-49240533D01*
X53523809Y-49288152D02*
X53523809Y-49954819D01*
X53952380Y-49288152D02*
X53952380Y-49811961D01*
X53952380Y-49811961D02*
X53904761Y-49907200D01*
X53904761Y-49907200D02*
X53809523Y-49954819D01*
X53809523Y-49954819D02*
X53666666Y-49954819D01*
X53666666Y-49954819D02*
X53571428Y-49907200D01*
X53571428Y-49907200D02*
X53523809Y-49859580D01*
X52714285Y-49431009D02*
X53047618Y-49431009D01*
X53047618Y-49954819D02*
X53047618Y-48954819D01*
X53047618Y-48954819D02*
X52571428Y-48954819D01*
X54666666Y-52359580D02*
X54714285Y-52407200D01*
X54714285Y-52407200D02*
X54857142Y-52454819D01*
X54857142Y-52454819D02*
X54952380Y-52454819D01*
X54952380Y-52454819D02*
X55095237Y-52407200D01*
X55095237Y-52407200D02*
X55190475Y-52311961D01*
X55190475Y-52311961D02*
X55238094Y-52216723D01*
X55238094Y-52216723D02*
X55285713Y-52026247D01*
X55285713Y-52026247D02*
X55285713Y-51883390D01*
X55285713Y-51883390D02*
X55238094Y-51692914D01*
X55238094Y-51692914D02*
X55190475Y-51597676D01*
X55190475Y-51597676D02*
X55095237Y-51502438D01*
X55095237Y-51502438D02*
X54952380Y-51454819D01*
X54952380Y-51454819D02*
X54857142Y-51454819D01*
X54857142Y-51454819D02*
X54714285Y-51502438D01*
X54714285Y-51502438D02*
X54666666Y-51550057D01*
X53714285Y-52454819D02*
X54285713Y-52454819D01*
X53999999Y-52454819D02*
X53999999Y-51454819D01*
X53999999Y-51454819D02*
X54095237Y-51597676D01*
X54095237Y-51597676D02*
X54190475Y-51692914D01*
X54190475Y-51692914D02*
X54285713Y-51740533D01*
X78238095Y-30309580D02*
X78285714Y-30357200D01*
X78285714Y-30357200D02*
X78428571Y-30404819D01*
X78428571Y-30404819D02*
X78523809Y-30404819D01*
X78523809Y-30404819D02*
X78666666Y-30357200D01*
X78666666Y-30357200D02*
X78761904Y-30261961D01*
X78761904Y-30261961D02*
X78809523Y-30166723D01*
X78809523Y-30166723D02*
X78857142Y-29976247D01*
X78857142Y-29976247D02*
X78857142Y-29833390D01*
X78857142Y-29833390D02*
X78809523Y-29642914D01*
X78809523Y-29642914D02*
X78761904Y-29547676D01*
X78761904Y-29547676D02*
X78666666Y-29452438D01*
X78666666Y-29452438D02*
X78523809Y-29404819D01*
X78523809Y-29404819D02*
X78428571Y-29404819D01*
X78428571Y-29404819D02*
X78285714Y-29452438D01*
X78285714Y-29452438D02*
X78238095Y-29500057D01*
X77666666Y-30404819D02*
X77761904Y-30357200D01*
X77761904Y-30357200D02*
X77809523Y-30309580D01*
X77809523Y-30309580D02*
X77857142Y-30214342D01*
X77857142Y-30214342D02*
X77857142Y-29928628D01*
X77857142Y-29928628D02*
X77809523Y-29833390D01*
X77809523Y-29833390D02*
X77761904Y-29785771D01*
X77761904Y-29785771D02*
X77666666Y-29738152D01*
X77666666Y-29738152D02*
X77523809Y-29738152D01*
X77523809Y-29738152D02*
X77428571Y-29785771D01*
X77428571Y-29785771D02*
X77380952Y-29833390D01*
X77380952Y-29833390D02*
X77333333Y-29928628D01*
X77333333Y-29928628D02*
X77333333Y-30214342D01*
X77333333Y-30214342D02*
X77380952Y-30309580D01*
X77380952Y-30309580D02*
X77428571Y-30357200D01*
X77428571Y-30357200D02*
X77523809Y-30404819D01*
X77523809Y-30404819D02*
X77666666Y-30404819D01*
X76904761Y-29738152D02*
X76904761Y-30404819D01*
X76904761Y-29833390D02*
X76857142Y-29785771D01*
X76857142Y-29785771D02*
X76761904Y-29738152D01*
X76761904Y-29738152D02*
X76619047Y-29738152D01*
X76619047Y-29738152D02*
X76523809Y-29785771D01*
X76523809Y-29785771D02*
X76476190Y-29881009D01*
X76476190Y-29881009D02*
X76476190Y-30404819D01*
X75999999Y-29738152D02*
X75999999Y-30404819D01*
X75999999Y-29833390D02*
X75952380Y-29785771D01*
X75952380Y-29785771D02*
X75857142Y-29738152D01*
X75857142Y-29738152D02*
X75714285Y-29738152D01*
X75714285Y-29738152D02*
X75619047Y-29785771D01*
X75619047Y-29785771D02*
X75571428Y-29881009D01*
X75571428Y-29881009D02*
X75571428Y-30404819D01*
X75333333Y-30500057D02*
X74571428Y-30500057D01*
X74142856Y-29404819D02*
X74047618Y-29404819D01*
X74047618Y-29404819D02*
X73952380Y-29452438D01*
X73952380Y-29452438D02*
X73904761Y-29500057D01*
X73904761Y-29500057D02*
X73857142Y-29595295D01*
X73857142Y-29595295D02*
X73809523Y-29785771D01*
X73809523Y-29785771D02*
X73809523Y-30023866D01*
X73809523Y-30023866D02*
X73857142Y-30214342D01*
X73857142Y-30214342D02*
X73904761Y-30309580D01*
X73904761Y-30309580D02*
X73952380Y-30357200D01*
X73952380Y-30357200D02*
X74047618Y-30404819D01*
X74047618Y-30404819D02*
X74142856Y-30404819D01*
X74142856Y-30404819D02*
X74238094Y-30357200D01*
X74238094Y-30357200D02*
X74285713Y-30309580D01*
X74285713Y-30309580D02*
X74333332Y-30214342D01*
X74333332Y-30214342D02*
X74380951Y-30023866D01*
X74380951Y-30023866D02*
X74380951Y-29785771D01*
X74380951Y-29785771D02*
X74333332Y-29595295D01*
X74333332Y-29595295D02*
X74285713Y-29500057D01*
X74285713Y-29500057D02*
X74238094Y-29452438D01*
X74238094Y-29452438D02*
X74142856Y-29404819D01*
X72857142Y-30404819D02*
X73428570Y-30404819D01*
X73142856Y-30404819D02*
X73142856Y-29404819D01*
X73142856Y-29404819D02*
X73238094Y-29547676D01*
X73238094Y-29547676D02*
X73333332Y-29642914D01*
X73333332Y-29642914D02*
X73428570Y-29690533D01*
X72523808Y-30404819D02*
X71999999Y-29738152D01*
X72523808Y-29738152D02*
X71999999Y-30404819D01*
X71428570Y-29404819D02*
X71333332Y-29404819D01*
X71333332Y-29404819D02*
X71238094Y-29452438D01*
X71238094Y-29452438D02*
X71190475Y-29500057D01*
X71190475Y-29500057D02*
X71142856Y-29595295D01*
X71142856Y-29595295D02*
X71095237Y-29785771D01*
X71095237Y-29785771D02*
X71095237Y-30023866D01*
X71095237Y-30023866D02*
X71142856Y-30214342D01*
X71142856Y-30214342D02*
X71190475Y-30309580D01*
X71190475Y-30309580D02*
X71238094Y-30357200D01*
X71238094Y-30357200D02*
X71333332Y-30404819D01*
X71333332Y-30404819D02*
X71428570Y-30404819D01*
X71428570Y-30404819D02*
X71523808Y-30357200D01*
X71523808Y-30357200D02*
X71571427Y-30309580D01*
X71571427Y-30309580D02*
X71619046Y-30214342D01*
X71619046Y-30214342D02*
X71666665Y-30023866D01*
X71666665Y-30023866D02*
X71666665Y-29785771D01*
X71666665Y-29785771D02*
X71619046Y-29595295D01*
X71619046Y-29595295D02*
X71571427Y-29500057D01*
X71571427Y-29500057D02*
X71523808Y-29452438D01*
X71523808Y-29452438D02*
X71428570Y-29404819D01*
X70142856Y-30404819D02*
X70714284Y-30404819D01*
X70428570Y-30404819D02*
X70428570Y-29404819D01*
X70428570Y-29404819D02*
X70523808Y-29547676D01*
X70523808Y-29547676D02*
X70619046Y-29642914D01*
X70619046Y-29642914D02*
X70714284Y-29690533D01*
X75285714Y-33704819D02*
X75285714Y-34419104D01*
X75285714Y-34419104D02*
X75333333Y-34561961D01*
X75333333Y-34561961D02*
X75428571Y-34657200D01*
X75428571Y-34657200D02*
X75571428Y-34704819D01*
X75571428Y-34704819D02*
X75666666Y-34704819D01*
X74380952Y-33704819D02*
X74571428Y-33704819D01*
X74571428Y-33704819D02*
X74666666Y-33752438D01*
X74666666Y-33752438D02*
X74714285Y-33800057D01*
X74714285Y-33800057D02*
X74809523Y-33942914D01*
X74809523Y-33942914D02*
X74857142Y-34133390D01*
X74857142Y-34133390D02*
X74857142Y-34514342D01*
X74857142Y-34514342D02*
X74809523Y-34609580D01*
X74809523Y-34609580D02*
X74761904Y-34657200D01*
X74761904Y-34657200D02*
X74666666Y-34704819D01*
X74666666Y-34704819D02*
X74476190Y-34704819D01*
X74476190Y-34704819D02*
X74380952Y-34657200D01*
X74380952Y-34657200D02*
X74333333Y-34609580D01*
X74333333Y-34609580D02*
X74285714Y-34514342D01*
X74285714Y-34514342D02*
X74285714Y-34276247D01*
X74285714Y-34276247D02*
X74333333Y-34181009D01*
X74333333Y-34181009D02*
X74380952Y-34133390D01*
X74380952Y-34133390D02*
X74476190Y-34085771D01*
X74476190Y-34085771D02*
X74666666Y-34085771D01*
X74666666Y-34085771D02*
X74761904Y-34133390D01*
X74761904Y-34133390D02*
X74809523Y-34181009D01*
X74809523Y-34181009D02*
X74857142Y-34276247D01*
X73857142Y-34704819D02*
X73857142Y-33704819D01*
X73857142Y-34085771D02*
X73761904Y-34038152D01*
X73761904Y-34038152D02*
X73571428Y-34038152D01*
X73571428Y-34038152D02*
X73476190Y-34085771D01*
X73476190Y-34085771D02*
X73428571Y-34133390D01*
X73428571Y-34133390D02*
X73380952Y-34228628D01*
X73380952Y-34228628D02*
X73380952Y-34514342D01*
X73380952Y-34514342D02*
X73428571Y-34609580D01*
X73428571Y-34609580D02*
X73476190Y-34657200D01*
X73476190Y-34657200D02*
X73571428Y-34704819D01*
X73571428Y-34704819D02*
X73761904Y-34704819D01*
X73761904Y-34704819D02*
X73857142Y-34657200D01*
X21004819Y-49619047D02*
X20528628Y-49285714D01*
X21004819Y-49047619D02*
X20004819Y-49047619D01*
X20004819Y-49047619D02*
X20004819Y-49428571D01*
X20004819Y-49428571D02*
X20052438Y-49523809D01*
X20052438Y-49523809D02*
X20100057Y-49571428D01*
X20100057Y-49571428D02*
X20195295Y-49619047D01*
X20195295Y-49619047D02*
X20338152Y-49619047D01*
X20338152Y-49619047D02*
X20433390Y-49571428D01*
X20433390Y-49571428D02*
X20481009Y-49523809D01*
X20481009Y-49523809D02*
X20528628Y-49428571D01*
X20528628Y-49428571D02*
X20528628Y-49047619D01*
X21004819Y-50047619D02*
X20004819Y-50047619D01*
X20004819Y-50047619D02*
X20004819Y-50428571D01*
X20004819Y-50428571D02*
X20052438Y-50523809D01*
X20052438Y-50523809D02*
X20100057Y-50571428D01*
X20100057Y-50571428D02*
X20195295Y-50619047D01*
X20195295Y-50619047D02*
X20338152Y-50619047D01*
X20338152Y-50619047D02*
X20433390Y-50571428D01*
X20433390Y-50571428D02*
X20481009Y-50523809D01*
X20481009Y-50523809D02*
X20528628Y-50428571D01*
X20528628Y-50428571D02*
X20528628Y-50047619D01*
X20100057Y-51000000D02*
X20052438Y-51047619D01*
X20052438Y-51047619D02*
X20004819Y-51142857D01*
X20004819Y-51142857D02*
X20004819Y-51380952D01*
X20004819Y-51380952D02*
X20052438Y-51476190D01*
X20052438Y-51476190D02*
X20100057Y-51523809D01*
X20100057Y-51523809D02*
X20195295Y-51571428D01*
X20195295Y-51571428D02*
X20290533Y-51571428D01*
X20290533Y-51571428D02*
X20433390Y-51523809D01*
X20433390Y-51523809D02*
X21004819Y-50952381D01*
X21004819Y-50952381D02*
X21004819Y-51571428D01*
X20004819Y-52190476D02*
X20004819Y-52285714D01*
X20004819Y-52285714D02*
X20052438Y-52380952D01*
X20052438Y-52380952D02*
X20100057Y-52428571D01*
X20100057Y-52428571D02*
X20195295Y-52476190D01*
X20195295Y-52476190D02*
X20385771Y-52523809D01*
X20385771Y-52523809D02*
X20623866Y-52523809D01*
X20623866Y-52523809D02*
X20814342Y-52476190D01*
X20814342Y-52476190D02*
X20909580Y-52428571D01*
X20909580Y-52428571D02*
X20957200Y-52380952D01*
X20957200Y-52380952D02*
X21004819Y-52285714D01*
X21004819Y-52285714D02*
X21004819Y-52190476D01*
X21004819Y-52190476D02*
X20957200Y-52095238D01*
X20957200Y-52095238D02*
X20909580Y-52047619D01*
X20909580Y-52047619D02*
X20814342Y-52000000D01*
X20814342Y-52000000D02*
X20623866Y-51952381D01*
X20623866Y-51952381D02*
X20385771Y-51952381D01*
X20385771Y-51952381D02*
X20195295Y-52000000D01*
X20195295Y-52000000D02*
X20100057Y-52047619D01*
X20100057Y-52047619D02*
X20052438Y-52095238D01*
X20052438Y-52095238D02*
X20004819Y-52190476D01*
X20338152Y-53380952D02*
X21004819Y-53380952D01*
X19957200Y-53142857D02*
X20671485Y-52904762D01*
X20671485Y-52904762D02*
X20671485Y-53523809D01*
X20004819Y-54095238D02*
X20004819Y-54190476D01*
X20004819Y-54190476D02*
X20052438Y-54285714D01*
X20052438Y-54285714D02*
X20100057Y-54333333D01*
X20100057Y-54333333D02*
X20195295Y-54380952D01*
X20195295Y-54380952D02*
X20385771Y-54428571D01*
X20385771Y-54428571D02*
X20623866Y-54428571D01*
X20623866Y-54428571D02*
X20814342Y-54380952D01*
X20814342Y-54380952D02*
X20909580Y-54333333D01*
X20909580Y-54333333D02*
X20957200Y-54285714D01*
X20957200Y-54285714D02*
X21004819Y-54190476D01*
X21004819Y-54190476D02*
X21004819Y-54095238D01*
X21004819Y-54095238D02*
X20957200Y-54000000D01*
X20957200Y-54000000D02*
X20909580Y-53952381D01*
X20909580Y-53952381D02*
X20814342Y-53904762D01*
X20814342Y-53904762D02*
X20623866Y-53857143D01*
X20623866Y-53857143D02*
X20385771Y-53857143D01*
X20385771Y-53857143D02*
X20195295Y-53904762D01*
X20195295Y-53904762D02*
X20100057Y-53952381D01*
X20100057Y-53952381D02*
X20052438Y-54000000D01*
X20052438Y-54000000D02*
X20004819Y-54095238D01*
X20623866Y-54857143D02*
X20623866Y-55619048D01*
X20004819Y-56000000D02*
X20004819Y-56666666D01*
X20004819Y-56666666D02*
X21004819Y-56000000D01*
X21004819Y-56000000D02*
X21004819Y-56666666D01*
X20957200Y-57428571D02*
X21004819Y-57333333D01*
X21004819Y-57333333D02*
X21004819Y-57142857D01*
X21004819Y-57142857D02*
X20957200Y-57047619D01*
X20957200Y-57047619D02*
X20861961Y-57000000D01*
X20861961Y-57000000D02*
X20481009Y-57000000D01*
X20481009Y-57000000D02*
X20385771Y-57047619D01*
X20385771Y-57047619D02*
X20338152Y-57142857D01*
X20338152Y-57142857D02*
X20338152Y-57333333D01*
X20338152Y-57333333D02*
X20385771Y-57428571D01*
X20385771Y-57428571D02*
X20481009Y-57476190D01*
X20481009Y-57476190D02*
X20576247Y-57476190D01*
X20576247Y-57476190D02*
X20671485Y-57000000D01*
X21004819Y-57904762D02*
X20338152Y-57904762D01*
X20528628Y-57904762D02*
X20433390Y-57952381D01*
X20433390Y-57952381D02*
X20385771Y-58000000D01*
X20385771Y-58000000D02*
X20338152Y-58095238D01*
X20338152Y-58095238D02*
X20338152Y-58190476D01*
X21004819Y-58666667D02*
X20957200Y-58571429D01*
X20957200Y-58571429D02*
X20909580Y-58523810D01*
X20909580Y-58523810D02*
X20814342Y-58476191D01*
X20814342Y-58476191D02*
X20528628Y-58476191D01*
X20528628Y-58476191D02*
X20433390Y-58523810D01*
X20433390Y-58523810D02*
X20385771Y-58571429D01*
X20385771Y-58571429D02*
X20338152Y-58666667D01*
X20338152Y-58666667D02*
X20338152Y-58809524D01*
X20338152Y-58809524D02*
X20385771Y-58904762D01*
X20385771Y-58904762D02*
X20433390Y-58952381D01*
X20433390Y-58952381D02*
X20528628Y-59000000D01*
X20528628Y-59000000D02*
X20814342Y-59000000D01*
X20814342Y-59000000D02*
X20909580Y-58952381D01*
X20909580Y-58952381D02*
X20957200Y-58904762D01*
X20957200Y-58904762D02*
X21004819Y-58809524D01*
X21004819Y-58809524D02*
X21004819Y-58666667D01*
X29859523Y-66354819D02*
X29859523Y-65354819D01*
X29859523Y-65354819D02*
X29526190Y-66069104D01*
X29526190Y-66069104D02*
X29192857Y-65354819D01*
X29192857Y-65354819D02*
X29192857Y-66354819D01*
X28383333Y-65831009D02*
X28716666Y-65831009D01*
X28716666Y-66354819D02*
X28716666Y-65354819D01*
X28716666Y-65354819D02*
X28240476Y-65354819D01*
X27859523Y-65973866D02*
X27097619Y-65973866D01*
X26050000Y-66354819D02*
X26383333Y-65878628D01*
X26621428Y-66354819D02*
X26621428Y-65354819D01*
X26621428Y-65354819D02*
X26240476Y-65354819D01*
X26240476Y-65354819D02*
X26145238Y-65402438D01*
X26145238Y-65402438D02*
X26097619Y-65450057D01*
X26097619Y-65450057D02*
X26050000Y-65545295D01*
X26050000Y-65545295D02*
X26050000Y-65688152D01*
X26050000Y-65688152D02*
X26097619Y-65783390D01*
X26097619Y-65783390D02*
X26145238Y-65831009D01*
X26145238Y-65831009D02*
X26240476Y-65878628D01*
X26240476Y-65878628D02*
X26621428Y-65878628D01*
X25430952Y-65354819D02*
X25335714Y-65354819D01*
X25335714Y-65354819D02*
X25240476Y-65402438D01*
X25240476Y-65402438D02*
X25192857Y-65450057D01*
X25192857Y-65450057D02*
X25145238Y-65545295D01*
X25145238Y-65545295D02*
X25097619Y-65735771D01*
X25097619Y-65735771D02*
X25097619Y-65973866D01*
X25097619Y-65973866D02*
X25145238Y-66164342D01*
X25145238Y-66164342D02*
X25192857Y-66259580D01*
X25192857Y-66259580D02*
X25240476Y-66307200D01*
X25240476Y-66307200D02*
X25335714Y-66354819D01*
X25335714Y-66354819D02*
X25430952Y-66354819D01*
X25430952Y-66354819D02*
X25526190Y-66307200D01*
X25526190Y-66307200D02*
X25573809Y-66259580D01*
X25573809Y-66259580D02*
X25621428Y-66164342D01*
X25621428Y-66164342D02*
X25669047Y-65973866D01*
X25669047Y-65973866D02*
X25669047Y-65735771D01*
X25669047Y-65735771D02*
X25621428Y-65545295D01*
X25621428Y-65545295D02*
X25573809Y-65450057D01*
X25573809Y-65450057D02*
X25526190Y-65402438D01*
X25526190Y-65402438D02*
X25430952Y-65354819D01*
X24192857Y-65354819D02*
X24669047Y-65354819D01*
X24669047Y-65354819D02*
X24716666Y-65831009D01*
X24716666Y-65831009D02*
X24669047Y-65783390D01*
X24669047Y-65783390D02*
X24573809Y-65735771D01*
X24573809Y-65735771D02*
X24335714Y-65735771D01*
X24335714Y-65735771D02*
X24240476Y-65783390D01*
X24240476Y-65783390D02*
X24192857Y-65831009D01*
X24192857Y-65831009D02*
X24145238Y-65926247D01*
X24145238Y-65926247D02*
X24145238Y-66164342D01*
X24145238Y-66164342D02*
X24192857Y-66259580D01*
X24192857Y-66259580D02*
X24240476Y-66307200D01*
X24240476Y-66307200D02*
X24335714Y-66354819D01*
X24335714Y-66354819D02*
X24573809Y-66354819D01*
X24573809Y-66354819D02*
X24669047Y-66307200D01*
X24669047Y-66307200D02*
X24716666Y-66259580D01*
X23526190Y-65354819D02*
X23430952Y-65354819D01*
X23430952Y-65354819D02*
X23335714Y-65402438D01*
X23335714Y-65402438D02*
X23288095Y-65450057D01*
X23288095Y-65450057D02*
X23240476Y-65545295D01*
X23240476Y-65545295D02*
X23192857Y-65735771D01*
X23192857Y-65735771D02*
X23192857Y-65973866D01*
X23192857Y-65973866D02*
X23240476Y-66164342D01*
X23240476Y-66164342D02*
X23288095Y-66259580D01*
X23288095Y-66259580D02*
X23335714Y-66307200D01*
X23335714Y-66307200D02*
X23430952Y-66354819D01*
X23430952Y-66354819D02*
X23526190Y-66354819D01*
X23526190Y-66354819D02*
X23621428Y-66307200D01*
X23621428Y-66307200D02*
X23669047Y-66259580D01*
X23669047Y-66259580D02*
X23716666Y-66164342D01*
X23716666Y-66164342D02*
X23764285Y-65973866D01*
X23764285Y-65973866D02*
X23764285Y-65735771D01*
X23764285Y-65735771D02*
X23716666Y-65545295D01*
X23716666Y-65545295D02*
X23669047Y-65450057D01*
X23669047Y-65450057D02*
X23621428Y-65402438D01*
X23621428Y-65402438D02*
X23526190Y-65354819D01*
X21811904Y-65354819D02*
X21716666Y-65354819D01*
X21716666Y-65354819D02*
X21621428Y-65402438D01*
X21621428Y-65402438D02*
X21573809Y-65450057D01*
X21573809Y-65450057D02*
X21526190Y-65545295D01*
X21526190Y-65545295D02*
X21478571Y-65735771D01*
X21478571Y-65735771D02*
X21478571Y-65973866D01*
X21478571Y-65973866D02*
X21526190Y-66164342D01*
X21526190Y-66164342D02*
X21573809Y-66259580D01*
X21573809Y-66259580D02*
X21621428Y-66307200D01*
X21621428Y-66307200D02*
X21716666Y-66354819D01*
X21716666Y-66354819D02*
X21811904Y-66354819D01*
X21811904Y-66354819D02*
X21907142Y-66307200D01*
X21907142Y-66307200D02*
X21954761Y-66259580D01*
X21954761Y-66259580D02*
X22002380Y-66164342D01*
X22002380Y-66164342D02*
X22049999Y-65973866D01*
X22049999Y-65973866D02*
X22049999Y-65735771D01*
X22049999Y-65735771D02*
X22002380Y-65545295D01*
X22002380Y-65545295D02*
X21954761Y-65450057D01*
X21954761Y-65450057D02*
X21907142Y-65402438D01*
X21907142Y-65402438D02*
X21811904Y-65354819D01*
X21049999Y-66259580D02*
X21002380Y-66307200D01*
X21002380Y-66307200D02*
X21049999Y-66354819D01*
X21049999Y-66354819D02*
X21097618Y-66307200D01*
X21097618Y-66307200D02*
X21049999Y-66259580D01*
X21049999Y-66259580D02*
X21049999Y-66354819D01*
X20097619Y-65354819D02*
X20573809Y-65354819D01*
X20573809Y-65354819D02*
X20621428Y-65831009D01*
X20621428Y-65831009D02*
X20573809Y-65783390D01*
X20573809Y-65783390D02*
X20478571Y-65735771D01*
X20478571Y-65735771D02*
X20240476Y-65735771D01*
X20240476Y-65735771D02*
X20145238Y-65783390D01*
X20145238Y-65783390D02*
X20097619Y-65831009D01*
X20097619Y-65831009D02*
X20050000Y-65926247D01*
X20050000Y-65926247D02*
X20050000Y-66164342D01*
X20050000Y-66164342D02*
X20097619Y-66259580D01*
X20097619Y-66259580D02*
X20145238Y-66307200D01*
X20145238Y-66307200D02*
X20240476Y-66354819D01*
X20240476Y-66354819D02*
X20478571Y-66354819D01*
X20478571Y-66354819D02*
X20573809Y-66307200D01*
X20573809Y-66307200D02*
X20621428Y-66259580D01*
X19669047Y-66069104D02*
X19192857Y-66069104D01*
X19764285Y-66354819D02*
X19430952Y-65354819D01*
X19430952Y-65354819D02*
X19097619Y-66354819D01*
X24883333Y-68331009D02*
X25216666Y-68331009D01*
X25216666Y-68854819D02*
X25216666Y-67854819D01*
X25216666Y-67854819D02*
X24740476Y-67854819D01*
X23835714Y-68854819D02*
X24407142Y-68854819D01*
X24121428Y-68854819D02*
X24121428Y-67854819D01*
X24121428Y-67854819D02*
X24216666Y-67997676D01*
X24216666Y-67997676D02*
X24311904Y-68092914D01*
X24311904Y-68092914D02*
X24407142Y-68140533D01*
X78869580Y-36301904D02*
X78917200Y-36254285D01*
X78917200Y-36254285D02*
X78964819Y-36111428D01*
X78964819Y-36111428D02*
X78964819Y-36016190D01*
X78964819Y-36016190D02*
X78917200Y-35873333D01*
X78917200Y-35873333D02*
X78821961Y-35778095D01*
X78821961Y-35778095D02*
X78726723Y-35730476D01*
X78726723Y-35730476D02*
X78536247Y-35682857D01*
X78536247Y-35682857D02*
X78393390Y-35682857D01*
X78393390Y-35682857D02*
X78202914Y-35730476D01*
X78202914Y-35730476D02*
X78107676Y-35778095D01*
X78107676Y-35778095D02*
X78012438Y-35873333D01*
X78012438Y-35873333D02*
X77964819Y-36016190D01*
X77964819Y-36016190D02*
X77964819Y-36111428D01*
X77964819Y-36111428D02*
X78012438Y-36254285D01*
X78012438Y-36254285D02*
X78060057Y-36301904D01*
X78964819Y-36873333D02*
X78917200Y-36778095D01*
X78917200Y-36778095D02*
X78869580Y-36730476D01*
X78869580Y-36730476D02*
X78774342Y-36682857D01*
X78774342Y-36682857D02*
X78488628Y-36682857D01*
X78488628Y-36682857D02*
X78393390Y-36730476D01*
X78393390Y-36730476D02*
X78345771Y-36778095D01*
X78345771Y-36778095D02*
X78298152Y-36873333D01*
X78298152Y-36873333D02*
X78298152Y-37016190D01*
X78298152Y-37016190D02*
X78345771Y-37111428D01*
X78345771Y-37111428D02*
X78393390Y-37159047D01*
X78393390Y-37159047D02*
X78488628Y-37206666D01*
X78488628Y-37206666D02*
X78774342Y-37206666D01*
X78774342Y-37206666D02*
X78869580Y-37159047D01*
X78869580Y-37159047D02*
X78917200Y-37111428D01*
X78917200Y-37111428D02*
X78964819Y-37016190D01*
X78964819Y-37016190D02*
X78964819Y-36873333D01*
X78298152Y-37635238D02*
X78964819Y-37635238D01*
X78393390Y-37635238D02*
X78345771Y-37682857D01*
X78345771Y-37682857D02*
X78298152Y-37778095D01*
X78298152Y-37778095D02*
X78298152Y-37920952D01*
X78298152Y-37920952D02*
X78345771Y-38016190D01*
X78345771Y-38016190D02*
X78441009Y-38063809D01*
X78441009Y-38063809D02*
X78964819Y-38063809D01*
X78298152Y-38540000D02*
X78964819Y-38540000D01*
X78393390Y-38540000D02*
X78345771Y-38587619D01*
X78345771Y-38587619D02*
X78298152Y-38682857D01*
X78298152Y-38682857D02*
X78298152Y-38825714D01*
X78298152Y-38825714D02*
X78345771Y-38920952D01*
X78345771Y-38920952D02*
X78441009Y-38968571D01*
X78441009Y-38968571D02*
X78964819Y-38968571D01*
X79060057Y-39206667D02*
X79060057Y-39968571D01*
X77964819Y-40397143D02*
X77964819Y-40492381D01*
X77964819Y-40492381D02*
X78012438Y-40587619D01*
X78012438Y-40587619D02*
X78060057Y-40635238D01*
X78060057Y-40635238D02*
X78155295Y-40682857D01*
X78155295Y-40682857D02*
X78345771Y-40730476D01*
X78345771Y-40730476D02*
X78583866Y-40730476D01*
X78583866Y-40730476D02*
X78774342Y-40682857D01*
X78774342Y-40682857D02*
X78869580Y-40635238D01*
X78869580Y-40635238D02*
X78917200Y-40587619D01*
X78917200Y-40587619D02*
X78964819Y-40492381D01*
X78964819Y-40492381D02*
X78964819Y-40397143D01*
X78964819Y-40397143D02*
X78917200Y-40301905D01*
X78917200Y-40301905D02*
X78869580Y-40254286D01*
X78869580Y-40254286D02*
X78774342Y-40206667D01*
X78774342Y-40206667D02*
X78583866Y-40159048D01*
X78583866Y-40159048D02*
X78345771Y-40159048D01*
X78345771Y-40159048D02*
X78155295Y-40206667D01*
X78155295Y-40206667D02*
X78060057Y-40254286D01*
X78060057Y-40254286D02*
X78012438Y-40301905D01*
X78012438Y-40301905D02*
X77964819Y-40397143D01*
X78964819Y-41682857D02*
X78964819Y-41111429D01*
X78964819Y-41397143D02*
X77964819Y-41397143D01*
X77964819Y-41397143D02*
X78107676Y-41301905D01*
X78107676Y-41301905D02*
X78202914Y-41206667D01*
X78202914Y-41206667D02*
X78250533Y-41111429D01*
X78964819Y-42016191D02*
X78298152Y-42540000D01*
X78298152Y-42016191D02*
X78964819Y-42540000D01*
X77964819Y-43111429D02*
X77964819Y-43206667D01*
X77964819Y-43206667D02*
X78012438Y-43301905D01*
X78012438Y-43301905D02*
X78060057Y-43349524D01*
X78060057Y-43349524D02*
X78155295Y-43397143D01*
X78155295Y-43397143D02*
X78345771Y-43444762D01*
X78345771Y-43444762D02*
X78583866Y-43444762D01*
X78583866Y-43444762D02*
X78774342Y-43397143D01*
X78774342Y-43397143D02*
X78869580Y-43349524D01*
X78869580Y-43349524D02*
X78917200Y-43301905D01*
X78917200Y-43301905D02*
X78964819Y-43206667D01*
X78964819Y-43206667D02*
X78964819Y-43111429D01*
X78964819Y-43111429D02*
X78917200Y-43016191D01*
X78917200Y-43016191D02*
X78869580Y-42968572D01*
X78869580Y-42968572D02*
X78774342Y-42920953D01*
X78774342Y-42920953D02*
X78583866Y-42873334D01*
X78583866Y-42873334D02*
X78345771Y-42873334D01*
X78345771Y-42873334D02*
X78155295Y-42920953D01*
X78155295Y-42920953D02*
X78060057Y-42968572D01*
X78060057Y-42968572D02*
X78012438Y-43016191D01*
X78012438Y-43016191D02*
X77964819Y-43111429D01*
X78964819Y-44397143D02*
X78964819Y-43825715D01*
X78964819Y-44111429D02*
X77964819Y-44111429D01*
X77964819Y-44111429D02*
X78107676Y-44016191D01*
X78107676Y-44016191D02*
X78202914Y-43920953D01*
X78202914Y-43920953D02*
X78250533Y-43825715D01*
X73664819Y-39254285D02*
X74379104Y-39254285D01*
X74379104Y-39254285D02*
X74521961Y-39206666D01*
X74521961Y-39206666D02*
X74617200Y-39111428D01*
X74617200Y-39111428D02*
X74664819Y-38968571D01*
X74664819Y-38968571D02*
X74664819Y-38873333D01*
X73664819Y-40206666D02*
X73664819Y-39730476D01*
X73664819Y-39730476D02*
X74141009Y-39682857D01*
X74141009Y-39682857D02*
X74093390Y-39730476D01*
X74093390Y-39730476D02*
X74045771Y-39825714D01*
X74045771Y-39825714D02*
X74045771Y-40063809D01*
X74045771Y-40063809D02*
X74093390Y-40159047D01*
X74093390Y-40159047D02*
X74141009Y-40206666D01*
X74141009Y-40206666D02*
X74236247Y-40254285D01*
X74236247Y-40254285D02*
X74474342Y-40254285D01*
X74474342Y-40254285D02*
X74569580Y-40206666D01*
X74569580Y-40206666D02*
X74617200Y-40159047D01*
X74617200Y-40159047D02*
X74664819Y-40063809D01*
X74664819Y-40063809D02*
X74664819Y-39825714D01*
X74664819Y-39825714D02*
X74617200Y-39730476D01*
X74617200Y-39730476D02*
X74569580Y-39682857D01*
X74664819Y-40682857D02*
X73664819Y-40682857D01*
X74045771Y-40682857D02*
X73998152Y-40778095D01*
X73998152Y-40778095D02*
X73998152Y-40968571D01*
X73998152Y-40968571D02*
X74045771Y-41063809D01*
X74045771Y-41063809D02*
X74093390Y-41111428D01*
X74093390Y-41111428D02*
X74188628Y-41159047D01*
X74188628Y-41159047D02*
X74474342Y-41159047D01*
X74474342Y-41159047D02*
X74569580Y-41111428D01*
X74569580Y-41111428D02*
X74617200Y-41063809D01*
X74617200Y-41063809D02*
X74664819Y-40968571D01*
X74664819Y-40968571D02*
X74664819Y-40778095D01*
X74664819Y-40778095D02*
X74617200Y-40682857D01*
X85129580Y-18087141D02*
X85177200Y-18039522D01*
X85177200Y-18039522D02*
X85224819Y-17896665D01*
X85224819Y-17896665D02*
X85224819Y-17801427D01*
X85224819Y-17801427D02*
X85177200Y-17658570D01*
X85177200Y-17658570D02*
X85081961Y-17563332D01*
X85081961Y-17563332D02*
X84986723Y-17515713D01*
X84986723Y-17515713D02*
X84796247Y-17468094D01*
X84796247Y-17468094D02*
X84653390Y-17468094D01*
X84653390Y-17468094D02*
X84462914Y-17515713D01*
X84462914Y-17515713D02*
X84367676Y-17563332D01*
X84367676Y-17563332D02*
X84272438Y-17658570D01*
X84272438Y-17658570D02*
X84224819Y-17801427D01*
X84224819Y-17801427D02*
X84224819Y-17896665D01*
X84224819Y-17896665D02*
X84272438Y-18039522D01*
X84272438Y-18039522D02*
X84320057Y-18087141D01*
X85224819Y-18658570D02*
X85177200Y-18563332D01*
X85177200Y-18563332D02*
X85129580Y-18515713D01*
X85129580Y-18515713D02*
X85034342Y-18468094D01*
X85034342Y-18468094D02*
X84748628Y-18468094D01*
X84748628Y-18468094D02*
X84653390Y-18515713D01*
X84653390Y-18515713D02*
X84605771Y-18563332D01*
X84605771Y-18563332D02*
X84558152Y-18658570D01*
X84558152Y-18658570D02*
X84558152Y-18801427D01*
X84558152Y-18801427D02*
X84605771Y-18896665D01*
X84605771Y-18896665D02*
X84653390Y-18944284D01*
X84653390Y-18944284D02*
X84748628Y-18991903D01*
X84748628Y-18991903D02*
X85034342Y-18991903D01*
X85034342Y-18991903D02*
X85129580Y-18944284D01*
X85129580Y-18944284D02*
X85177200Y-18896665D01*
X85177200Y-18896665D02*
X85224819Y-18801427D01*
X85224819Y-18801427D02*
X85224819Y-18658570D01*
X84558152Y-19420475D02*
X85224819Y-19420475D01*
X84653390Y-19420475D02*
X84605771Y-19468094D01*
X84605771Y-19468094D02*
X84558152Y-19563332D01*
X84558152Y-19563332D02*
X84558152Y-19706189D01*
X84558152Y-19706189D02*
X84605771Y-19801427D01*
X84605771Y-19801427D02*
X84701009Y-19849046D01*
X84701009Y-19849046D02*
X85224819Y-19849046D01*
X84558152Y-20325237D02*
X85224819Y-20325237D01*
X84653390Y-20325237D02*
X84605771Y-20372856D01*
X84605771Y-20372856D02*
X84558152Y-20468094D01*
X84558152Y-20468094D02*
X84558152Y-20610951D01*
X84558152Y-20610951D02*
X84605771Y-20706189D01*
X84605771Y-20706189D02*
X84701009Y-20753808D01*
X84701009Y-20753808D02*
X85224819Y-20753808D01*
X85320057Y-20991904D02*
X85320057Y-21753808D01*
X84224819Y-22182380D02*
X84224819Y-22277618D01*
X84224819Y-22277618D02*
X84272438Y-22372856D01*
X84272438Y-22372856D02*
X84320057Y-22420475D01*
X84320057Y-22420475D02*
X84415295Y-22468094D01*
X84415295Y-22468094D02*
X84605771Y-22515713D01*
X84605771Y-22515713D02*
X84843866Y-22515713D01*
X84843866Y-22515713D02*
X85034342Y-22468094D01*
X85034342Y-22468094D02*
X85129580Y-22420475D01*
X85129580Y-22420475D02*
X85177200Y-22372856D01*
X85177200Y-22372856D02*
X85224819Y-22277618D01*
X85224819Y-22277618D02*
X85224819Y-22182380D01*
X85224819Y-22182380D02*
X85177200Y-22087142D01*
X85177200Y-22087142D02*
X85129580Y-22039523D01*
X85129580Y-22039523D02*
X85034342Y-21991904D01*
X85034342Y-21991904D02*
X84843866Y-21944285D01*
X84843866Y-21944285D02*
X84605771Y-21944285D01*
X84605771Y-21944285D02*
X84415295Y-21991904D01*
X84415295Y-21991904D02*
X84320057Y-22039523D01*
X84320057Y-22039523D02*
X84272438Y-22087142D01*
X84272438Y-22087142D02*
X84224819Y-22182380D01*
X84320057Y-22896666D02*
X84272438Y-22944285D01*
X84272438Y-22944285D02*
X84224819Y-23039523D01*
X84224819Y-23039523D02*
X84224819Y-23277618D01*
X84224819Y-23277618D02*
X84272438Y-23372856D01*
X84272438Y-23372856D02*
X84320057Y-23420475D01*
X84320057Y-23420475D02*
X84415295Y-23468094D01*
X84415295Y-23468094D02*
X84510533Y-23468094D01*
X84510533Y-23468094D02*
X84653390Y-23420475D01*
X84653390Y-23420475D02*
X85224819Y-22849047D01*
X85224819Y-22849047D02*
X85224819Y-23468094D01*
X85224819Y-23801428D02*
X84558152Y-24325237D01*
X84558152Y-23801428D02*
X85224819Y-24325237D01*
X84224819Y-24896666D02*
X84224819Y-24991904D01*
X84224819Y-24991904D02*
X84272438Y-25087142D01*
X84272438Y-25087142D02*
X84320057Y-25134761D01*
X84320057Y-25134761D02*
X84415295Y-25182380D01*
X84415295Y-25182380D02*
X84605771Y-25229999D01*
X84605771Y-25229999D02*
X84843866Y-25229999D01*
X84843866Y-25229999D02*
X85034342Y-25182380D01*
X85034342Y-25182380D02*
X85129580Y-25134761D01*
X85129580Y-25134761D02*
X85177200Y-25087142D01*
X85177200Y-25087142D02*
X85224819Y-24991904D01*
X85224819Y-24991904D02*
X85224819Y-24896666D01*
X85224819Y-24896666D02*
X85177200Y-24801428D01*
X85177200Y-24801428D02*
X85129580Y-24753809D01*
X85129580Y-24753809D02*
X85034342Y-24706190D01*
X85034342Y-24706190D02*
X84843866Y-24658571D01*
X84843866Y-24658571D02*
X84605771Y-24658571D01*
X84605771Y-24658571D02*
X84415295Y-24706190D01*
X84415295Y-24706190D02*
X84320057Y-24753809D01*
X84320057Y-24753809D02*
X84272438Y-24801428D01*
X84272438Y-24801428D02*
X84224819Y-24896666D01*
X84558152Y-26087142D02*
X85224819Y-26087142D01*
X84177200Y-25849047D02*
X84891485Y-25610952D01*
X84891485Y-25610952D02*
X84891485Y-26229999D01*
X85320057Y-26372857D02*
X85320057Y-27134761D01*
X84224819Y-27563333D02*
X84224819Y-27753809D01*
X84224819Y-27753809D02*
X84272438Y-27849047D01*
X84272438Y-27849047D02*
X84367676Y-27944285D01*
X84367676Y-27944285D02*
X84558152Y-27991904D01*
X84558152Y-27991904D02*
X84891485Y-27991904D01*
X84891485Y-27991904D02*
X85081961Y-27944285D01*
X85081961Y-27944285D02*
X85177200Y-27849047D01*
X85177200Y-27849047D02*
X85224819Y-27753809D01*
X85224819Y-27753809D02*
X85224819Y-27563333D01*
X85224819Y-27563333D02*
X85177200Y-27468095D01*
X85177200Y-27468095D02*
X85081961Y-27372857D01*
X85081961Y-27372857D02*
X84891485Y-27325238D01*
X84891485Y-27325238D02*
X84558152Y-27325238D01*
X84558152Y-27325238D02*
X84367676Y-27372857D01*
X84367676Y-27372857D02*
X84272438Y-27468095D01*
X84272438Y-27468095D02*
X84224819Y-27563333D01*
X85224819Y-28849047D02*
X84224819Y-28849047D01*
X85177200Y-28849047D02*
X85224819Y-28753809D01*
X85224819Y-28753809D02*
X85224819Y-28563333D01*
X85224819Y-28563333D02*
X85177200Y-28468095D01*
X85177200Y-28468095D02*
X85129580Y-28420476D01*
X85129580Y-28420476D02*
X85034342Y-28372857D01*
X85034342Y-28372857D02*
X84748628Y-28372857D01*
X84748628Y-28372857D02*
X84653390Y-28420476D01*
X84653390Y-28420476D02*
X84605771Y-28468095D01*
X84605771Y-28468095D02*
X84558152Y-28563333D01*
X84558152Y-28563333D02*
X84558152Y-28753809D01*
X84558152Y-28753809D02*
X84605771Y-28849047D01*
X85224819Y-29753809D02*
X84224819Y-29753809D01*
X85177200Y-29753809D02*
X85224819Y-29658571D01*
X85224819Y-29658571D02*
X85224819Y-29468095D01*
X85224819Y-29468095D02*
X85177200Y-29372857D01*
X85177200Y-29372857D02*
X85129580Y-29325238D01*
X85129580Y-29325238D02*
X85034342Y-29277619D01*
X85034342Y-29277619D02*
X84748628Y-29277619D01*
X84748628Y-29277619D02*
X84653390Y-29325238D01*
X84653390Y-29325238D02*
X84605771Y-29372857D01*
X84605771Y-29372857D02*
X84558152Y-29468095D01*
X84558152Y-29468095D02*
X84558152Y-29658571D01*
X84558152Y-29658571D02*
X84605771Y-29753809D01*
X85320057Y-29991905D02*
X85320057Y-30753809D01*
X84701009Y-30991905D02*
X84701009Y-31325238D01*
X85224819Y-31468095D02*
X85224819Y-30991905D01*
X85224819Y-30991905D02*
X84224819Y-30991905D01*
X84224819Y-30991905D02*
X84224819Y-31468095D01*
X84558152Y-31801429D02*
X85224819Y-32039524D01*
X85224819Y-32039524D02*
X84558152Y-32277619D01*
X85177200Y-33039524D02*
X85224819Y-32944286D01*
X85224819Y-32944286D02*
X85224819Y-32753810D01*
X85224819Y-32753810D02*
X85177200Y-32658572D01*
X85177200Y-32658572D02*
X85081961Y-32610953D01*
X85081961Y-32610953D02*
X84701009Y-32610953D01*
X84701009Y-32610953D02*
X84605771Y-32658572D01*
X84605771Y-32658572D02*
X84558152Y-32753810D01*
X84558152Y-32753810D02*
X84558152Y-32944286D01*
X84558152Y-32944286D02*
X84605771Y-33039524D01*
X84605771Y-33039524D02*
X84701009Y-33087143D01*
X84701009Y-33087143D02*
X84796247Y-33087143D01*
X84796247Y-33087143D02*
X84891485Y-32610953D01*
X84558152Y-33515715D02*
X85224819Y-33515715D01*
X84653390Y-33515715D02*
X84605771Y-33563334D01*
X84605771Y-33563334D02*
X84558152Y-33658572D01*
X84558152Y-33658572D02*
X84558152Y-33801429D01*
X84558152Y-33801429D02*
X84605771Y-33896667D01*
X84605771Y-33896667D02*
X84701009Y-33944286D01*
X84701009Y-33944286D02*
X85224819Y-33944286D01*
X78523333Y-25184819D02*
X78523333Y-25899104D01*
X78523333Y-25899104D02*
X78570952Y-26041961D01*
X78570952Y-26041961D02*
X78666190Y-26137200D01*
X78666190Y-26137200D02*
X78809047Y-26184819D01*
X78809047Y-26184819D02*
X78904285Y-26184819D01*
X77618571Y-25184819D02*
X77809047Y-25184819D01*
X77809047Y-25184819D02*
X77904285Y-25232438D01*
X77904285Y-25232438D02*
X77951904Y-25280057D01*
X77951904Y-25280057D02*
X78047142Y-25422914D01*
X78047142Y-25422914D02*
X78094761Y-25613390D01*
X78094761Y-25613390D02*
X78094761Y-25994342D01*
X78094761Y-25994342D02*
X78047142Y-26089580D01*
X78047142Y-26089580D02*
X77999523Y-26137200D01*
X77999523Y-26137200D02*
X77904285Y-26184819D01*
X77904285Y-26184819D02*
X77713809Y-26184819D01*
X77713809Y-26184819D02*
X77618571Y-26137200D01*
X77618571Y-26137200D02*
X77570952Y-26089580D01*
X77570952Y-26089580D02*
X77523333Y-25994342D01*
X77523333Y-25994342D02*
X77523333Y-25756247D01*
X77523333Y-25756247D02*
X77570952Y-25661009D01*
X77570952Y-25661009D02*
X77618571Y-25613390D01*
X77618571Y-25613390D02*
X77713809Y-25565771D01*
X77713809Y-25565771D02*
X77904285Y-25565771D01*
X77904285Y-25565771D02*
X77999523Y-25613390D01*
X77999523Y-25613390D02*
X78047142Y-25661009D01*
X78047142Y-25661009D02*
X78094761Y-25756247D01*
X9289580Y-75521904D02*
X9337200Y-75474285D01*
X9337200Y-75474285D02*
X9384819Y-75331428D01*
X9384819Y-75331428D02*
X9384819Y-75236190D01*
X9384819Y-75236190D02*
X9337200Y-75093333D01*
X9337200Y-75093333D02*
X9241961Y-74998095D01*
X9241961Y-74998095D02*
X9146723Y-74950476D01*
X9146723Y-74950476D02*
X8956247Y-74902857D01*
X8956247Y-74902857D02*
X8813390Y-74902857D01*
X8813390Y-74902857D02*
X8622914Y-74950476D01*
X8622914Y-74950476D02*
X8527676Y-74998095D01*
X8527676Y-74998095D02*
X8432438Y-75093333D01*
X8432438Y-75093333D02*
X8384819Y-75236190D01*
X8384819Y-75236190D02*
X8384819Y-75331428D01*
X8384819Y-75331428D02*
X8432438Y-75474285D01*
X8432438Y-75474285D02*
X8480057Y-75521904D01*
X9384819Y-76093333D02*
X9337200Y-75998095D01*
X9337200Y-75998095D02*
X9289580Y-75950476D01*
X9289580Y-75950476D02*
X9194342Y-75902857D01*
X9194342Y-75902857D02*
X8908628Y-75902857D01*
X8908628Y-75902857D02*
X8813390Y-75950476D01*
X8813390Y-75950476D02*
X8765771Y-75998095D01*
X8765771Y-75998095D02*
X8718152Y-76093333D01*
X8718152Y-76093333D02*
X8718152Y-76236190D01*
X8718152Y-76236190D02*
X8765771Y-76331428D01*
X8765771Y-76331428D02*
X8813390Y-76379047D01*
X8813390Y-76379047D02*
X8908628Y-76426666D01*
X8908628Y-76426666D02*
X9194342Y-76426666D01*
X9194342Y-76426666D02*
X9289580Y-76379047D01*
X9289580Y-76379047D02*
X9337200Y-76331428D01*
X9337200Y-76331428D02*
X9384819Y-76236190D01*
X9384819Y-76236190D02*
X9384819Y-76093333D01*
X8718152Y-76855238D02*
X9384819Y-76855238D01*
X8813390Y-76855238D02*
X8765771Y-76902857D01*
X8765771Y-76902857D02*
X8718152Y-76998095D01*
X8718152Y-76998095D02*
X8718152Y-77140952D01*
X8718152Y-77140952D02*
X8765771Y-77236190D01*
X8765771Y-77236190D02*
X8861009Y-77283809D01*
X8861009Y-77283809D02*
X9384819Y-77283809D01*
X8718152Y-77760000D02*
X9384819Y-77760000D01*
X8813390Y-77760000D02*
X8765771Y-77807619D01*
X8765771Y-77807619D02*
X8718152Y-77902857D01*
X8718152Y-77902857D02*
X8718152Y-78045714D01*
X8718152Y-78045714D02*
X8765771Y-78140952D01*
X8765771Y-78140952D02*
X8861009Y-78188571D01*
X8861009Y-78188571D02*
X9384819Y-78188571D01*
X9480057Y-78426667D02*
X9480057Y-79188571D01*
X8384819Y-79617143D02*
X8384819Y-79712381D01*
X8384819Y-79712381D02*
X8432438Y-79807619D01*
X8432438Y-79807619D02*
X8480057Y-79855238D01*
X8480057Y-79855238D02*
X8575295Y-79902857D01*
X8575295Y-79902857D02*
X8765771Y-79950476D01*
X8765771Y-79950476D02*
X9003866Y-79950476D01*
X9003866Y-79950476D02*
X9194342Y-79902857D01*
X9194342Y-79902857D02*
X9289580Y-79855238D01*
X9289580Y-79855238D02*
X9337200Y-79807619D01*
X9337200Y-79807619D02*
X9384819Y-79712381D01*
X9384819Y-79712381D02*
X9384819Y-79617143D01*
X9384819Y-79617143D02*
X9337200Y-79521905D01*
X9337200Y-79521905D02*
X9289580Y-79474286D01*
X9289580Y-79474286D02*
X9194342Y-79426667D01*
X9194342Y-79426667D02*
X9003866Y-79379048D01*
X9003866Y-79379048D02*
X8765771Y-79379048D01*
X8765771Y-79379048D02*
X8575295Y-79426667D01*
X8575295Y-79426667D02*
X8480057Y-79474286D01*
X8480057Y-79474286D02*
X8432438Y-79521905D01*
X8432438Y-79521905D02*
X8384819Y-79617143D01*
X9384819Y-80902857D02*
X9384819Y-80331429D01*
X9384819Y-80617143D02*
X8384819Y-80617143D01*
X8384819Y-80617143D02*
X8527676Y-80521905D01*
X8527676Y-80521905D02*
X8622914Y-80426667D01*
X8622914Y-80426667D02*
X8670533Y-80331429D01*
X9384819Y-81236191D02*
X8718152Y-81760000D01*
X8718152Y-81236191D02*
X9384819Y-81760000D01*
X9384819Y-82664762D02*
X9384819Y-82093334D01*
X9384819Y-82379048D02*
X8384819Y-82379048D01*
X8384819Y-82379048D02*
X8527676Y-82283810D01*
X8527676Y-82283810D02*
X8622914Y-82188572D01*
X8622914Y-82188572D02*
X8670533Y-82093334D01*
X8384819Y-83569524D02*
X8384819Y-83093334D01*
X8384819Y-83093334D02*
X8861009Y-83045715D01*
X8861009Y-83045715D02*
X8813390Y-83093334D01*
X8813390Y-83093334D02*
X8765771Y-83188572D01*
X8765771Y-83188572D02*
X8765771Y-83426667D01*
X8765771Y-83426667D02*
X8813390Y-83521905D01*
X8813390Y-83521905D02*
X8861009Y-83569524D01*
X8861009Y-83569524D02*
X8956247Y-83617143D01*
X8956247Y-83617143D02*
X9194342Y-83617143D01*
X9194342Y-83617143D02*
X9289580Y-83569524D01*
X9289580Y-83569524D02*
X9337200Y-83521905D01*
X9337200Y-83521905D02*
X9384819Y-83426667D01*
X9384819Y-83426667D02*
X9384819Y-83188572D01*
X9384819Y-83188572D02*
X9337200Y-83093334D01*
X9337200Y-83093334D02*
X9289580Y-83045715D01*
X29813333Y-78714819D02*
X29813333Y-79429104D01*
X29813333Y-79429104D02*
X29860952Y-79571961D01*
X29860952Y-79571961D02*
X29956190Y-79667200D01*
X29956190Y-79667200D02*
X30099047Y-79714819D01*
X30099047Y-79714819D02*
X30194285Y-79714819D01*
X29384761Y-78810057D02*
X29337142Y-78762438D01*
X29337142Y-78762438D02*
X29241904Y-78714819D01*
X29241904Y-78714819D02*
X29003809Y-78714819D01*
X29003809Y-78714819D02*
X28908571Y-78762438D01*
X28908571Y-78762438D02*
X28860952Y-78810057D01*
X28860952Y-78810057D02*
X28813333Y-78905295D01*
X28813333Y-78905295D02*
X28813333Y-79000533D01*
X28813333Y-79000533D02*
X28860952Y-79143390D01*
X28860952Y-79143390D02*
X29432380Y-79714819D01*
X29432380Y-79714819D02*
X28813333Y-79714819D01*
X41809523Y-66454819D02*
X41809523Y-65454819D01*
X41809523Y-65454819D02*
X41476190Y-66169104D01*
X41476190Y-66169104D02*
X41142857Y-65454819D01*
X41142857Y-65454819D02*
X41142857Y-66454819D01*
X40333333Y-65931009D02*
X40666666Y-65931009D01*
X40666666Y-66454819D02*
X40666666Y-65454819D01*
X40666666Y-65454819D02*
X40190476Y-65454819D01*
X39809523Y-66073866D02*
X39047619Y-66073866D01*
X38000000Y-66454819D02*
X38333333Y-65978628D01*
X38571428Y-66454819D02*
X38571428Y-65454819D01*
X38571428Y-65454819D02*
X38190476Y-65454819D01*
X38190476Y-65454819D02*
X38095238Y-65502438D01*
X38095238Y-65502438D02*
X38047619Y-65550057D01*
X38047619Y-65550057D02*
X38000000Y-65645295D01*
X38000000Y-65645295D02*
X38000000Y-65788152D01*
X38000000Y-65788152D02*
X38047619Y-65883390D01*
X38047619Y-65883390D02*
X38095238Y-65931009D01*
X38095238Y-65931009D02*
X38190476Y-65978628D01*
X38190476Y-65978628D02*
X38571428Y-65978628D01*
X37380952Y-65454819D02*
X37285714Y-65454819D01*
X37285714Y-65454819D02*
X37190476Y-65502438D01*
X37190476Y-65502438D02*
X37142857Y-65550057D01*
X37142857Y-65550057D02*
X37095238Y-65645295D01*
X37095238Y-65645295D02*
X37047619Y-65835771D01*
X37047619Y-65835771D02*
X37047619Y-66073866D01*
X37047619Y-66073866D02*
X37095238Y-66264342D01*
X37095238Y-66264342D02*
X37142857Y-66359580D01*
X37142857Y-66359580D02*
X37190476Y-66407200D01*
X37190476Y-66407200D02*
X37285714Y-66454819D01*
X37285714Y-66454819D02*
X37380952Y-66454819D01*
X37380952Y-66454819D02*
X37476190Y-66407200D01*
X37476190Y-66407200D02*
X37523809Y-66359580D01*
X37523809Y-66359580D02*
X37571428Y-66264342D01*
X37571428Y-66264342D02*
X37619047Y-66073866D01*
X37619047Y-66073866D02*
X37619047Y-65835771D01*
X37619047Y-65835771D02*
X37571428Y-65645295D01*
X37571428Y-65645295D02*
X37523809Y-65550057D01*
X37523809Y-65550057D02*
X37476190Y-65502438D01*
X37476190Y-65502438D02*
X37380952Y-65454819D01*
X36142857Y-65454819D02*
X36619047Y-65454819D01*
X36619047Y-65454819D02*
X36666666Y-65931009D01*
X36666666Y-65931009D02*
X36619047Y-65883390D01*
X36619047Y-65883390D02*
X36523809Y-65835771D01*
X36523809Y-65835771D02*
X36285714Y-65835771D01*
X36285714Y-65835771D02*
X36190476Y-65883390D01*
X36190476Y-65883390D02*
X36142857Y-65931009D01*
X36142857Y-65931009D02*
X36095238Y-66026247D01*
X36095238Y-66026247D02*
X36095238Y-66264342D01*
X36095238Y-66264342D02*
X36142857Y-66359580D01*
X36142857Y-66359580D02*
X36190476Y-66407200D01*
X36190476Y-66407200D02*
X36285714Y-66454819D01*
X36285714Y-66454819D02*
X36523809Y-66454819D01*
X36523809Y-66454819D02*
X36619047Y-66407200D01*
X36619047Y-66407200D02*
X36666666Y-66359580D01*
X35476190Y-65454819D02*
X35380952Y-65454819D01*
X35380952Y-65454819D02*
X35285714Y-65502438D01*
X35285714Y-65502438D02*
X35238095Y-65550057D01*
X35238095Y-65550057D02*
X35190476Y-65645295D01*
X35190476Y-65645295D02*
X35142857Y-65835771D01*
X35142857Y-65835771D02*
X35142857Y-66073866D01*
X35142857Y-66073866D02*
X35190476Y-66264342D01*
X35190476Y-66264342D02*
X35238095Y-66359580D01*
X35238095Y-66359580D02*
X35285714Y-66407200D01*
X35285714Y-66407200D02*
X35380952Y-66454819D01*
X35380952Y-66454819D02*
X35476190Y-66454819D01*
X35476190Y-66454819D02*
X35571428Y-66407200D01*
X35571428Y-66407200D02*
X35619047Y-66359580D01*
X35619047Y-66359580D02*
X35666666Y-66264342D01*
X35666666Y-66264342D02*
X35714285Y-66073866D01*
X35714285Y-66073866D02*
X35714285Y-65835771D01*
X35714285Y-65835771D02*
X35666666Y-65645295D01*
X35666666Y-65645295D02*
X35619047Y-65550057D01*
X35619047Y-65550057D02*
X35571428Y-65502438D01*
X35571428Y-65502438D02*
X35476190Y-65454819D01*
X33761904Y-65454819D02*
X33666666Y-65454819D01*
X33666666Y-65454819D02*
X33571428Y-65502438D01*
X33571428Y-65502438D02*
X33523809Y-65550057D01*
X33523809Y-65550057D02*
X33476190Y-65645295D01*
X33476190Y-65645295D02*
X33428571Y-65835771D01*
X33428571Y-65835771D02*
X33428571Y-66073866D01*
X33428571Y-66073866D02*
X33476190Y-66264342D01*
X33476190Y-66264342D02*
X33523809Y-66359580D01*
X33523809Y-66359580D02*
X33571428Y-66407200D01*
X33571428Y-66407200D02*
X33666666Y-66454819D01*
X33666666Y-66454819D02*
X33761904Y-66454819D01*
X33761904Y-66454819D02*
X33857142Y-66407200D01*
X33857142Y-66407200D02*
X33904761Y-66359580D01*
X33904761Y-66359580D02*
X33952380Y-66264342D01*
X33952380Y-66264342D02*
X33999999Y-66073866D01*
X33999999Y-66073866D02*
X33999999Y-65835771D01*
X33999999Y-65835771D02*
X33952380Y-65645295D01*
X33952380Y-65645295D02*
X33904761Y-65550057D01*
X33904761Y-65550057D02*
X33857142Y-65502438D01*
X33857142Y-65502438D02*
X33761904Y-65454819D01*
X32999999Y-66359580D02*
X32952380Y-66407200D01*
X32952380Y-66407200D02*
X32999999Y-66454819D01*
X32999999Y-66454819D02*
X33047618Y-66407200D01*
X33047618Y-66407200D02*
X32999999Y-66359580D01*
X32999999Y-66359580D02*
X32999999Y-66454819D01*
X32047619Y-65454819D02*
X32523809Y-65454819D01*
X32523809Y-65454819D02*
X32571428Y-65931009D01*
X32571428Y-65931009D02*
X32523809Y-65883390D01*
X32523809Y-65883390D02*
X32428571Y-65835771D01*
X32428571Y-65835771D02*
X32190476Y-65835771D01*
X32190476Y-65835771D02*
X32095238Y-65883390D01*
X32095238Y-65883390D02*
X32047619Y-65931009D01*
X32047619Y-65931009D02*
X32000000Y-66026247D01*
X32000000Y-66026247D02*
X32000000Y-66264342D01*
X32000000Y-66264342D02*
X32047619Y-66359580D01*
X32047619Y-66359580D02*
X32095238Y-66407200D01*
X32095238Y-66407200D02*
X32190476Y-66454819D01*
X32190476Y-66454819D02*
X32428571Y-66454819D01*
X32428571Y-66454819D02*
X32523809Y-66407200D01*
X32523809Y-66407200D02*
X32571428Y-66359580D01*
X31619047Y-66169104D02*
X31142857Y-66169104D01*
X31714285Y-66454819D02*
X31380952Y-65454819D01*
X31380952Y-65454819D02*
X31047619Y-66454819D01*
X36833333Y-68431009D02*
X37166666Y-68431009D01*
X37166666Y-68954819D02*
X37166666Y-67954819D01*
X37166666Y-67954819D02*
X36690476Y-67954819D01*
X36357142Y-68050057D02*
X36309523Y-68002438D01*
X36309523Y-68002438D02*
X36214285Y-67954819D01*
X36214285Y-67954819D02*
X35976190Y-67954819D01*
X35976190Y-67954819D02*
X35880952Y-68002438D01*
X35880952Y-68002438D02*
X35833333Y-68050057D01*
X35833333Y-68050057D02*
X35785714Y-68145295D01*
X35785714Y-68145295D02*
X35785714Y-68240533D01*
X35785714Y-68240533D02*
X35833333Y-68383390D01*
X35833333Y-68383390D02*
X36404761Y-68954819D01*
X36404761Y-68954819D02*
X35785714Y-68954819D01*
X89872858Y-50749580D02*
X89920477Y-50797200D01*
X89920477Y-50797200D02*
X90063334Y-50844819D01*
X90063334Y-50844819D02*
X90158572Y-50844819D01*
X90158572Y-50844819D02*
X90301429Y-50797200D01*
X90301429Y-50797200D02*
X90396667Y-50701961D01*
X90396667Y-50701961D02*
X90444286Y-50606723D01*
X90444286Y-50606723D02*
X90491905Y-50416247D01*
X90491905Y-50416247D02*
X90491905Y-50273390D01*
X90491905Y-50273390D02*
X90444286Y-50082914D01*
X90444286Y-50082914D02*
X90396667Y-49987676D01*
X90396667Y-49987676D02*
X90301429Y-49892438D01*
X90301429Y-49892438D02*
X90158572Y-49844819D01*
X90158572Y-49844819D02*
X90063334Y-49844819D01*
X90063334Y-49844819D02*
X89920477Y-49892438D01*
X89920477Y-49892438D02*
X89872858Y-49940057D01*
X89301429Y-50844819D02*
X89396667Y-50797200D01*
X89396667Y-50797200D02*
X89444286Y-50749580D01*
X89444286Y-50749580D02*
X89491905Y-50654342D01*
X89491905Y-50654342D02*
X89491905Y-50368628D01*
X89491905Y-50368628D02*
X89444286Y-50273390D01*
X89444286Y-50273390D02*
X89396667Y-50225771D01*
X89396667Y-50225771D02*
X89301429Y-50178152D01*
X89301429Y-50178152D02*
X89158572Y-50178152D01*
X89158572Y-50178152D02*
X89063334Y-50225771D01*
X89063334Y-50225771D02*
X89015715Y-50273390D01*
X89015715Y-50273390D02*
X88968096Y-50368628D01*
X88968096Y-50368628D02*
X88968096Y-50654342D01*
X88968096Y-50654342D02*
X89015715Y-50749580D01*
X89015715Y-50749580D02*
X89063334Y-50797200D01*
X89063334Y-50797200D02*
X89158572Y-50844819D01*
X89158572Y-50844819D02*
X89301429Y-50844819D01*
X88539524Y-50178152D02*
X88539524Y-50844819D01*
X88539524Y-50273390D02*
X88491905Y-50225771D01*
X88491905Y-50225771D02*
X88396667Y-50178152D01*
X88396667Y-50178152D02*
X88253810Y-50178152D01*
X88253810Y-50178152D02*
X88158572Y-50225771D01*
X88158572Y-50225771D02*
X88110953Y-50321009D01*
X88110953Y-50321009D02*
X88110953Y-50844819D01*
X87634762Y-50178152D02*
X87634762Y-50844819D01*
X87634762Y-50273390D02*
X87587143Y-50225771D01*
X87587143Y-50225771D02*
X87491905Y-50178152D01*
X87491905Y-50178152D02*
X87349048Y-50178152D01*
X87349048Y-50178152D02*
X87253810Y-50225771D01*
X87253810Y-50225771D02*
X87206191Y-50321009D01*
X87206191Y-50321009D02*
X87206191Y-50844819D01*
X86968096Y-50940057D02*
X86206191Y-50940057D01*
X85777619Y-49844819D02*
X85682381Y-49844819D01*
X85682381Y-49844819D02*
X85587143Y-49892438D01*
X85587143Y-49892438D02*
X85539524Y-49940057D01*
X85539524Y-49940057D02*
X85491905Y-50035295D01*
X85491905Y-50035295D02*
X85444286Y-50225771D01*
X85444286Y-50225771D02*
X85444286Y-50463866D01*
X85444286Y-50463866D02*
X85491905Y-50654342D01*
X85491905Y-50654342D02*
X85539524Y-50749580D01*
X85539524Y-50749580D02*
X85587143Y-50797200D01*
X85587143Y-50797200D02*
X85682381Y-50844819D01*
X85682381Y-50844819D02*
X85777619Y-50844819D01*
X85777619Y-50844819D02*
X85872857Y-50797200D01*
X85872857Y-50797200D02*
X85920476Y-50749580D01*
X85920476Y-50749580D02*
X85968095Y-50654342D01*
X85968095Y-50654342D02*
X86015714Y-50463866D01*
X86015714Y-50463866D02*
X86015714Y-50225771D01*
X86015714Y-50225771D02*
X85968095Y-50035295D01*
X85968095Y-50035295D02*
X85920476Y-49940057D01*
X85920476Y-49940057D02*
X85872857Y-49892438D01*
X85872857Y-49892438D02*
X85777619Y-49844819D01*
X85063333Y-49940057D02*
X85015714Y-49892438D01*
X85015714Y-49892438D02*
X84920476Y-49844819D01*
X84920476Y-49844819D02*
X84682381Y-49844819D01*
X84682381Y-49844819D02*
X84587143Y-49892438D01*
X84587143Y-49892438D02*
X84539524Y-49940057D01*
X84539524Y-49940057D02*
X84491905Y-50035295D01*
X84491905Y-50035295D02*
X84491905Y-50130533D01*
X84491905Y-50130533D02*
X84539524Y-50273390D01*
X84539524Y-50273390D02*
X85110952Y-50844819D01*
X85110952Y-50844819D02*
X84491905Y-50844819D01*
X84158571Y-50844819D02*
X83634762Y-50178152D01*
X84158571Y-50178152D02*
X83634762Y-50844819D01*
X83063333Y-49844819D02*
X82968095Y-49844819D01*
X82968095Y-49844819D02*
X82872857Y-49892438D01*
X82872857Y-49892438D02*
X82825238Y-49940057D01*
X82825238Y-49940057D02*
X82777619Y-50035295D01*
X82777619Y-50035295D02*
X82730000Y-50225771D01*
X82730000Y-50225771D02*
X82730000Y-50463866D01*
X82730000Y-50463866D02*
X82777619Y-50654342D01*
X82777619Y-50654342D02*
X82825238Y-50749580D01*
X82825238Y-50749580D02*
X82872857Y-50797200D01*
X82872857Y-50797200D02*
X82968095Y-50844819D01*
X82968095Y-50844819D02*
X83063333Y-50844819D01*
X83063333Y-50844819D02*
X83158571Y-50797200D01*
X83158571Y-50797200D02*
X83206190Y-50749580D01*
X83206190Y-50749580D02*
X83253809Y-50654342D01*
X83253809Y-50654342D02*
X83301428Y-50463866D01*
X83301428Y-50463866D02*
X83301428Y-50225771D01*
X83301428Y-50225771D02*
X83253809Y-50035295D01*
X83253809Y-50035295D02*
X83206190Y-49940057D01*
X83206190Y-49940057D02*
X83158571Y-49892438D01*
X83158571Y-49892438D02*
X83063333Y-49844819D01*
X81872857Y-50178152D02*
X81872857Y-50844819D01*
X82110952Y-49797200D02*
X82349047Y-50511485D01*
X82349047Y-50511485D02*
X81730000Y-50511485D01*
X81587143Y-50940057D02*
X80825238Y-50940057D01*
X80396666Y-49844819D02*
X80206190Y-49844819D01*
X80206190Y-49844819D02*
X80110952Y-49892438D01*
X80110952Y-49892438D02*
X80015714Y-49987676D01*
X80015714Y-49987676D02*
X79968095Y-50178152D01*
X79968095Y-50178152D02*
X79968095Y-50511485D01*
X79968095Y-50511485D02*
X80015714Y-50701961D01*
X80015714Y-50701961D02*
X80110952Y-50797200D01*
X80110952Y-50797200D02*
X80206190Y-50844819D01*
X80206190Y-50844819D02*
X80396666Y-50844819D01*
X80396666Y-50844819D02*
X80491904Y-50797200D01*
X80491904Y-50797200D02*
X80587142Y-50701961D01*
X80587142Y-50701961D02*
X80634761Y-50511485D01*
X80634761Y-50511485D02*
X80634761Y-50178152D01*
X80634761Y-50178152D02*
X80587142Y-49987676D01*
X80587142Y-49987676D02*
X80491904Y-49892438D01*
X80491904Y-49892438D02*
X80396666Y-49844819D01*
X79110952Y-50844819D02*
X79110952Y-49844819D01*
X79110952Y-50797200D02*
X79206190Y-50844819D01*
X79206190Y-50844819D02*
X79396666Y-50844819D01*
X79396666Y-50844819D02*
X79491904Y-50797200D01*
X79491904Y-50797200D02*
X79539523Y-50749580D01*
X79539523Y-50749580D02*
X79587142Y-50654342D01*
X79587142Y-50654342D02*
X79587142Y-50368628D01*
X79587142Y-50368628D02*
X79539523Y-50273390D01*
X79539523Y-50273390D02*
X79491904Y-50225771D01*
X79491904Y-50225771D02*
X79396666Y-50178152D01*
X79396666Y-50178152D02*
X79206190Y-50178152D01*
X79206190Y-50178152D02*
X79110952Y-50225771D01*
X78206190Y-50844819D02*
X78206190Y-49844819D01*
X78206190Y-50797200D02*
X78301428Y-50844819D01*
X78301428Y-50844819D02*
X78491904Y-50844819D01*
X78491904Y-50844819D02*
X78587142Y-50797200D01*
X78587142Y-50797200D02*
X78634761Y-50749580D01*
X78634761Y-50749580D02*
X78682380Y-50654342D01*
X78682380Y-50654342D02*
X78682380Y-50368628D01*
X78682380Y-50368628D02*
X78634761Y-50273390D01*
X78634761Y-50273390D02*
X78587142Y-50225771D01*
X78587142Y-50225771D02*
X78491904Y-50178152D01*
X78491904Y-50178152D02*
X78301428Y-50178152D01*
X78301428Y-50178152D02*
X78206190Y-50225771D01*
X77968095Y-50940057D02*
X77206190Y-50940057D01*
X76968094Y-50321009D02*
X76634761Y-50321009D01*
X76491904Y-50844819D02*
X76968094Y-50844819D01*
X76968094Y-50844819D02*
X76968094Y-49844819D01*
X76968094Y-49844819D02*
X76491904Y-49844819D01*
X76158570Y-50178152D02*
X75920475Y-50844819D01*
X75920475Y-50844819D02*
X75682380Y-50178152D01*
X74920475Y-50797200D02*
X75015713Y-50844819D01*
X75015713Y-50844819D02*
X75206189Y-50844819D01*
X75206189Y-50844819D02*
X75301427Y-50797200D01*
X75301427Y-50797200D02*
X75349046Y-50701961D01*
X75349046Y-50701961D02*
X75349046Y-50321009D01*
X75349046Y-50321009D02*
X75301427Y-50225771D01*
X75301427Y-50225771D02*
X75206189Y-50178152D01*
X75206189Y-50178152D02*
X75015713Y-50178152D01*
X75015713Y-50178152D02*
X74920475Y-50225771D01*
X74920475Y-50225771D02*
X74872856Y-50321009D01*
X74872856Y-50321009D02*
X74872856Y-50416247D01*
X74872856Y-50416247D02*
X75349046Y-50511485D01*
X74444284Y-50178152D02*
X74444284Y-50844819D01*
X74444284Y-50273390D02*
X74396665Y-50225771D01*
X74396665Y-50225771D02*
X74301427Y-50178152D01*
X74301427Y-50178152D02*
X74158570Y-50178152D01*
X74158570Y-50178152D02*
X74063332Y-50225771D01*
X74063332Y-50225771D02*
X74015713Y-50321009D01*
X74015713Y-50321009D02*
X74015713Y-50844819D01*
X81684819Y-43476666D02*
X82399104Y-43476666D01*
X82399104Y-43476666D02*
X82541961Y-43429047D01*
X82541961Y-43429047D02*
X82637200Y-43333809D01*
X82637200Y-43333809D02*
X82684819Y-43190952D01*
X82684819Y-43190952D02*
X82684819Y-43095714D01*
X81684819Y-44429047D02*
X81684819Y-43952857D01*
X81684819Y-43952857D02*
X82161009Y-43905238D01*
X82161009Y-43905238D02*
X82113390Y-43952857D01*
X82113390Y-43952857D02*
X82065771Y-44048095D01*
X82065771Y-44048095D02*
X82065771Y-44286190D01*
X82065771Y-44286190D02*
X82113390Y-44381428D01*
X82113390Y-44381428D02*
X82161009Y-44429047D01*
X82161009Y-44429047D02*
X82256247Y-44476666D01*
X82256247Y-44476666D02*
X82494342Y-44476666D01*
X82494342Y-44476666D02*
X82589580Y-44429047D01*
X82589580Y-44429047D02*
X82637200Y-44381428D01*
X82637200Y-44381428D02*
X82684819Y-44286190D01*
X82684819Y-44286190D02*
X82684819Y-44048095D01*
X82684819Y-44048095D02*
X82637200Y-43952857D01*
X82637200Y-43952857D02*
X82589580Y-43905238D01*
X9319580Y-25927141D02*
X9367200Y-25879522D01*
X9367200Y-25879522D02*
X9414819Y-25736665D01*
X9414819Y-25736665D02*
X9414819Y-25641427D01*
X9414819Y-25641427D02*
X9367200Y-25498570D01*
X9367200Y-25498570D02*
X9271961Y-25403332D01*
X9271961Y-25403332D02*
X9176723Y-25355713D01*
X9176723Y-25355713D02*
X8986247Y-25308094D01*
X8986247Y-25308094D02*
X8843390Y-25308094D01*
X8843390Y-25308094D02*
X8652914Y-25355713D01*
X8652914Y-25355713D02*
X8557676Y-25403332D01*
X8557676Y-25403332D02*
X8462438Y-25498570D01*
X8462438Y-25498570D02*
X8414819Y-25641427D01*
X8414819Y-25641427D02*
X8414819Y-25736665D01*
X8414819Y-25736665D02*
X8462438Y-25879522D01*
X8462438Y-25879522D02*
X8510057Y-25927141D01*
X9414819Y-26498570D02*
X9367200Y-26403332D01*
X9367200Y-26403332D02*
X9319580Y-26355713D01*
X9319580Y-26355713D02*
X9224342Y-26308094D01*
X9224342Y-26308094D02*
X8938628Y-26308094D01*
X8938628Y-26308094D02*
X8843390Y-26355713D01*
X8843390Y-26355713D02*
X8795771Y-26403332D01*
X8795771Y-26403332D02*
X8748152Y-26498570D01*
X8748152Y-26498570D02*
X8748152Y-26641427D01*
X8748152Y-26641427D02*
X8795771Y-26736665D01*
X8795771Y-26736665D02*
X8843390Y-26784284D01*
X8843390Y-26784284D02*
X8938628Y-26831903D01*
X8938628Y-26831903D02*
X9224342Y-26831903D01*
X9224342Y-26831903D02*
X9319580Y-26784284D01*
X9319580Y-26784284D02*
X9367200Y-26736665D01*
X9367200Y-26736665D02*
X9414819Y-26641427D01*
X9414819Y-26641427D02*
X9414819Y-26498570D01*
X8748152Y-27260475D02*
X9414819Y-27260475D01*
X8843390Y-27260475D02*
X8795771Y-27308094D01*
X8795771Y-27308094D02*
X8748152Y-27403332D01*
X8748152Y-27403332D02*
X8748152Y-27546189D01*
X8748152Y-27546189D02*
X8795771Y-27641427D01*
X8795771Y-27641427D02*
X8891009Y-27689046D01*
X8891009Y-27689046D02*
X9414819Y-27689046D01*
X8748152Y-28165237D02*
X9414819Y-28165237D01*
X8843390Y-28165237D02*
X8795771Y-28212856D01*
X8795771Y-28212856D02*
X8748152Y-28308094D01*
X8748152Y-28308094D02*
X8748152Y-28450951D01*
X8748152Y-28450951D02*
X8795771Y-28546189D01*
X8795771Y-28546189D02*
X8891009Y-28593808D01*
X8891009Y-28593808D02*
X9414819Y-28593808D01*
X9510057Y-28831904D02*
X9510057Y-29593808D01*
X8414819Y-30022380D02*
X8414819Y-30117618D01*
X8414819Y-30117618D02*
X8462438Y-30212856D01*
X8462438Y-30212856D02*
X8510057Y-30260475D01*
X8510057Y-30260475D02*
X8605295Y-30308094D01*
X8605295Y-30308094D02*
X8795771Y-30355713D01*
X8795771Y-30355713D02*
X9033866Y-30355713D01*
X9033866Y-30355713D02*
X9224342Y-30308094D01*
X9224342Y-30308094D02*
X9319580Y-30260475D01*
X9319580Y-30260475D02*
X9367200Y-30212856D01*
X9367200Y-30212856D02*
X9414819Y-30117618D01*
X9414819Y-30117618D02*
X9414819Y-30022380D01*
X9414819Y-30022380D02*
X9367200Y-29927142D01*
X9367200Y-29927142D02*
X9319580Y-29879523D01*
X9319580Y-29879523D02*
X9224342Y-29831904D01*
X9224342Y-29831904D02*
X9033866Y-29784285D01*
X9033866Y-29784285D02*
X8795771Y-29784285D01*
X8795771Y-29784285D02*
X8605295Y-29831904D01*
X8605295Y-29831904D02*
X8510057Y-29879523D01*
X8510057Y-29879523D02*
X8462438Y-29927142D01*
X8462438Y-29927142D02*
X8414819Y-30022380D01*
X8510057Y-30736666D02*
X8462438Y-30784285D01*
X8462438Y-30784285D02*
X8414819Y-30879523D01*
X8414819Y-30879523D02*
X8414819Y-31117618D01*
X8414819Y-31117618D02*
X8462438Y-31212856D01*
X8462438Y-31212856D02*
X8510057Y-31260475D01*
X8510057Y-31260475D02*
X8605295Y-31308094D01*
X8605295Y-31308094D02*
X8700533Y-31308094D01*
X8700533Y-31308094D02*
X8843390Y-31260475D01*
X8843390Y-31260475D02*
X9414819Y-30689047D01*
X9414819Y-30689047D02*
X9414819Y-31308094D01*
X9414819Y-31641428D02*
X8748152Y-32165237D01*
X8748152Y-31641428D02*
X9414819Y-32165237D01*
X9414819Y-33069999D02*
X9414819Y-32498571D01*
X9414819Y-32784285D02*
X8414819Y-32784285D01*
X8414819Y-32784285D02*
X8557676Y-32689047D01*
X8557676Y-32689047D02*
X8652914Y-32593809D01*
X8652914Y-32593809D02*
X8700533Y-32498571D01*
X8414819Y-33974761D02*
X8414819Y-33498571D01*
X8414819Y-33498571D02*
X8891009Y-33450952D01*
X8891009Y-33450952D02*
X8843390Y-33498571D01*
X8843390Y-33498571D02*
X8795771Y-33593809D01*
X8795771Y-33593809D02*
X8795771Y-33831904D01*
X8795771Y-33831904D02*
X8843390Y-33927142D01*
X8843390Y-33927142D02*
X8891009Y-33974761D01*
X8891009Y-33974761D02*
X8986247Y-34022380D01*
X8986247Y-34022380D02*
X9224342Y-34022380D01*
X9224342Y-34022380D02*
X9319580Y-33974761D01*
X9319580Y-33974761D02*
X9367200Y-33927142D01*
X9367200Y-33927142D02*
X9414819Y-33831904D01*
X9414819Y-33831904D02*
X9414819Y-33593809D01*
X9414819Y-33593809D02*
X9367200Y-33498571D01*
X9367200Y-33498571D02*
X9319580Y-33450952D01*
X9510057Y-34212857D02*
X9510057Y-34974761D01*
X8414819Y-35403333D02*
X8414819Y-35593809D01*
X8414819Y-35593809D02*
X8462438Y-35689047D01*
X8462438Y-35689047D02*
X8557676Y-35784285D01*
X8557676Y-35784285D02*
X8748152Y-35831904D01*
X8748152Y-35831904D02*
X9081485Y-35831904D01*
X9081485Y-35831904D02*
X9271961Y-35784285D01*
X9271961Y-35784285D02*
X9367200Y-35689047D01*
X9367200Y-35689047D02*
X9414819Y-35593809D01*
X9414819Y-35593809D02*
X9414819Y-35403333D01*
X9414819Y-35403333D02*
X9367200Y-35308095D01*
X9367200Y-35308095D02*
X9271961Y-35212857D01*
X9271961Y-35212857D02*
X9081485Y-35165238D01*
X9081485Y-35165238D02*
X8748152Y-35165238D01*
X8748152Y-35165238D02*
X8557676Y-35212857D01*
X8557676Y-35212857D02*
X8462438Y-35308095D01*
X8462438Y-35308095D02*
X8414819Y-35403333D01*
X9414819Y-36689047D02*
X8414819Y-36689047D01*
X9367200Y-36689047D02*
X9414819Y-36593809D01*
X9414819Y-36593809D02*
X9414819Y-36403333D01*
X9414819Y-36403333D02*
X9367200Y-36308095D01*
X9367200Y-36308095D02*
X9319580Y-36260476D01*
X9319580Y-36260476D02*
X9224342Y-36212857D01*
X9224342Y-36212857D02*
X8938628Y-36212857D01*
X8938628Y-36212857D02*
X8843390Y-36260476D01*
X8843390Y-36260476D02*
X8795771Y-36308095D01*
X8795771Y-36308095D02*
X8748152Y-36403333D01*
X8748152Y-36403333D02*
X8748152Y-36593809D01*
X8748152Y-36593809D02*
X8795771Y-36689047D01*
X9414819Y-37593809D02*
X8414819Y-37593809D01*
X9367200Y-37593809D02*
X9414819Y-37498571D01*
X9414819Y-37498571D02*
X9414819Y-37308095D01*
X9414819Y-37308095D02*
X9367200Y-37212857D01*
X9367200Y-37212857D02*
X9319580Y-37165238D01*
X9319580Y-37165238D02*
X9224342Y-37117619D01*
X9224342Y-37117619D02*
X8938628Y-37117619D01*
X8938628Y-37117619D02*
X8843390Y-37165238D01*
X8843390Y-37165238D02*
X8795771Y-37212857D01*
X8795771Y-37212857D02*
X8748152Y-37308095D01*
X8748152Y-37308095D02*
X8748152Y-37498571D01*
X8748152Y-37498571D02*
X8795771Y-37593809D01*
X9510057Y-37831905D02*
X9510057Y-38593809D01*
X8891009Y-38831905D02*
X8891009Y-39165238D01*
X9414819Y-39308095D02*
X9414819Y-38831905D01*
X9414819Y-38831905D02*
X8414819Y-38831905D01*
X8414819Y-38831905D02*
X8414819Y-39308095D01*
X8748152Y-39641429D02*
X9414819Y-39879524D01*
X9414819Y-39879524D02*
X8748152Y-40117619D01*
X9367200Y-40879524D02*
X9414819Y-40784286D01*
X9414819Y-40784286D02*
X9414819Y-40593810D01*
X9414819Y-40593810D02*
X9367200Y-40498572D01*
X9367200Y-40498572D02*
X9271961Y-40450953D01*
X9271961Y-40450953D02*
X8891009Y-40450953D01*
X8891009Y-40450953D02*
X8795771Y-40498572D01*
X8795771Y-40498572D02*
X8748152Y-40593810D01*
X8748152Y-40593810D02*
X8748152Y-40784286D01*
X8748152Y-40784286D02*
X8795771Y-40879524D01*
X8795771Y-40879524D02*
X8891009Y-40927143D01*
X8891009Y-40927143D02*
X8986247Y-40927143D01*
X8986247Y-40927143D02*
X9081485Y-40450953D01*
X8748152Y-41355715D02*
X9414819Y-41355715D01*
X8843390Y-41355715D02*
X8795771Y-41403334D01*
X8795771Y-41403334D02*
X8748152Y-41498572D01*
X8748152Y-41498572D02*
X8748152Y-41641429D01*
X8748152Y-41641429D02*
X8795771Y-41736667D01*
X8795771Y-41736667D02*
X8891009Y-41784286D01*
X8891009Y-41784286D02*
X9414819Y-41784286D01*
X29843333Y-33024819D02*
X29843333Y-33739104D01*
X29843333Y-33739104D02*
X29890952Y-33881961D01*
X29890952Y-33881961D02*
X29986190Y-33977200D01*
X29986190Y-33977200D02*
X30129047Y-34024819D01*
X30129047Y-34024819D02*
X30224285Y-34024819D01*
X28843333Y-34024819D02*
X29414761Y-34024819D01*
X29129047Y-34024819D02*
X29129047Y-33024819D01*
X29129047Y-33024819D02*
X29224285Y-33167676D01*
X29224285Y-33167676D02*
X29319523Y-33262914D01*
X29319523Y-33262914D02*
X29414761Y-33310533D01*
%TO.C,J8*%
D11*
X82730000Y-71690000D02*
X82730000Y-83755000D01*
X82730000Y-83755000D02*
X83365000Y-84390000D01*
X83365000Y-84390000D02*
X85270000Y-84390000D01*
X85270000Y-71690000D02*
X82730000Y-71690000D01*
X85270000Y-84390000D02*
X85270000Y-71690000D01*
%TO.C,J11*%
X75770000Y-89865000D02*
X75770000Y-91770000D01*
X75770000Y-91770000D02*
X83390000Y-91770000D01*
X76405000Y-89230000D02*
X75770000Y-89865000D01*
X83390000Y-89230000D02*
X76405000Y-89230000D01*
X83390000Y-91770000D02*
X83390000Y-89230000D01*
%TO.C,C2*%
X52000000Y-42750000D02*
X57000000Y-42750000D01*
X57000000Y-45250000D01*
X52000000Y-45250000D01*
X52000000Y-42750000D01*
%TO.C,J10*%
X3230000Y-78110000D02*
X3230000Y-87635000D01*
X3230000Y-87635000D02*
X3865000Y-88270000D01*
X3865000Y-88270000D02*
X5770000Y-88270000D01*
X5770000Y-78110000D02*
X3230000Y-78110000D01*
X5770000Y-88270000D02*
X5770000Y-78110000D01*
%TO.C,C1*%
X52000000Y-50750000D02*
X57000000Y-50750000D01*
X57000000Y-53250000D01*
X52000000Y-53250000D01*
X52000000Y-50750000D01*
%TO.C,J6b*%
D12*
X75500000Y-32000000D02*
G75*
G02*
X73500000Y-32000000I-1000000J0D01*
G01*
X73500000Y-32000000D02*
G75*
G02*
X75500000Y-32000000I1000000J0D01*
G01*
X75000000Y-32000000D02*
G75*
G02*
X74000000Y-32000000I-500000J0D01*
G01*
X74000000Y-32000000D02*
G75*
G02*
X75000000Y-32000000I500000J0D01*
G01*
%TO.C,F1*%
D11*
X21000000Y-66900000D02*
X28100000Y-66900000D01*
X28100000Y-69900000D01*
X21000000Y-69900000D01*
X21000000Y-66900000D01*
%TO.C,J5b*%
D12*
X77460000Y-40040000D02*
G75*
G02*
X75460000Y-40040000I-1000000J0D01*
G01*
X75460000Y-40040000D02*
G75*
G02*
X77460000Y-40040000I1000000J0D01*
G01*
X76960000Y-40040000D02*
G75*
G02*
X75960000Y-40040000I-500000J0D01*
G01*
X75960000Y-40040000D02*
G75*
G02*
X76960000Y-40040000I500000J0D01*
G01*
%TO.C,J6*%
D11*
X73110000Y-23190000D02*
X73110000Y-27270000D01*
X73110000Y-27270000D02*
X74110000Y-28270000D01*
X74110000Y-28270000D02*
X83270000Y-28270000D01*
X83270000Y-23190000D02*
X73110000Y-23190000D01*
X83270000Y-28270000D02*
X83270000Y-23190000D01*
%TO.C,J2*%
X10430000Y-77990000D02*
X10430000Y-80530000D01*
X10430000Y-80530000D02*
X48530000Y-80530000D01*
X47895000Y-77990000D02*
X10430000Y-77990000D01*
X48530000Y-78625000D02*
X47895000Y-77990000D01*
X48530000Y-80530000D02*
X48530000Y-78625000D01*
%TO.C,F2*%
X32950000Y-67000000D02*
X40050000Y-67000000D01*
X40050000Y-70000000D01*
X32950000Y-70000000D01*
X32950000Y-67000000D01*
%TO.C,J5*%
X79690000Y-39730000D02*
X79690000Y-48890000D01*
X79690000Y-48890000D02*
X84770000Y-48890000D01*
X80690000Y-38730000D02*
X79690000Y-39730000D01*
X84770000Y-38730000D02*
X80690000Y-38730000D01*
X84770000Y-48890000D02*
X84770000Y-38730000D01*
%TO.C,J1*%
X10460000Y-31030000D02*
X10460000Y-36110000D01*
X10460000Y-36110000D02*
X48560000Y-36110000D01*
X47560000Y-31030000D02*
X10460000Y-31030000D01*
X48560000Y-32030000D02*
X47560000Y-31030000D01*
X48560000Y-36110000D02*
X48560000Y-32030000D01*
%TD*%
M02*
