M48
; DRILL file KiCad 10.0.3 date 2026-07-08T14:40:19
; FORMAT={-:-/ absolute / metric / decimal}
; #@! TF.CreationDate,2026-07-08T14:40:19-04:00
; #@! TF.GenerationSoftware,Kicad,Pcbnew,10.0.3
; #@! TF.FileFunction,MixedPlating,1,2
FMAT,2
METRIC
; #@! TA.AperFunction,Plated,PTH,ViaDrill
T1C0.300
; #@! TA.AperFunction,Plated,PTH,ComponentDrill
T2C0.800
; #@! TA.AperFunction,Plated,PTH,ComponentDrill
T3C1.000
; #@! TA.AperFunction,Plated,PTH,ComponentDrill
T4C1.010
; #@! TA.AperFunction,Plated,PTH,ComponentDrill
T5C1.100
; #@! TA.AperFunction,NonPlated,NPTH,ComponentDrill
T6C2.700
%
G90
G05
T1
X2.524Y-74.204
X7.428Y-30.302
X8.903Y-74.975
X9.293Y-27.572
X25.351Y-31.064
X27.541Y-36.603
X39.134Y-71.589
X39.257Y-65.568
X39.298Y-77.9
X40.258Y-72.303
X40.713Y-68.775
X41.257Y-65.007
X41.859Y-66.461
X42.222Y-63.783
X43.639Y-35.992
X44.791Y-64.075
X60.117Y-57.775
X61.75Y-57.536
X67.171Y-44.0
X78.043Y-42.54
X79.58Y-58.379
T2
X52.0Y-44.0
X52.0Y-52.0
X57.0Y-44.0
X57.0Y-52.0
T3
X4.5Y-82.38
X4.5Y-84.92
X4.5Y-87.46
X4.5Y-90.0
X5.5Y-38.99
X5.5Y-41.53
X5.5Y-44.07
X5.5Y-46.61
X5.5Y-49.15
X5.5Y-51.69
X5.5Y-54.23
X5.5Y-56.77
X5.5Y-59.31
X5.5Y-61.85
X5.5Y-64.39
X5.5Y-66.93
X5.5Y-69.47
X5.5Y-72.01
X6.84Y-25.0
X9.38Y-25.0
X11.7Y-79.26
X11.73Y-32.3
X11.73Y-34.84
X11.92Y-25.0
X14.24Y-79.26
X14.27Y-32.3
X14.27Y-34.84
X14.46Y-25.0
X16.78Y-79.26
X16.81Y-32.3
X16.81Y-34.84
X17.0Y-25.0
X19.32Y-79.26
X19.35Y-32.3
X19.35Y-34.84
X19.54Y-25.0
X21.86Y-79.26
X21.89Y-32.3
X21.89Y-34.84
X22.08Y-25.0
X23.15Y-48.92
X23.15Y-51.46
X23.15Y-54.0
X23.15Y-56.54
X23.15Y-59.08
X23.34Y-46.38
X23.34Y-61.62
X24.4Y-79.26
X24.43Y-32.3
X24.43Y-34.84
X24.62Y-25.0
X25.88Y-46.38
X25.88Y-61.62
X26.94Y-79.26
X26.97Y-32.3
X26.97Y-34.84
X28.42Y-46.38
X28.42Y-61.62
X29.48Y-79.26
X29.51Y-32.3
X29.51Y-34.84
X30.96Y-46.38
X30.96Y-61.62
X32.02Y-79.26
X32.05Y-32.3
X32.05Y-34.84
X33.5Y-46.38
X33.5Y-61.62
X34.56Y-79.26
X34.59Y-32.3
X34.59Y-34.84
X36.04Y-46.38
X36.04Y-61.62
X37.1Y-79.26
X37.13Y-32.3
X37.13Y-34.84
X38.58Y-46.38
X38.58Y-61.62
X39.64Y-79.26
X39.67Y-32.3
X39.67Y-34.84
X41.12Y-46.38
X41.12Y-61.62
X42.18Y-79.26
X42.21Y-32.3
X42.21Y-34.84
X42.4Y-25.0
X43.66Y-46.38
X43.66Y-61.62
X44.72Y-79.26
X44.75Y-32.3
X44.75Y-34.84
X44.94Y-25.0
X47.26Y-79.26
X47.29Y-32.3
X47.29Y-34.84
X47.48Y-25.0
X50.02Y-25.0
X52.56Y-25.0
X55.1Y-25.0
X57.64Y-25.0
X60.18Y-25.0
X62.72Y-25.0
X65.26Y-25.0
X74.38Y-24.46
X74.38Y-27.0
X74.5Y-32.0
X76.46Y-40.04
X76.92Y-24.46
X76.92Y-27.0
X77.04Y-90.5
X79.46Y-24.46
X79.46Y-27.0
X79.58Y-90.5
X80.96Y-40.0
X80.96Y-42.54
X80.96Y-45.08
X80.96Y-47.62
X82.0Y-24.46
X82.0Y-27.0
X82.12Y-90.5
X83.5Y-40.0
X83.5Y-42.54
X83.5Y-45.08
X83.5Y-47.62
X84.0Y-72.96
X84.0Y-75.5
X84.0Y-78.04
X84.0Y-80.58
X84.0Y-83.12
T4
X22.0Y-69.0
X27.1Y-67.8
X33.95Y-69.1
X39.05Y-67.9
T5
X16.75Y-85.75
X16.75Y-90.25
X23.25Y-85.75
X23.25Y-90.25
X31.75Y-85.75
X31.75Y-90.25
X38.25Y-85.75
X38.25Y-90.25
X46.75Y-85.75
X46.75Y-90.25
X53.25Y-85.75
X53.25Y-90.25
X61.75Y-85.75
X61.75Y-90.25
X68.25Y-85.75
X68.25Y-90.25
T6
X7.59Y-33.73
X7.59Y-77.53
X51.39Y-33.73
X51.39Y-77.53
M30
