%TF.GenerationSoftware,KiCad,Pcbnew,10.0.3*%
%TF.CreationDate,2026-07-08T14:40:18-04:00*%
%TF.ProjectId,a7s_backplane_rev2,6137735f-6261-4636-9b70-6c616e655f72,rev?*%
%TF.SameCoordinates,Original*%
%TF.FileFunction,Copper,L2,Bot*%
%TF.FilePolarity,Positive*%
%FSLAX46Y46*%
G04 Gerber Fmt 4.6, Leading zero omitted, Abs format (unit mm)*
G04 Created by KiCad (PCBNEW 10.0.3) date 2026-07-08 14:40:18*
%MOMM*%
%LPD*%
G01*
G04 APERTURE LIST*
%TA.AperFunction,ComponentPad*%
%ADD10C,2.000000*%
%TD*%
%TA.AperFunction,ComponentPad*%
%ADD11C,1.600000*%
%TD*%
%TA.AperFunction,ComponentPad*%
%ADD12R,1.700000X1.700000*%
%TD*%
%TA.AperFunction,ComponentPad*%
%ADD13O,1.700000X1.700000*%
%TD*%
%TA.AperFunction,ComponentPad*%
%ADD14C,1.700000*%
%TD*%
%TA.AperFunction,ComponentPad*%
%ADD15C,2.010000*%
%TD*%
%TA.AperFunction,ViaPad*%
%ADD16C,0.600000*%
%TD*%
%TA.AperFunction,Conductor*%
%ADD17C,0.200000*%
%TD*%
G04 APERTURE END LIST*
D10*
%TO.P,SW2,1*%
%TO.N,BTN2*%
X46750000Y-85750000D03*
%TO.N,N/C*%
X53250000Y-85750000D03*
%TO.P,SW2,2*%
%TO.N,GND*%
X46750000Y-90250000D03*
%TO.N,N/C*%
X53250000Y-90250000D03*
%TD*%
%TO.P,SW1,1*%
%TO.N,BTN1*%
X61750000Y-85750000D03*
%TO.N,N/C*%
X68250000Y-85750000D03*
%TO.P,SW1,2*%
%TO.N,GND*%
X61750000Y-90250000D03*
%TO.N,N/C*%
X68250000Y-90250000D03*
%TD*%
%TO.P,SW4,1*%
%TO.N,BTN4*%
X16750000Y-85750000D03*
%TO.N,N/C*%
X23250000Y-85750000D03*
%TO.P,SW4,2*%
%TO.N,GND*%
X16750000Y-90250000D03*
%TO.N,N/C*%
X23250000Y-90250000D03*
%TD*%
%TO.P,SW3,1*%
%TO.N,BTN3*%
X31750000Y-85750000D03*
%TO.N,N/C*%
X38250000Y-85750000D03*
%TO.P,SW3,2*%
%TO.N,GND*%
X31750000Y-90250000D03*
%TO.N,N/C*%
X38250000Y-90250000D03*
%TD*%
D11*
%TO.P,J3,1*%
%TO.N,+5V*%
X5500000Y-38990000D03*
%TO.P,J3,2*%
%TO.N,GND*%
X5500000Y-41530000D03*
%TO.P,J3,3*%
%TO.N,TFT_CS*%
X5500000Y-44070000D03*
%TO.P,J3,4*%
%TO.N,TFT_RST*%
X5500000Y-46610000D03*
%TO.P,J3,5*%
%TO.N,TFT_DC*%
X5500000Y-49150000D03*
%TO.P,J3,6*%
%TO.N,SPI_MOSI*%
X5500000Y-51690000D03*
%TO.P,J3,7*%
%TO.N,SPI_SCK*%
X5500000Y-54230000D03*
%TO.P,J3,8*%
%TO.N,TFT_BL*%
X5500000Y-56770000D03*
%TO.P,J3,9*%
%TO.N,N/C*%
X5500000Y-59310000D03*
%TO.P,J3,10*%
%TO.N,SPI_SCK*%
X5500000Y-61850000D03*
%TO.P,J3,11*%
%TO.N,TOUCH_CS*%
X5500000Y-64390000D03*
%TO.P,J3,12*%
%TO.N,SPI_MOSI*%
X5500000Y-66930000D03*
%TO.P,J3,13*%
%TO.N,SPI_MISO*%
X5500000Y-69470000D03*
%TO.P,J3,14*%
%TO.N,TOUCH_IRQ*%
X5500000Y-72010000D03*
%TD*%
D12*
%TO.P,J12,1*%
%TO.N,+5V*%
X6840000Y-25000000D03*
D13*
%TO.P,J12,2*%
%TO.N,SPI_MOSI*%
X9380000Y-25000000D03*
%TO.P,J12,3*%
%TO.N,SPI_MISO*%
X11920000Y-25000000D03*
%TO.P,J12,4*%
%TO.N,SPARE0*%
X14460000Y-25000000D03*
%TO.P,J12,5*%
%TO.N,SPI_SCK*%
X17000000Y-25000000D03*
%TO.P,J12,6*%
%TO.N,SPARE1*%
X19540000Y-25000000D03*
%TO.P,J12,7*%
%TO.N,SPARE2*%
X22080000Y-25000000D03*
%TO.P,J12,8*%
%TO.N,GND*%
X24620000Y-25000000D03*
D12*
%TO.P,J12,9*%
%TO.N,+3V3*%
X42400000Y-25000000D03*
D13*
%TO.P,J12,10*%
%TO.N,N/C*%
X44940000Y-25000000D03*
%TO.P,J12,11*%
%TO.N,GND*%
X47480000Y-25000000D03*
%TO.P,J12,12*%
%TO.N,N/C*%
X50020000Y-25000000D03*
%TO.P,J12,13*%
%TO.N,UART3_TX*%
X52560000Y-25000000D03*
%TO.P,J12,14*%
%TO.N,UART3_RX*%
X55100000Y-25000000D03*
%TO.P,J12,15*%
%TO.N,I2C_SDA*%
X57640000Y-25000000D03*
%TO.P,J12,16*%
%TO.N,I2C_SCK*%
X60180000Y-25000000D03*
%TO.P,J12,17*%
%TO.N,SPARE3*%
X62720000Y-25000000D03*
%TO.P,J12,18*%
%TO.N,GND*%
X65260000Y-25000000D03*
%TD*%
D12*
%TO.P,J8,1*%
%TO.N,RP_3V3*%
X84000000Y-83120000D03*
D14*
%TO.P,J8,2*%
%TO.N,GND*%
X84000000Y-80580000D03*
%TO.P,J8,3*%
%TO.N,JOY_X*%
X84000000Y-78040000D03*
%TO.P,J8,4*%
%TO.N,JOY_Y*%
X84000000Y-75500000D03*
%TO.P,J8,5*%
%TO.N,JOY_SW*%
X84000000Y-72960000D03*
%TD*%
D12*
%TO.P,J11,1*%
%TO.N,BTN5*%
X77040000Y-90500000D03*
D14*
%TO.P,J11,2*%
%TO.N,BTN6*%
X79580000Y-90500000D03*
%TO.P,J11,3*%
%TO.N,GND*%
X82120000Y-90500000D03*
%TD*%
D11*
%TO.P,C2,1*%
%TO.N,+3V3*%
X52000000Y-44000000D03*
%TO.P,C2,2*%
%TO.N,GND*%
X57000000Y-44000000D03*
%TD*%
D12*
%TO.P,J10,1*%
%TO.N,ENC_A*%
X4500000Y-90000000D03*
D14*
%TO.P,J10,2*%
%TO.N,ENC_B*%
X4500000Y-87460000D03*
%TO.P,J10,3*%
%TO.N,ENC_SW*%
X4500000Y-84920000D03*
%TO.P,J10,4*%
%TO.N,GND*%
X4500000Y-82380000D03*
%TD*%
D11*
%TO.P,C1,1*%
%TO.N,+3V3*%
X52000000Y-52000000D03*
%TO.P,C1,2*%
%TO.N,GND*%
X57000000Y-52000000D03*
%TD*%
D10*
%TO.P,J6b,1*%
%TO.N,RADIO2_AUX*%
X74500000Y-32000000D03*
%TD*%
D14*
%TO.P,A1,3V3*%
%TO.N,RP_3V3*%
X38580000Y-61620000D03*
%TO.P,A1,5V*%
%TO.N,+5V*%
X43660000Y-61620000D03*
%TO.P,A1,GND*%
%TO.N,GND*%
X41120000Y-61620000D03*
%TO.P,A1,GP0*%
%TO.N,A7S_U2RX*%
X43660000Y-46380000D03*
%TO.P,A1,GP1*%
%TO.N,A7S_U2TX*%
X41120000Y-46380000D03*
%TO.P,A1,GP2*%
%TO.N,BTN1*%
X38580000Y-46380000D03*
%TO.P,A1,GP3*%
%TO.N,BTN2*%
X36040000Y-46380000D03*
%TO.P,A1,GP4*%
%TO.N,BTN3*%
X33500000Y-46380000D03*
%TO.P,A1,GP5*%
%TO.N,BTN4*%
X30960000Y-46380000D03*
%TO.P,A1,GP6*%
%TO.N,BTN5*%
X28420000Y-46380000D03*
%TO.P,A1,GP7*%
%TO.N,BTN6*%
X25880000Y-46380000D03*
%TO.P,A1,GP8*%
%TO.N,JOY_SW*%
X23340000Y-46380000D03*
%TO.P,A1,GP9*%
%TO.N,ENC_A*%
X23150000Y-59080000D03*
%TO.P,A1,GP10*%
%TO.N,ENC_B*%
X23150000Y-56540000D03*
%TO.P,A1,GP11*%
%TO.N,ENC_SW*%
X23150000Y-54000000D03*
%TO.P,A1,GP12*%
%TO.N,N/C*%
X23150000Y-51460000D03*
%TO.P,A1,GP13*%
X23150000Y-48920000D03*
%TO.P,A1,GP14*%
X23340000Y-61620000D03*
%TO.P,A1,GP15*%
X25880000Y-61620000D03*
%TO.P,A1,GP26*%
%TO.N,JOY_X*%
X28420000Y-61620000D03*
%TO.P,A1,GP27*%
%TO.N,JOY_Y*%
X30960000Y-61620000D03*
%TO.P,A1,GP28*%
%TO.N,N/C*%
X33500000Y-61620000D03*
%TO.P,A1,GP29*%
X36040000Y-61620000D03*
%TD*%
D15*
%TO.P,F1,1*%
%TO.N,+5V_IN*%
X22000000Y-69000000D03*
%TO.P,F1,2*%
%TO.N,+5V*%
X27100000Y-67800000D03*
%TD*%
D10*
%TO.P,J5b,1*%
%TO.N,RADIO1_AUX*%
X76460000Y-40040000D03*
%TD*%
D12*
%TO.P,J6,1*%
%TO.N,GND*%
X74380000Y-27000000D03*
D14*
%TO.P,J6,2*%
%TO.N,+3V3*%
X74380000Y-24460000D03*
%TO.P,J6,3*%
%TO.N,RADIO2_FLEXA*%
X76920000Y-27000000D03*
%TO.P,J6,4*%
%TO.N,RADIO2_CS*%
X76920000Y-24460000D03*
%TO.P,J6,5*%
%TO.N,SPI_SCK*%
X79460000Y-27000000D03*
%TO.P,J6,6*%
%TO.N,SPI_MOSI*%
X79460000Y-24460000D03*
%TO.P,J6,7*%
%TO.N,SPI_MISO*%
X82000000Y-27000000D03*
%TO.P,J6,8*%
%TO.N,RADIO2_FLEXB*%
X82000000Y-24460000D03*
%TD*%
D12*
%TO.P,J2,1*%
%TO.N,RADIO1_FLEXA*%
X47260000Y-79260000D03*
D14*
%TO.P,J2,2*%
%TO.N,TOUCH_CS*%
X44720000Y-79260000D03*
%TO.P,J2,3*%
%TO.N,TOUCH_IRQ*%
X42180000Y-79260000D03*
%TO.P,J2,4*%
%TO.N,GND*%
X39640000Y-79260000D03*
%TO.P,J2,5*%
%TO.N,TFT_BL*%
X37100000Y-79260000D03*
%TO.P,J2,6*%
%TO.N,SPARE3*%
X34560000Y-79260000D03*
%TO.P,J2,7*%
%TO.N,RADIO2_FLEXA*%
X32020000Y-79260000D03*
%TO.P,J2,8*%
%TO.N,RADIO2_CS*%
X29480000Y-79260000D03*
%TO.P,J2,9*%
%TO.N,GND*%
X26940000Y-79260000D03*
%TO.P,J2,10*%
%TO.N,RADIO2_FLEXB*%
X24400000Y-79260000D03*
%TO.P,J2,11*%
%TO.N,RADIO1_AUX*%
X21860000Y-79260000D03*
%TO.P,J2,12*%
%TO.N,RADIO2_AUX*%
X19320000Y-79260000D03*
%TO.P,J2,13*%
%TO.N,SPARE0*%
X16780000Y-79260000D03*
%TO.P,J2,14*%
%TO.N,SPARE1*%
X14240000Y-79260000D03*
%TO.P,J2,15*%
%TO.N,SPARE2*%
X11700000Y-79260000D03*
%TD*%
D15*
%TO.P,F2,1*%
%TO.N,+3V3_IN*%
X33950000Y-69100000D03*
%TO.P,F2,2*%
%TO.N,+3V3*%
X39050000Y-67900000D03*
%TD*%
D12*
%TO.P,J5,1*%
%TO.N,GND*%
X80960000Y-40000000D03*
D14*
%TO.P,J5,2*%
%TO.N,+3V3*%
X83500000Y-40000000D03*
%TO.P,J5,3*%
%TO.N,RADIO1_FLEXA*%
X80960000Y-42540000D03*
%TO.P,J5,4*%
%TO.N,RADIO1_CS*%
X83500000Y-42540000D03*
%TO.P,J5,5*%
%TO.N,SPI_SCK*%
X80960000Y-45080000D03*
%TO.P,J5,6*%
%TO.N,SPI_MOSI*%
X83500000Y-45080000D03*
%TO.P,J5,7*%
%TO.N,SPI_MISO*%
X80960000Y-47620000D03*
%TO.P,J5,8*%
%TO.N,RADIO1_FLEXB*%
X83500000Y-47620000D03*
%TD*%
D12*
%TO.P,J1,1*%
%TO.N,+3V3_IN*%
X47290000Y-32300000D03*
D14*
%TO.P,J1,2*%
%TO.N,+5V_IN*%
X47290000Y-34840000D03*
%TO.P,J1,3*%
%TO.N,UART3_RX*%
X44750000Y-32300000D03*
%TO.P,J1,4*%
%TO.N,+5V_IN*%
X44750000Y-34840000D03*
%TO.P,J1,5*%
%TO.N,UART3_TX*%
X42210000Y-32300000D03*
%TO.P,J1,6*%
%TO.N,GND*%
X42210000Y-34840000D03*
%TO.P,J1,7*%
%TO.N,A7S_U2TX*%
X39670000Y-32300000D03*
%TO.P,J1,8*%
%TO.N,CONSOLE_TX*%
X39670000Y-34840000D03*
%TO.P,J1,9*%
%TO.N,GND*%
X37130000Y-32300000D03*
%TO.P,J1,10*%
%TO.N,CONSOLE_RX*%
X37130000Y-34840000D03*
%TO.P,J1,11*%
%TO.N,A7S_U2RX*%
X34590000Y-32300000D03*
%TO.P,J1,12*%
%TO.N,N/C*%
X34590000Y-34840000D03*
%TO.P,J1,13*%
X32050000Y-32300000D03*
%TO.P,J1,14*%
%TO.N,GND*%
X32050000Y-34840000D03*
%TO.P,J1,15*%
%TO.N,N/C*%
X29510000Y-32300000D03*
%TO.P,J1,16*%
%TO.N,RADIO1_CS*%
X29510000Y-34840000D03*
%TO.P,J1,17*%
%TO.N,+3V3_IN*%
X26970000Y-32300000D03*
%TO.P,J1,18*%
%TO.N,RADIO1_FLEXB*%
X26970000Y-34840000D03*
%TO.P,J1,19*%
%TO.N,SPI_MOSI*%
X24430000Y-32300000D03*
%TO.P,J1,20*%
%TO.N,GND*%
X24430000Y-34840000D03*
%TO.P,J1,21*%
%TO.N,SPI_MISO*%
X21890000Y-32300000D03*
%TO.P,J1,22*%
%TO.N,N/C*%
X21890000Y-34840000D03*
%TO.P,J1,23*%
%TO.N,SPI_SCK*%
X19350000Y-32300000D03*
%TO.P,J1,24*%
%TO.N,TFT_CS*%
X19350000Y-34840000D03*
%TO.P,J1,25*%
%TO.N,GND*%
X16810000Y-32300000D03*
%TO.P,J1,26*%
%TO.N,TFT_DC*%
X16810000Y-34840000D03*
%TO.P,J1,27*%
%TO.N,I2C_SDA*%
X14270000Y-32300000D03*
%TO.P,J1,28*%
%TO.N,I2C_SCK*%
X14270000Y-34840000D03*
%TO.P,J1,29*%
%TO.N,TFT_RST*%
X11730000Y-32300000D03*
%TO.P,J1,30*%
%TO.N,GND*%
X11730000Y-34840000D03*
%TD*%
D16*
%TO.N,CONSOLE_RX*%
X44790600Y-64074600D03*
%TO.N,BTN2*%
X39257100Y-65567700D03*
%TO.N,GND*%
X25351000Y-31064500D03*
X67170800Y-44000000D03*
%TO.N,BTN1*%
X61750000Y-57536000D03*
%TO.N,CONSOLE_TX*%
X41257000Y-65007200D03*
%TO.N,SPARE0*%
X9293100Y-27571500D03*
X8902900Y-74974800D03*
%TO.N,SPARE2*%
X2524500Y-74204500D03*
X7428000Y-30302000D03*
%TO.N,SPARE3*%
X40712900Y-68774700D03*
%TO.N,RP_3V3*%
X41858700Y-66461400D03*
%TO.N,BTN5*%
X60117100Y-57775000D03*
%TO.N,BTN6*%
X79580000Y-58379200D03*
%TO.N,RADIO2_AUX*%
X27541400Y-36602800D03*
%TO.N,A7S_U2RX*%
X43638800Y-35991700D03*
%TO.N,+5V_IN*%
X42221600Y-63782800D03*
%TO.N,RADIO1_AUX*%
X39298400Y-77900100D03*
%TO.N,RADIO2_CS*%
X40257800Y-72302600D03*
%TO.N,RADIO2_FLEXB*%
X39134200Y-71589200D03*
%TO.N,RADIO1_FLEXA*%
X78042800Y-42540000D03*
%TD*%
%TO.N,CONSOLE_RX*%
D17*
X38953000Y-66174400D02*
X40347500Y-66174400D01*
X37130000Y-34840000D02*
X34843700Y-37126300D01*
X41236300Y-67063200D02*
X42134000Y-67063200D01*
X40347500Y-66174400D02*
X41236300Y-67063200D01*
X34843700Y-62065100D02*
X38953000Y-66174400D01*
X42134000Y-67063200D02*
X44062700Y-65134500D01*
X44062700Y-64802500D02*
X44790600Y-64074600D01*
X44062700Y-65134500D02*
X44062700Y-64802500D01*
X34843700Y-37126300D02*
X34843700Y-62065100D01*
%TO.N,BTN2*%
X37399900Y-47739900D02*
X37399900Y-63710500D01*
X36040000Y-46380000D02*
X37399900Y-47739900D01*
X37399900Y-63710500D02*
X39257100Y-65567700D01*
%TO.N,GND*%
X74380000Y-27000000D02*
X74380000Y-28151700D01*
X39640000Y-83140000D02*
X46750000Y-90250000D01*
X32050000Y-34840000D02*
X33320000Y-33570000D01*
X33320000Y-33570000D02*
X35860000Y-33570000D01*
X82120000Y-90500000D02*
X82120000Y-82460000D01*
X41120000Y-61620000D02*
X42300000Y-60440000D01*
X26940000Y-85440000D02*
X31750000Y-90250000D01*
X25657800Y-33612200D02*
X24430000Y-34840000D01*
X24620000Y-30333500D02*
X24620000Y-25000000D01*
X38284800Y-31145200D02*
X37130000Y-32300000D01*
X42210000Y-34840000D02*
X42210000Y-34187200D01*
X74380000Y-28151700D02*
X67170900Y-35360800D01*
X39640000Y-79260000D02*
X39640000Y-83140000D01*
X42210000Y-34187200D02*
X40942800Y-32920000D01*
X35860000Y-33570000D02*
X37130000Y-32300000D01*
X5500000Y-41530000D02*
X3149300Y-43880700D01*
X26940000Y-79260000D02*
X26940000Y-85440000D01*
X40550800Y-31145200D02*
X38284800Y-31145200D01*
X3149300Y-81029300D02*
X4500000Y-82380000D01*
X57000000Y-52000000D02*
X57000000Y-44000000D01*
X40942800Y-32920000D02*
X40942800Y-31537200D01*
X30822200Y-33612200D02*
X25657800Y-33612200D01*
X3149300Y-43880700D02*
X3149300Y-81029300D01*
X67170900Y-44000000D02*
X67170800Y-44000000D01*
X40942800Y-31537200D02*
X40550800Y-31145200D01*
X42300000Y-34930000D02*
X42210000Y-34840000D01*
X32050000Y-34840000D02*
X30822200Y-33612200D01*
X47480000Y-25000000D02*
X47480000Y-26151700D01*
X42300000Y-60440000D02*
X42300000Y-34930000D01*
X82120000Y-82460000D02*
X84000000Y-80580000D01*
X67170900Y-35360800D02*
X67170900Y-44000000D01*
X46328300Y-26151700D02*
X40942800Y-31537200D01*
X47480000Y-26151700D02*
X46328300Y-26151700D01*
X25351000Y-31064500D02*
X24620000Y-30333500D01*
%TO.N,BTN1*%
X61750000Y-85750000D02*
X61750000Y-57536000D01*
%TO.N,BTN4*%
X16750000Y-85750000D02*
X16998800Y-85750000D01*
X23129800Y-79619000D02*
X23129800Y-78488300D01*
X29634300Y-47705700D02*
X30960000Y-46380000D01*
X23129800Y-78488300D02*
X29634300Y-71983800D01*
X29634300Y-71983800D02*
X29634300Y-47705700D01*
X16998800Y-85750000D02*
X23129800Y-79619000D01*
%TO.N,CONSOLE_TX*%
X39850000Y-35020000D02*
X39850000Y-63600200D01*
X39850000Y-63600200D02*
X41257000Y-65007200D01*
X39670000Y-34840000D02*
X39850000Y-35020000D01*
%TO.N,BTN3*%
X28320500Y-82320500D02*
X31750000Y-85750000D01*
X32230000Y-47650000D02*
X32230000Y-73067800D01*
X33500000Y-46380000D02*
X32230000Y-47650000D01*
X28320500Y-76977300D02*
X28320500Y-82320500D01*
X32230000Y-73067800D02*
X28320500Y-76977300D01*
%TO.N,+5V*%
X6840000Y-26151700D02*
X5216000Y-27775700D01*
X5216000Y-27775700D02*
X5216000Y-38706000D01*
X5216000Y-38706000D02*
X5500000Y-38990000D01*
X6840000Y-25000000D02*
X6840000Y-26151700D01*
%TO.N,TFT_RST*%
X10317300Y-41792700D02*
X10317300Y-33712700D01*
X10317300Y-33712700D02*
X11730000Y-32300000D01*
X5500000Y-46610000D02*
X10317300Y-41792700D01*
%TO.N,TFT_DC*%
X16810000Y-37840000D02*
X5500000Y-49150000D01*
X16810000Y-34840000D02*
X16810000Y-37840000D01*
%TO.N,SPI_MOSI*%
X9380000Y-25000000D02*
X9380000Y-26151700D01*
X3967800Y-65397800D02*
X3967800Y-52107000D01*
X4384800Y-51690000D02*
X4384800Y-46152500D01*
X5500000Y-66930000D02*
X3967800Y-65397800D01*
X3967800Y-52107000D02*
X4384800Y-51690000D01*
X83500000Y-45080000D02*
X84659800Y-43920200D01*
X5365600Y-45171700D02*
X5963900Y-45171700D01*
X84659800Y-43920200D02*
X84659800Y-27968000D01*
X5500000Y-51690000D02*
X4384800Y-51690000D01*
X11830300Y-23432900D02*
X10531700Y-24731500D01*
X80730000Y-25730000D02*
X79460000Y-24460000D01*
X82421800Y-25730000D02*
X80730000Y-25730000D01*
X24430000Y-32300000D02*
X24966400Y-32300000D01*
X9915600Y-41220000D02*
X9915600Y-26687300D01*
X10531700Y-24731500D02*
X10531700Y-25000000D01*
X9915600Y-26687300D02*
X9380000Y-26151700D01*
X24966400Y-32300000D02*
X25952700Y-31313700D01*
X25952700Y-31313700D02*
X25952700Y-24700400D01*
X4384800Y-46152500D02*
X5365600Y-45171700D01*
X84659800Y-27968000D02*
X82421800Y-25730000D01*
X5963900Y-45171700D02*
X9915600Y-41220000D01*
X9380000Y-25000000D02*
X10531700Y-25000000D01*
X25952700Y-24700400D02*
X24685200Y-23432900D01*
X24685200Y-23432900D02*
X11830300Y-23432900D01*
%TO.N,SPI_SCK*%
X5500000Y-54230000D02*
X18080000Y-41650000D01*
X5500000Y-61850000D02*
X4371000Y-60721000D01*
X79460000Y-43580000D02*
X80960000Y-45080000D01*
X18080000Y-41650000D02*
X18080000Y-33570000D01*
X4371000Y-60721000D02*
X4371000Y-55359000D01*
X4371000Y-55359000D02*
X5500000Y-54230000D01*
X19350000Y-28501700D02*
X17000000Y-26151700D01*
X19350000Y-32300000D02*
X19350000Y-28501700D01*
X17000000Y-25000000D02*
X17000000Y-26151700D01*
X79460000Y-27000000D02*
X79460000Y-43580000D01*
X18080000Y-33570000D02*
X19350000Y-32300000D01*
%TO.N,SPI_MISO*%
X18270000Y-24620300D02*
X18270000Y-26765900D01*
X5500000Y-69470000D02*
X20620000Y-54350000D01*
X21291700Y-32300000D02*
X21890000Y-32300000D01*
X13996000Y-23834600D02*
X17484300Y-23834600D01*
X20620000Y-32971700D02*
X21291700Y-32300000D01*
X17484300Y-23834600D02*
X18270000Y-24620300D01*
X20620000Y-54350000D02*
X20620000Y-32971700D01*
X13071700Y-24758900D02*
X13996000Y-23834600D01*
X13071700Y-25000000D02*
X13071700Y-24758900D01*
X82000000Y-27000000D02*
X82115000Y-27115000D01*
X18270000Y-26765900D02*
X21291700Y-29787600D01*
X21291700Y-29787600D02*
X21291700Y-32300000D01*
X82115000Y-46465000D02*
X80960000Y-47620000D01*
X11920000Y-25000000D02*
X13071700Y-25000000D01*
X82115000Y-27115000D02*
X82115000Y-46465000D01*
%TO.N,SPARE0*%
X5319600Y-70881500D02*
X3551000Y-69112900D01*
X5628500Y-42968300D02*
X9513900Y-39082900D01*
X9513900Y-39082900D02*
X9513900Y-27792300D01*
X3551000Y-69112900D02*
X3551000Y-44425800D01*
X9513900Y-27792300D02*
X9293100Y-27571500D01*
X8902900Y-73824400D02*
X5960000Y-70881500D01*
X5008500Y-42968300D02*
X5628500Y-42968300D01*
X5960000Y-70881500D02*
X5319600Y-70881500D01*
X3551000Y-44425800D02*
X5008500Y-42968300D01*
X8902900Y-74974800D02*
X8902900Y-73824400D01*
%TO.N,SPARE1*%
X23076500Y-29688200D02*
X19540000Y-26151700D01*
X14240000Y-79260000D02*
X14240000Y-69067600D01*
X14240000Y-69067600D02*
X23052600Y-60255000D01*
X19540000Y-25000000D02*
X19540000Y-26151700D01*
X24531000Y-37492700D02*
X23076500Y-36038200D01*
X23612400Y-60255000D02*
X24531000Y-59336400D01*
X23052600Y-60255000D02*
X23612400Y-60255000D01*
X24531000Y-59336400D02*
X24531000Y-37492700D01*
X23076500Y-36038200D02*
X23076500Y-29688200D01*
%TO.N,SPARE2*%
X6615900Y-35801400D02*
X6615900Y-39460800D01*
X7428000Y-30302000D02*
X5650100Y-32079900D01*
X5650100Y-34835600D02*
X6615900Y-35801400D01*
X5816700Y-40260000D02*
X5207300Y-40260000D01*
X5207300Y-40260000D02*
X2524500Y-42942800D01*
X6615900Y-39460800D02*
X5816700Y-40260000D01*
X2524500Y-42942800D02*
X2524500Y-74204500D01*
X5650100Y-32079900D02*
X5650100Y-34835600D01*
%TO.N,+3V3*%
X40491700Y-69414800D02*
X40924700Y-69414800D01*
X39050000Y-67973100D02*
X40491700Y-69414800D01*
X42632900Y-68268300D02*
X45267800Y-65633400D01*
X52000000Y-52000000D02*
X52000000Y-44000000D01*
X39050000Y-67900000D02*
X39050000Y-67973100D01*
X40924700Y-69414800D02*
X42071200Y-68268300D01*
X45267800Y-65584200D02*
X45267900Y-65584200D01*
X52000000Y-58852100D02*
X52000000Y-52000000D01*
X42071200Y-68268300D02*
X42632900Y-68268300D01*
X45267900Y-65584200D02*
X52000000Y-58852100D01*
X45267800Y-65633400D02*
X45267800Y-65584200D01*
%TO.N,UART3_TX*%
X42210000Y-32300000D02*
X47357300Y-27152700D01*
X47357300Y-27152700D02*
X49524100Y-27152700D01*
X49524100Y-27152700D02*
X51408300Y-25268500D01*
X52560000Y-25000000D02*
X51408300Y-25000000D01*
X51408300Y-25268500D02*
X51408300Y-25000000D01*
%TO.N,UART3_RX*%
X49333300Y-27716700D02*
X51500100Y-27716700D01*
X53948300Y-25268500D02*
X53948300Y-25000000D01*
X55100000Y-25000000D02*
X53948300Y-25000000D01*
X51500100Y-27716700D02*
X53948300Y-25268500D01*
X44750000Y-32300000D02*
X49333300Y-27716700D01*
%TO.N,SPARE3*%
X40712900Y-68774700D02*
X41621000Y-67866600D01*
X45121000Y-65078000D02*
X45206100Y-65078000D01*
X48009300Y-61760800D02*
X48009300Y-42653300D01*
X44866100Y-65332900D02*
X45121000Y-65078000D01*
X45794000Y-63976100D02*
X48009300Y-61760800D01*
X48009300Y-42653300D02*
X62720000Y-27942600D01*
X45794000Y-64490100D02*
X45794000Y-63976100D01*
X42466600Y-67866600D02*
X44866100Y-65467100D01*
X45206100Y-65078000D02*
X45794000Y-64490100D01*
X41621000Y-67866600D02*
X42466600Y-67866600D01*
X62720000Y-27942600D02*
X62720000Y-25000000D01*
X44866100Y-65467100D02*
X44866100Y-65332900D01*
%TO.N,RP_3V3*%
X38580000Y-63182700D02*
X41858700Y-66461400D01*
X38580000Y-61620000D02*
X38580000Y-63182700D01*
%TO.N,BTN5*%
X62049900Y-56934200D02*
X60957900Y-56934200D01*
X77040000Y-90500000D02*
X77040000Y-71924300D01*
X60957900Y-56934200D02*
X60117100Y-57775000D01*
X77040000Y-71924300D02*
X62049900Y-56934200D01*
%TO.N,BTN6*%
X79580000Y-90500000D02*
X79580000Y-58379200D01*
%TO.N,ENC_A*%
X4500000Y-90000000D02*
X4500000Y-88848300D01*
X10546800Y-71683200D02*
X10546800Y-83089400D01*
X23150000Y-59080000D02*
X10546800Y-71683200D01*
X4787900Y-88848300D02*
X4500000Y-88848300D01*
X10546800Y-83089400D02*
X4787900Y-88848300D01*
%TO.N,ENC_B*%
X9945100Y-69744900D02*
X9945100Y-82014900D01*
X23150000Y-56540000D02*
X9945100Y-69744900D01*
X9945100Y-82014900D02*
X4500000Y-87460000D01*
%TO.N,ENC_SW*%
X9543400Y-67606600D02*
X9543400Y-79876600D01*
X9543400Y-79876600D02*
X4500000Y-84920000D01*
X23150000Y-54000000D02*
X9543400Y-67606600D01*
%TO.N,RADIO2_AUX*%
X23740600Y-69105200D02*
X27150000Y-65695800D01*
X27150000Y-36994200D02*
X27541400Y-36602800D01*
X19320000Y-79260000D02*
X23740600Y-74839400D01*
X23740600Y-74839400D02*
X23740600Y-69105200D01*
X27150000Y-65695800D02*
X27150000Y-36994200D01*
%TO.N,A7S_U2RX*%
X43660000Y-46380000D02*
X43638800Y-46358800D01*
X43638800Y-46358800D02*
X43638800Y-35991700D01*
%TO.N,A7S_U2TX*%
X39670000Y-32300000D02*
X40868100Y-33498100D01*
X40868100Y-33498100D02*
X40868100Y-46128100D01*
X40868100Y-46128100D02*
X41120000Y-46380000D01*
%TO.N,+5V_IN*%
X44830200Y-58723100D02*
X42504300Y-61049000D01*
X42504300Y-63500100D02*
X42221600Y-63782800D01*
X44750000Y-34840000D02*
X44830200Y-34920200D01*
X44830200Y-34920200D02*
X44830200Y-58723100D01*
X42504300Y-61049000D02*
X42504300Y-63500100D01*
%TO.N,RADIO1_AUX*%
X76368200Y-40040000D02*
X39298400Y-77109800D01*
X39298400Y-77109800D02*
X39298400Y-77900100D01*
X76460000Y-40040000D02*
X76368200Y-40040000D01*
%TO.N,RADIO2_FLEXA*%
X32020000Y-79260000D02*
X32315200Y-79260000D01*
X42503500Y-69071700D02*
X43011000Y-69071700D01*
X43011000Y-69071700D02*
X76920000Y-35162700D01*
X32315200Y-79260000D02*
X42503500Y-69071700D01*
X76920000Y-35162700D02*
X76920000Y-27000000D01*
%TO.N,RADIO2_CS*%
X78118000Y-25658000D02*
X76920000Y-24460000D01*
X40351400Y-72302600D02*
X78118000Y-34536000D01*
X78118000Y-34536000D02*
X78118000Y-25658000D01*
X40257800Y-72302600D02*
X40351400Y-72302600D01*
%TO.N,RADIO2_FLEXB*%
X39134200Y-71589200D02*
X39390200Y-71589200D01*
X42799200Y-68670000D02*
X53300500Y-58168700D01*
X76441600Y-23283000D02*
X80823000Y-23283000D01*
X39390200Y-71589200D02*
X42309400Y-68670000D01*
X75650000Y-24074600D02*
X76441600Y-23283000D01*
X74759400Y-25730000D02*
X75650000Y-24839400D01*
X73469900Y-25730000D02*
X74759400Y-25730000D01*
X42309400Y-68670000D02*
X42799200Y-68670000D01*
X53300500Y-45899400D02*
X73469900Y-25730000D01*
X80823000Y-23283000D02*
X82000000Y-24460000D01*
X53300500Y-58168700D02*
X53300500Y-45899400D01*
X75650000Y-24839400D02*
X75650000Y-24074600D01*
%TO.N,RADIO1_FLEXA*%
X74468200Y-42540000D02*
X78042800Y-42540000D01*
X47260000Y-69748200D02*
X74468200Y-42540000D01*
X47260000Y-79260000D02*
X47260000Y-69748200D01*
%TO.N,+3V3_IN*%
X45039800Y-64676300D02*
X45392300Y-64323800D01*
X44464400Y-65300800D02*
X44464400Y-65122000D01*
X44464400Y-65122000D02*
X44910100Y-64676300D01*
X45392300Y-64323800D02*
X45392300Y-63804900D01*
X46020000Y-34433800D02*
X47002100Y-33451700D01*
X40870000Y-67464900D02*
X42300300Y-67464900D01*
X47290000Y-32300000D02*
X47290000Y-33451700D01*
X39981200Y-66576100D02*
X40870000Y-67464900D01*
X33950000Y-69100000D02*
X36473900Y-66576100D01*
X44910100Y-64676300D02*
X45039800Y-64676300D01*
X45392300Y-63804900D02*
X46020000Y-63177200D01*
X47002100Y-33451700D02*
X47290000Y-33451700D01*
X36473900Y-66576100D02*
X39981200Y-66576100D01*
X46020000Y-63177200D02*
X46020000Y-34433800D01*
X42300300Y-67464900D02*
X44464400Y-65300800D01*
%TD*%
M02*
