%TF.GenerationSoftware,KiCad,Pcbnew,10.0.3*%
%TF.CreationDate,2026-07-08T14:40:18-04:00*%
%TF.ProjectId,a7s_backplane_rev2,6137735f-6261-4636-9b70-6c616e655f72,rev?*%
%TF.SameCoordinates,Original*%
%TF.FileFunction,AssemblyDrawing,Top*%
%FSLAX46Y46*%
G04 Gerber Fmt 4.6, Leading zero omitted, Abs format (unit mm)*
G04 Created by KiCad (PCBNEW 10.0.3) date 2026-07-08 14:40:18*
%MOMM*%
%LPD*%
G01*
G04 APERTURE LIST*
%ADD10C,0.150000*%
%ADD11C,0.100000*%
G04 APERTURE END LIST*
D10*
X64166666Y-66004819D02*
X64738094Y-66004819D01*
X64452380Y-67004819D02*
X64452380Y-66004819D01*
X65452380Y-66957200D02*
X65357142Y-67004819D01*
X65357142Y-67004819D02*
X65166666Y-67004819D01*
X65166666Y-67004819D02*
X65071428Y-66957200D01*
X65071428Y-66957200D02*
X65023809Y-66861961D01*
X65023809Y-66861961D02*
X65023809Y-66481009D01*
X65023809Y-66481009D02*
X65071428Y-66385771D01*
X65071428Y-66385771D02*
X65166666Y-66338152D01*
X65166666Y-66338152D02*
X65357142Y-66338152D01*
X65357142Y-66338152D02*
X65452380Y-66385771D01*
X65452380Y-66385771D02*
X65499999Y-66481009D01*
X65499999Y-66481009D02*
X65499999Y-66576247D01*
X65499999Y-66576247D02*
X65023809Y-66671485D01*
X65880952Y-66957200D02*
X65976190Y-67004819D01*
X65976190Y-67004819D02*
X66166666Y-67004819D01*
X66166666Y-67004819D02*
X66261904Y-66957200D01*
X66261904Y-66957200D02*
X66309523Y-66861961D01*
X66309523Y-66861961D02*
X66309523Y-66814342D01*
X66309523Y-66814342D02*
X66261904Y-66719104D01*
X66261904Y-66719104D02*
X66166666Y-66671485D01*
X66166666Y-66671485D02*
X66023809Y-66671485D01*
X66023809Y-66671485D02*
X65928571Y-66623866D01*
X65928571Y-66623866D02*
X65880952Y-66528628D01*
X65880952Y-66528628D02*
X65880952Y-66481009D01*
X65880952Y-66481009D02*
X65928571Y-66385771D01*
X65928571Y-66385771D02*
X66023809Y-66338152D01*
X66023809Y-66338152D02*
X66166666Y-66338152D01*
X66166666Y-66338152D02*
X66261904Y-66385771D01*
X66595238Y-66338152D02*
X66976190Y-66338152D01*
X66738095Y-66004819D02*
X66738095Y-66861961D01*
X66738095Y-66861961D02*
X66785714Y-66957200D01*
X66785714Y-66957200D02*
X66880952Y-67004819D01*
X66880952Y-67004819D02*
X66976190Y-67004819D01*
X67309524Y-67004819D02*
X67309524Y-66004819D01*
X67309524Y-66004819D02*
X67690476Y-66004819D01*
X67690476Y-66004819D02*
X67785714Y-66052438D01*
X67785714Y-66052438D02*
X67833333Y-66100057D01*
X67833333Y-66100057D02*
X67880952Y-66195295D01*
X67880952Y-66195295D02*
X67880952Y-66338152D01*
X67880952Y-66338152D02*
X67833333Y-66433390D01*
X67833333Y-66433390D02*
X67785714Y-66481009D01*
X67785714Y-66481009D02*
X67690476Y-66528628D01*
X67690476Y-66528628D02*
X67309524Y-66528628D01*
X68452381Y-67004819D02*
X68357143Y-66957200D01*
X68357143Y-66957200D02*
X68309524Y-66909580D01*
X68309524Y-66909580D02*
X68261905Y-66814342D01*
X68261905Y-66814342D02*
X68261905Y-66528628D01*
X68261905Y-66528628D02*
X68309524Y-66433390D01*
X68309524Y-66433390D02*
X68357143Y-66385771D01*
X68357143Y-66385771D02*
X68452381Y-66338152D01*
X68452381Y-66338152D02*
X68595238Y-66338152D01*
X68595238Y-66338152D02*
X68690476Y-66385771D01*
X68690476Y-66385771D02*
X68738095Y-66433390D01*
X68738095Y-66433390D02*
X68785714Y-66528628D01*
X68785714Y-66528628D02*
X68785714Y-66814342D01*
X68785714Y-66814342D02*
X68738095Y-66909580D01*
X68738095Y-66909580D02*
X68690476Y-66957200D01*
X68690476Y-66957200D02*
X68595238Y-67004819D01*
X68595238Y-67004819D02*
X68452381Y-67004819D01*
X69214286Y-67004819D02*
X69214286Y-66338152D01*
X69214286Y-66004819D02*
X69166667Y-66052438D01*
X69166667Y-66052438D02*
X69214286Y-66100057D01*
X69214286Y-66100057D02*
X69261905Y-66052438D01*
X69261905Y-66052438D02*
X69214286Y-66004819D01*
X69214286Y-66004819D02*
X69214286Y-66100057D01*
X69690476Y-66338152D02*
X69690476Y-67004819D01*
X69690476Y-66433390D02*
X69738095Y-66385771D01*
X69738095Y-66385771D02*
X69833333Y-66338152D01*
X69833333Y-66338152D02*
X69976190Y-66338152D01*
X69976190Y-66338152D02*
X70071428Y-66385771D01*
X70071428Y-66385771D02*
X70119047Y-66481009D01*
X70119047Y-66481009D02*
X70119047Y-67004819D01*
X70452381Y-66338152D02*
X70833333Y-66338152D01*
X70595238Y-66004819D02*
X70595238Y-66861961D01*
X70595238Y-66861961D02*
X70642857Y-66957200D01*
X70642857Y-66957200D02*
X70738095Y-67004819D01*
X70738095Y-67004819D02*
X70833333Y-67004819D01*
X66238095Y-63004819D02*
X66809523Y-63004819D01*
X66523809Y-64004819D02*
X66523809Y-63004819D01*
X67142857Y-64004819D02*
X67142857Y-63004819D01*
X67142857Y-63004819D02*
X67523809Y-63004819D01*
X67523809Y-63004819D02*
X67619047Y-63052438D01*
X67619047Y-63052438D02*
X67666666Y-63100057D01*
X67666666Y-63100057D02*
X67714285Y-63195295D01*
X67714285Y-63195295D02*
X67714285Y-63338152D01*
X67714285Y-63338152D02*
X67666666Y-63433390D01*
X67666666Y-63433390D02*
X67619047Y-63481009D01*
X67619047Y-63481009D02*
X67523809Y-63528628D01*
X67523809Y-63528628D02*
X67142857Y-63528628D01*
X68095238Y-63100057D02*
X68142857Y-63052438D01*
X68142857Y-63052438D02*
X68238095Y-63004819D01*
X68238095Y-63004819D02*
X68476190Y-63004819D01*
X68476190Y-63004819D02*
X68571428Y-63052438D01*
X68571428Y-63052438D02*
X68619047Y-63100057D01*
X68619047Y-63100057D02*
X68666666Y-63195295D01*
X68666666Y-63195295D02*
X68666666Y-63290533D01*
X68666666Y-63290533D02*
X68619047Y-63433390D01*
X68619047Y-63433390D02*
X68047619Y-64004819D01*
X68047619Y-64004819D02*
X68666666Y-64004819D01*
X-2243332Y-74334819D02*
X-2243332Y-73334819D01*
X-2243332Y-73334819D02*
X-1909999Y-74049104D01*
X-1909999Y-74049104D02*
X-1576666Y-73334819D01*
X-1576666Y-73334819D02*
X-1576666Y-74334819D01*
X-957618Y-74334819D02*
X-1052856Y-74287200D01*
X-1052856Y-74287200D02*
X-1100475Y-74239580D01*
X-1100475Y-74239580D02*
X-1148094Y-74144342D01*
X-1148094Y-74144342D02*
X-1148094Y-73858628D01*
X-1148094Y-73858628D02*
X-1100475Y-73763390D01*
X-1100475Y-73763390D02*
X-1052856Y-73715771D01*
X-1052856Y-73715771D02*
X-957618Y-73668152D01*
X-957618Y-73668152D02*
X-814761Y-73668152D01*
X-814761Y-73668152D02*
X-719523Y-73715771D01*
X-719523Y-73715771D02*
X-671904Y-73763390D01*
X-671904Y-73763390D02*
X-624285Y-73858628D01*
X-624285Y-73858628D02*
X-624285Y-74144342D01*
X-624285Y-74144342D02*
X-671904Y-74239580D01*
X-671904Y-74239580D02*
X-719523Y-74287200D01*
X-719523Y-74287200D02*
X-814761Y-74334819D01*
X-814761Y-74334819D02*
X-957618Y-74334819D01*
X232857Y-73668152D02*
X232857Y-74334819D01*
X-195713Y-73668152D02*
X-195713Y-74191961D01*
X-195713Y-74191961D02*
X-148094Y-74287200D01*
X-148094Y-74287200D02*
X-52856Y-74334819D01*
X-52856Y-74334819D02*
X90000Y-74334819D01*
X90000Y-74334819D02*
X185238Y-74287200D01*
X185238Y-74287200D02*
X232857Y-74239580D01*
X709048Y-73668152D02*
X709048Y-74334819D01*
X709048Y-73763390D02*
X756667Y-73715771D01*
X756667Y-73715771D02*
X851905Y-73668152D01*
X851905Y-73668152D02*
X994762Y-73668152D01*
X994762Y-73668152D02*
X1090000Y-73715771D01*
X1090000Y-73715771D02*
X1137619Y-73811009D01*
X1137619Y-73811009D02*
X1137619Y-74334819D01*
X1470953Y-73668152D02*
X1851905Y-73668152D01*
X1613810Y-73334819D02*
X1613810Y-74191961D01*
X1613810Y-74191961D02*
X1661429Y-74287200D01*
X1661429Y-74287200D02*
X1756667Y-74334819D01*
X1756667Y-74334819D02*
X1851905Y-74334819D01*
X2185239Y-74334819D02*
X2185239Y-73668152D01*
X2185239Y-73334819D02*
X2137620Y-73382438D01*
X2137620Y-73382438D02*
X2185239Y-73430057D01*
X2185239Y-73430057D02*
X2232858Y-73382438D01*
X2232858Y-73382438D02*
X2185239Y-73334819D01*
X2185239Y-73334819D02*
X2185239Y-73430057D01*
X2661429Y-73668152D02*
X2661429Y-74334819D01*
X2661429Y-73763390D02*
X2709048Y-73715771D01*
X2709048Y-73715771D02*
X2804286Y-73668152D01*
X2804286Y-73668152D02*
X2947143Y-73668152D01*
X2947143Y-73668152D02*
X3042381Y-73715771D01*
X3042381Y-73715771D02*
X3090000Y-73811009D01*
X3090000Y-73811009D02*
X3090000Y-74334819D01*
X3994762Y-73668152D02*
X3994762Y-74477676D01*
X3994762Y-74477676D02*
X3947143Y-74572914D01*
X3947143Y-74572914D02*
X3899524Y-74620533D01*
X3899524Y-74620533D02*
X3804286Y-74668152D01*
X3804286Y-74668152D02*
X3661429Y-74668152D01*
X3661429Y-74668152D02*
X3566191Y-74620533D01*
X3994762Y-74287200D02*
X3899524Y-74334819D01*
X3899524Y-74334819D02*
X3709048Y-74334819D01*
X3709048Y-74334819D02*
X3613810Y-74287200D01*
X3613810Y-74287200D02*
X3566191Y-74239580D01*
X3566191Y-74239580D02*
X3518572Y-74144342D01*
X3518572Y-74144342D02*
X3518572Y-73858628D01*
X3518572Y-73858628D02*
X3566191Y-73763390D01*
X3566191Y-73763390D02*
X3613810Y-73715771D01*
X3613810Y-73715771D02*
X3709048Y-73668152D01*
X3709048Y-73668152D02*
X3899524Y-73668152D01*
X3899524Y-73668152D02*
X3994762Y-73715771D01*
X4470953Y-74334819D02*
X4470953Y-73334819D01*
X4470953Y-73811009D02*
X5042381Y-73811009D01*
X5042381Y-74334819D02*
X5042381Y-73334819D01*
X5661429Y-74334819D02*
X5566191Y-74287200D01*
X5566191Y-74287200D02*
X5518572Y-74239580D01*
X5518572Y-74239580D02*
X5470953Y-74144342D01*
X5470953Y-74144342D02*
X5470953Y-73858628D01*
X5470953Y-73858628D02*
X5518572Y-73763390D01*
X5518572Y-73763390D02*
X5566191Y-73715771D01*
X5566191Y-73715771D02*
X5661429Y-73668152D01*
X5661429Y-73668152D02*
X5804286Y-73668152D01*
X5804286Y-73668152D02*
X5899524Y-73715771D01*
X5899524Y-73715771D02*
X5947143Y-73763390D01*
X5947143Y-73763390D02*
X5994762Y-73858628D01*
X5994762Y-73858628D02*
X5994762Y-74144342D01*
X5994762Y-74144342D02*
X5947143Y-74239580D01*
X5947143Y-74239580D02*
X5899524Y-74287200D01*
X5899524Y-74287200D02*
X5804286Y-74334819D01*
X5804286Y-74334819D02*
X5661429Y-74334819D01*
X6566191Y-74334819D02*
X6470953Y-74287200D01*
X6470953Y-74287200D02*
X6423334Y-74191961D01*
X6423334Y-74191961D02*
X6423334Y-73334819D01*
X7328096Y-74287200D02*
X7232858Y-74334819D01*
X7232858Y-74334819D02*
X7042382Y-74334819D01*
X7042382Y-74334819D02*
X6947144Y-74287200D01*
X6947144Y-74287200D02*
X6899525Y-74191961D01*
X6899525Y-74191961D02*
X6899525Y-73811009D01*
X6899525Y-73811009D02*
X6947144Y-73715771D01*
X6947144Y-73715771D02*
X7042382Y-73668152D01*
X7042382Y-73668152D02*
X7232858Y-73668152D01*
X7232858Y-73668152D02*
X7328096Y-73715771D01*
X7328096Y-73715771D02*
X7375715Y-73811009D01*
X7375715Y-73811009D02*
X7375715Y-73906247D01*
X7375715Y-73906247D02*
X6899525Y-74001485D01*
X7566192Y-74430057D02*
X8328096Y-74430057D01*
X8518573Y-73430057D02*
X8566192Y-73382438D01*
X8566192Y-73382438D02*
X8661430Y-73334819D01*
X8661430Y-73334819D02*
X8899525Y-73334819D01*
X8899525Y-73334819D02*
X8994763Y-73382438D01*
X8994763Y-73382438D02*
X9042382Y-73430057D01*
X9042382Y-73430057D02*
X9090001Y-73525295D01*
X9090001Y-73525295D02*
X9090001Y-73620533D01*
X9090001Y-73620533D02*
X9042382Y-73763390D01*
X9042382Y-73763390D02*
X8470954Y-74334819D01*
X8470954Y-74334819D02*
X9090001Y-74334819D01*
X9518573Y-74239580D02*
X9566192Y-74287200D01*
X9566192Y-74287200D02*
X9518573Y-74334819D01*
X9518573Y-74334819D02*
X9470954Y-74287200D01*
X9470954Y-74287200D02*
X9518573Y-74239580D01*
X9518573Y-74239580D02*
X9518573Y-74334819D01*
X9899525Y-73334819D02*
X10566191Y-73334819D01*
X10566191Y-73334819D02*
X10137620Y-74334819D01*
X10947144Y-74334819D02*
X10947144Y-73668152D01*
X10947144Y-73763390D02*
X10994763Y-73715771D01*
X10994763Y-73715771D02*
X11090001Y-73668152D01*
X11090001Y-73668152D02*
X11232858Y-73668152D01*
X11232858Y-73668152D02*
X11328096Y-73715771D01*
X11328096Y-73715771D02*
X11375715Y-73811009D01*
X11375715Y-73811009D02*
X11375715Y-74334819D01*
X11375715Y-73811009D02*
X11423334Y-73715771D01*
X11423334Y-73715771D02*
X11518572Y-73668152D01*
X11518572Y-73668152D02*
X11661429Y-73668152D01*
X11661429Y-73668152D02*
X11756668Y-73715771D01*
X11756668Y-73715771D02*
X11804287Y-73811009D01*
X11804287Y-73811009D02*
X11804287Y-74334819D01*
X12280477Y-74334819D02*
X12280477Y-73668152D01*
X12280477Y-73763390D02*
X12328096Y-73715771D01*
X12328096Y-73715771D02*
X12423334Y-73668152D01*
X12423334Y-73668152D02*
X12566191Y-73668152D01*
X12566191Y-73668152D02*
X12661429Y-73715771D01*
X12661429Y-73715771D02*
X12709048Y-73811009D01*
X12709048Y-73811009D02*
X12709048Y-74334819D01*
X12709048Y-73811009D02*
X12756667Y-73715771D01*
X12756667Y-73715771D02*
X12851905Y-73668152D01*
X12851905Y-73668152D02*
X12994762Y-73668152D01*
X12994762Y-73668152D02*
X13090001Y-73715771D01*
X13090001Y-73715771D02*
X13137620Y-73811009D01*
X13137620Y-73811009D02*
X13137620Y-74334819D01*
X13375715Y-74430057D02*
X14137619Y-74430057D01*
X14375715Y-74334819D02*
X14375715Y-73334819D01*
X14375715Y-73334819D02*
X14709048Y-74049104D01*
X14709048Y-74049104D02*
X15042381Y-73334819D01*
X15042381Y-73334819D02*
X15042381Y-74334819D01*
X15470953Y-73430057D02*
X15518572Y-73382438D01*
X15518572Y-73382438D02*
X15613810Y-73334819D01*
X15613810Y-73334819D02*
X15851905Y-73334819D01*
X15851905Y-73334819D02*
X15947143Y-73382438D01*
X15947143Y-73382438D02*
X15994762Y-73430057D01*
X15994762Y-73430057D02*
X16042381Y-73525295D01*
X16042381Y-73525295D02*
X16042381Y-73620533D01*
X16042381Y-73620533D02*
X15994762Y-73763390D01*
X15994762Y-73763390D02*
X15423334Y-74334819D01*
X15423334Y-74334819D02*
X16042381Y-74334819D01*
X16470953Y-74239580D02*
X16518572Y-74287200D01*
X16518572Y-74287200D02*
X16470953Y-74334819D01*
X16470953Y-74334819D02*
X16423334Y-74287200D01*
X16423334Y-74287200D02*
X16470953Y-74239580D01*
X16470953Y-74239580D02*
X16470953Y-74334819D01*
X17423333Y-73334819D02*
X16947143Y-73334819D01*
X16947143Y-73334819D02*
X16899524Y-73811009D01*
X16899524Y-73811009D02*
X16947143Y-73763390D01*
X16947143Y-73763390D02*
X17042381Y-73715771D01*
X17042381Y-73715771D02*
X17280476Y-73715771D01*
X17280476Y-73715771D02*
X17375714Y-73763390D01*
X17375714Y-73763390D02*
X17423333Y-73811009D01*
X17423333Y-73811009D02*
X17470952Y-73906247D01*
X17470952Y-73906247D02*
X17470952Y-74144342D01*
X17470952Y-74144342D02*
X17423333Y-74239580D01*
X17423333Y-74239580D02*
X17375714Y-74287200D01*
X17375714Y-74287200D02*
X17280476Y-74334819D01*
X17280476Y-74334819D02*
X17042381Y-74334819D01*
X17042381Y-74334819D02*
X16947143Y-74287200D01*
X16947143Y-74287200D02*
X16899524Y-74239580D01*
X6828095Y-77984819D02*
X6828095Y-76984819D01*
X6828095Y-77461009D02*
X7399523Y-77461009D01*
X7399523Y-77984819D02*
X7399523Y-76984819D01*
X7828095Y-77080057D02*
X7875714Y-77032438D01*
X7875714Y-77032438D02*
X7970952Y-76984819D01*
X7970952Y-76984819D02*
X8209047Y-76984819D01*
X8209047Y-76984819D02*
X8304285Y-77032438D01*
X8304285Y-77032438D02*
X8351904Y-77080057D01*
X8351904Y-77080057D02*
X8399523Y-77175295D01*
X8399523Y-77175295D02*
X8399523Y-77270533D01*
X8399523Y-77270533D02*
X8351904Y-77413390D01*
X8351904Y-77413390D02*
X7780476Y-77984819D01*
X7780476Y-77984819D02*
X8399523Y-77984819D01*
X41556667Y-30534819D02*
X41556667Y-29534819D01*
X41556667Y-29534819D02*
X41890000Y-30249104D01*
X41890000Y-30249104D02*
X42223333Y-29534819D01*
X42223333Y-29534819D02*
X42223333Y-30534819D01*
X42842381Y-30534819D02*
X42747143Y-30487200D01*
X42747143Y-30487200D02*
X42699524Y-30439580D01*
X42699524Y-30439580D02*
X42651905Y-30344342D01*
X42651905Y-30344342D02*
X42651905Y-30058628D01*
X42651905Y-30058628D02*
X42699524Y-29963390D01*
X42699524Y-29963390D02*
X42747143Y-29915771D01*
X42747143Y-29915771D02*
X42842381Y-29868152D01*
X42842381Y-29868152D02*
X42985238Y-29868152D01*
X42985238Y-29868152D02*
X43080476Y-29915771D01*
X43080476Y-29915771D02*
X43128095Y-29963390D01*
X43128095Y-29963390D02*
X43175714Y-30058628D01*
X43175714Y-30058628D02*
X43175714Y-30344342D01*
X43175714Y-30344342D02*
X43128095Y-30439580D01*
X43128095Y-30439580D02*
X43080476Y-30487200D01*
X43080476Y-30487200D02*
X42985238Y-30534819D01*
X42985238Y-30534819D02*
X42842381Y-30534819D01*
X44032857Y-29868152D02*
X44032857Y-30534819D01*
X43604286Y-29868152D02*
X43604286Y-30391961D01*
X43604286Y-30391961D02*
X43651905Y-30487200D01*
X43651905Y-30487200D02*
X43747143Y-30534819D01*
X43747143Y-30534819D02*
X43890000Y-30534819D01*
X43890000Y-30534819D02*
X43985238Y-30487200D01*
X43985238Y-30487200D02*
X44032857Y-30439580D01*
X44509048Y-29868152D02*
X44509048Y-30534819D01*
X44509048Y-29963390D02*
X44556667Y-29915771D01*
X44556667Y-29915771D02*
X44651905Y-29868152D01*
X44651905Y-29868152D02*
X44794762Y-29868152D01*
X44794762Y-29868152D02*
X44890000Y-29915771D01*
X44890000Y-29915771D02*
X44937619Y-30011009D01*
X44937619Y-30011009D02*
X44937619Y-30534819D01*
X45270953Y-29868152D02*
X45651905Y-29868152D01*
X45413810Y-29534819D02*
X45413810Y-30391961D01*
X45413810Y-30391961D02*
X45461429Y-30487200D01*
X45461429Y-30487200D02*
X45556667Y-30534819D01*
X45556667Y-30534819D02*
X45651905Y-30534819D01*
X45985239Y-30534819D02*
X45985239Y-29868152D01*
X45985239Y-29534819D02*
X45937620Y-29582438D01*
X45937620Y-29582438D02*
X45985239Y-29630057D01*
X45985239Y-29630057D02*
X46032858Y-29582438D01*
X46032858Y-29582438D02*
X45985239Y-29534819D01*
X45985239Y-29534819D02*
X45985239Y-29630057D01*
X46461429Y-29868152D02*
X46461429Y-30534819D01*
X46461429Y-29963390D02*
X46509048Y-29915771D01*
X46509048Y-29915771D02*
X46604286Y-29868152D01*
X46604286Y-29868152D02*
X46747143Y-29868152D01*
X46747143Y-29868152D02*
X46842381Y-29915771D01*
X46842381Y-29915771D02*
X46890000Y-30011009D01*
X46890000Y-30011009D02*
X46890000Y-30534819D01*
X47794762Y-29868152D02*
X47794762Y-30677676D01*
X47794762Y-30677676D02*
X47747143Y-30772914D01*
X47747143Y-30772914D02*
X47699524Y-30820533D01*
X47699524Y-30820533D02*
X47604286Y-30868152D01*
X47604286Y-30868152D02*
X47461429Y-30868152D01*
X47461429Y-30868152D02*
X47366191Y-30820533D01*
X47794762Y-30487200D02*
X47699524Y-30534819D01*
X47699524Y-30534819D02*
X47509048Y-30534819D01*
X47509048Y-30534819D02*
X47413810Y-30487200D01*
X47413810Y-30487200D02*
X47366191Y-30439580D01*
X47366191Y-30439580D02*
X47318572Y-30344342D01*
X47318572Y-30344342D02*
X47318572Y-30058628D01*
X47318572Y-30058628D02*
X47366191Y-29963390D01*
X47366191Y-29963390D02*
X47413810Y-29915771D01*
X47413810Y-29915771D02*
X47509048Y-29868152D01*
X47509048Y-29868152D02*
X47699524Y-29868152D01*
X47699524Y-29868152D02*
X47794762Y-29915771D01*
X48270953Y-30534819D02*
X48270953Y-29534819D01*
X48270953Y-30011009D02*
X48842381Y-30011009D01*
X48842381Y-30534819D02*
X48842381Y-29534819D01*
X49461429Y-30534819D02*
X49366191Y-30487200D01*
X49366191Y-30487200D02*
X49318572Y-30439580D01*
X49318572Y-30439580D02*
X49270953Y-30344342D01*
X49270953Y-30344342D02*
X49270953Y-30058628D01*
X49270953Y-30058628D02*
X49318572Y-29963390D01*
X49318572Y-29963390D02*
X49366191Y-29915771D01*
X49366191Y-29915771D02*
X49461429Y-29868152D01*
X49461429Y-29868152D02*
X49604286Y-29868152D01*
X49604286Y-29868152D02*
X49699524Y-29915771D01*
X49699524Y-29915771D02*
X49747143Y-29963390D01*
X49747143Y-29963390D02*
X49794762Y-30058628D01*
X49794762Y-30058628D02*
X49794762Y-30344342D01*
X49794762Y-30344342D02*
X49747143Y-30439580D01*
X49747143Y-30439580D02*
X49699524Y-30487200D01*
X49699524Y-30487200D02*
X49604286Y-30534819D01*
X49604286Y-30534819D02*
X49461429Y-30534819D01*
X50366191Y-30534819D02*
X50270953Y-30487200D01*
X50270953Y-30487200D02*
X50223334Y-30391961D01*
X50223334Y-30391961D02*
X50223334Y-29534819D01*
X51128096Y-30487200D02*
X51032858Y-30534819D01*
X51032858Y-30534819D02*
X50842382Y-30534819D01*
X50842382Y-30534819D02*
X50747144Y-30487200D01*
X50747144Y-30487200D02*
X50699525Y-30391961D01*
X50699525Y-30391961D02*
X50699525Y-30011009D01*
X50699525Y-30011009D02*
X50747144Y-29915771D01*
X50747144Y-29915771D02*
X50842382Y-29868152D01*
X50842382Y-29868152D02*
X51032858Y-29868152D01*
X51032858Y-29868152D02*
X51128096Y-29915771D01*
X51128096Y-29915771D02*
X51175715Y-30011009D01*
X51175715Y-30011009D02*
X51175715Y-30106247D01*
X51175715Y-30106247D02*
X50699525Y-30201485D01*
X51366192Y-30630057D02*
X52128096Y-30630057D01*
X52318573Y-29630057D02*
X52366192Y-29582438D01*
X52366192Y-29582438D02*
X52461430Y-29534819D01*
X52461430Y-29534819D02*
X52699525Y-29534819D01*
X52699525Y-29534819D02*
X52794763Y-29582438D01*
X52794763Y-29582438D02*
X52842382Y-29630057D01*
X52842382Y-29630057D02*
X52890001Y-29725295D01*
X52890001Y-29725295D02*
X52890001Y-29820533D01*
X52890001Y-29820533D02*
X52842382Y-29963390D01*
X52842382Y-29963390D02*
X52270954Y-30534819D01*
X52270954Y-30534819D02*
X52890001Y-30534819D01*
X53318573Y-30439580D02*
X53366192Y-30487200D01*
X53366192Y-30487200D02*
X53318573Y-30534819D01*
X53318573Y-30534819D02*
X53270954Y-30487200D01*
X53270954Y-30487200D02*
X53318573Y-30439580D01*
X53318573Y-30439580D02*
X53318573Y-30534819D01*
X53699525Y-29534819D02*
X54366191Y-29534819D01*
X54366191Y-29534819D02*
X53937620Y-30534819D01*
X54747144Y-30534819D02*
X54747144Y-29868152D01*
X54747144Y-29963390D02*
X54794763Y-29915771D01*
X54794763Y-29915771D02*
X54890001Y-29868152D01*
X54890001Y-29868152D02*
X55032858Y-29868152D01*
X55032858Y-29868152D02*
X55128096Y-29915771D01*
X55128096Y-29915771D02*
X55175715Y-30011009D01*
X55175715Y-30011009D02*
X55175715Y-30534819D01*
X55175715Y-30011009D02*
X55223334Y-29915771D01*
X55223334Y-29915771D02*
X55318572Y-29868152D01*
X55318572Y-29868152D02*
X55461429Y-29868152D01*
X55461429Y-29868152D02*
X55556668Y-29915771D01*
X55556668Y-29915771D02*
X55604287Y-30011009D01*
X55604287Y-30011009D02*
X55604287Y-30534819D01*
X56080477Y-30534819D02*
X56080477Y-29868152D01*
X56080477Y-29963390D02*
X56128096Y-29915771D01*
X56128096Y-29915771D02*
X56223334Y-29868152D01*
X56223334Y-29868152D02*
X56366191Y-29868152D01*
X56366191Y-29868152D02*
X56461429Y-29915771D01*
X56461429Y-29915771D02*
X56509048Y-30011009D01*
X56509048Y-30011009D02*
X56509048Y-30534819D01*
X56509048Y-30011009D02*
X56556667Y-29915771D01*
X56556667Y-29915771D02*
X56651905Y-29868152D01*
X56651905Y-29868152D02*
X56794762Y-29868152D01*
X56794762Y-29868152D02*
X56890001Y-29915771D01*
X56890001Y-29915771D02*
X56937620Y-30011009D01*
X56937620Y-30011009D02*
X56937620Y-30534819D01*
X57175715Y-30630057D02*
X57937619Y-30630057D01*
X58175715Y-30534819D02*
X58175715Y-29534819D01*
X58175715Y-29534819D02*
X58509048Y-30249104D01*
X58509048Y-30249104D02*
X58842381Y-29534819D01*
X58842381Y-29534819D02*
X58842381Y-30534819D01*
X59270953Y-29630057D02*
X59318572Y-29582438D01*
X59318572Y-29582438D02*
X59413810Y-29534819D01*
X59413810Y-29534819D02*
X59651905Y-29534819D01*
X59651905Y-29534819D02*
X59747143Y-29582438D01*
X59747143Y-29582438D02*
X59794762Y-29630057D01*
X59794762Y-29630057D02*
X59842381Y-29725295D01*
X59842381Y-29725295D02*
X59842381Y-29820533D01*
X59842381Y-29820533D02*
X59794762Y-29963390D01*
X59794762Y-29963390D02*
X59223334Y-30534819D01*
X59223334Y-30534819D02*
X59842381Y-30534819D01*
X60270953Y-30439580D02*
X60318572Y-30487200D01*
X60318572Y-30487200D02*
X60270953Y-30534819D01*
X60270953Y-30534819D02*
X60223334Y-30487200D01*
X60223334Y-30487200D02*
X60270953Y-30439580D01*
X60270953Y-30439580D02*
X60270953Y-30534819D01*
X61223333Y-29534819D02*
X60747143Y-29534819D01*
X60747143Y-29534819D02*
X60699524Y-30011009D01*
X60699524Y-30011009D02*
X60747143Y-29963390D01*
X60747143Y-29963390D02*
X60842381Y-29915771D01*
X60842381Y-29915771D02*
X61080476Y-29915771D01*
X61080476Y-29915771D02*
X61175714Y-29963390D01*
X61175714Y-29963390D02*
X61223333Y-30011009D01*
X61223333Y-30011009D02*
X61270952Y-30106247D01*
X61270952Y-30106247D02*
X61270952Y-30344342D01*
X61270952Y-30344342D02*
X61223333Y-30439580D01*
X61223333Y-30439580D02*
X61175714Y-30487200D01*
X61175714Y-30487200D02*
X61080476Y-30534819D01*
X61080476Y-30534819D02*
X60842381Y-30534819D01*
X60842381Y-30534819D02*
X60747143Y-30487200D01*
X60747143Y-30487200D02*
X60699524Y-30439580D01*
X50628095Y-34184819D02*
X50628095Y-33184819D01*
X50628095Y-33661009D02*
X51199523Y-33661009D01*
X51199523Y-34184819D02*
X51199523Y-33184819D01*
X51580476Y-33184819D02*
X52199523Y-33184819D01*
X52199523Y-33184819D02*
X51866190Y-33565771D01*
X51866190Y-33565771D02*
X52009047Y-33565771D01*
X52009047Y-33565771D02*
X52104285Y-33613390D01*
X52104285Y-33613390D02*
X52151904Y-33661009D01*
X52151904Y-33661009D02*
X52199523Y-33756247D01*
X52199523Y-33756247D02*
X52199523Y-33994342D01*
X52199523Y-33994342D02*
X52151904Y-34089580D01*
X52151904Y-34089580D02*
X52104285Y-34137200D01*
X52104285Y-34137200D02*
X52009047Y-34184819D01*
X52009047Y-34184819D02*
X51723333Y-34184819D01*
X51723333Y-34184819D02*
X51628095Y-34137200D01*
X51628095Y-34137200D02*
X51580476Y-34089580D01*
X47452381Y-92857200D02*
X47595238Y-92904819D01*
X47595238Y-92904819D02*
X47833333Y-92904819D01*
X47833333Y-92904819D02*
X47928571Y-92857200D01*
X47928571Y-92857200D02*
X47976190Y-92809580D01*
X47976190Y-92809580D02*
X48023809Y-92714342D01*
X48023809Y-92714342D02*
X48023809Y-92619104D01*
X48023809Y-92619104D02*
X47976190Y-92523866D01*
X47976190Y-92523866D02*
X47928571Y-92476247D01*
X47928571Y-92476247D02*
X47833333Y-92428628D01*
X47833333Y-92428628D02*
X47642857Y-92381009D01*
X47642857Y-92381009D02*
X47547619Y-92333390D01*
X47547619Y-92333390D02*
X47500000Y-92285771D01*
X47500000Y-92285771D02*
X47452381Y-92190533D01*
X47452381Y-92190533D02*
X47452381Y-92095295D01*
X47452381Y-92095295D02*
X47500000Y-92000057D01*
X47500000Y-92000057D02*
X47547619Y-91952438D01*
X47547619Y-91952438D02*
X47642857Y-91904819D01*
X47642857Y-91904819D02*
X47880952Y-91904819D01*
X47880952Y-91904819D02*
X48023809Y-91952438D01*
X48357143Y-91904819D02*
X48595238Y-92904819D01*
X48595238Y-92904819D02*
X48785714Y-92190533D01*
X48785714Y-92190533D02*
X48976190Y-92904819D01*
X48976190Y-92904819D02*
X49214286Y-91904819D01*
X49357143Y-93000057D02*
X50119047Y-93000057D01*
X50357143Y-92904819D02*
X50357143Y-91904819D01*
X50357143Y-91904819D02*
X50738095Y-91904819D01*
X50738095Y-91904819D02*
X50833333Y-91952438D01*
X50833333Y-91952438D02*
X50880952Y-92000057D01*
X50880952Y-92000057D02*
X50928571Y-92095295D01*
X50928571Y-92095295D02*
X50928571Y-92238152D01*
X50928571Y-92238152D02*
X50880952Y-92333390D01*
X50880952Y-92333390D02*
X50833333Y-92381009D01*
X50833333Y-92381009D02*
X50738095Y-92428628D01*
X50738095Y-92428628D02*
X50357143Y-92428628D01*
X51785714Y-92238152D02*
X51785714Y-92904819D01*
X51357143Y-92238152D02*
X51357143Y-92761961D01*
X51357143Y-92761961D02*
X51404762Y-92857200D01*
X51404762Y-92857200D02*
X51500000Y-92904819D01*
X51500000Y-92904819D02*
X51642857Y-92904819D01*
X51642857Y-92904819D02*
X51738095Y-92857200D01*
X51738095Y-92857200D02*
X51785714Y-92809580D01*
X52214286Y-92857200D02*
X52309524Y-92904819D01*
X52309524Y-92904819D02*
X52500000Y-92904819D01*
X52500000Y-92904819D02*
X52595238Y-92857200D01*
X52595238Y-92857200D02*
X52642857Y-92761961D01*
X52642857Y-92761961D02*
X52642857Y-92714342D01*
X52642857Y-92714342D02*
X52595238Y-92619104D01*
X52595238Y-92619104D02*
X52500000Y-92571485D01*
X52500000Y-92571485D02*
X52357143Y-92571485D01*
X52357143Y-92571485D02*
X52261905Y-92523866D01*
X52261905Y-92523866D02*
X52214286Y-92428628D01*
X52214286Y-92428628D02*
X52214286Y-92381009D01*
X52214286Y-92381009D02*
X52261905Y-92285771D01*
X52261905Y-92285771D02*
X52357143Y-92238152D01*
X52357143Y-92238152D02*
X52500000Y-92238152D01*
X52500000Y-92238152D02*
X52595238Y-92285771D01*
X53071429Y-92904819D02*
X53071429Y-91904819D01*
X53500000Y-92904819D02*
X53500000Y-92381009D01*
X53500000Y-92381009D02*
X53452381Y-92285771D01*
X53452381Y-92285771D02*
X53357143Y-92238152D01*
X53357143Y-92238152D02*
X53214286Y-92238152D01*
X53214286Y-92238152D02*
X53119048Y-92285771D01*
X53119048Y-92285771D02*
X53071429Y-92333390D01*
X48666667Y-88407200D02*
X48809524Y-88454819D01*
X48809524Y-88454819D02*
X49047619Y-88454819D01*
X49047619Y-88454819D02*
X49142857Y-88407200D01*
X49142857Y-88407200D02*
X49190476Y-88359580D01*
X49190476Y-88359580D02*
X49238095Y-88264342D01*
X49238095Y-88264342D02*
X49238095Y-88169104D01*
X49238095Y-88169104D02*
X49190476Y-88073866D01*
X49190476Y-88073866D02*
X49142857Y-88026247D01*
X49142857Y-88026247D02*
X49047619Y-87978628D01*
X49047619Y-87978628D02*
X48857143Y-87931009D01*
X48857143Y-87931009D02*
X48761905Y-87883390D01*
X48761905Y-87883390D02*
X48714286Y-87835771D01*
X48714286Y-87835771D02*
X48666667Y-87740533D01*
X48666667Y-87740533D02*
X48666667Y-87645295D01*
X48666667Y-87645295D02*
X48714286Y-87550057D01*
X48714286Y-87550057D02*
X48761905Y-87502438D01*
X48761905Y-87502438D02*
X48857143Y-87454819D01*
X48857143Y-87454819D02*
X49095238Y-87454819D01*
X49095238Y-87454819D02*
X49238095Y-87502438D01*
X49571429Y-87454819D02*
X49809524Y-88454819D01*
X49809524Y-88454819D02*
X50000000Y-87740533D01*
X50000000Y-87740533D02*
X50190476Y-88454819D01*
X50190476Y-88454819D02*
X50428572Y-87454819D01*
X50761905Y-87550057D02*
X50809524Y-87502438D01*
X50809524Y-87502438D02*
X50904762Y-87454819D01*
X50904762Y-87454819D02*
X51142857Y-87454819D01*
X51142857Y-87454819D02*
X51238095Y-87502438D01*
X51238095Y-87502438D02*
X51285714Y-87550057D01*
X51285714Y-87550057D02*
X51333333Y-87645295D01*
X51333333Y-87645295D02*
X51333333Y-87740533D01*
X51333333Y-87740533D02*
X51285714Y-87883390D01*
X51285714Y-87883390D02*
X50714286Y-88454819D01*
X50714286Y-88454819D02*
X51333333Y-88454819D01*
X62452381Y-92857200D02*
X62595238Y-92904819D01*
X62595238Y-92904819D02*
X62833333Y-92904819D01*
X62833333Y-92904819D02*
X62928571Y-92857200D01*
X62928571Y-92857200D02*
X62976190Y-92809580D01*
X62976190Y-92809580D02*
X63023809Y-92714342D01*
X63023809Y-92714342D02*
X63023809Y-92619104D01*
X63023809Y-92619104D02*
X62976190Y-92523866D01*
X62976190Y-92523866D02*
X62928571Y-92476247D01*
X62928571Y-92476247D02*
X62833333Y-92428628D01*
X62833333Y-92428628D02*
X62642857Y-92381009D01*
X62642857Y-92381009D02*
X62547619Y-92333390D01*
X62547619Y-92333390D02*
X62500000Y-92285771D01*
X62500000Y-92285771D02*
X62452381Y-92190533D01*
X62452381Y-92190533D02*
X62452381Y-92095295D01*
X62452381Y-92095295D02*
X62500000Y-92000057D01*
X62500000Y-92000057D02*
X62547619Y-91952438D01*
X62547619Y-91952438D02*
X62642857Y-91904819D01*
X62642857Y-91904819D02*
X62880952Y-91904819D01*
X62880952Y-91904819D02*
X63023809Y-91952438D01*
X63357143Y-91904819D02*
X63595238Y-92904819D01*
X63595238Y-92904819D02*
X63785714Y-92190533D01*
X63785714Y-92190533D02*
X63976190Y-92904819D01*
X63976190Y-92904819D02*
X64214286Y-91904819D01*
X64357143Y-93000057D02*
X65119047Y-93000057D01*
X65357143Y-92904819D02*
X65357143Y-91904819D01*
X65357143Y-91904819D02*
X65738095Y-91904819D01*
X65738095Y-91904819D02*
X65833333Y-91952438D01*
X65833333Y-91952438D02*
X65880952Y-92000057D01*
X65880952Y-92000057D02*
X65928571Y-92095295D01*
X65928571Y-92095295D02*
X65928571Y-92238152D01*
X65928571Y-92238152D02*
X65880952Y-92333390D01*
X65880952Y-92333390D02*
X65833333Y-92381009D01*
X65833333Y-92381009D02*
X65738095Y-92428628D01*
X65738095Y-92428628D02*
X65357143Y-92428628D01*
X66785714Y-92238152D02*
X66785714Y-92904819D01*
X66357143Y-92238152D02*
X66357143Y-92761961D01*
X66357143Y-92761961D02*
X66404762Y-92857200D01*
X66404762Y-92857200D02*
X66500000Y-92904819D01*
X66500000Y-92904819D02*
X66642857Y-92904819D01*
X66642857Y-92904819D02*
X66738095Y-92857200D01*
X66738095Y-92857200D02*
X66785714Y-92809580D01*
X67214286Y-92857200D02*
X67309524Y-92904819D01*
X67309524Y-92904819D02*
X67500000Y-92904819D01*
X67500000Y-92904819D02*
X67595238Y-92857200D01*
X67595238Y-92857200D02*
X67642857Y-92761961D01*
X67642857Y-92761961D02*
X67642857Y-92714342D01*
X67642857Y-92714342D02*
X67595238Y-92619104D01*
X67595238Y-92619104D02*
X67500000Y-92571485D01*
X67500000Y-92571485D02*
X67357143Y-92571485D01*
X67357143Y-92571485D02*
X67261905Y-92523866D01*
X67261905Y-92523866D02*
X67214286Y-92428628D01*
X67214286Y-92428628D02*
X67214286Y-92381009D01*
X67214286Y-92381009D02*
X67261905Y-92285771D01*
X67261905Y-92285771D02*
X67357143Y-92238152D01*
X67357143Y-92238152D02*
X67500000Y-92238152D01*
X67500000Y-92238152D02*
X67595238Y-92285771D01*
X68071429Y-92904819D02*
X68071429Y-91904819D01*
X68500000Y-92904819D02*
X68500000Y-92381009D01*
X68500000Y-92381009D02*
X68452381Y-92285771D01*
X68452381Y-92285771D02*
X68357143Y-92238152D01*
X68357143Y-92238152D02*
X68214286Y-92238152D01*
X68214286Y-92238152D02*
X68119048Y-92285771D01*
X68119048Y-92285771D02*
X68071429Y-92333390D01*
X63666667Y-88407200D02*
X63809524Y-88454819D01*
X63809524Y-88454819D02*
X64047619Y-88454819D01*
X64047619Y-88454819D02*
X64142857Y-88407200D01*
X64142857Y-88407200D02*
X64190476Y-88359580D01*
X64190476Y-88359580D02*
X64238095Y-88264342D01*
X64238095Y-88264342D02*
X64238095Y-88169104D01*
X64238095Y-88169104D02*
X64190476Y-88073866D01*
X64190476Y-88073866D02*
X64142857Y-88026247D01*
X64142857Y-88026247D02*
X64047619Y-87978628D01*
X64047619Y-87978628D02*
X63857143Y-87931009D01*
X63857143Y-87931009D02*
X63761905Y-87883390D01*
X63761905Y-87883390D02*
X63714286Y-87835771D01*
X63714286Y-87835771D02*
X63666667Y-87740533D01*
X63666667Y-87740533D02*
X63666667Y-87645295D01*
X63666667Y-87645295D02*
X63714286Y-87550057D01*
X63714286Y-87550057D02*
X63761905Y-87502438D01*
X63761905Y-87502438D02*
X63857143Y-87454819D01*
X63857143Y-87454819D02*
X64095238Y-87454819D01*
X64095238Y-87454819D02*
X64238095Y-87502438D01*
X64571429Y-87454819D02*
X64809524Y-88454819D01*
X64809524Y-88454819D02*
X65000000Y-87740533D01*
X65000000Y-87740533D02*
X65190476Y-88454819D01*
X65190476Y-88454819D02*
X65428572Y-87454819D01*
X66333333Y-88454819D02*
X65761905Y-88454819D01*
X66047619Y-88454819D02*
X66047619Y-87454819D01*
X66047619Y-87454819D02*
X65952381Y-87597676D01*
X65952381Y-87597676D02*
X65857143Y-87692914D01*
X65857143Y-87692914D02*
X65761905Y-87740533D01*
X17452381Y-92857200D02*
X17595238Y-92904819D01*
X17595238Y-92904819D02*
X17833333Y-92904819D01*
X17833333Y-92904819D02*
X17928571Y-92857200D01*
X17928571Y-92857200D02*
X17976190Y-92809580D01*
X17976190Y-92809580D02*
X18023809Y-92714342D01*
X18023809Y-92714342D02*
X18023809Y-92619104D01*
X18023809Y-92619104D02*
X17976190Y-92523866D01*
X17976190Y-92523866D02*
X17928571Y-92476247D01*
X17928571Y-92476247D02*
X17833333Y-92428628D01*
X17833333Y-92428628D02*
X17642857Y-92381009D01*
X17642857Y-92381009D02*
X17547619Y-92333390D01*
X17547619Y-92333390D02*
X17500000Y-92285771D01*
X17500000Y-92285771D02*
X17452381Y-92190533D01*
X17452381Y-92190533D02*
X17452381Y-92095295D01*
X17452381Y-92095295D02*
X17500000Y-92000057D01*
X17500000Y-92000057D02*
X17547619Y-91952438D01*
X17547619Y-91952438D02*
X17642857Y-91904819D01*
X17642857Y-91904819D02*
X17880952Y-91904819D01*
X17880952Y-91904819D02*
X18023809Y-91952438D01*
X18357143Y-91904819D02*
X18595238Y-92904819D01*
X18595238Y-92904819D02*
X18785714Y-92190533D01*
X18785714Y-92190533D02*
X18976190Y-92904819D01*
X18976190Y-92904819D02*
X19214286Y-91904819D01*
X19357143Y-93000057D02*
X20119047Y-93000057D01*
X20357143Y-92904819D02*
X20357143Y-91904819D01*
X20357143Y-91904819D02*
X20738095Y-91904819D01*
X20738095Y-91904819D02*
X20833333Y-91952438D01*
X20833333Y-91952438D02*
X20880952Y-92000057D01*
X20880952Y-92000057D02*
X20928571Y-92095295D01*
X20928571Y-92095295D02*
X20928571Y-92238152D01*
X20928571Y-92238152D02*
X20880952Y-92333390D01*
X20880952Y-92333390D02*
X20833333Y-92381009D01*
X20833333Y-92381009D02*
X20738095Y-92428628D01*
X20738095Y-92428628D02*
X20357143Y-92428628D01*
X21785714Y-92238152D02*
X21785714Y-92904819D01*
X21357143Y-92238152D02*
X21357143Y-92761961D01*
X21357143Y-92761961D02*
X21404762Y-92857200D01*
X21404762Y-92857200D02*
X21500000Y-92904819D01*
X21500000Y-92904819D02*
X21642857Y-92904819D01*
X21642857Y-92904819D02*
X21738095Y-92857200D01*
X21738095Y-92857200D02*
X21785714Y-92809580D01*
X22214286Y-92857200D02*
X22309524Y-92904819D01*
X22309524Y-92904819D02*
X22500000Y-92904819D01*
X22500000Y-92904819D02*
X22595238Y-92857200D01*
X22595238Y-92857200D02*
X22642857Y-92761961D01*
X22642857Y-92761961D02*
X22642857Y-92714342D01*
X22642857Y-92714342D02*
X22595238Y-92619104D01*
X22595238Y-92619104D02*
X22500000Y-92571485D01*
X22500000Y-92571485D02*
X22357143Y-92571485D01*
X22357143Y-92571485D02*
X22261905Y-92523866D01*
X22261905Y-92523866D02*
X22214286Y-92428628D01*
X22214286Y-92428628D02*
X22214286Y-92381009D01*
X22214286Y-92381009D02*
X22261905Y-92285771D01*
X22261905Y-92285771D02*
X22357143Y-92238152D01*
X22357143Y-92238152D02*
X22500000Y-92238152D01*
X22500000Y-92238152D02*
X22595238Y-92285771D01*
X23071429Y-92904819D02*
X23071429Y-91904819D01*
X23500000Y-92904819D02*
X23500000Y-92381009D01*
X23500000Y-92381009D02*
X23452381Y-92285771D01*
X23452381Y-92285771D02*
X23357143Y-92238152D01*
X23357143Y-92238152D02*
X23214286Y-92238152D01*
X23214286Y-92238152D02*
X23119048Y-92285771D01*
X23119048Y-92285771D02*
X23071429Y-92333390D01*
X18666667Y-88407200D02*
X18809524Y-88454819D01*
X18809524Y-88454819D02*
X19047619Y-88454819D01*
X19047619Y-88454819D02*
X19142857Y-88407200D01*
X19142857Y-88407200D02*
X19190476Y-88359580D01*
X19190476Y-88359580D02*
X19238095Y-88264342D01*
X19238095Y-88264342D02*
X19238095Y-88169104D01*
X19238095Y-88169104D02*
X19190476Y-88073866D01*
X19190476Y-88073866D02*
X19142857Y-88026247D01*
X19142857Y-88026247D02*
X19047619Y-87978628D01*
X19047619Y-87978628D02*
X18857143Y-87931009D01*
X18857143Y-87931009D02*
X18761905Y-87883390D01*
X18761905Y-87883390D02*
X18714286Y-87835771D01*
X18714286Y-87835771D02*
X18666667Y-87740533D01*
X18666667Y-87740533D02*
X18666667Y-87645295D01*
X18666667Y-87645295D02*
X18714286Y-87550057D01*
X18714286Y-87550057D02*
X18761905Y-87502438D01*
X18761905Y-87502438D02*
X18857143Y-87454819D01*
X18857143Y-87454819D02*
X19095238Y-87454819D01*
X19095238Y-87454819D02*
X19238095Y-87502438D01*
X19571429Y-87454819D02*
X19809524Y-88454819D01*
X19809524Y-88454819D02*
X20000000Y-87740533D01*
X20000000Y-87740533D02*
X20190476Y-88454819D01*
X20190476Y-88454819D02*
X20428572Y-87454819D01*
X21238095Y-87788152D02*
X21238095Y-88454819D01*
X21000000Y-87407200D02*
X20761905Y-88121485D01*
X20761905Y-88121485D02*
X21380952Y-88121485D01*
X64166666Y-72004819D02*
X64738094Y-72004819D01*
X64452380Y-73004819D02*
X64452380Y-72004819D01*
X65452380Y-72957200D02*
X65357142Y-73004819D01*
X65357142Y-73004819D02*
X65166666Y-73004819D01*
X65166666Y-73004819D02*
X65071428Y-72957200D01*
X65071428Y-72957200D02*
X65023809Y-72861961D01*
X65023809Y-72861961D02*
X65023809Y-72481009D01*
X65023809Y-72481009D02*
X65071428Y-72385771D01*
X65071428Y-72385771D02*
X65166666Y-72338152D01*
X65166666Y-72338152D02*
X65357142Y-72338152D01*
X65357142Y-72338152D02*
X65452380Y-72385771D01*
X65452380Y-72385771D02*
X65499999Y-72481009D01*
X65499999Y-72481009D02*
X65499999Y-72576247D01*
X65499999Y-72576247D02*
X65023809Y-72671485D01*
X65880952Y-72957200D02*
X65976190Y-73004819D01*
X65976190Y-73004819D02*
X66166666Y-73004819D01*
X66166666Y-73004819D02*
X66261904Y-72957200D01*
X66261904Y-72957200D02*
X66309523Y-72861961D01*
X66309523Y-72861961D02*
X66309523Y-72814342D01*
X66309523Y-72814342D02*
X66261904Y-72719104D01*
X66261904Y-72719104D02*
X66166666Y-72671485D01*
X66166666Y-72671485D02*
X66023809Y-72671485D01*
X66023809Y-72671485D02*
X65928571Y-72623866D01*
X65928571Y-72623866D02*
X65880952Y-72528628D01*
X65880952Y-72528628D02*
X65880952Y-72481009D01*
X65880952Y-72481009D02*
X65928571Y-72385771D01*
X65928571Y-72385771D02*
X66023809Y-72338152D01*
X66023809Y-72338152D02*
X66166666Y-72338152D01*
X66166666Y-72338152D02*
X66261904Y-72385771D01*
X66595238Y-72338152D02*
X66976190Y-72338152D01*
X66738095Y-72004819D02*
X66738095Y-72861961D01*
X66738095Y-72861961D02*
X66785714Y-72957200D01*
X66785714Y-72957200D02*
X66880952Y-73004819D01*
X66880952Y-73004819D02*
X66976190Y-73004819D01*
X67309524Y-73004819D02*
X67309524Y-72004819D01*
X67309524Y-72004819D02*
X67690476Y-72004819D01*
X67690476Y-72004819D02*
X67785714Y-72052438D01*
X67785714Y-72052438D02*
X67833333Y-72100057D01*
X67833333Y-72100057D02*
X67880952Y-72195295D01*
X67880952Y-72195295D02*
X67880952Y-72338152D01*
X67880952Y-72338152D02*
X67833333Y-72433390D01*
X67833333Y-72433390D02*
X67785714Y-72481009D01*
X67785714Y-72481009D02*
X67690476Y-72528628D01*
X67690476Y-72528628D02*
X67309524Y-72528628D01*
X68452381Y-73004819D02*
X68357143Y-72957200D01*
X68357143Y-72957200D02*
X68309524Y-72909580D01*
X68309524Y-72909580D02*
X68261905Y-72814342D01*
X68261905Y-72814342D02*
X68261905Y-72528628D01*
X68261905Y-72528628D02*
X68309524Y-72433390D01*
X68309524Y-72433390D02*
X68357143Y-72385771D01*
X68357143Y-72385771D02*
X68452381Y-72338152D01*
X68452381Y-72338152D02*
X68595238Y-72338152D01*
X68595238Y-72338152D02*
X68690476Y-72385771D01*
X68690476Y-72385771D02*
X68738095Y-72433390D01*
X68738095Y-72433390D02*
X68785714Y-72528628D01*
X68785714Y-72528628D02*
X68785714Y-72814342D01*
X68785714Y-72814342D02*
X68738095Y-72909580D01*
X68738095Y-72909580D02*
X68690476Y-72957200D01*
X68690476Y-72957200D02*
X68595238Y-73004819D01*
X68595238Y-73004819D02*
X68452381Y-73004819D01*
X69214286Y-73004819D02*
X69214286Y-72338152D01*
X69214286Y-72004819D02*
X69166667Y-72052438D01*
X69166667Y-72052438D02*
X69214286Y-72100057D01*
X69214286Y-72100057D02*
X69261905Y-72052438D01*
X69261905Y-72052438D02*
X69214286Y-72004819D01*
X69214286Y-72004819D02*
X69214286Y-72100057D01*
X69690476Y-72338152D02*
X69690476Y-73004819D01*
X69690476Y-72433390D02*
X69738095Y-72385771D01*
X69738095Y-72385771D02*
X69833333Y-72338152D01*
X69833333Y-72338152D02*
X69976190Y-72338152D01*
X69976190Y-72338152D02*
X70071428Y-72385771D01*
X70071428Y-72385771D02*
X70119047Y-72481009D01*
X70119047Y-72481009D02*
X70119047Y-73004819D01*
X70452381Y-72338152D02*
X70833333Y-72338152D01*
X70595238Y-72004819D02*
X70595238Y-72861961D01*
X70595238Y-72861961D02*
X70642857Y-72957200D01*
X70642857Y-72957200D02*
X70738095Y-73004819D01*
X70738095Y-73004819D02*
X70833333Y-73004819D01*
X66238095Y-69004819D02*
X66809523Y-69004819D01*
X66523809Y-70004819D02*
X66523809Y-69004819D01*
X67142857Y-70004819D02*
X67142857Y-69004819D01*
X67142857Y-69004819D02*
X67523809Y-69004819D01*
X67523809Y-69004819D02*
X67619047Y-69052438D01*
X67619047Y-69052438D02*
X67666666Y-69100057D01*
X67666666Y-69100057D02*
X67714285Y-69195295D01*
X67714285Y-69195295D02*
X67714285Y-69338152D01*
X67714285Y-69338152D02*
X67666666Y-69433390D01*
X67666666Y-69433390D02*
X67619047Y-69481009D01*
X67619047Y-69481009D02*
X67523809Y-69528628D01*
X67523809Y-69528628D02*
X67142857Y-69528628D01*
X68666666Y-70004819D02*
X68095238Y-70004819D01*
X68380952Y-70004819D02*
X68380952Y-69004819D01*
X68380952Y-69004819D02*
X68285714Y-69147676D01*
X68285714Y-69147676D02*
X68190476Y-69242914D01*
X68190476Y-69242914D02*
X68095238Y-69290533D01*
X32452381Y-92857200D02*
X32595238Y-92904819D01*
X32595238Y-92904819D02*
X32833333Y-92904819D01*
X32833333Y-92904819D02*
X32928571Y-92857200D01*
X32928571Y-92857200D02*
X32976190Y-92809580D01*
X32976190Y-92809580D02*
X33023809Y-92714342D01*
X33023809Y-92714342D02*
X33023809Y-92619104D01*
X33023809Y-92619104D02*
X32976190Y-92523866D01*
X32976190Y-92523866D02*
X32928571Y-92476247D01*
X32928571Y-92476247D02*
X32833333Y-92428628D01*
X32833333Y-92428628D02*
X32642857Y-92381009D01*
X32642857Y-92381009D02*
X32547619Y-92333390D01*
X32547619Y-92333390D02*
X32500000Y-92285771D01*
X32500000Y-92285771D02*
X32452381Y-92190533D01*
X32452381Y-92190533D02*
X32452381Y-92095295D01*
X32452381Y-92095295D02*
X32500000Y-92000057D01*
X32500000Y-92000057D02*
X32547619Y-91952438D01*
X32547619Y-91952438D02*
X32642857Y-91904819D01*
X32642857Y-91904819D02*
X32880952Y-91904819D01*
X32880952Y-91904819D02*
X33023809Y-91952438D01*
X33357143Y-91904819D02*
X33595238Y-92904819D01*
X33595238Y-92904819D02*
X33785714Y-92190533D01*
X33785714Y-92190533D02*
X33976190Y-92904819D01*
X33976190Y-92904819D02*
X34214286Y-91904819D01*
X34357143Y-93000057D02*
X35119047Y-93000057D01*
X35357143Y-92904819D02*
X35357143Y-91904819D01*
X35357143Y-91904819D02*
X35738095Y-91904819D01*
X35738095Y-91904819D02*
X35833333Y-91952438D01*
X35833333Y-91952438D02*
X35880952Y-92000057D01*
X35880952Y-92000057D02*
X35928571Y-92095295D01*
X35928571Y-92095295D02*
X35928571Y-92238152D01*
X35928571Y-92238152D02*
X35880952Y-92333390D01*
X35880952Y-92333390D02*
X35833333Y-92381009D01*
X35833333Y-92381009D02*
X35738095Y-92428628D01*
X35738095Y-92428628D02*
X35357143Y-92428628D01*
X36785714Y-92238152D02*
X36785714Y-92904819D01*
X36357143Y-92238152D02*
X36357143Y-92761961D01*
X36357143Y-92761961D02*
X36404762Y-92857200D01*
X36404762Y-92857200D02*
X36500000Y-92904819D01*
X36500000Y-92904819D02*
X36642857Y-92904819D01*
X36642857Y-92904819D02*
X36738095Y-92857200D01*
X36738095Y-92857200D02*
X36785714Y-92809580D01*
X37214286Y-92857200D02*
X37309524Y-92904819D01*
X37309524Y-92904819D02*
X37500000Y-92904819D01*
X37500000Y-92904819D02*
X37595238Y-92857200D01*
X37595238Y-92857200D02*
X37642857Y-92761961D01*
X37642857Y-92761961D02*
X37642857Y-92714342D01*
X37642857Y-92714342D02*
X37595238Y-92619104D01*
X37595238Y-92619104D02*
X37500000Y-92571485D01*
X37500000Y-92571485D02*
X37357143Y-92571485D01*
X37357143Y-92571485D02*
X37261905Y-92523866D01*
X37261905Y-92523866D02*
X37214286Y-92428628D01*
X37214286Y-92428628D02*
X37214286Y-92381009D01*
X37214286Y-92381009D02*
X37261905Y-92285771D01*
X37261905Y-92285771D02*
X37357143Y-92238152D01*
X37357143Y-92238152D02*
X37500000Y-92238152D01*
X37500000Y-92238152D02*
X37595238Y-92285771D01*
X38071429Y-92904819D02*
X38071429Y-91904819D01*
X38500000Y-92904819D02*
X38500000Y-92381009D01*
X38500000Y-92381009D02*
X38452381Y-92285771D01*
X38452381Y-92285771D02*
X38357143Y-92238152D01*
X38357143Y-92238152D02*
X38214286Y-92238152D01*
X38214286Y-92238152D02*
X38119048Y-92285771D01*
X38119048Y-92285771D02*
X38071429Y-92333390D01*
X33666667Y-88407200D02*
X33809524Y-88454819D01*
X33809524Y-88454819D02*
X34047619Y-88454819D01*
X34047619Y-88454819D02*
X34142857Y-88407200D01*
X34142857Y-88407200D02*
X34190476Y-88359580D01*
X34190476Y-88359580D02*
X34238095Y-88264342D01*
X34238095Y-88264342D02*
X34238095Y-88169104D01*
X34238095Y-88169104D02*
X34190476Y-88073866D01*
X34190476Y-88073866D02*
X34142857Y-88026247D01*
X34142857Y-88026247D02*
X34047619Y-87978628D01*
X34047619Y-87978628D02*
X33857143Y-87931009D01*
X33857143Y-87931009D02*
X33761905Y-87883390D01*
X33761905Y-87883390D02*
X33714286Y-87835771D01*
X33714286Y-87835771D02*
X33666667Y-87740533D01*
X33666667Y-87740533D02*
X33666667Y-87645295D01*
X33666667Y-87645295D02*
X33714286Y-87550057D01*
X33714286Y-87550057D02*
X33761905Y-87502438D01*
X33761905Y-87502438D02*
X33857143Y-87454819D01*
X33857143Y-87454819D02*
X34095238Y-87454819D01*
X34095238Y-87454819D02*
X34238095Y-87502438D01*
X34571429Y-87454819D02*
X34809524Y-88454819D01*
X34809524Y-88454819D02*
X35000000Y-87740533D01*
X35000000Y-87740533D02*
X35190476Y-88454819D01*
X35190476Y-88454819D02*
X35428572Y-87454819D01*
X35714286Y-87454819D02*
X36333333Y-87454819D01*
X36333333Y-87454819D02*
X36000000Y-87835771D01*
X36000000Y-87835771D02*
X36142857Y-87835771D01*
X36142857Y-87835771D02*
X36238095Y-87883390D01*
X36238095Y-87883390D02*
X36285714Y-87931009D01*
X36285714Y-87931009D02*
X36333333Y-88026247D01*
X36333333Y-88026247D02*
X36333333Y-88264342D01*
X36333333Y-88264342D02*
X36285714Y-88359580D01*
X36285714Y-88359580D02*
X36238095Y-88407200D01*
X36238095Y-88407200D02*
X36142857Y-88454819D01*
X36142857Y-88454819D02*
X35857143Y-88454819D01*
X35857143Y-88454819D02*
X35761905Y-88407200D01*
X35761905Y-88407200D02*
X35714286Y-88359580D01*
X-2243332Y-30534819D02*
X-2243332Y-29534819D01*
X-2243332Y-29534819D02*
X-1909999Y-30249104D01*
X-1909999Y-30249104D02*
X-1576666Y-29534819D01*
X-1576666Y-29534819D02*
X-1576666Y-30534819D01*
X-957618Y-30534819D02*
X-1052856Y-30487200D01*
X-1052856Y-30487200D02*
X-1100475Y-30439580D01*
X-1100475Y-30439580D02*
X-1148094Y-30344342D01*
X-1148094Y-30344342D02*
X-1148094Y-30058628D01*
X-1148094Y-30058628D02*
X-1100475Y-29963390D01*
X-1100475Y-29963390D02*
X-1052856Y-29915771D01*
X-1052856Y-29915771D02*
X-957618Y-29868152D01*
X-957618Y-29868152D02*
X-814761Y-29868152D01*
X-814761Y-29868152D02*
X-719523Y-29915771D01*
X-719523Y-29915771D02*
X-671904Y-29963390D01*
X-671904Y-29963390D02*
X-624285Y-30058628D01*
X-624285Y-30058628D02*
X-624285Y-30344342D01*
X-624285Y-30344342D02*
X-671904Y-30439580D01*
X-671904Y-30439580D02*
X-719523Y-30487200D01*
X-719523Y-30487200D02*
X-814761Y-30534819D01*
X-814761Y-30534819D02*
X-957618Y-30534819D01*
X232857Y-29868152D02*
X232857Y-30534819D01*
X-195713Y-29868152D02*
X-195713Y-30391961D01*
X-195713Y-30391961D02*
X-148094Y-30487200D01*
X-148094Y-30487200D02*
X-52856Y-30534819D01*
X-52856Y-30534819D02*
X90000Y-30534819D01*
X90000Y-30534819D02*
X185238Y-30487200D01*
X185238Y-30487200D02*
X232857Y-30439580D01*
X709048Y-29868152D02*
X709048Y-30534819D01*
X709048Y-29963390D02*
X756667Y-29915771D01*
X756667Y-29915771D02*
X851905Y-29868152D01*
X851905Y-29868152D02*
X994762Y-29868152D01*
X994762Y-29868152D02*
X1090000Y-29915771D01*
X1090000Y-29915771D02*
X1137619Y-30011009D01*
X1137619Y-30011009D02*
X1137619Y-30534819D01*
X1470953Y-29868152D02*
X1851905Y-29868152D01*
X1613810Y-29534819D02*
X1613810Y-30391961D01*
X1613810Y-30391961D02*
X1661429Y-30487200D01*
X1661429Y-30487200D02*
X1756667Y-30534819D01*
X1756667Y-30534819D02*
X1851905Y-30534819D01*
X2185239Y-30534819D02*
X2185239Y-29868152D01*
X2185239Y-29534819D02*
X2137620Y-29582438D01*
X2137620Y-29582438D02*
X2185239Y-29630057D01*
X2185239Y-29630057D02*
X2232858Y-29582438D01*
X2232858Y-29582438D02*
X2185239Y-29534819D01*
X2185239Y-29534819D02*
X2185239Y-29630057D01*
X2661429Y-29868152D02*
X2661429Y-30534819D01*
X2661429Y-29963390D02*
X2709048Y-29915771D01*
X2709048Y-29915771D02*
X2804286Y-29868152D01*
X2804286Y-29868152D02*
X2947143Y-29868152D01*
X2947143Y-29868152D02*
X3042381Y-29915771D01*
X3042381Y-29915771D02*
X3090000Y-30011009D01*
X3090000Y-30011009D02*
X3090000Y-30534819D01*
X3994762Y-29868152D02*
X3994762Y-30677676D01*
X3994762Y-30677676D02*
X3947143Y-30772914D01*
X3947143Y-30772914D02*
X3899524Y-30820533D01*
X3899524Y-30820533D02*
X3804286Y-30868152D01*
X3804286Y-30868152D02*
X3661429Y-30868152D01*
X3661429Y-30868152D02*
X3566191Y-30820533D01*
X3994762Y-30487200D02*
X3899524Y-30534819D01*
X3899524Y-30534819D02*
X3709048Y-30534819D01*
X3709048Y-30534819D02*
X3613810Y-30487200D01*
X3613810Y-30487200D02*
X3566191Y-30439580D01*
X3566191Y-30439580D02*
X3518572Y-30344342D01*
X3518572Y-30344342D02*
X3518572Y-30058628D01*
X3518572Y-30058628D02*
X3566191Y-29963390D01*
X3566191Y-29963390D02*
X3613810Y-29915771D01*
X3613810Y-29915771D02*
X3709048Y-29868152D01*
X3709048Y-29868152D02*
X3899524Y-29868152D01*
X3899524Y-29868152D02*
X3994762Y-29915771D01*
X4470953Y-30534819D02*
X4470953Y-29534819D01*
X4470953Y-30011009D02*
X5042381Y-30011009D01*
X5042381Y-30534819D02*
X5042381Y-29534819D01*
X5661429Y-30534819D02*
X5566191Y-30487200D01*
X5566191Y-30487200D02*
X5518572Y-30439580D01*
X5518572Y-30439580D02*
X5470953Y-30344342D01*
X5470953Y-30344342D02*
X5470953Y-30058628D01*
X5470953Y-30058628D02*
X5518572Y-29963390D01*
X5518572Y-29963390D02*
X5566191Y-29915771D01*
X5566191Y-29915771D02*
X5661429Y-29868152D01*
X5661429Y-29868152D02*
X5804286Y-29868152D01*
X5804286Y-29868152D02*
X5899524Y-29915771D01*
X5899524Y-29915771D02*
X5947143Y-29963390D01*
X5947143Y-29963390D02*
X5994762Y-30058628D01*
X5994762Y-30058628D02*
X5994762Y-30344342D01*
X5994762Y-30344342D02*
X5947143Y-30439580D01*
X5947143Y-30439580D02*
X5899524Y-30487200D01*
X5899524Y-30487200D02*
X5804286Y-30534819D01*
X5804286Y-30534819D02*
X5661429Y-30534819D01*
X6566191Y-30534819D02*
X6470953Y-30487200D01*
X6470953Y-30487200D02*
X6423334Y-30391961D01*
X6423334Y-30391961D02*
X6423334Y-29534819D01*
X7328096Y-30487200D02*
X7232858Y-30534819D01*
X7232858Y-30534819D02*
X7042382Y-30534819D01*
X7042382Y-30534819D02*
X6947144Y-30487200D01*
X6947144Y-30487200D02*
X6899525Y-30391961D01*
X6899525Y-30391961D02*
X6899525Y-30011009D01*
X6899525Y-30011009D02*
X6947144Y-29915771D01*
X6947144Y-29915771D02*
X7042382Y-29868152D01*
X7042382Y-29868152D02*
X7232858Y-29868152D01*
X7232858Y-29868152D02*
X7328096Y-29915771D01*
X7328096Y-29915771D02*
X7375715Y-30011009D01*
X7375715Y-30011009D02*
X7375715Y-30106247D01*
X7375715Y-30106247D02*
X6899525Y-30201485D01*
X7566192Y-30630057D02*
X8328096Y-30630057D01*
X8518573Y-29630057D02*
X8566192Y-29582438D01*
X8566192Y-29582438D02*
X8661430Y-29534819D01*
X8661430Y-29534819D02*
X8899525Y-29534819D01*
X8899525Y-29534819D02*
X8994763Y-29582438D01*
X8994763Y-29582438D02*
X9042382Y-29630057D01*
X9042382Y-29630057D02*
X9090001Y-29725295D01*
X9090001Y-29725295D02*
X9090001Y-29820533D01*
X9090001Y-29820533D02*
X9042382Y-29963390D01*
X9042382Y-29963390D02*
X8470954Y-30534819D01*
X8470954Y-30534819D02*
X9090001Y-30534819D01*
X9518573Y-30439580D02*
X9566192Y-30487200D01*
X9566192Y-30487200D02*
X9518573Y-30534819D01*
X9518573Y-30534819D02*
X9470954Y-30487200D01*
X9470954Y-30487200D02*
X9518573Y-30439580D01*
X9518573Y-30439580D02*
X9518573Y-30534819D01*
X9899525Y-29534819D02*
X10566191Y-29534819D01*
X10566191Y-29534819D02*
X10137620Y-30534819D01*
X10947144Y-30534819D02*
X10947144Y-29868152D01*
X10947144Y-29963390D02*
X10994763Y-29915771D01*
X10994763Y-29915771D02*
X11090001Y-29868152D01*
X11090001Y-29868152D02*
X11232858Y-29868152D01*
X11232858Y-29868152D02*
X11328096Y-29915771D01*
X11328096Y-29915771D02*
X11375715Y-30011009D01*
X11375715Y-30011009D02*
X11375715Y-30534819D01*
X11375715Y-30011009D02*
X11423334Y-29915771D01*
X11423334Y-29915771D02*
X11518572Y-29868152D01*
X11518572Y-29868152D02*
X11661429Y-29868152D01*
X11661429Y-29868152D02*
X11756668Y-29915771D01*
X11756668Y-29915771D02*
X11804287Y-30011009D01*
X11804287Y-30011009D02*
X11804287Y-30534819D01*
X12280477Y-30534819D02*
X12280477Y-29868152D01*
X12280477Y-29963390D02*
X12328096Y-29915771D01*
X12328096Y-29915771D02*
X12423334Y-29868152D01*
X12423334Y-29868152D02*
X12566191Y-29868152D01*
X12566191Y-29868152D02*
X12661429Y-29915771D01*
X12661429Y-29915771D02*
X12709048Y-30011009D01*
X12709048Y-30011009D02*
X12709048Y-30534819D01*
X12709048Y-30011009D02*
X12756667Y-29915771D01*
X12756667Y-29915771D02*
X12851905Y-29868152D01*
X12851905Y-29868152D02*
X12994762Y-29868152D01*
X12994762Y-29868152D02*
X13090001Y-29915771D01*
X13090001Y-29915771D02*
X13137620Y-30011009D01*
X13137620Y-30011009D02*
X13137620Y-30534819D01*
X13375715Y-30630057D02*
X14137619Y-30630057D01*
X14375715Y-30534819D02*
X14375715Y-29534819D01*
X14375715Y-29534819D02*
X14709048Y-30249104D01*
X14709048Y-30249104D02*
X15042381Y-29534819D01*
X15042381Y-29534819D02*
X15042381Y-30534819D01*
X15470953Y-29630057D02*
X15518572Y-29582438D01*
X15518572Y-29582438D02*
X15613810Y-29534819D01*
X15613810Y-29534819D02*
X15851905Y-29534819D01*
X15851905Y-29534819D02*
X15947143Y-29582438D01*
X15947143Y-29582438D02*
X15994762Y-29630057D01*
X15994762Y-29630057D02*
X16042381Y-29725295D01*
X16042381Y-29725295D02*
X16042381Y-29820533D01*
X16042381Y-29820533D02*
X15994762Y-29963390D01*
X15994762Y-29963390D02*
X15423334Y-30534819D01*
X15423334Y-30534819D02*
X16042381Y-30534819D01*
X16470953Y-30439580D02*
X16518572Y-30487200D01*
X16518572Y-30487200D02*
X16470953Y-30534819D01*
X16470953Y-30534819D02*
X16423334Y-30487200D01*
X16423334Y-30487200D02*
X16470953Y-30439580D01*
X16470953Y-30439580D02*
X16470953Y-30534819D01*
X17423333Y-29534819D02*
X16947143Y-29534819D01*
X16947143Y-29534819D02*
X16899524Y-30011009D01*
X16899524Y-30011009D02*
X16947143Y-29963390D01*
X16947143Y-29963390D02*
X17042381Y-29915771D01*
X17042381Y-29915771D02*
X17280476Y-29915771D01*
X17280476Y-29915771D02*
X17375714Y-29963390D01*
X17375714Y-29963390D02*
X17423333Y-30011009D01*
X17423333Y-30011009D02*
X17470952Y-30106247D01*
X17470952Y-30106247D02*
X17470952Y-30344342D01*
X17470952Y-30344342D02*
X17423333Y-30439580D01*
X17423333Y-30439580D02*
X17375714Y-30487200D01*
X17375714Y-30487200D02*
X17280476Y-30534819D01*
X17280476Y-30534819D02*
X17042381Y-30534819D01*
X17042381Y-30534819D02*
X16947143Y-30487200D01*
X16947143Y-30487200D02*
X16899524Y-30439580D01*
X6828095Y-34184819D02*
X6828095Y-33184819D01*
X6828095Y-33661009D02*
X7399523Y-33661009D01*
X7399523Y-34184819D02*
X7399523Y-33184819D01*
X8304285Y-33518152D02*
X8304285Y-34184819D01*
X8066190Y-33137200D02*
X7828095Y-33851485D01*
X7828095Y-33851485D02*
X8447142Y-33851485D01*
X41556667Y-74334819D02*
X41556667Y-73334819D01*
X41556667Y-73334819D02*
X41890000Y-74049104D01*
X41890000Y-74049104D02*
X42223333Y-73334819D01*
X42223333Y-73334819D02*
X42223333Y-74334819D01*
X42842381Y-74334819D02*
X42747143Y-74287200D01*
X42747143Y-74287200D02*
X42699524Y-74239580D01*
X42699524Y-74239580D02*
X42651905Y-74144342D01*
X42651905Y-74144342D02*
X42651905Y-73858628D01*
X42651905Y-73858628D02*
X42699524Y-73763390D01*
X42699524Y-73763390D02*
X42747143Y-73715771D01*
X42747143Y-73715771D02*
X42842381Y-73668152D01*
X42842381Y-73668152D02*
X42985238Y-73668152D01*
X42985238Y-73668152D02*
X43080476Y-73715771D01*
X43080476Y-73715771D02*
X43128095Y-73763390D01*
X43128095Y-73763390D02*
X43175714Y-73858628D01*
X43175714Y-73858628D02*
X43175714Y-74144342D01*
X43175714Y-74144342D02*
X43128095Y-74239580D01*
X43128095Y-74239580D02*
X43080476Y-74287200D01*
X43080476Y-74287200D02*
X42985238Y-74334819D01*
X42985238Y-74334819D02*
X42842381Y-74334819D01*
X44032857Y-73668152D02*
X44032857Y-74334819D01*
X43604286Y-73668152D02*
X43604286Y-74191961D01*
X43604286Y-74191961D02*
X43651905Y-74287200D01*
X43651905Y-74287200D02*
X43747143Y-74334819D01*
X43747143Y-74334819D02*
X43890000Y-74334819D01*
X43890000Y-74334819D02*
X43985238Y-74287200D01*
X43985238Y-74287200D02*
X44032857Y-74239580D01*
X44509048Y-73668152D02*
X44509048Y-74334819D01*
X44509048Y-73763390D02*
X44556667Y-73715771D01*
X44556667Y-73715771D02*
X44651905Y-73668152D01*
X44651905Y-73668152D02*
X44794762Y-73668152D01*
X44794762Y-73668152D02*
X44890000Y-73715771D01*
X44890000Y-73715771D02*
X44937619Y-73811009D01*
X44937619Y-73811009D02*
X44937619Y-74334819D01*
X45270953Y-73668152D02*
X45651905Y-73668152D01*
X45413810Y-73334819D02*
X45413810Y-74191961D01*
X45413810Y-74191961D02*
X45461429Y-74287200D01*
X45461429Y-74287200D02*
X45556667Y-74334819D01*
X45556667Y-74334819D02*
X45651905Y-74334819D01*
X45985239Y-74334819D02*
X45985239Y-73668152D01*
X45985239Y-73334819D02*
X45937620Y-73382438D01*
X45937620Y-73382438D02*
X45985239Y-73430057D01*
X45985239Y-73430057D02*
X46032858Y-73382438D01*
X46032858Y-73382438D02*
X45985239Y-73334819D01*
X45985239Y-73334819D02*
X45985239Y-73430057D01*
X46461429Y-73668152D02*
X46461429Y-74334819D01*
X46461429Y-73763390D02*
X46509048Y-73715771D01*
X46509048Y-73715771D02*
X46604286Y-73668152D01*
X46604286Y-73668152D02*
X46747143Y-73668152D01*
X46747143Y-73668152D02*
X46842381Y-73715771D01*
X46842381Y-73715771D02*
X46890000Y-73811009D01*
X46890000Y-73811009D02*
X46890000Y-74334819D01*
X47794762Y-73668152D02*
X47794762Y-74477676D01*
X47794762Y-74477676D02*
X47747143Y-74572914D01*
X47747143Y-74572914D02*
X47699524Y-74620533D01*
X47699524Y-74620533D02*
X47604286Y-74668152D01*
X47604286Y-74668152D02*
X47461429Y-74668152D01*
X47461429Y-74668152D02*
X47366191Y-74620533D01*
X47794762Y-74287200D02*
X47699524Y-74334819D01*
X47699524Y-74334819D02*
X47509048Y-74334819D01*
X47509048Y-74334819D02*
X47413810Y-74287200D01*
X47413810Y-74287200D02*
X47366191Y-74239580D01*
X47366191Y-74239580D02*
X47318572Y-74144342D01*
X47318572Y-74144342D02*
X47318572Y-73858628D01*
X47318572Y-73858628D02*
X47366191Y-73763390D01*
X47366191Y-73763390D02*
X47413810Y-73715771D01*
X47413810Y-73715771D02*
X47509048Y-73668152D01*
X47509048Y-73668152D02*
X47699524Y-73668152D01*
X47699524Y-73668152D02*
X47794762Y-73715771D01*
X48270953Y-74334819D02*
X48270953Y-73334819D01*
X48270953Y-73811009D02*
X48842381Y-73811009D01*
X48842381Y-74334819D02*
X48842381Y-73334819D01*
X49461429Y-74334819D02*
X49366191Y-74287200D01*
X49366191Y-74287200D02*
X49318572Y-74239580D01*
X49318572Y-74239580D02*
X49270953Y-74144342D01*
X49270953Y-74144342D02*
X49270953Y-73858628D01*
X49270953Y-73858628D02*
X49318572Y-73763390D01*
X49318572Y-73763390D02*
X49366191Y-73715771D01*
X49366191Y-73715771D02*
X49461429Y-73668152D01*
X49461429Y-73668152D02*
X49604286Y-73668152D01*
X49604286Y-73668152D02*
X49699524Y-73715771D01*
X49699524Y-73715771D02*
X49747143Y-73763390D01*
X49747143Y-73763390D02*
X49794762Y-73858628D01*
X49794762Y-73858628D02*
X49794762Y-74144342D01*
X49794762Y-74144342D02*
X49747143Y-74239580D01*
X49747143Y-74239580D02*
X49699524Y-74287200D01*
X49699524Y-74287200D02*
X49604286Y-74334819D01*
X49604286Y-74334819D02*
X49461429Y-74334819D01*
X50366191Y-74334819D02*
X50270953Y-74287200D01*
X50270953Y-74287200D02*
X50223334Y-74191961D01*
X50223334Y-74191961D02*
X50223334Y-73334819D01*
X51128096Y-74287200D02*
X51032858Y-74334819D01*
X51032858Y-74334819D02*
X50842382Y-74334819D01*
X50842382Y-74334819D02*
X50747144Y-74287200D01*
X50747144Y-74287200D02*
X50699525Y-74191961D01*
X50699525Y-74191961D02*
X50699525Y-73811009D01*
X50699525Y-73811009D02*
X50747144Y-73715771D01*
X50747144Y-73715771D02*
X50842382Y-73668152D01*
X50842382Y-73668152D02*
X51032858Y-73668152D01*
X51032858Y-73668152D02*
X51128096Y-73715771D01*
X51128096Y-73715771D02*
X51175715Y-73811009D01*
X51175715Y-73811009D02*
X51175715Y-73906247D01*
X51175715Y-73906247D02*
X50699525Y-74001485D01*
X51366192Y-74430057D02*
X52128096Y-74430057D01*
X52318573Y-73430057D02*
X52366192Y-73382438D01*
X52366192Y-73382438D02*
X52461430Y-73334819D01*
X52461430Y-73334819D02*
X52699525Y-73334819D01*
X52699525Y-73334819D02*
X52794763Y-73382438D01*
X52794763Y-73382438D02*
X52842382Y-73430057D01*
X52842382Y-73430057D02*
X52890001Y-73525295D01*
X52890001Y-73525295D02*
X52890001Y-73620533D01*
X52890001Y-73620533D02*
X52842382Y-73763390D01*
X52842382Y-73763390D02*
X52270954Y-74334819D01*
X52270954Y-74334819D02*
X52890001Y-74334819D01*
X53318573Y-74239580D02*
X53366192Y-74287200D01*
X53366192Y-74287200D02*
X53318573Y-74334819D01*
X53318573Y-74334819D02*
X53270954Y-74287200D01*
X53270954Y-74287200D02*
X53318573Y-74239580D01*
X53318573Y-74239580D02*
X53318573Y-74334819D01*
X53699525Y-73334819D02*
X54366191Y-73334819D01*
X54366191Y-73334819D02*
X53937620Y-74334819D01*
X54747144Y-74334819D02*
X54747144Y-73668152D01*
X54747144Y-73763390D02*
X54794763Y-73715771D01*
X54794763Y-73715771D02*
X54890001Y-73668152D01*
X54890001Y-73668152D02*
X55032858Y-73668152D01*
X55032858Y-73668152D02*
X55128096Y-73715771D01*
X55128096Y-73715771D02*
X55175715Y-73811009D01*
X55175715Y-73811009D02*
X55175715Y-74334819D01*
X55175715Y-73811009D02*
X55223334Y-73715771D01*
X55223334Y-73715771D02*
X55318572Y-73668152D01*
X55318572Y-73668152D02*
X55461429Y-73668152D01*
X55461429Y-73668152D02*
X55556668Y-73715771D01*
X55556668Y-73715771D02*
X55604287Y-73811009D01*
X55604287Y-73811009D02*
X55604287Y-74334819D01*
X56080477Y-74334819D02*
X56080477Y-73668152D01*
X56080477Y-73763390D02*
X56128096Y-73715771D01*
X56128096Y-73715771D02*
X56223334Y-73668152D01*
X56223334Y-73668152D02*
X56366191Y-73668152D01*
X56366191Y-73668152D02*
X56461429Y-73715771D01*
X56461429Y-73715771D02*
X56509048Y-73811009D01*
X56509048Y-73811009D02*
X56509048Y-74334819D01*
X56509048Y-73811009D02*
X56556667Y-73715771D01*
X56556667Y-73715771D02*
X56651905Y-73668152D01*
X56651905Y-73668152D02*
X56794762Y-73668152D01*
X56794762Y-73668152D02*
X56890001Y-73715771D01*
X56890001Y-73715771D02*
X56937620Y-73811009D01*
X56937620Y-73811009D02*
X56937620Y-74334819D01*
X57175715Y-74430057D02*
X57937619Y-74430057D01*
X58175715Y-74334819D02*
X58175715Y-73334819D01*
X58175715Y-73334819D02*
X58509048Y-74049104D01*
X58509048Y-74049104D02*
X58842381Y-73334819D01*
X58842381Y-73334819D02*
X58842381Y-74334819D01*
X59270953Y-73430057D02*
X59318572Y-73382438D01*
X59318572Y-73382438D02*
X59413810Y-73334819D01*
X59413810Y-73334819D02*
X59651905Y-73334819D01*
X59651905Y-73334819D02*
X59747143Y-73382438D01*
X59747143Y-73382438D02*
X59794762Y-73430057D01*
X59794762Y-73430057D02*
X59842381Y-73525295D01*
X59842381Y-73525295D02*
X59842381Y-73620533D01*
X59842381Y-73620533D02*
X59794762Y-73763390D01*
X59794762Y-73763390D02*
X59223334Y-74334819D01*
X59223334Y-74334819D02*
X59842381Y-74334819D01*
X60270953Y-74239580D02*
X60318572Y-74287200D01*
X60318572Y-74287200D02*
X60270953Y-74334819D01*
X60270953Y-74334819D02*
X60223334Y-74287200D01*
X60223334Y-74287200D02*
X60270953Y-74239580D01*
X60270953Y-74239580D02*
X60270953Y-74334819D01*
X61223333Y-73334819D02*
X60747143Y-73334819D01*
X60747143Y-73334819D02*
X60699524Y-73811009D01*
X60699524Y-73811009D02*
X60747143Y-73763390D01*
X60747143Y-73763390D02*
X60842381Y-73715771D01*
X60842381Y-73715771D02*
X61080476Y-73715771D01*
X61080476Y-73715771D02*
X61175714Y-73763390D01*
X61175714Y-73763390D02*
X61223333Y-73811009D01*
X61223333Y-73811009D02*
X61270952Y-73906247D01*
X61270952Y-73906247D02*
X61270952Y-74144342D01*
X61270952Y-74144342D02*
X61223333Y-74239580D01*
X61223333Y-74239580D02*
X61175714Y-74287200D01*
X61175714Y-74287200D02*
X61080476Y-74334819D01*
X61080476Y-74334819D02*
X60842381Y-74334819D01*
X60842381Y-74334819D02*
X60747143Y-74287200D01*
X60747143Y-74287200D02*
X60699524Y-74239580D01*
X50628095Y-77984819D02*
X50628095Y-76984819D01*
X50628095Y-77461009D02*
X51199523Y-77461009D01*
X51199523Y-77984819D02*
X51199523Y-76984819D01*
X52199523Y-77984819D02*
X51628095Y-77984819D01*
X51913809Y-77984819D02*
X51913809Y-76984819D01*
X51913809Y-76984819D02*
X51818571Y-77127676D01*
X51818571Y-77127676D02*
X51723333Y-77222914D01*
X51723333Y-77222914D02*
X51628095Y-77270533D01*
X41761904Y-82359580D02*
X41714285Y-82407200D01*
X41714285Y-82407200D02*
X41571428Y-82454819D01*
X41571428Y-82454819D02*
X41476190Y-82454819D01*
X41476190Y-82454819D02*
X41333333Y-82407200D01*
X41333333Y-82407200D02*
X41238095Y-82311961D01*
X41238095Y-82311961D02*
X41190476Y-82216723D01*
X41190476Y-82216723D02*
X41142857Y-82026247D01*
X41142857Y-82026247D02*
X41142857Y-81883390D01*
X41142857Y-81883390D02*
X41190476Y-81692914D01*
X41190476Y-81692914D02*
X41238095Y-81597676D01*
X41238095Y-81597676D02*
X41333333Y-81502438D01*
X41333333Y-81502438D02*
X41476190Y-81454819D01*
X41476190Y-81454819D02*
X41571428Y-81454819D01*
X41571428Y-81454819D02*
X41714285Y-81502438D01*
X41714285Y-81502438D02*
X41761904Y-81550057D01*
X42333333Y-82454819D02*
X42238095Y-82407200D01*
X42238095Y-82407200D02*
X42190476Y-82359580D01*
X42190476Y-82359580D02*
X42142857Y-82264342D01*
X42142857Y-82264342D02*
X42142857Y-81978628D01*
X42142857Y-81978628D02*
X42190476Y-81883390D01*
X42190476Y-81883390D02*
X42238095Y-81835771D01*
X42238095Y-81835771D02*
X42333333Y-81788152D01*
X42333333Y-81788152D02*
X42476190Y-81788152D01*
X42476190Y-81788152D02*
X42571428Y-81835771D01*
X42571428Y-81835771D02*
X42619047Y-81883390D01*
X42619047Y-81883390D02*
X42666666Y-81978628D01*
X42666666Y-81978628D02*
X42666666Y-82264342D01*
X42666666Y-82264342D02*
X42619047Y-82359580D01*
X42619047Y-82359580D02*
X42571428Y-82407200D01*
X42571428Y-82407200D02*
X42476190Y-82454819D01*
X42476190Y-82454819D02*
X42333333Y-82454819D01*
X43095238Y-81788152D02*
X43095238Y-82454819D01*
X43095238Y-81883390D02*
X43142857Y-81835771D01*
X43142857Y-81835771D02*
X43238095Y-81788152D01*
X43238095Y-81788152D02*
X43380952Y-81788152D01*
X43380952Y-81788152D02*
X43476190Y-81835771D01*
X43476190Y-81835771D02*
X43523809Y-81931009D01*
X43523809Y-81931009D02*
X43523809Y-82454819D01*
X44000000Y-81788152D02*
X44000000Y-82454819D01*
X44000000Y-81883390D02*
X44047619Y-81835771D01*
X44047619Y-81835771D02*
X44142857Y-81788152D01*
X44142857Y-81788152D02*
X44285714Y-81788152D01*
X44285714Y-81788152D02*
X44380952Y-81835771D01*
X44380952Y-81835771D02*
X44428571Y-81931009D01*
X44428571Y-81931009D02*
X44428571Y-82454819D01*
X44666667Y-82550057D02*
X45428571Y-82550057D01*
X45857143Y-81454819D02*
X45952381Y-81454819D01*
X45952381Y-81454819D02*
X46047619Y-81502438D01*
X46047619Y-81502438D02*
X46095238Y-81550057D01*
X46095238Y-81550057D02*
X46142857Y-81645295D01*
X46142857Y-81645295D02*
X46190476Y-81835771D01*
X46190476Y-81835771D02*
X46190476Y-82073866D01*
X46190476Y-82073866D02*
X46142857Y-82264342D01*
X46142857Y-82264342D02*
X46095238Y-82359580D01*
X46095238Y-82359580D02*
X46047619Y-82407200D01*
X46047619Y-82407200D02*
X45952381Y-82454819D01*
X45952381Y-82454819D02*
X45857143Y-82454819D01*
X45857143Y-82454819D02*
X45761905Y-82407200D01*
X45761905Y-82407200D02*
X45714286Y-82359580D01*
X45714286Y-82359580D02*
X45666667Y-82264342D01*
X45666667Y-82264342D02*
X45619048Y-82073866D01*
X45619048Y-82073866D02*
X45619048Y-81835771D01*
X45619048Y-81835771D02*
X45666667Y-81645295D01*
X45666667Y-81645295D02*
X45714286Y-81550057D01*
X45714286Y-81550057D02*
X45761905Y-81502438D01*
X45761905Y-81502438D02*
X45857143Y-81454819D01*
X47142857Y-82454819D02*
X46571429Y-82454819D01*
X46857143Y-82454819D02*
X46857143Y-81454819D01*
X46857143Y-81454819D02*
X46761905Y-81597676D01*
X46761905Y-81597676D02*
X46666667Y-81692914D01*
X46666667Y-81692914D02*
X46571429Y-81740533D01*
X47476191Y-82454819D02*
X48000000Y-81788152D01*
X47476191Y-81788152D02*
X48000000Y-82454819D01*
X48904762Y-82454819D02*
X48333334Y-82454819D01*
X48619048Y-82454819D02*
X48619048Y-81454819D01*
X48619048Y-81454819D02*
X48523810Y-81597676D01*
X48523810Y-81597676D02*
X48428572Y-81692914D01*
X48428572Y-81692914D02*
X48333334Y-81740533D01*
X49761905Y-81788152D02*
X49761905Y-82454819D01*
X49523810Y-81407200D02*
X49285715Y-82121485D01*
X49285715Y-82121485D02*
X49904762Y-82121485D01*
X42076077Y-20990180D02*
X41504649Y-20990180D01*
X41790363Y-19990180D02*
X41790363Y-20990180D01*
X41171315Y-19990180D02*
X41171315Y-20990180D01*
X40742744Y-19990180D02*
X40742744Y-20513990D01*
X40742744Y-20513990D02*
X40790363Y-20609228D01*
X40790363Y-20609228D02*
X40885601Y-20656847D01*
X40885601Y-20656847D02*
X41028458Y-20656847D01*
X41028458Y-20656847D02*
X41123696Y-20609228D01*
X41123696Y-20609228D02*
X41171315Y-20561609D01*
X40266553Y-19990180D02*
X40266553Y-20656847D01*
X40266553Y-20990180D02*
X40314172Y-20942561D01*
X40314172Y-20942561D02*
X40266553Y-20894942D01*
X40266553Y-20894942D02*
X40218934Y-20942561D01*
X40218934Y-20942561D02*
X40266553Y-20990180D01*
X40266553Y-20990180D02*
X40266553Y-20894942D01*
X39837982Y-20037800D02*
X39742744Y-19990180D01*
X39742744Y-19990180D02*
X39552268Y-19990180D01*
X39552268Y-19990180D02*
X39457030Y-20037800D01*
X39457030Y-20037800D02*
X39409411Y-20133038D01*
X39409411Y-20133038D02*
X39409411Y-20180657D01*
X39409411Y-20180657D02*
X39457030Y-20275895D01*
X39457030Y-20275895D02*
X39552268Y-20323514D01*
X39552268Y-20323514D02*
X39695125Y-20323514D01*
X39695125Y-20323514D02*
X39790363Y-20371133D01*
X39790363Y-20371133D02*
X39837982Y-20466371D01*
X39837982Y-20466371D02*
X39837982Y-20513990D01*
X39837982Y-20513990D02*
X39790363Y-20609228D01*
X39790363Y-20609228D02*
X39695125Y-20656847D01*
X39695125Y-20656847D02*
X39552268Y-20656847D01*
X39552268Y-20656847D02*
X39457030Y-20609228D01*
X38266553Y-20037800D02*
X38123696Y-19990180D01*
X38123696Y-19990180D02*
X37885601Y-19990180D01*
X37885601Y-19990180D02*
X37790363Y-20037800D01*
X37790363Y-20037800D02*
X37742744Y-20085419D01*
X37742744Y-20085419D02*
X37695125Y-20180657D01*
X37695125Y-20180657D02*
X37695125Y-20275895D01*
X37695125Y-20275895D02*
X37742744Y-20371133D01*
X37742744Y-20371133D02*
X37790363Y-20418752D01*
X37790363Y-20418752D02*
X37885601Y-20466371D01*
X37885601Y-20466371D02*
X38076077Y-20513990D01*
X38076077Y-20513990D02*
X38171315Y-20561609D01*
X38171315Y-20561609D02*
X38218934Y-20609228D01*
X38218934Y-20609228D02*
X38266553Y-20704466D01*
X38266553Y-20704466D02*
X38266553Y-20799704D01*
X38266553Y-20799704D02*
X38218934Y-20894942D01*
X38218934Y-20894942D02*
X38171315Y-20942561D01*
X38171315Y-20942561D02*
X38076077Y-20990180D01*
X38076077Y-20990180D02*
X37837982Y-20990180D01*
X37837982Y-20990180D02*
X37695125Y-20942561D01*
X37266553Y-19990180D02*
X37266553Y-20656847D01*
X37266553Y-20990180D02*
X37314172Y-20942561D01*
X37314172Y-20942561D02*
X37266553Y-20894942D01*
X37266553Y-20894942D02*
X37218934Y-20942561D01*
X37218934Y-20942561D02*
X37266553Y-20990180D01*
X37266553Y-20990180D02*
X37266553Y-20894942D01*
X36361792Y-19990180D02*
X36361792Y-20990180D01*
X36361792Y-20037800D02*
X36457030Y-19990180D01*
X36457030Y-19990180D02*
X36647506Y-19990180D01*
X36647506Y-19990180D02*
X36742744Y-20037800D01*
X36742744Y-20037800D02*
X36790363Y-20085419D01*
X36790363Y-20085419D02*
X36837982Y-20180657D01*
X36837982Y-20180657D02*
X36837982Y-20466371D01*
X36837982Y-20466371D02*
X36790363Y-20561609D01*
X36790363Y-20561609D02*
X36742744Y-20609228D01*
X36742744Y-20609228D02*
X36647506Y-20656847D01*
X36647506Y-20656847D02*
X36457030Y-20656847D01*
X36457030Y-20656847D02*
X36361792Y-20609228D01*
X35504649Y-20037800D02*
X35599887Y-19990180D01*
X35599887Y-19990180D02*
X35790363Y-19990180D01*
X35790363Y-19990180D02*
X35885601Y-20037800D01*
X35885601Y-20037800D02*
X35933220Y-20133038D01*
X35933220Y-20133038D02*
X35933220Y-20513990D01*
X35933220Y-20513990D02*
X35885601Y-20609228D01*
X35885601Y-20609228D02*
X35790363Y-20656847D01*
X35790363Y-20656847D02*
X35599887Y-20656847D01*
X35599887Y-20656847D02*
X35504649Y-20609228D01*
X35504649Y-20609228D02*
X35457030Y-20513990D01*
X35457030Y-20513990D02*
X35457030Y-20418752D01*
X35457030Y-20418752D02*
X35933220Y-20323514D01*
X34409410Y-20990180D02*
X33837982Y-20990180D01*
X34123696Y-19990180D02*
X34123696Y-20990180D01*
X33361791Y-19990180D02*
X33457029Y-20037800D01*
X33457029Y-20037800D02*
X33504648Y-20085419D01*
X33504648Y-20085419D02*
X33552267Y-20180657D01*
X33552267Y-20180657D02*
X33552267Y-20466371D01*
X33552267Y-20466371D02*
X33504648Y-20561609D01*
X33504648Y-20561609D02*
X33457029Y-20609228D01*
X33457029Y-20609228D02*
X33361791Y-20656847D01*
X33361791Y-20656847D02*
X33218934Y-20656847D01*
X33218934Y-20656847D02*
X33123696Y-20609228D01*
X33123696Y-20609228D02*
X33076077Y-20561609D01*
X33076077Y-20561609D02*
X33028458Y-20466371D01*
X33028458Y-20466371D02*
X33028458Y-20180657D01*
X33028458Y-20180657D02*
X33076077Y-20085419D01*
X33076077Y-20085419D02*
X33123696Y-20037800D01*
X33123696Y-20037800D02*
X33218934Y-19990180D01*
X33218934Y-19990180D02*
X33361791Y-19990180D01*
X32695124Y-20656847D02*
X32504648Y-19990180D01*
X32504648Y-19990180D02*
X32314172Y-20466371D01*
X32314172Y-20466371D02*
X32123696Y-19990180D01*
X32123696Y-19990180D02*
X31933220Y-20656847D01*
X31123696Y-19990180D02*
X31123696Y-20513990D01*
X31123696Y-20513990D02*
X31171315Y-20609228D01*
X31171315Y-20609228D02*
X31266553Y-20656847D01*
X31266553Y-20656847D02*
X31457029Y-20656847D01*
X31457029Y-20656847D02*
X31552267Y-20609228D01*
X31123696Y-20037800D02*
X31218934Y-19990180D01*
X31218934Y-19990180D02*
X31457029Y-19990180D01*
X31457029Y-19990180D02*
X31552267Y-20037800D01*
X31552267Y-20037800D02*
X31599886Y-20133038D01*
X31599886Y-20133038D02*
X31599886Y-20228276D01*
X31599886Y-20228276D02*
X31552267Y-20323514D01*
X31552267Y-20323514D02*
X31457029Y-20371133D01*
X31457029Y-20371133D02*
X31218934Y-20371133D01*
X31218934Y-20371133D02*
X31123696Y-20418752D01*
X30647505Y-19990180D02*
X30647505Y-20656847D01*
X30647505Y-20466371D02*
X30599886Y-20561609D01*
X30599886Y-20561609D02*
X30552267Y-20609228D01*
X30552267Y-20609228D02*
X30457029Y-20656847D01*
X30457029Y-20656847D02*
X30361791Y-20656847D01*
X29599886Y-19990180D02*
X29599886Y-20990180D01*
X29599886Y-20037800D02*
X29695124Y-19990180D01*
X29695124Y-19990180D02*
X29885600Y-19990180D01*
X29885600Y-19990180D02*
X29980838Y-20037800D01*
X29980838Y-20037800D02*
X30028457Y-20085419D01*
X30028457Y-20085419D02*
X30076076Y-20180657D01*
X30076076Y-20180657D02*
X30076076Y-20466371D01*
X30076076Y-20466371D02*
X30028457Y-20561609D01*
X30028457Y-20561609D02*
X29980838Y-20609228D01*
X29980838Y-20609228D02*
X29885600Y-20656847D01*
X29885600Y-20656847D02*
X29695124Y-20656847D01*
X29695124Y-20656847D02*
X29599886Y-20609228D01*
X28361790Y-20513990D02*
X28028457Y-20513990D01*
X27885600Y-19990180D02*
X28361790Y-19990180D01*
X28361790Y-19990180D02*
X28361790Y-20990180D01*
X28361790Y-20990180D02*
X27885600Y-20990180D01*
X27457028Y-20656847D02*
X27457028Y-19990180D01*
X27457028Y-20561609D02*
X27409409Y-20609228D01*
X27409409Y-20609228D02*
X27314171Y-20656847D01*
X27314171Y-20656847D02*
X27171314Y-20656847D01*
X27171314Y-20656847D02*
X27076076Y-20609228D01*
X27076076Y-20609228D02*
X27028457Y-20513990D01*
X27028457Y-20513990D02*
X27028457Y-19990180D01*
X26171314Y-20037800D02*
X26266552Y-19990180D01*
X26266552Y-19990180D02*
X26457028Y-19990180D01*
X26457028Y-19990180D02*
X26552266Y-20037800D01*
X26552266Y-20037800D02*
X26599885Y-20133038D01*
X26599885Y-20133038D02*
X26599885Y-20513990D01*
X26599885Y-20513990D02*
X26552266Y-20609228D01*
X26552266Y-20609228D02*
X26457028Y-20656847D01*
X26457028Y-20656847D02*
X26266552Y-20656847D01*
X26266552Y-20656847D02*
X26171314Y-20609228D01*
X26171314Y-20609228D02*
X26123695Y-20513990D01*
X26123695Y-20513990D02*
X26123695Y-20418752D01*
X26123695Y-20418752D02*
X26599885Y-20323514D01*
X25695123Y-19990180D02*
X25695123Y-20656847D01*
X25695123Y-20561609D02*
X25647504Y-20609228D01*
X25647504Y-20609228D02*
X25552266Y-20656847D01*
X25552266Y-20656847D02*
X25409409Y-20656847D01*
X25409409Y-20656847D02*
X25314171Y-20609228D01*
X25314171Y-20609228D02*
X25266552Y-20513990D01*
X25266552Y-20513990D02*
X25266552Y-19990180D01*
X25266552Y-20513990D02*
X25218933Y-20609228D01*
X25218933Y-20609228D02*
X25123695Y-20656847D01*
X25123695Y-20656847D02*
X24980838Y-20656847D01*
X24980838Y-20656847D02*
X24885599Y-20609228D01*
X24885599Y-20609228D02*
X24837980Y-20513990D01*
X24837980Y-20513990D02*
X24837980Y-19990180D01*
X24457028Y-20656847D02*
X24218933Y-19990180D01*
X23980838Y-20656847D02*
X24218933Y-19990180D01*
X24218933Y-19990180D02*
X24314171Y-19752085D01*
X24314171Y-19752085D02*
X24361790Y-19704466D01*
X24361790Y-19704466D02*
X24457028Y-19656847D01*
%TO.C,SW2*%
D11*
X47000000Y-85000000D02*
X50000000Y-85000000D01*
X47000000Y-91000000D02*
X47000000Y-85000000D01*
X50000000Y-85000000D02*
X53000000Y-85000000D01*
X53000000Y-85000000D02*
X53000000Y-91000000D01*
X53000000Y-91000000D02*
X47000000Y-91000000D01*
X52015564Y-88000000D02*
G75*
G02*
X47984436Y-88000000I-2015564J0D01*
G01*
X47984436Y-88000000D02*
G75*
G02*
X52015564Y-88000000I2015564J0D01*
G01*
%TO.C,SW1*%
X62000000Y-85000000D02*
X65000000Y-85000000D01*
X62000000Y-91000000D02*
X62000000Y-85000000D01*
X65000000Y-85000000D02*
X68000000Y-85000000D01*
X68000000Y-85000000D02*
X68000000Y-91000000D01*
X68000000Y-91000000D02*
X62000000Y-91000000D01*
X67015564Y-88000000D02*
G75*
G02*
X62984436Y-88000000I-2015564J0D01*
G01*
X62984436Y-88000000D02*
G75*
G02*
X67015564Y-88000000I2015564J0D01*
G01*
%TO.C,SW4*%
X17000000Y-85000000D02*
X20000000Y-85000000D01*
X17000000Y-91000000D02*
X17000000Y-85000000D01*
X20000000Y-85000000D02*
X23000000Y-85000000D01*
X23000000Y-85000000D02*
X23000000Y-91000000D01*
X23000000Y-91000000D02*
X17000000Y-91000000D01*
X22015564Y-88000000D02*
G75*
G02*
X17984436Y-88000000I-2015564J0D01*
G01*
X17984436Y-88000000D02*
G75*
G02*
X22015564Y-88000000I2015564J0D01*
G01*
%TO.C,SW3*%
X32000000Y-85000000D02*
X35000000Y-85000000D01*
X32000000Y-91000000D02*
X32000000Y-85000000D01*
X35000000Y-85000000D02*
X38000000Y-85000000D01*
X38000000Y-85000000D02*
X38000000Y-91000000D01*
X38000000Y-91000000D02*
X32000000Y-91000000D01*
X37015564Y-88000000D02*
G75*
G02*
X32984436Y-88000000I-2015564J0D01*
G01*
X32984436Y-88000000D02*
G75*
G02*
X37015564Y-88000000I2015564J0D01*
G01*
%TO.C,J3*%
X16700000Y-33900000D02*
X74300000Y-33900000D01*
X16700000Y-77100000D02*
X16700000Y-33900000D01*
X74300000Y-33900000D02*
X74300000Y-77100000D01*
X74300000Y-77100000D02*
X16700000Y-77100000D01*
%TO.C,J12*%
X5570000Y-23730000D02*
X25890000Y-23730000D01*
X5570000Y-25635000D02*
X5570000Y-23730000D01*
X6205000Y-26270000D02*
X5570000Y-25635000D01*
X25890000Y-23730000D02*
X25890000Y-26270000D01*
X25890000Y-26270000D02*
X6205000Y-26270000D01*
X41130000Y-23730000D02*
X66530000Y-23730000D01*
X41130000Y-25635000D02*
X41130000Y-23730000D01*
X41765000Y-26270000D02*
X41130000Y-25635000D01*
X66530000Y-23730000D02*
X66530000Y-26270000D01*
X66530000Y-26270000D02*
X41765000Y-26270000D01*
%TD*%
M02*
