%TF.GenerationSoftware,KiCad,Pcbnew,10.0.3*%
%TF.CreationDate,2026-07-08T14:40:18-04:00*%
%TF.ProjectId,a7s_backplane_rev2,6137735f-6261-4636-9b70-6c616e655f72,rev?*%
%TF.SameCoordinates,Original*%
%TF.FileFunction,Other,User*%
%FSLAX46Y46*%
G04 Gerber Fmt 4.6, Leading zero omitted, Abs format (unit mm)*
G04 Created by KiCad (PCBNEW 10.0.3) date 2026-07-08 14:40:18*
%MOMM*%
%LPD*%
G01*
G04 APERTURE LIST*
%ADD10C,0.050000*%
G04 APERTURE END LIST*
%TO.C,TP2*%
D10*
X68500000Y-65000000D02*
G75*
G02*
X66500000Y-65000000I-1000000J0D01*
G01*
X66500000Y-65000000D02*
G75*
G02*
X68500000Y-65000000I1000000J0D01*
G01*
%TO.C,H2*%
X10540000Y-77530000D02*
G75*
G02*
X4640000Y-77530000I-2950000J0D01*
G01*
X4640000Y-77530000D02*
G75*
G02*
X10540000Y-77530000I2950000J0D01*
G01*
%TO.C,H3*%
X54340000Y-33730000D02*
G75*
G02*
X48440000Y-33730000I-2950000J0D01*
G01*
X48440000Y-33730000D02*
G75*
G02*
X54340000Y-33730000I2950000J0D01*
G01*
%TO.C,SW2*%
X45250000Y-84250000D02*
X45500000Y-84250000D01*
X45250000Y-84500000D02*
X45250000Y-84250000D01*
X45250000Y-91500000D02*
X45250000Y-84500000D01*
X45250000Y-91500000D02*
X45250000Y-91750000D01*
X45250000Y-91750000D02*
X45500000Y-91750000D01*
X45500000Y-84250000D02*
X54500000Y-84250000D01*
X54500000Y-84250000D02*
X54750000Y-84250000D01*
X54500000Y-91750000D02*
X45500000Y-91750000D01*
X54500000Y-91750000D02*
X54750000Y-91750000D01*
X54750000Y-84250000D02*
X54750000Y-84500000D01*
X54750000Y-84500000D02*
X54750000Y-91500000D01*
X54750000Y-91750000D02*
X54750000Y-91500000D01*
%TO.C,SW1*%
X60250000Y-84250000D02*
X60500000Y-84250000D01*
X60250000Y-84500000D02*
X60250000Y-84250000D01*
X60250000Y-91500000D02*
X60250000Y-84500000D01*
X60250000Y-91500000D02*
X60250000Y-91750000D01*
X60250000Y-91750000D02*
X60500000Y-91750000D01*
X60500000Y-84250000D02*
X69500000Y-84250000D01*
X69500000Y-84250000D02*
X69750000Y-84250000D01*
X69500000Y-91750000D02*
X60500000Y-91750000D01*
X69500000Y-91750000D02*
X69750000Y-91750000D01*
X69750000Y-84250000D02*
X69750000Y-84500000D01*
X69750000Y-84500000D02*
X69750000Y-91500000D01*
X69750000Y-91750000D02*
X69750000Y-91500000D01*
%TO.C,SW4*%
X15250000Y-84250000D02*
X15500000Y-84250000D01*
X15250000Y-84500000D02*
X15250000Y-84250000D01*
X15250000Y-91500000D02*
X15250000Y-84500000D01*
X15250000Y-91500000D02*
X15250000Y-91750000D01*
X15250000Y-91750000D02*
X15500000Y-91750000D01*
X15500000Y-84250000D02*
X24500000Y-84250000D01*
X24500000Y-84250000D02*
X24750000Y-84250000D01*
X24500000Y-91750000D02*
X15500000Y-91750000D01*
X24500000Y-91750000D02*
X24750000Y-91750000D01*
X24750000Y-84250000D02*
X24750000Y-84500000D01*
X24750000Y-84500000D02*
X24750000Y-91500000D01*
X24750000Y-91750000D02*
X24750000Y-91500000D01*
%TO.C,TP1*%
X68500000Y-71000000D02*
G75*
G02*
X66500000Y-71000000I-1000000J0D01*
G01*
X66500000Y-71000000D02*
G75*
G02*
X68500000Y-71000000I1000000J0D01*
G01*
%TO.C,SW3*%
X30250000Y-84250000D02*
X30500000Y-84250000D01*
X30250000Y-84500000D02*
X30250000Y-84250000D01*
X30250000Y-91500000D02*
X30250000Y-84500000D01*
X30250000Y-91500000D02*
X30250000Y-91750000D01*
X30250000Y-91750000D02*
X30500000Y-91750000D01*
X30500000Y-84250000D02*
X39500000Y-84250000D01*
X39500000Y-84250000D02*
X39750000Y-84250000D01*
X39500000Y-91750000D02*
X30500000Y-91750000D01*
X39500000Y-91750000D02*
X39750000Y-91750000D01*
X39750000Y-84250000D02*
X39750000Y-84500000D01*
X39750000Y-84500000D02*
X39750000Y-91500000D01*
X39750000Y-91750000D02*
X39750000Y-91500000D01*
%TO.C,H4*%
X10540000Y-33730000D02*
G75*
G02*
X4640000Y-33730000I-2950000J0D01*
G01*
X4640000Y-33730000D02*
G75*
G02*
X10540000Y-33730000I2950000J0D01*
G01*
%TO.C,H1*%
X54340000Y-77530000D02*
G75*
G02*
X48440000Y-77530000I-2950000J0D01*
G01*
X48440000Y-77530000D02*
G75*
G02*
X54340000Y-77530000I2950000J0D01*
G01*
%TO.C,J3*%
X2500000Y-30500000D02*
X88500000Y-30500000D01*
X2500000Y-80500000D02*
X2500000Y-30500000D01*
X88500000Y-30500000D02*
X88500000Y-80500000D01*
X88500000Y-80500000D02*
X2500000Y-80500000D01*
%TO.C,J12*%
X5040000Y-23200000D02*
X5040000Y-26800000D01*
X5040000Y-26800000D02*
X26390000Y-26800000D01*
X26390000Y-23200000D02*
X5040000Y-23200000D01*
X26390000Y-26800000D02*
X26390000Y-23200000D01*
X40600000Y-23200000D02*
X40600000Y-26800000D01*
X40600000Y-26800000D02*
X67050000Y-26800000D01*
X67050000Y-23200000D02*
X40600000Y-23200000D01*
X67050000Y-26800000D02*
X67050000Y-23200000D01*
%TD*%
M02*
