%TF.GenerationSoftware,KiCad,Pcbnew,10.0.3*%
%TF.CreationDate,2026-07-10T20:15:47-04:00*%
%TF.ProjectId,a7s_backplane_routed,6137735f-6261-4636-9b70-6c616e655f72,rev?*%
%TF.SameCoordinates,Original*%
%TF.FileFunction,Legend,Bot*%
%TF.FilePolarity,Positive*%
%FSLAX46Y46*%
G04 Gerber Fmt 4.6, Leading zero omitted, Abs format (unit mm)*
G04 Created by KiCad (PCBNEW 10.0.3) date 2026-07-10 20:15:47*
%MOMM*%
%LPD*%
G01*
G04 APERTURE LIST*
%ADD10C,0.200000*%
%ADD11C,0.150000*%
%ADD12C,0.120000*%
G04 APERTURE END LIST*
D10*
X5750000Y-82920000D02*
G75*
G02*
X3250000Y-82920000I-1250000J0D01*
G01*
X3250000Y-82920000D02*
G75*
G02*
X5750000Y-82920000I1250000J0D01*
G01*
X19310000Y-32300000D02*
G75*
G02*
X16810000Y-32300000I-1250000J0D01*
G01*
X16810000Y-32300000D02*
G75*
G02*
X19310000Y-32300000I1250000J0D01*
G01*
X24390000Y-34840000D02*
G75*
G02*
X21890000Y-34840000I-1250000J0D01*
G01*
X21890000Y-34840000D02*
G75*
G02*
X24390000Y-34840000I1250000J0D01*
G01*
X29440000Y-79260000D02*
G75*
G02*
X26940000Y-79260000I-1250000J0D01*
G01*
X26940000Y-79260000D02*
G75*
G02*
X29440000Y-79260000I1250000J0D01*
G01*
X29470000Y-32300000D02*
G75*
G02*
X26970000Y-32300000I-1250000J0D01*
G01*
X26970000Y-32300000D02*
G75*
G02*
X29470000Y-32300000I1250000J0D01*
G01*
X37090000Y-32300000D02*
G75*
G02*
X34590000Y-32300000I-1250000J0D01*
G01*
X34590000Y-32300000D02*
G75*
G02*
X37090000Y-32300000I1250000J0D01*
G01*
X42140000Y-79260000D02*
G75*
G02*
X39640000Y-79260000I-1250000J0D01*
G01*
X39640000Y-79260000D02*
G75*
G02*
X42140000Y-79260000I1250000J0D01*
G01*
X44710000Y-34840000D02*
G75*
G02*
X42210000Y-34840000I-1250000J0D01*
G01*
X42210000Y-34840000D02*
G75*
G02*
X44710000Y-34840000I1250000J0D01*
G01*
X48870000Y-64620000D02*
G75*
G02*
X46370000Y-64620000I-1250000J0D01*
G01*
X46370000Y-64620000D02*
G75*
G02*
X48870000Y-64620000I1250000J0D01*
G01*
X49790000Y-32300000D02*
G75*
G02*
X47290000Y-32300000I-1250000J0D01*
G01*
X47290000Y-32300000D02*
G75*
G02*
X49790000Y-32300000I1250000J0D01*
G01*
X83370000Y-90500000D02*
G75*
G02*
X80870000Y-90500000I-1250000J0D01*
G01*
X80870000Y-90500000D02*
G75*
G02*
X83370000Y-90500000I1250000J0D01*
G01*
X85250000Y-80580000D02*
G75*
G02*
X82750000Y-80580000I-1250000J0D01*
G01*
X82750000Y-80580000D02*
G75*
G02*
X85250000Y-80580000I1250000J0D01*
G01*
D11*
X82248935Y-73284200D02*
X82134649Y-73322295D01*
X82134649Y-73322295D02*
X81944173Y-73322295D01*
X81944173Y-73322295D02*
X81867982Y-73284200D01*
X81867982Y-73284200D02*
X81829887Y-73246104D01*
X81829887Y-73246104D02*
X81791792Y-73169914D01*
X81791792Y-73169914D02*
X81791792Y-73093723D01*
X81791792Y-73093723D02*
X81829887Y-73017533D01*
X81829887Y-73017533D02*
X81867982Y-72979438D01*
X81867982Y-72979438D02*
X81944173Y-72941342D01*
X81944173Y-72941342D02*
X82096554Y-72903247D01*
X82096554Y-72903247D02*
X82172744Y-72865152D01*
X82172744Y-72865152D02*
X82210839Y-72827057D01*
X82210839Y-72827057D02*
X82248935Y-72750866D01*
X82248935Y-72750866D02*
X82248935Y-72674676D01*
X82248935Y-72674676D02*
X82210839Y-72598485D01*
X82210839Y-72598485D02*
X82172744Y-72560390D01*
X82172744Y-72560390D02*
X82096554Y-72522295D01*
X82096554Y-72522295D02*
X81906077Y-72522295D01*
X81906077Y-72522295D02*
X81791792Y-72560390D01*
X81525125Y-72522295D02*
X81334649Y-73322295D01*
X81334649Y-73322295D02*
X81182268Y-72750866D01*
X81182268Y-72750866D02*
X81029887Y-73322295D01*
X81029887Y-73322295D02*
X80839411Y-72522295D01*
X82058458Y-75481342D02*
X82058458Y-75862295D01*
X82325125Y-75062295D02*
X82058458Y-75481342D01*
X82058458Y-75481342D02*
X81791792Y-75062295D01*
X82287030Y-77602295D02*
X81753696Y-78402295D01*
X81753696Y-77602295D02*
X82287030Y-78402295D01*
X81791792Y-80180390D02*
X81867982Y-80142295D01*
X81867982Y-80142295D02*
X81982268Y-80142295D01*
X81982268Y-80142295D02*
X82096554Y-80180390D01*
X82096554Y-80180390D02*
X82172744Y-80256580D01*
X82172744Y-80256580D02*
X82210839Y-80332771D01*
X82210839Y-80332771D02*
X82248935Y-80485152D01*
X82248935Y-80485152D02*
X82248935Y-80599438D01*
X82248935Y-80599438D02*
X82210839Y-80751819D01*
X82210839Y-80751819D02*
X82172744Y-80828009D01*
X82172744Y-80828009D02*
X82096554Y-80904200D01*
X82096554Y-80904200D02*
X81982268Y-80942295D01*
X81982268Y-80942295D02*
X81906077Y-80942295D01*
X81906077Y-80942295D02*
X81791792Y-80904200D01*
X81791792Y-80904200D02*
X81753696Y-80866104D01*
X81753696Y-80866104D02*
X81753696Y-80599438D01*
X81753696Y-80599438D02*
X81906077Y-80599438D01*
X81410839Y-80942295D02*
X81410839Y-80142295D01*
X81410839Y-80142295D02*
X80953696Y-80942295D01*
X80953696Y-80942295D02*
X80953696Y-80142295D01*
X80572744Y-80942295D02*
X80572744Y-80142295D01*
X80572744Y-80142295D02*
X80382268Y-80142295D01*
X80382268Y-80142295D02*
X80267982Y-80180390D01*
X80267982Y-80180390D02*
X80191792Y-80256580D01*
X80191792Y-80256580D02*
X80153697Y-80332771D01*
X80153697Y-80332771D02*
X80115601Y-80485152D01*
X80115601Y-80485152D02*
X80115601Y-80599438D01*
X80115601Y-80599438D02*
X80153697Y-80751819D01*
X80153697Y-80751819D02*
X80191792Y-80828009D01*
X80191792Y-80828009D02*
X80267982Y-80904200D01*
X80267982Y-80904200D02*
X80382268Y-80942295D01*
X80382268Y-80942295D02*
X80572744Y-80942295D01*
X82287030Y-82682295D02*
X81791792Y-82682295D01*
X81791792Y-82682295D02*
X82058458Y-82987057D01*
X82058458Y-82987057D02*
X81944173Y-82987057D01*
X81944173Y-82987057D02*
X81867982Y-83025152D01*
X81867982Y-83025152D02*
X81829887Y-83063247D01*
X81829887Y-83063247D02*
X81791792Y-83139438D01*
X81791792Y-83139438D02*
X81791792Y-83329914D01*
X81791792Y-83329914D02*
X81829887Y-83406104D01*
X81829887Y-83406104D02*
X81867982Y-83444200D01*
X81867982Y-83444200D02*
X81944173Y-83482295D01*
X81944173Y-83482295D02*
X82172744Y-83482295D01*
X82172744Y-83482295D02*
X82248935Y-83444200D01*
X82248935Y-83444200D02*
X82287030Y-83406104D01*
X81563220Y-82682295D02*
X81296553Y-83482295D01*
X81296553Y-83482295D02*
X81029887Y-82682295D01*
X80839411Y-82682295D02*
X80344173Y-82682295D01*
X80344173Y-82682295D02*
X80610839Y-82987057D01*
X80610839Y-82987057D02*
X80496554Y-82987057D01*
X80496554Y-82987057D02*
X80420363Y-83025152D01*
X80420363Y-83025152D02*
X80382268Y-83063247D01*
X80382268Y-83063247D02*
X80344173Y-83139438D01*
X80344173Y-83139438D02*
X80344173Y-83329914D01*
X80344173Y-83329914D02*
X80382268Y-83406104D01*
X80382268Y-83406104D02*
X80420363Y-83444200D01*
X80420363Y-83444200D02*
X80496554Y-83482295D01*
X80496554Y-83482295D02*
X80725125Y-83482295D01*
X80725125Y-83482295D02*
X80801316Y-83444200D01*
X80801316Y-83444200D02*
X80839411Y-83406104D01*
X13940475Y-78122295D02*
X13940475Y-77322295D01*
X13940475Y-77322295D02*
X13635713Y-77322295D01*
X13635713Y-77322295D02*
X13559523Y-77360390D01*
X13559523Y-77360390D02*
X13521428Y-77398485D01*
X13521428Y-77398485D02*
X13483332Y-77474676D01*
X13483332Y-77474676D02*
X13483332Y-77588961D01*
X13483332Y-77588961D02*
X13521428Y-77665152D01*
X13521428Y-77665152D02*
X13559523Y-77703247D01*
X13559523Y-77703247D02*
X13635713Y-77741342D01*
X13635713Y-77741342D02*
X13940475Y-77741342D01*
X12721428Y-77360390D02*
X12797618Y-77322295D01*
X12797618Y-77322295D02*
X12911904Y-77322295D01*
X12911904Y-77322295D02*
X13026190Y-77360390D01*
X13026190Y-77360390D02*
X13102380Y-77436580D01*
X13102380Y-77436580D02*
X13140475Y-77512771D01*
X13140475Y-77512771D02*
X13178571Y-77665152D01*
X13178571Y-77665152D02*
X13178571Y-77779438D01*
X13178571Y-77779438D02*
X13140475Y-77931819D01*
X13140475Y-77931819D02*
X13102380Y-78008009D01*
X13102380Y-78008009D02*
X13026190Y-78084200D01*
X13026190Y-78084200D02*
X12911904Y-78122295D01*
X12911904Y-78122295D02*
X12835713Y-78122295D01*
X12835713Y-78122295D02*
X12721428Y-78084200D01*
X12721428Y-78084200D02*
X12683332Y-78046104D01*
X12683332Y-78046104D02*
X12683332Y-77779438D01*
X12683332Y-77779438D02*
X12835713Y-77779438D01*
X11959523Y-77322295D02*
X12340475Y-77322295D01*
X12340475Y-77322295D02*
X12378571Y-77703247D01*
X12378571Y-77703247D02*
X12340475Y-77665152D01*
X12340475Y-77665152D02*
X12264285Y-77627057D01*
X12264285Y-77627057D02*
X12073809Y-77627057D01*
X12073809Y-77627057D02*
X11997618Y-77665152D01*
X11997618Y-77665152D02*
X11959523Y-77703247D01*
X11959523Y-77703247D02*
X11921428Y-77779438D01*
X11921428Y-77779438D02*
X11921428Y-77969914D01*
X11921428Y-77969914D02*
X11959523Y-78046104D01*
X11959523Y-78046104D02*
X11997618Y-78084200D01*
X11997618Y-78084200D02*
X12073809Y-78122295D01*
X12073809Y-78122295D02*
X12264285Y-78122295D01*
X12264285Y-78122295D02*
X12340475Y-78084200D01*
X12340475Y-78084200D02*
X12378571Y-78046104D01*
X13132380Y-30362295D02*
X13513332Y-30362295D01*
X13513332Y-30362295D02*
X13551428Y-30743247D01*
X13551428Y-30743247D02*
X13513332Y-30705152D01*
X13513332Y-30705152D02*
X13437142Y-30667057D01*
X13437142Y-30667057D02*
X13246666Y-30667057D01*
X13246666Y-30667057D02*
X13170475Y-30705152D01*
X13170475Y-30705152D02*
X13132380Y-30743247D01*
X13132380Y-30743247D02*
X13094285Y-30819438D01*
X13094285Y-30819438D02*
X13094285Y-31009914D01*
X13094285Y-31009914D02*
X13132380Y-31086104D01*
X13132380Y-31086104D02*
X13170475Y-31124200D01*
X13170475Y-31124200D02*
X13246666Y-31162295D01*
X13246666Y-31162295D02*
X13437142Y-31162295D01*
X13437142Y-31162295D02*
X13513332Y-31124200D01*
X13513332Y-31124200D02*
X13551428Y-31086104D01*
X12865713Y-30362295D02*
X12599046Y-31162295D01*
X12599046Y-31162295D02*
X12332380Y-30362295D01*
X13970476Y-32902295D02*
X13475238Y-32902295D01*
X13475238Y-32902295D02*
X13741904Y-33207057D01*
X13741904Y-33207057D02*
X13627619Y-33207057D01*
X13627619Y-33207057D02*
X13551428Y-33245152D01*
X13551428Y-33245152D02*
X13513333Y-33283247D01*
X13513333Y-33283247D02*
X13475238Y-33359438D01*
X13475238Y-33359438D02*
X13475238Y-33549914D01*
X13475238Y-33549914D02*
X13513333Y-33626104D01*
X13513333Y-33626104D02*
X13551428Y-33664200D01*
X13551428Y-33664200D02*
X13627619Y-33702295D01*
X13627619Y-33702295D02*
X13856190Y-33702295D01*
X13856190Y-33702295D02*
X13932381Y-33664200D01*
X13932381Y-33664200D02*
X13970476Y-33626104D01*
X13246666Y-32902295D02*
X12979999Y-33702295D01*
X12979999Y-33702295D02*
X12713333Y-32902295D01*
X12522857Y-32902295D02*
X12027619Y-32902295D01*
X12027619Y-32902295D02*
X12294285Y-33207057D01*
X12294285Y-33207057D02*
X12180000Y-33207057D01*
X12180000Y-33207057D02*
X12103809Y-33245152D01*
X12103809Y-33245152D02*
X12065714Y-33283247D01*
X12065714Y-33283247D02*
X12027619Y-33359438D01*
X12027619Y-33359438D02*
X12027619Y-33549914D01*
X12027619Y-33549914D02*
X12065714Y-33626104D01*
X12065714Y-33626104D02*
X12103809Y-33664200D01*
X12103809Y-33664200D02*
X12180000Y-33702295D01*
X12180000Y-33702295D02*
X12408571Y-33702295D01*
X12408571Y-33702295D02*
X12484762Y-33664200D01*
X12484762Y-33664200D02*
X12522857Y-33626104D01*
X15672380Y-30362295D02*
X16053332Y-30362295D01*
X16053332Y-30362295D02*
X16091428Y-30743247D01*
X16091428Y-30743247D02*
X16053332Y-30705152D01*
X16053332Y-30705152D02*
X15977142Y-30667057D01*
X15977142Y-30667057D02*
X15786666Y-30667057D01*
X15786666Y-30667057D02*
X15710475Y-30705152D01*
X15710475Y-30705152D02*
X15672380Y-30743247D01*
X15672380Y-30743247D02*
X15634285Y-30819438D01*
X15634285Y-30819438D02*
X15634285Y-31009914D01*
X15634285Y-31009914D02*
X15672380Y-31086104D01*
X15672380Y-31086104D02*
X15710475Y-31124200D01*
X15710475Y-31124200D02*
X15786666Y-31162295D01*
X15786666Y-31162295D02*
X15977142Y-31162295D01*
X15977142Y-31162295D02*
X16053332Y-31124200D01*
X16053332Y-31124200D02*
X16091428Y-31086104D01*
X15405713Y-30362295D02*
X15139046Y-31162295D01*
X15139046Y-31162295D02*
X14872380Y-30362295D01*
X18669523Y-30400390D02*
X18745713Y-30362295D01*
X18745713Y-30362295D02*
X18859999Y-30362295D01*
X18859999Y-30362295D02*
X18974285Y-30400390D01*
X18974285Y-30400390D02*
X19050475Y-30476580D01*
X19050475Y-30476580D02*
X19088570Y-30552771D01*
X19088570Y-30552771D02*
X19126666Y-30705152D01*
X19126666Y-30705152D02*
X19126666Y-30819438D01*
X19126666Y-30819438D02*
X19088570Y-30971819D01*
X19088570Y-30971819D02*
X19050475Y-31048009D01*
X19050475Y-31048009D02*
X18974285Y-31124200D01*
X18974285Y-31124200D02*
X18859999Y-31162295D01*
X18859999Y-31162295D02*
X18783808Y-31162295D01*
X18783808Y-31162295D02*
X18669523Y-31124200D01*
X18669523Y-31124200D02*
X18631427Y-31086104D01*
X18631427Y-31086104D02*
X18631427Y-30819438D01*
X18631427Y-30819438D02*
X18783808Y-30819438D01*
X18288570Y-31162295D02*
X18288570Y-30362295D01*
X18288570Y-30362295D02*
X17831427Y-31162295D01*
X17831427Y-31162295D02*
X17831427Y-30362295D01*
X17450475Y-31162295D02*
X17450475Y-30362295D01*
X17450475Y-30362295D02*
X17259999Y-30362295D01*
X17259999Y-30362295D02*
X17145713Y-30400390D01*
X17145713Y-30400390D02*
X17069523Y-30476580D01*
X17069523Y-30476580D02*
X17031428Y-30552771D01*
X17031428Y-30552771D02*
X16993332Y-30705152D01*
X16993332Y-30705152D02*
X16993332Y-30819438D01*
X16993332Y-30819438D02*
X17031428Y-30971819D01*
X17031428Y-30971819D02*
X17069523Y-31048009D01*
X17069523Y-31048009D02*
X17145713Y-31124200D01*
X17145713Y-31124200D02*
X17259999Y-31162295D01*
X17259999Y-31162295D02*
X17450475Y-31162295D01*
X23749523Y-32940390D02*
X23825713Y-32902295D01*
X23825713Y-32902295D02*
X23939999Y-32902295D01*
X23939999Y-32902295D02*
X24054285Y-32940390D01*
X24054285Y-32940390D02*
X24130475Y-33016580D01*
X24130475Y-33016580D02*
X24168570Y-33092771D01*
X24168570Y-33092771D02*
X24206666Y-33245152D01*
X24206666Y-33245152D02*
X24206666Y-33359438D01*
X24206666Y-33359438D02*
X24168570Y-33511819D01*
X24168570Y-33511819D02*
X24130475Y-33588009D01*
X24130475Y-33588009D02*
X24054285Y-33664200D01*
X24054285Y-33664200D02*
X23939999Y-33702295D01*
X23939999Y-33702295D02*
X23863808Y-33702295D01*
X23863808Y-33702295D02*
X23749523Y-33664200D01*
X23749523Y-33664200D02*
X23711427Y-33626104D01*
X23711427Y-33626104D02*
X23711427Y-33359438D01*
X23711427Y-33359438D02*
X23863808Y-33359438D01*
X23368570Y-33702295D02*
X23368570Y-32902295D01*
X23368570Y-32902295D02*
X22911427Y-33702295D01*
X22911427Y-33702295D02*
X22911427Y-32902295D01*
X22530475Y-33702295D02*
X22530475Y-32902295D01*
X22530475Y-32902295D02*
X22339999Y-32902295D01*
X22339999Y-32902295D02*
X22225713Y-32940390D01*
X22225713Y-32940390D02*
X22149523Y-33016580D01*
X22149523Y-33016580D02*
X22111428Y-33092771D01*
X22111428Y-33092771D02*
X22073332Y-33245152D01*
X22073332Y-33245152D02*
X22073332Y-33359438D01*
X22073332Y-33359438D02*
X22111428Y-33511819D01*
X22111428Y-33511819D02*
X22149523Y-33588009D01*
X22149523Y-33588009D02*
X22225713Y-33664200D01*
X22225713Y-33664200D02*
X22339999Y-33702295D01*
X22339999Y-33702295D02*
X22530475Y-33702295D01*
X28799523Y-77360390D02*
X28875713Y-77322295D01*
X28875713Y-77322295D02*
X28989999Y-77322295D01*
X28989999Y-77322295D02*
X29104285Y-77360390D01*
X29104285Y-77360390D02*
X29180475Y-77436580D01*
X29180475Y-77436580D02*
X29218570Y-77512771D01*
X29218570Y-77512771D02*
X29256666Y-77665152D01*
X29256666Y-77665152D02*
X29256666Y-77779438D01*
X29256666Y-77779438D02*
X29218570Y-77931819D01*
X29218570Y-77931819D02*
X29180475Y-78008009D01*
X29180475Y-78008009D02*
X29104285Y-78084200D01*
X29104285Y-78084200D02*
X28989999Y-78122295D01*
X28989999Y-78122295D02*
X28913808Y-78122295D01*
X28913808Y-78122295D02*
X28799523Y-78084200D01*
X28799523Y-78084200D02*
X28761427Y-78046104D01*
X28761427Y-78046104D02*
X28761427Y-77779438D01*
X28761427Y-77779438D02*
X28913808Y-77779438D01*
X28418570Y-78122295D02*
X28418570Y-77322295D01*
X28418570Y-77322295D02*
X27961427Y-78122295D01*
X27961427Y-78122295D02*
X27961427Y-77322295D01*
X27580475Y-78122295D02*
X27580475Y-77322295D01*
X27580475Y-77322295D02*
X27389999Y-77322295D01*
X27389999Y-77322295D02*
X27275713Y-77360390D01*
X27275713Y-77360390D02*
X27199523Y-77436580D01*
X27199523Y-77436580D02*
X27161428Y-77512771D01*
X27161428Y-77512771D02*
X27123332Y-77665152D01*
X27123332Y-77665152D02*
X27123332Y-77779438D01*
X27123332Y-77779438D02*
X27161428Y-77931819D01*
X27161428Y-77931819D02*
X27199523Y-78008009D01*
X27199523Y-78008009D02*
X27275713Y-78084200D01*
X27275713Y-78084200D02*
X27389999Y-78122295D01*
X27389999Y-78122295D02*
X27580475Y-78122295D01*
X28829523Y-30400390D02*
X28905713Y-30362295D01*
X28905713Y-30362295D02*
X29019999Y-30362295D01*
X29019999Y-30362295D02*
X29134285Y-30400390D01*
X29134285Y-30400390D02*
X29210475Y-30476580D01*
X29210475Y-30476580D02*
X29248570Y-30552771D01*
X29248570Y-30552771D02*
X29286666Y-30705152D01*
X29286666Y-30705152D02*
X29286666Y-30819438D01*
X29286666Y-30819438D02*
X29248570Y-30971819D01*
X29248570Y-30971819D02*
X29210475Y-31048009D01*
X29210475Y-31048009D02*
X29134285Y-31124200D01*
X29134285Y-31124200D02*
X29019999Y-31162295D01*
X29019999Y-31162295D02*
X28943808Y-31162295D01*
X28943808Y-31162295D02*
X28829523Y-31124200D01*
X28829523Y-31124200D02*
X28791427Y-31086104D01*
X28791427Y-31086104D02*
X28791427Y-30819438D01*
X28791427Y-30819438D02*
X28943808Y-30819438D01*
X28448570Y-31162295D02*
X28448570Y-30362295D01*
X28448570Y-30362295D02*
X27991427Y-31162295D01*
X27991427Y-31162295D02*
X27991427Y-30362295D01*
X27610475Y-31162295D02*
X27610475Y-30362295D01*
X27610475Y-30362295D02*
X27419999Y-30362295D01*
X27419999Y-30362295D02*
X27305713Y-30400390D01*
X27305713Y-30400390D02*
X27229523Y-30476580D01*
X27229523Y-30476580D02*
X27191428Y-30552771D01*
X27191428Y-30552771D02*
X27153332Y-30705152D01*
X27153332Y-30705152D02*
X27153332Y-30819438D01*
X27153332Y-30819438D02*
X27191428Y-30971819D01*
X27191428Y-30971819D02*
X27229523Y-31048009D01*
X27229523Y-31048009D02*
X27305713Y-31124200D01*
X27305713Y-31124200D02*
X27419999Y-31162295D01*
X27419999Y-31162295D02*
X27610475Y-31162295D01*
X30659523Y-58443247D02*
X30392857Y-58443247D01*
X30278571Y-58862295D02*
X30659523Y-58862295D01*
X30659523Y-58862295D02*
X30659523Y-58062295D01*
X30659523Y-58062295D02*
X30278571Y-58062295D01*
X29973809Y-58824200D02*
X29859523Y-58862295D01*
X29859523Y-58862295D02*
X29669047Y-58862295D01*
X29669047Y-58862295D02*
X29592856Y-58824200D01*
X29592856Y-58824200D02*
X29554761Y-58786104D01*
X29554761Y-58786104D02*
X29516666Y-58709914D01*
X29516666Y-58709914D02*
X29516666Y-58633723D01*
X29516666Y-58633723D02*
X29554761Y-58557533D01*
X29554761Y-58557533D02*
X29592856Y-58519438D01*
X29592856Y-58519438D02*
X29669047Y-58481342D01*
X29669047Y-58481342D02*
X29821428Y-58443247D01*
X29821428Y-58443247D02*
X29897618Y-58405152D01*
X29897618Y-58405152D02*
X29935713Y-58367057D01*
X29935713Y-58367057D02*
X29973809Y-58290866D01*
X29973809Y-58290866D02*
X29973809Y-58214676D01*
X29973809Y-58214676D02*
X29935713Y-58138485D01*
X29935713Y-58138485D02*
X29897618Y-58100390D01*
X29897618Y-58100390D02*
X29821428Y-58062295D01*
X29821428Y-58062295D02*
X29630951Y-58062295D01*
X29630951Y-58062295D02*
X29516666Y-58100390D01*
X29249999Y-58062295D02*
X29059523Y-58862295D01*
X29059523Y-58862295D02*
X28907142Y-58290866D01*
X28907142Y-58290866D02*
X28754761Y-58862295D01*
X28754761Y-58862295D02*
X28564285Y-58062295D01*
X30221428Y-60983247D02*
X29954762Y-60983247D01*
X29840476Y-61402295D02*
X30221428Y-61402295D01*
X30221428Y-61402295D02*
X30221428Y-60602295D01*
X30221428Y-60602295D02*
X29840476Y-60602295D01*
X29230952Y-60983247D02*
X29116666Y-61021342D01*
X29116666Y-61021342D02*
X29078571Y-61059438D01*
X29078571Y-61059438D02*
X29040475Y-61135628D01*
X29040475Y-61135628D02*
X29040475Y-61249914D01*
X29040475Y-61249914D02*
X29078571Y-61326104D01*
X29078571Y-61326104D02*
X29116666Y-61364200D01*
X29116666Y-61364200D02*
X29192856Y-61402295D01*
X29192856Y-61402295D02*
X29497618Y-61402295D01*
X29497618Y-61402295D02*
X29497618Y-60602295D01*
X29497618Y-60602295D02*
X29230952Y-60602295D01*
X29230952Y-60602295D02*
X29154761Y-60640390D01*
X29154761Y-60640390D02*
X29116666Y-60678485D01*
X29116666Y-60678485D02*
X29078571Y-60754676D01*
X29078571Y-60754676D02*
X29078571Y-60830866D01*
X29078571Y-60830866D02*
X29116666Y-60907057D01*
X29116666Y-60907057D02*
X29154761Y-60945152D01*
X29154761Y-60945152D02*
X29230952Y-60983247D01*
X29230952Y-60983247D02*
X29497618Y-60983247D01*
X30164285Y-63523247D02*
X29897619Y-63523247D01*
X29783333Y-63942295D02*
X30164285Y-63942295D01*
X30164285Y-63942295D02*
X30164285Y-63142295D01*
X30164285Y-63142295D02*
X29783333Y-63142295D01*
X29478571Y-63713723D02*
X29097618Y-63713723D01*
X29554761Y-63942295D02*
X29288094Y-63142295D01*
X29288094Y-63142295D02*
X29021428Y-63942295D01*
X30563809Y-47442295D02*
X30563809Y-48013723D01*
X30563809Y-48013723D02*
X30601904Y-48128009D01*
X30601904Y-48128009D02*
X30678095Y-48204200D01*
X30678095Y-48204200D02*
X30792380Y-48242295D01*
X30792380Y-48242295D02*
X30868571Y-48242295D01*
X30220952Y-48204200D02*
X30106666Y-48242295D01*
X30106666Y-48242295D02*
X29916190Y-48242295D01*
X29916190Y-48242295D02*
X29839999Y-48204200D01*
X29839999Y-48204200D02*
X29801904Y-48166104D01*
X29801904Y-48166104D02*
X29763809Y-48089914D01*
X29763809Y-48089914D02*
X29763809Y-48013723D01*
X29763809Y-48013723D02*
X29801904Y-47937533D01*
X29801904Y-47937533D02*
X29839999Y-47899438D01*
X29839999Y-47899438D02*
X29916190Y-47861342D01*
X29916190Y-47861342D02*
X30068571Y-47823247D01*
X30068571Y-47823247D02*
X30144761Y-47785152D01*
X30144761Y-47785152D02*
X30182856Y-47747057D01*
X30182856Y-47747057D02*
X30220952Y-47670866D01*
X30220952Y-47670866D02*
X30220952Y-47594676D01*
X30220952Y-47594676D02*
X30182856Y-47518485D01*
X30182856Y-47518485D02*
X30144761Y-47480390D01*
X30144761Y-47480390D02*
X30068571Y-47442295D01*
X30068571Y-47442295D02*
X29878094Y-47442295D01*
X29878094Y-47442295D02*
X29763809Y-47480390D01*
X29497142Y-47442295D02*
X29306666Y-48242295D01*
X29306666Y-48242295D02*
X29154285Y-47670866D01*
X29154285Y-47670866D02*
X29001904Y-48242295D01*
X29001904Y-48242295D02*
X28811428Y-47442295D01*
X33427619Y-47823247D02*
X33313333Y-47861342D01*
X33313333Y-47861342D02*
X33275238Y-47899438D01*
X33275238Y-47899438D02*
X33237142Y-47975628D01*
X33237142Y-47975628D02*
X33237142Y-48089914D01*
X33237142Y-48089914D02*
X33275238Y-48166104D01*
X33275238Y-48166104D02*
X33313333Y-48204200D01*
X33313333Y-48204200D02*
X33389523Y-48242295D01*
X33389523Y-48242295D02*
X33694285Y-48242295D01*
X33694285Y-48242295D02*
X33694285Y-47442295D01*
X33694285Y-47442295D02*
X33427619Y-47442295D01*
X33427619Y-47442295D02*
X33351428Y-47480390D01*
X33351428Y-47480390D02*
X33313333Y-47518485D01*
X33313333Y-47518485D02*
X33275238Y-47594676D01*
X33275238Y-47594676D02*
X33275238Y-47670866D01*
X33275238Y-47670866D02*
X33313333Y-47747057D01*
X33313333Y-47747057D02*
X33351428Y-47785152D01*
X33351428Y-47785152D02*
X33427619Y-47823247D01*
X33427619Y-47823247D02*
X33694285Y-47823247D01*
X33008571Y-47442295D02*
X32551428Y-47442295D01*
X32780000Y-48242295D02*
X32780000Y-47442295D01*
X32284761Y-48242295D02*
X32284761Y-47442295D01*
X32284761Y-47442295D02*
X31827618Y-48242295D01*
X31827618Y-48242295D02*
X31827618Y-47442295D01*
X31103809Y-47442295D02*
X31256190Y-47442295D01*
X31256190Y-47442295D02*
X31332381Y-47480390D01*
X31332381Y-47480390D02*
X31370476Y-47518485D01*
X31370476Y-47518485D02*
X31446666Y-47632771D01*
X31446666Y-47632771D02*
X31484762Y-47785152D01*
X31484762Y-47785152D02*
X31484762Y-48089914D01*
X31484762Y-48089914D02*
X31446666Y-48166104D01*
X31446666Y-48166104D02*
X31408571Y-48204200D01*
X31408571Y-48204200D02*
X31332381Y-48242295D01*
X31332381Y-48242295D02*
X31180000Y-48242295D01*
X31180000Y-48242295D02*
X31103809Y-48204200D01*
X31103809Y-48204200D02*
X31065714Y-48166104D01*
X31065714Y-48166104D02*
X31027619Y-48089914D01*
X31027619Y-48089914D02*
X31027619Y-47899438D01*
X31027619Y-47899438D02*
X31065714Y-47823247D01*
X31065714Y-47823247D02*
X31103809Y-47785152D01*
X31103809Y-47785152D02*
X31180000Y-47747057D01*
X31180000Y-47747057D02*
X31332381Y-47747057D01*
X31332381Y-47747057D02*
X31408571Y-47785152D01*
X31408571Y-47785152D02*
X31446666Y-47823247D01*
X31446666Y-47823247D02*
X31484762Y-47899438D01*
X34290476Y-32902295D02*
X33795238Y-32902295D01*
X33795238Y-32902295D02*
X34061904Y-33207057D01*
X34061904Y-33207057D02*
X33947619Y-33207057D01*
X33947619Y-33207057D02*
X33871428Y-33245152D01*
X33871428Y-33245152D02*
X33833333Y-33283247D01*
X33833333Y-33283247D02*
X33795238Y-33359438D01*
X33795238Y-33359438D02*
X33795238Y-33549914D01*
X33795238Y-33549914D02*
X33833333Y-33626104D01*
X33833333Y-33626104D02*
X33871428Y-33664200D01*
X33871428Y-33664200D02*
X33947619Y-33702295D01*
X33947619Y-33702295D02*
X34176190Y-33702295D01*
X34176190Y-33702295D02*
X34252381Y-33664200D01*
X34252381Y-33664200D02*
X34290476Y-33626104D01*
X33566666Y-32902295D02*
X33299999Y-33702295D01*
X33299999Y-33702295D02*
X33033333Y-32902295D01*
X32842857Y-32902295D02*
X32347619Y-32902295D01*
X32347619Y-32902295D02*
X32614285Y-33207057D01*
X32614285Y-33207057D02*
X32500000Y-33207057D01*
X32500000Y-33207057D02*
X32423809Y-33245152D01*
X32423809Y-33245152D02*
X32385714Y-33283247D01*
X32385714Y-33283247D02*
X32347619Y-33359438D01*
X32347619Y-33359438D02*
X32347619Y-33549914D01*
X32347619Y-33549914D02*
X32385714Y-33626104D01*
X32385714Y-33626104D02*
X32423809Y-33664200D01*
X32423809Y-33664200D02*
X32500000Y-33702295D01*
X32500000Y-33702295D02*
X32728571Y-33702295D01*
X32728571Y-33702295D02*
X32804762Y-33664200D01*
X32804762Y-33664200D02*
X32842857Y-33626104D01*
X35967619Y-47823247D02*
X35853333Y-47861342D01*
X35853333Y-47861342D02*
X35815238Y-47899438D01*
X35815238Y-47899438D02*
X35777142Y-47975628D01*
X35777142Y-47975628D02*
X35777142Y-48089914D01*
X35777142Y-48089914D02*
X35815238Y-48166104D01*
X35815238Y-48166104D02*
X35853333Y-48204200D01*
X35853333Y-48204200D02*
X35929523Y-48242295D01*
X35929523Y-48242295D02*
X36234285Y-48242295D01*
X36234285Y-48242295D02*
X36234285Y-47442295D01*
X36234285Y-47442295D02*
X35967619Y-47442295D01*
X35967619Y-47442295D02*
X35891428Y-47480390D01*
X35891428Y-47480390D02*
X35853333Y-47518485D01*
X35853333Y-47518485D02*
X35815238Y-47594676D01*
X35815238Y-47594676D02*
X35815238Y-47670866D01*
X35815238Y-47670866D02*
X35853333Y-47747057D01*
X35853333Y-47747057D02*
X35891428Y-47785152D01*
X35891428Y-47785152D02*
X35967619Y-47823247D01*
X35967619Y-47823247D02*
X36234285Y-47823247D01*
X35548571Y-47442295D02*
X35091428Y-47442295D01*
X35320000Y-48242295D02*
X35320000Y-47442295D01*
X34824761Y-48242295D02*
X34824761Y-47442295D01*
X34824761Y-47442295D02*
X34367618Y-48242295D01*
X34367618Y-48242295D02*
X34367618Y-47442295D01*
X33605714Y-47442295D02*
X33986666Y-47442295D01*
X33986666Y-47442295D02*
X34024762Y-47823247D01*
X34024762Y-47823247D02*
X33986666Y-47785152D01*
X33986666Y-47785152D02*
X33910476Y-47747057D01*
X33910476Y-47747057D02*
X33720000Y-47747057D01*
X33720000Y-47747057D02*
X33643809Y-47785152D01*
X33643809Y-47785152D02*
X33605714Y-47823247D01*
X33605714Y-47823247D02*
X33567619Y-47899438D01*
X33567619Y-47899438D02*
X33567619Y-48089914D01*
X33567619Y-48089914D02*
X33605714Y-48166104D01*
X33605714Y-48166104D02*
X33643809Y-48204200D01*
X33643809Y-48204200D02*
X33720000Y-48242295D01*
X33720000Y-48242295D02*
X33910476Y-48242295D01*
X33910476Y-48242295D02*
X33986666Y-48204200D01*
X33986666Y-48204200D02*
X34024762Y-48166104D01*
X35186666Y-65682295D02*
X35186666Y-66253723D01*
X35186666Y-66253723D02*
X35224761Y-66368009D01*
X35224761Y-66368009D02*
X35300952Y-66444200D01*
X35300952Y-66444200D02*
X35415237Y-66482295D01*
X35415237Y-66482295D02*
X35491428Y-66482295D01*
X34881904Y-65682295D02*
X34348570Y-66482295D01*
X34348570Y-65682295D02*
X34881904Y-66482295D01*
X36449523Y-30400390D02*
X36525713Y-30362295D01*
X36525713Y-30362295D02*
X36639999Y-30362295D01*
X36639999Y-30362295D02*
X36754285Y-30400390D01*
X36754285Y-30400390D02*
X36830475Y-30476580D01*
X36830475Y-30476580D02*
X36868570Y-30552771D01*
X36868570Y-30552771D02*
X36906666Y-30705152D01*
X36906666Y-30705152D02*
X36906666Y-30819438D01*
X36906666Y-30819438D02*
X36868570Y-30971819D01*
X36868570Y-30971819D02*
X36830475Y-31048009D01*
X36830475Y-31048009D02*
X36754285Y-31124200D01*
X36754285Y-31124200D02*
X36639999Y-31162295D01*
X36639999Y-31162295D02*
X36563808Y-31162295D01*
X36563808Y-31162295D02*
X36449523Y-31124200D01*
X36449523Y-31124200D02*
X36411427Y-31086104D01*
X36411427Y-31086104D02*
X36411427Y-30819438D01*
X36411427Y-30819438D02*
X36563808Y-30819438D01*
X36068570Y-31162295D02*
X36068570Y-30362295D01*
X36068570Y-30362295D02*
X35611427Y-31162295D01*
X35611427Y-31162295D02*
X35611427Y-30362295D01*
X35230475Y-31162295D02*
X35230475Y-30362295D01*
X35230475Y-30362295D02*
X35039999Y-30362295D01*
X35039999Y-30362295D02*
X34925713Y-30400390D01*
X34925713Y-30400390D02*
X34849523Y-30476580D01*
X34849523Y-30476580D02*
X34811428Y-30552771D01*
X34811428Y-30552771D02*
X34773332Y-30705152D01*
X34773332Y-30705152D02*
X34773332Y-30819438D01*
X34773332Y-30819438D02*
X34811428Y-30971819D01*
X34811428Y-30971819D02*
X34849523Y-31048009D01*
X34849523Y-31048009D02*
X34925713Y-31124200D01*
X34925713Y-31124200D02*
X35039999Y-31162295D01*
X35039999Y-31162295D02*
X35230475Y-31162295D01*
X38507619Y-47823247D02*
X38393333Y-47861342D01*
X38393333Y-47861342D02*
X38355238Y-47899438D01*
X38355238Y-47899438D02*
X38317142Y-47975628D01*
X38317142Y-47975628D02*
X38317142Y-48089914D01*
X38317142Y-48089914D02*
X38355238Y-48166104D01*
X38355238Y-48166104D02*
X38393333Y-48204200D01*
X38393333Y-48204200D02*
X38469523Y-48242295D01*
X38469523Y-48242295D02*
X38774285Y-48242295D01*
X38774285Y-48242295D02*
X38774285Y-47442295D01*
X38774285Y-47442295D02*
X38507619Y-47442295D01*
X38507619Y-47442295D02*
X38431428Y-47480390D01*
X38431428Y-47480390D02*
X38393333Y-47518485D01*
X38393333Y-47518485D02*
X38355238Y-47594676D01*
X38355238Y-47594676D02*
X38355238Y-47670866D01*
X38355238Y-47670866D02*
X38393333Y-47747057D01*
X38393333Y-47747057D02*
X38431428Y-47785152D01*
X38431428Y-47785152D02*
X38507619Y-47823247D01*
X38507619Y-47823247D02*
X38774285Y-47823247D01*
X38088571Y-47442295D02*
X37631428Y-47442295D01*
X37860000Y-48242295D02*
X37860000Y-47442295D01*
X37364761Y-48242295D02*
X37364761Y-47442295D01*
X37364761Y-47442295D02*
X36907618Y-48242295D01*
X36907618Y-48242295D02*
X36907618Y-47442295D01*
X36183809Y-47708961D02*
X36183809Y-48242295D01*
X36374285Y-47404200D02*
X36564762Y-47975628D01*
X36564762Y-47975628D02*
X36069523Y-47975628D01*
X37688571Y-65682295D02*
X37688571Y-66253723D01*
X37688571Y-66253723D02*
X37726666Y-66368009D01*
X37726666Y-66368009D02*
X37802857Y-66444200D01*
X37802857Y-66444200D02*
X37917142Y-66482295D01*
X37917142Y-66482295D02*
X37993333Y-66482295D01*
X37155237Y-66101342D02*
X37155237Y-66482295D01*
X37421904Y-65682295D02*
X37155237Y-66101342D01*
X37155237Y-66101342D02*
X36888571Y-65682295D01*
X41047619Y-47823247D02*
X40933333Y-47861342D01*
X40933333Y-47861342D02*
X40895238Y-47899438D01*
X40895238Y-47899438D02*
X40857142Y-47975628D01*
X40857142Y-47975628D02*
X40857142Y-48089914D01*
X40857142Y-48089914D02*
X40895238Y-48166104D01*
X40895238Y-48166104D02*
X40933333Y-48204200D01*
X40933333Y-48204200D02*
X41009523Y-48242295D01*
X41009523Y-48242295D02*
X41314285Y-48242295D01*
X41314285Y-48242295D02*
X41314285Y-47442295D01*
X41314285Y-47442295D02*
X41047619Y-47442295D01*
X41047619Y-47442295D02*
X40971428Y-47480390D01*
X40971428Y-47480390D02*
X40933333Y-47518485D01*
X40933333Y-47518485D02*
X40895238Y-47594676D01*
X40895238Y-47594676D02*
X40895238Y-47670866D01*
X40895238Y-47670866D02*
X40933333Y-47747057D01*
X40933333Y-47747057D02*
X40971428Y-47785152D01*
X40971428Y-47785152D02*
X41047619Y-47823247D01*
X41047619Y-47823247D02*
X41314285Y-47823247D01*
X40628571Y-47442295D02*
X40171428Y-47442295D01*
X40400000Y-48242295D02*
X40400000Y-47442295D01*
X39904761Y-48242295D02*
X39904761Y-47442295D01*
X39904761Y-47442295D02*
X39447618Y-48242295D01*
X39447618Y-48242295D02*
X39447618Y-47442295D01*
X39142857Y-47442295D02*
X38647619Y-47442295D01*
X38647619Y-47442295D02*
X38914285Y-47747057D01*
X38914285Y-47747057D02*
X38800000Y-47747057D01*
X38800000Y-47747057D02*
X38723809Y-47785152D01*
X38723809Y-47785152D02*
X38685714Y-47823247D01*
X38685714Y-47823247D02*
X38647619Y-47899438D01*
X38647619Y-47899438D02*
X38647619Y-48089914D01*
X38647619Y-48089914D02*
X38685714Y-48166104D01*
X38685714Y-48166104D02*
X38723809Y-48204200D01*
X38723809Y-48204200D02*
X38800000Y-48242295D01*
X38800000Y-48242295D02*
X39028571Y-48242295D01*
X39028571Y-48242295D02*
X39104762Y-48204200D01*
X39104762Y-48204200D02*
X39142857Y-48166104D01*
X41499523Y-77360390D02*
X41575713Y-77322295D01*
X41575713Y-77322295D02*
X41689999Y-77322295D01*
X41689999Y-77322295D02*
X41804285Y-77360390D01*
X41804285Y-77360390D02*
X41880475Y-77436580D01*
X41880475Y-77436580D02*
X41918570Y-77512771D01*
X41918570Y-77512771D02*
X41956666Y-77665152D01*
X41956666Y-77665152D02*
X41956666Y-77779438D01*
X41956666Y-77779438D02*
X41918570Y-77931819D01*
X41918570Y-77931819D02*
X41880475Y-78008009D01*
X41880475Y-78008009D02*
X41804285Y-78084200D01*
X41804285Y-78084200D02*
X41689999Y-78122295D01*
X41689999Y-78122295D02*
X41613808Y-78122295D01*
X41613808Y-78122295D02*
X41499523Y-78084200D01*
X41499523Y-78084200D02*
X41461427Y-78046104D01*
X41461427Y-78046104D02*
X41461427Y-77779438D01*
X41461427Y-77779438D02*
X41613808Y-77779438D01*
X41118570Y-78122295D02*
X41118570Y-77322295D01*
X41118570Y-77322295D02*
X40661427Y-78122295D01*
X40661427Y-78122295D02*
X40661427Y-77322295D01*
X40280475Y-78122295D02*
X40280475Y-77322295D01*
X40280475Y-77322295D02*
X40089999Y-77322295D01*
X40089999Y-77322295D02*
X39975713Y-77360390D01*
X39975713Y-77360390D02*
X39899523Y-77436580D01*
X39899523Y-77436580D02*
X39861428Y-77512771D01*
X39861428Y-77512771D02*
X39823332Y-77665152D01*
X39823332Y-77665152D02*
X39823332Y-77779438D01*
X39823332Y-77779438D02*
X39861428Y-77931819D01*
X39861428Y-77931819D02*
X39899523Y-78008009D01*
X39899523Y-78008009D02*
X39975713Y-78084200D01*
X39975713Y-78084200D02*
X40089999Y-78122295D01*
X40089999Y-78122295D02*
X40280475Y-78122295D01*
X43587619Y-47823247D02*
X43473333Y-47861342D01*
X43473333Y-47861342D02*
X43435238Y-47899438D01*
X43435238Y-47899438D02*
X43397142Y-47975628D01*
X43397142Y-47975628D02*
X43397142Y-48089914D01*
X43397142Y-48089914D02*
X43435238Y-48166104D01*
X43435238Y-48166104D02*
X43473333Y-48204200D01*
X43473333Y-48204200D02*
X43549523Y-48242295D01*
X43549523Y-48242295D02*
X43854285Y-48242295D01*
X43854285Y-48242295D02*
X43854285Y-47442295D01*
X43854285Y-47442295D02*
X43587619Y-47442295D01*
X43587619Y-47442295D02*
X43511428Y-47480390D01*
X43511428Y-47480390D02*
X43473333Y-47518485D01*
X43473333Y-47518485D02*
X43435238Y-47594676D01*
X43435238Y-47594676D02*
X43435238Y-47670866D01*
X43435238Y-47670866D02*
X43473333Y-47747057D01*
X43473333Y-47747057D02*
X43511428Y-47785152D01*
X43511428Y-47785152D02*
X43587619Y-47823247D01*
X43587619Y-47823247D02*
X43854285Y-47823247D01*
X43168571Y-47442295D02*
X42711428Y-47442295D01*
X42940000Y-48242295D02*
X42940000Y-47442295D01*
X42444761Y-48242295D02*
X42444761Y-47442295D01*
X42444761Y-47442295D02*
X41987618Y-48242295D01*
X41987618Y-48242295D02*
X41987618Y-47442295D01*
X41644762Y-47518485D02*
X41606666Y-47480390D01*
X41606666Y-47480390D02*
X41530476Y-47442295D01*
X41530476Y-47442295D02*
X41340000Y-47442295D01*
X41340000Y-47442295D02*
X41263809Y-47480390D01*
X41263809Y-47480390D02*
X41225714Y-47518485D01*
X41225714Y-47518485D02*
X41187619Y-47594676D01*
X41187619Y-47594676D02*
X41187619Y-47670866D01*
X41187619Y-47670866D02*
X41225714Y-47785152D01*
X41225714Y-47785152D02*
X41682857Y-48242295D01*
X41682857Y-48242295D02*
X41187619Y-48242295D01*
X44069523Y-32940390D02*
X44145713Y-32902295D01*
X44145713Y-32902295D02*
X44259999Y-32902295D01*
X44259999Y-32902295D02*
X44374285Y-32940390D01*
X44374285Y-32940390D02*
X44450475Y-33016580D01*
X44450475Y-33016580D02*
X44488570Y-33092771D01*
X44488570Y-33092771D02*
X44526666Y-33245152D01*
X44526666Y-33245152D02*
X44526666Y-33359438D01*
X44526666Y-33359438D02*
X44488570Y-33511819D01*
X44488570Y-33511819D02*
X44450475Y-33588009D01*
X44450475Y-33588009D02*
X44374285Y-33664200D01*
X44374285Y-33664200D02*
X44259999Y-33702295D01*
X44259999Y-33702295D02*
X44183808Y-33702295D01*
X44183808Y-33702295D02*
X44069523Y-33664200D01*
X44069523Y-33664200D02*
X44031427Y-33626104D01*
X44031427Y-33626104D02*
X44031427Y-33359438D01*
X44031427Y-33359438D02*
X44183808Y-33359438D01*
X43688570Y-33702295D02*
X43688570Y-32902295D01*
X43688570Y-32902295D02*
X43231427Y-33702295D01*
X43231427Y-33702295D02*
X43231427Y-32902295D01*
X42850475Y-33702295D02*
X42850475Y-32902295D01*
X42850475Y-32902295D02*
X42659999Y-32902295D01*
X42659999Y-32902295D02*
X42545713Y-32940390D01*
X42545713Y-32940390D02*
X42469523Y-33016580D01*
X42469523Y-33016580D02*
X42431428Y-33092771D01*
X42431428Y-33092771D02*
X42393332Y-33245152D01*
X42393332Y-33245152D02*
X42393332Y-33359438D01*
X42393332Y-33359438D02*
X42431428Y-33511819D01*
X42431428Y-33511819D02*
X42469523Y-33588009D01*
X42469523Y-33588009D02*
X42545713Y-33664200D01*
X42545713Y-33664200D02*
X42659999Y-33702295D01*
X42659999Y-33702295D02*
X42850475Y-33702295D01*
X46127619Y-47823247D02*
X46013333Y-47861342D01*
X46013333Y-47861342D02*
X45975238Y-47899438D01*
X45975238Y-47899438D02*
X45937142Y-47975628D01*
X45937142Y-47975628D02*
X45937142Y-48089914D01*
X45937142Y-48089914D02*
X45975238Y-48166104D01*
X45975238Y-48166104D02*
X46013333Y-48204200D01*
X46013333Y-48204200D02*
X46089523Y-48242295D01*
X46089523Y-48242295D02*
X46394285Y-48242295D01*
X46394285Y-48242295D02*
X46394285Y-47442295D01*
X46394285Y-47442295D02*
X46127619Y-47442295D01*
X46127619Y-47442295D02*
X46051428Y-47480390D01*
X46051428Y-47480390D02*
X46013333Y-47518485D01*
X46013333Y-47518485D02*
X45975238Y-47594676D01*
X45975238Y-47594676D02*
X45975238Y-47670866D01*
X45975238Y-47670866D02*
X46013333Y-47747057D01*
X46013333Y-47747057D02*
X46051428Y-47785152D01*
X46051428Y-47785152D02*
X46127619Y-47823247D01*
X46127619Y-47823247D02*
X46394285Y-47823247D01*
X45708571Y-47442295D02*
X45251428Y-47442295D01*
X45480000Y-48242295D02*
X45480000Y-47442295D01*
X44984761Y-48242295D02*
X44984761Y-47442295D01*
X44984761Y-47442295D02*
X44527618Y-48242295D01*
X44527618Y-48242295D02*
X44527618Y-47442295D01*
X43727619Y-48242295D02*
X44184762Y-48242295D01*
X43956190Y-48242295D02*
X43956190Y-47442295D01*
X43956190Y-47442295D02*
X44032381Y-47556580D01*
X44032381Y-47556580D02*
X44108571Y-47632771D01*
X44108571Y-47632771D02*
X44184762Y-47670866D01*
X46070476Y-65682295D02*
X45575238Y-65682295D01*
X45575238Y-65682295D02*
X45841904Y-65987057D01*
X45841904Y-65987057D02*
X45727619Y-65987057D01*
X45727619Y-65987057D02*
X45651428Y-66025152D01*
X45651428Y-66025152D02*
X45613333Y-66063247D01*
X45613333Y-66063247D02*
X45575238Y-66139438D01*
X45575238Y-66139438D02*
X45575238Y-66329914D01*
X45575238Y-66329914D02*
X45613333Y-66406104D01*
X45613333Y-66406104D02*
X45651428Y-66444200D01*
X45651428Y-66444200D02*
X45727619Y-66482295D01*
X45727619Y-66482295D02*
X45956190Y-66482295D01*
X45956190Y-66482295D02*
X46032381Y-66444200D01*
X46032381Y-66444200D02*
X46070476Y-66406104D01*
X45346666Y-65682295D02*
X45079999Y-66482295D01*
X45079999Y-66482295D02*
X44813333Y-65682295D01*
X44622857Y-65682295D02*
X44127619Y-65682295D01*
X44127619Y-65682295D02*
X44394285Y-65987057D01*
X44394285Y-65987057D02*
X44280000Y-65987057D01*
X44280000Y-65987057D02*
X44203809Y-66025152D01*
X44203809Y-66025152D02*
X44165714Y-66063247D01*
X44165714Y-66063247D02*
X44127619Y-66139438D01*
X44127619Y-66139438D02*
X44127619Y-66329914D01*
X44127619Y-66329914D02*
X44165714Y-66406104D01*
X44165714Y-66406104D02*
X44203809Y-66444200D01*
X44203809Y-66444200D02*
X44280000Y-66482295D01*
X44280000Y-66482295D02*
X44508571Y-66482295D01*
X44508571Y-66482295D02*
X44584762Y-66444200D01*
X44584762Y-66444200D02*
X44622857Y-66406104D01*
X47753332Y-48242295D02*
X48019999Y-47861342D01*
X48210475Y-48242295D02*
X48210475Y-47442295D01*
X48210475Y-47442295D02*
X47905713Y-47442295D01*
X47905713Y-47442295D02*
X47829523Y-47480390D01*
X47829523Y-47480390D02*
X47791428Y-47518485D01*
X47791428Y-47518485D02*
X47753332Y-47594676D01*
X47753332Y-47594676D02*
X47753332Y-47708961D01*
X47753332Y-47708961D02*
X47791428Y-47785152D01*
X47791428Y-47785152D02*
X47829523Y-47823247D01*
X47829523Y-47823247D02*
X47905713Y-47861342D01*
X47905713Y-47861342D02*
X48210475Y-47861342D01*
X47486666Y-47442295D02*
X46953332Y-48242295D01*
X46953332Y-47442295D02*
X47486666Y-48242295D01*
X48229523Y-65720390D02*
X48305713Y-65682295D01*
X48305713Y-65682295D02*
X48419999Y-65682295D01*
X48419999Y-65682295D02*
X48534285Y-65720390D01*
X48534285Y-65720390D02*
X48610475Y-65796580D01*
X48610475Y-65796580D02*
X48648570Y-65872771D01*
X48648570Y-65872771D02*
X48686666Y-66025152D01*
X48686666Y-66025152D02*
X48686666Y-66139438D01*
X48686666Y-66139438D02*
X48648570Y-66291819D01*
X48648570Y-66291819D02*
X48610475Y-66368009D01*
X48610475Y-66368009D02*
X48534285Y-66444200D01*
X48534285Y-66444200D02*
X48419999Y-66482295D01*
X48419999Y-66482295D02*
X48343808Y-66482295D01*
X48343808Y-66482295D02*
X48229523Y-66444200D01*
X48229523Y-66444200D02*
X48191427Y-66406104D01*
X48191427Y-66406104D02*
X48191427Y-66139438D01*
X48191427Y-66139438D02*
X48343808Y-66139438D01*
X47848570Y-66482295D02*
X47848570Y-65682295D01*
X47848570Y-65682295D02*
X47391427Y-66482295D01*
X47391427Y-66482295D02*
X47391427Y-65682295D01*
X47010475Y-66482295D02*
X47010475Y-65682295D01*
X47010475Y-65682295D02*
X46819999Y-65682295D01*
X46819999Y-65682295D02*
X46705713Y-65720390D01*
X46705713Y-65720390D02*
X46629523Y-65796580D01*
X46629523Y-65796580D02*
X46591428Y-65872771D01*
X46591428Y-65872771D02*
X46553332Y-66025152D01*
X46553332Y-66025152D02*
X46553332Y-66139438D01*
X46553332Y-66139438D02*
X46591428Y-66291819D01*
X46591428Y-66291819D02*
X46629523Y-66368009D01*
X46629523Y-66368009D02*
X46705713Y-66444200D01*
X46705713Y-66444200D02*
X46819999Y-66482295D01*
X46819999Y-66482295D02*
X47010475Y-66482295D01*
X49500475Y-78122295D02*
X49500475Y-77322295D01*
X49500475Y-77322295D02*
X49195713Y-77322295D01*
X49195713Y-77322295D02*
X49119523Y-77360390D01*
X49119523Y-77360390D02*
X49081428Y-77398485D01*
X49081428Y-77398485D02*
X49043332Y-77474676D01*
X49043332Y-77474676D02*
X49043332Y-77588961D01*
X49043332Y-77588961D02*
X49081428Y-77665152D01*
X49081428Y-77665152D02*
X49119523Y-77703247D01*
X49119523Y-77703247D02*
X49195713Y-77741342D01*
X49195713Y-77741342D02*
X49500475Y-77741342D01*
X48433809Y-77703247D02*
X48319523Y-77741342D01*
X48319523Y-77741342D02*
X48281428Y-77779438D01*
X48281428Y-77779438D02*
X48243332Y-77855628D01*
X48243332Y-77855628D02*
X48243332Y-77969914D01*
X48243332Y-77969914D02*
X48281428Y-78046104D01*
X48281428Y-78046104D02*
X48319523Y-78084200D01*
X48319523Y-78084200D02*
X48395713Y-78122295D01*
X48395713Y-78122295D02*
X48700475Y-78122295D01*
X48700475Y-78122295D02*
X48700475Y-77322295D01*
X48700475Y-77322295D02*
X48433809Y-77322295D01*
X48433809Y-77322295D02*
X48357618Y-77360390D01*
X48357618Y-77360390D02*
X48319523Y-77398485D01*
X48319523Y-77398485D02*
X48281428Y-77474676D01*
X48281428Y-77474676D02*
X48281428Y-77550866D01*
X48281428Y-77550866D02*
X48319523Y-77627057D01*
X48319523Y-77627057D02*
X48357618Y-77665152D01*
X48357618Y-77665152D02*
X48433809Y-77703247D01*
X48433809Y-77703247D02*
X48700475Y-77703247D01*
X47976666Y-77322295D02*
X47481428Y-77322295D01*
X47481428Y-77322295D02*
X47748094Y-77627057D01*
X47748094Y-77627057D02*
X47633809Y-77627057D01*
X47633809Y-77627057D02*
X47557618Y-77665152D01*
X47557618Y-77665152D02*
X47519523Y-77703247D01*
X47519523Y-77703247D02*
X47481428Y-77779438D01*
X47481428Y-77779438D02*
X47481428Y-77969914D01*
X47481428Y-77969914D02*
X47519523Y-78046104D01*
X47519523Y-78046104D02*
X47557618Y-78084200D01*
X47557618Y-78084200D02*
X47633809Y-78122295D01*
X47633809Y-78122295D02*
X47862380Y-78122295D01*
X47862380Y-78122295D02*
X47938571Y-78084200D01*
X47938571Y-78084200D02*
X47976666Y-78046104D01*
X49149523Y-30400390D02*
X49225713Y-30362295D01*
X49225713Y-30362295D02*
X49339999Y-30362295D01*
X49339999Y-30362295D02*
X49454285Y-30400390D01*
X49454285Y-30400390D02*
X49530475Y-30476580D01*
X49530475Y-30476580D02*
X49568570Y-30552771D01*
X49568570Y-30552771D02*
X49606666Y-30705152D01*
X49606666Y-30705152D02*
X49606666Y-30819438D01*
X49606666Y-30819438D02*
X49568570Y-30971819D01*
X49568570Y-30971819D02*
X49530475Y-31048009D01*
X49530475Y-31048009D02*
X49454285Y-31124200D01*
X49454285Y-31124200D02*
X49339999Y-31162295D01*
X49339999Y-31162295D02*
X49263808Y-31162295D01*
X49263808Y-31162295D02*
X49149523Y-31124200D01*
X49149523Y-31124200D02*
X49111427Y-31086104D01*
X49111427Y-31086104D02*
X49111427Y-30819438D01*
X49111427Y-30819438D02*
X49263808Y-30819438D01*
X48768570Y-31162295D02*
X48768570Y-30362295D01*
X48768570Y-30362295D02*
X48311427Y-31162295D01*
X48311427Y-31162295D02*
X48311427Y-30362295D01*
X47930475Y-31162295D02*
X47930475Y-30362295D01*
X47930475Y-30362295D02*
X47739999Y-30362295D01*
X47739999Y-30362295D02*
X47625713Y-30400390D01*
X47625713Y-30400390D02*
X47549523Y-30476580D01*
X47549523Y-30476580D02*
X47511428Y-30552771D01*
X47511428Y-30552771D02*
X47473332Y-30705152D01*
X47473332Y-30705152D02*
X47473332Y-30819438D01*
X47473332Y-30819438D02*
X47511428Y-30971819D01*
X47511428Y-30971819D02*
X47549523Y-31048009D01*
X47549523Y-31048009D02*
X47625713Y-31124200D01*
X47625713Y-31124200D02*
X47739999Y-31162295D01*
X47739999Y-31162295D02*
X47930475Y-31162295D01*
X50769523Y-47442295D02*
X50312380Y-47442295D01*
X50540952Y-48242295D02*
X50540952Y-47442295D01*
X50121904Y-47442295D02*
X49588570Y-48242295D01*
X49588570Y-47442295D02*
X50121904Y-48242295D01*
X50312380Y-65682295D02*
X50693332Y-65682295D01*
X50693332Y-65682295D02*
X50731428Y-66063247D01*
X50731428Y-66063247D02*
X50693332Y-66025152D01*
X50693332Y-66025152D02*
X50617142Y-65987057D01*
X50617142Y-65987057D02*
X50426666Y-65987057D01*
X50426666Y-65987057D02*
X50350475Y-66025152D01*
X50350475Y-66025152D02*
X50312380Y-66063247D01*
X50312380Y-66063247D02*
X50274285Y-66139438D01*
X50274285Y-66139438D02*
X50274285Y-66329914D01*
X50274285Y-66329914D02*
X50312380Y-66406104D01*
X50312380Y-66406104D02*
X50350475Y-66444200D01*
X50350475Y-66444200D02*
X50426666Y-66482295D01*
X50426666Y-66482295D02*
X50617142Y-66482295D01*
X50617142Y-66482295D02*
X50693332Y-66444200D01*
X50693332Y-66444200D02*
X50731428Y-66406104D01*
X50045713Y-65682295D02*
X49779046Y-66482295D01*
X49779046Y-66482295D02*
X49512380Y-65682295D01*
X77230476Y-89133723D02*
X76849523Y-89133723D01*
X77306666Y-89362295D02*
X77039999Y-88562295D01*
X77039999Y-88562295D02*
X76773333Y-89362295D01*
X79522857Y-88943247D02*
X79408571Y-88981342D01*
X79408571Y-88981342D02*
X79370476Y-89019438D01*
X79370476Y-89019438D02*
X79332380Y-89095628D01*
X79332380Y-89095628D02*
X79332380Y-89209914D01*
X79332380Y-89209914D02*
X79370476Y-89286104D01*
X79370476Y-89286104D02*
X79408571Y-89324200D01*
X79408571Y-89324200D02*
X79484761Y-89362295D01*
X79484761Y-89362295D02*
X79789523Y-89362295D01*
X79789523Y-89362295D02*
X79789523Y-88562295D01*
X79789523Y-88562295D02*
X79522857Y-88562295D01*
X79522857Y-88562295D02*
X79446666Y-88600390D01*
X79446666Y-88600390D02*
X79408571Y-88638485D01*
X79408571Y-88638485D02*
X79370476Y-88714676D01*
X79370476Y-88714676D02*
X79370476Y-88790866D01*
X79370476Y-88790866D02*
X79408571Y-88867057D01*
X79408571Y-88867057D02*
X79446666Y-88905152D01*
X79446666Y-88905152D02*
X79522857Y-88943247D01*
X79522857Y-88943247D02*
X79789523Y-88943247D01*
X82729523Y-88600390D02*
X82805713Y-88562295D01*
X82805713Y-88562295D02*
X82919999Y-88562295D01*
X82919999Y-88562295D02*
X83034285Y-88600390D01*
X83034285Y-88600390D02*
X83110475Y-88676580D01*
X83110475Y-88676580D02*
X83148570Y-88752771D01*
X83148570Y-88752771D02*
X83186666Y-88905152D01*
X83186666Y-88905152D02*
X83186666Y-89019438D01*
X83186666Y-89019438D02*
X83148570Y-89171819D01*
X83148570Y-89171819D02*
X83110475Y-89248009D01*
X83110475Y-89248009D02*
X83034285Y-89324200D01*
X83034285Y-89324200D02*
X82919999Y-89362295D01*
X82919999Y-89362295D02*
X82843808Y-89362295D01*
X82843808Y-89362295D02*
X82729523Y-89324200D01*
X82729523Y-89324200D02*
X82691427Y-89286104D01*
X82691427Y-89286104D02*
X82691427Y-89019438D01*
X82691427Y-89019438D02*
X82843808Y-89019438D01*
X82348570Y-89362295D02*
X82348570Y-88562295D01*
X82348570Y-88562295D02*
X81891427Y-89362295D01*
X81891427Y-89362295D02*
X81891427Y-88562295D01*
X81510475Y-89362295D02*
X81510475Y-88562295D01*
X81510475Y-88562295D02*
X81319999Y-88562295D01*
X81319999Y-88562295D02*
X81205713Y-88600390D01*
X81205713Y-88600390D02*
X81129523Y-88676580D01*
X81129523Y-88676580D02*
X81091428Y-88752771D01*
X81091428Y-88752771D02*
X81053332Y-88905152D01*
X81053332Y-88905152D02*
X81053332Y-89019438D01*
X81053332Y-89019438D02*
X81091428Y-89171819D01*
X81091428Y-89171819D02*
X81129523Y-89248009D01*
X81129523Y-89248009D02*
X81205713Y-89324200D01*
X81205713Y-89324200D02*
X81319999Y-89362295D01*
X81319999Y-89362295D02*
X81510475Y-89362295D01*
X7927255Y-82520390D02*
X8003445Y-82482295D01*
X8003445Y-82482295D02*
X8117731Y-82482295D01*
X8117731Y-82482295D02*
X8232017Y-82520390D01*
X8232017Y-82520390D02*
X8308207Y-82596580D01*
X8308207Y-82596580D02*
X8346302Y-82672771D01*
X8346302Y-82672771D02*
X8384398Y-82825152D01*
X8384398Y-82825152D02*
X8384398Y-82939438D01*
X8384398Y-82939438D02*
X8346302Y-83091819D01*
X8346302Y-83091819D02*
X8308207Y-83168009D01*
X8308207Y-83168009D02*
X8232017Y-83244200D01*
X8232017Y-83244200D02*
X8117731Y-83282295D01*
X8117731Y-83282295D02*
X8041540Y-83282295D01*
X8041540Y-83282295D02*
X7927255Y-83244200D01*
X7927255Y-83244200D02*
X7889159Y-83206104D01*
X7889159Y-83206104D02*
X7889159Y-82939438D01*
X7889159Y-82939438D02*
X8041540Y-82939438D01*
X7546302Y-83282295D02*
X7546302Y-82482295D01*
X7546302Y-82482295D02*
X7089159Y-83282295D01*
X7089159Y-83282295D02*
X7089159Y-82482295D01*
X6708207Y-83282295D02*
X6708207Y-82482295D01*
X6708207Y-82482295D02*
X6517731Y-82482295D01*
X6517731Y-82482295D02*
X6403445Y-82520390D01*
X6403445Y-82520390D02*
X6327255Y-82596580D01*
X6327255Y-82596580D02*
X6289160Y-82672771D01*
X6289160Y-82672771D02*
X6251064Y-82825152D01*
X6251064Y-82825152D02*
X6251064Y-82939438D01*
X6251064Y-82939438D02*
X6289160Y-83091819D01*
X6289160Y-83091819D02*
X6327255Y-83168009D01*
X6327255Y-83168009D02*
X6403445Y-83244200D01*
X6403445Y-83244200D02*
X6517731Y-83282295D01*
X6517731Y-83282295D02*
X6708207Y-83282295D01*
X7622494Y-85784200D02*
X7508208Y-85822295D01*
X7508208Y-85822295D02*
X7317732Y-85822295D01*
X7317732Y-85822295D02*
X7241541Y-85784200D01*
X7241541Y-85784200D02*
X7203446Y-85746104D01*
X7203446Y-85746104D02*
X7165351Y-85669914D01*
X7165351Y-85669914D02*
X7165351Y-85593723D01*
X7165351Y-85593723D02*
X7203446Y-85517533D01*
X7203446Y-85517533D02*
X7241541Y-85479438D01*
X7241541Y-85479438D02*
X7317732Y-85441342D01*
X7317732Y-85441342D02*
X7470113Y-85403247D01*
X7470113Y-85403247D02*
X7546303Y-85365152D01*
X7546303Y-85365152D02*
X7584398Y-85327057D01*
X7584398Y-85327057D02*
X7622494Y-85250866D01*
X7622494Y-85250866D02*
X7622494Y-85174676D01*
X7622494Y-85174676D02*
X7584398Y-85098485D01*
X7584398Y-85098485D02*
X7546303Y-85060390D01*
X7546303Y-85060390D02*
X7470113Y-85022295D01*
X7470113Y-85022295D02*
X7279636Y-85022295D01*
X7279636Y-85022295D02*
X7165351Y-85060390D01*
X6898684Y-85022295D02*
X6708208Y-85822295D01*
X6708208Y-85822295D02*
X6555827Y-85250866D01*
X6555827Y-85250866D02*
X6403446Y-85822295D01*
X6403446Y-85822295D02*
X6212970Y-85022295D01*
X6441541Y-87943247D02*
X6327255Y-87981342D01*
X6327255Y-87981342D02*
X6289160Y-88019438D01*
X6289160Y-88019438D02*
X6251064Y-88095628D01*
X6251064Y-88095628D02*
X6251064Y-88209914D01*
X6251064Y-88209914D02*
X6289160Y-88286104D01*
X6289160Y-88286104D02*
X6327255Y-88324200D01*
X6327255Y-88324200D02*
X6403445Y-88362295D01*
X6403445Y-88362295D02*
X6708207Y-88362295D01*
X6708207Y-88362295D02*
X6708207Y-87562295D01*
X6708207Y-87562295D02*
X6441541Y-87562295D01*
X6441541Y-87562295D02*
X6365350Y-87600390D01*
X6365350Y-87600390D02*
X6327255Y-87638485D01*
X6327255Y-87638485D02*
X6289160Y-87714676D01*
X6289160Y-87714676D02*
X6289160Y-87790866D01*
X6289160Y-87790866D02*
X6327255Y-87867057D01*
X6327255Y-87867057D02*
X6365350Y-87905152D01*
X6365350Y-87905152D02*
X6441541Y-87943247D01*
X6441541Y-87943247D02*
X6708207Y-87943247D01*
X6632017Y-90673723D02*
X6251064Y-90673723D01*
X6708207Y-90902295D02*
X6441540Y-90102295D01*
X6441540Y-90102295D02*
X6174874Y-90902295D01*
X5738094Y-80451009D02*
X5404761Y-80451009D01*
X5261904Y-80974819D02*
X5738094Y-80974819D01*
X5738094Y-80974819D02*
X5738094Y-79974819D01*
X5738094Y-79974819D02*
X5261904Y-79974819D01*
X4833332Y-80974819D02*
X4833332Y-79974819D01*
X4833332Y-79974819D02*
X4261904Y-80974819D01*
X4261904Y-80974819D02*
X4261904Y-79974819D01*
X3214285Y-80879580D02*
X3261904Y-80927200D01*
X3261904Y-80927200D02*
X3404761Y-80974819D01*
X3404761Y-80974819D02*
X3499999Y-80974819D01*
X3499999Y-80974819D02*
X3642856Y-80927200D01*
X3642856Y-80927200D02*
X3738094Y-80831961D01*
X3738094Y-80831961D02*
X3785713Y-80736723D01*
X3785713Y-80736723D02*
X3833332Y-80546247D01*
X3833332Y-80546247D02*
X3833332Y-80403390D01*
X3833332Y-80403390D02*
X3785713Y-80212914D01*
X3785713Y-80212914D02*
X3738094Y-80117676D01*
X3738094Y-80117676D02*
X3642856Y-80022438D01*
X3642856Y-80022438D02*
X3499999Y-79974819D01*
X3499999Y-79974819D02*
X3404761Y-79974819D01*
X3404761Y-79974819D02*
X3261904Y-80022438D01*
X3261904Y-80022438D02*
X3214285Y-80070057D01*
X80413333Y-88031009D02*
X80270476Y-88078628D01*
X80270476Y-88078628D02*
X80222857Y-88126247D01*
X80222857Y-88126247D02*
X80175238Y-88221485D01*
X80175238Y-88221485D02*
X80175238Y-88364342D01*
X80175238Y-88364342D02*
X80222857Y-88459580D01*
X80222857Y-88459580D02*
X80270476Y-88507200D01*
X80270476Y-88507200D02*
X80365714Y-88554819D01*
X80365714Y-88554819D02*
X80746666Y-88554819D01*
X80746666Y-88554819D02*
X80746666Y-87554819D01*
X80746666Y-87554819D02*
X80413333Y-87554819D01*
X80413333Y-87554819D02*
X80318095Y-87602438D01*
X80318095Y-87602438D02*
X80270476Y-87650057D01*
X80270476Y-87650057D02*
X80222857Y-87745295D01*
X80222857Y-87745295D02*
X80222857Y-87840533D01*
X80222857Y-87840533D02*
X80270476Y-87935771D01*
X80270476Y-87935771D02*
X80318095Y-87983390D01*
X80318095Y-87983390D02*
X80413333Y-88031009D01*
X80413333Y-88031009D02*
X80746666Y-88031009D01*
X79889523Y-87554819D02*
X79318095Y-87554819D01*
X79603809Y-88554819D02*
X79603809Y-87554819D01*
X78984761Y-88554819D02*
X78984761Y-87554819D01*
X78984761Y-87554819D02*
X78413333Y-88554819D01*
X78413333Y-88554819D02*
X78413333Y-87554819D01*
X84809523Y-70014819D02*
X84809523Y-70729104D01*
X84809523Y-70729104D02*
X84857142Y-70871961D01*
X84857142Y-70871961D02*
X84952380Y-70967200D01*
X84952380Y-70967200D02*
X85095237Y-71014819D01*
X85095237Y-71014819D02*
X85190475Y-71014819D01*
X84142856Y-70014819D02*
X83952380Y-70014819D01*
X83952380Y-70014819D02*
X83857142Y-70062438D01*
X83857142Y-70062438D02*
X83761904Y-70157676D01*
X83761904Y-70157676D02*
X83714285Y-70348152D01*
X83714285Y-70348152D02*
X83714285Y-70681485D01*
X83714285Y-70681485D02*
X83761904Y-70871961D01*
X83761904Y-70871961D02*
X83857142Y-70967200D01*
X83857142Y-70967200D02*
X83952380Y-71014819D01*
X83952380Y-71014819D02*
X84142856Y-71014819D01*
X84142856Y-71014819D02*
X84238094Y-70967200D01*
X84238094Y-70967200D02*
X84333332Y-70871961D01*
X84333332Y-70871961D02*
X84380951Y-70681485D01*
X84380951Y-70681485D02*
X84380951Y-70348152D01*
X84380951Y-70348152D02*
X84333332Y-70157676D01*
X84333332Y-70157676D02*
X84238094Y-70062438D01*
X84238094Y-70062438D02*
X84142856Y-70014819D01*
X83095237Y-70538628D02*
X83095237Y-71014819D01*
X83428570Y-70014819D02*
X83095237Y-70538628D01*
X83095237Y-70538628D02*
X82761904Y-70014819D01*
X84333333Y-84954819D02*
X84333333Y-85669104D01*
X84333333Y-85669104D02*
X84380952Y-85811961D01*
X84380952Y-85811961D02*
X84476190Y-85907200D01*
X84476190Y-85907200D02*
X84619047Y-85954819D01*
X84619047Y-85954819D02*
X84714285Y-85954819D01*
X83714285Y-85383390D02*
X83809523Y-85335771D01*
X83809523Y-85335771D02*
X83857142Y-85288152D01*
X83857142Y-85288152D02*
X83904761Y-85192914D01*
X83904761Y-85192914D02*
X83904761Y-85145295D01*
X83904761Y-85145295D02*
X83857142Y-85050057D01*
X83857142Y-85050057D02*
X83809523Y-85002438D01*
X83809523Y-85002438D02*
X83714285Y-84954819D01*
X83714285Y-84954819D02*
X83523809Y-84954819D01*
X83523809Y-84954819D02*
X83428571Y-85002438D01*
X83428571Y-85002438D02*
X83380952Y-85050057D01*
X83380952Y-85050057D02*
X83333333Y-85145295D01*
X83333333Y-85145295D02*
X83333333Y-85192914D01*
X83333333Y-85192914D02*
X83380952Y-85288152D01*
X83380952Y-85288152D02*
X83428571Y-85335771D01*
X83428571Y-85335771D02*
X83523809Y-85383390D01*
X83523809Y-85383390D02*
X83714285Y-85383390D01*
X83714285Y-85383390D02*
X83809523Y-85431009D01*
X83809523Y-85431009D02*
X83857142Y-85478628D01*
X83857142Y-85478628D02*
X83904761Y-85573866D01*
X83904761Y-85573866D02*
X83904761Y-85764342D01*
X83904761Y-85764342D02*
X83857142Y-85859580D01*
X83857142Y-85859580D02*
X83809523Y-85907200D01*
X83809523Y-85907200D02*
X83714285Y-85954819D01*
X83714285Y-85954819D02*
X83523809Y-85954819D01*
X83523809Y-85954819D02*
X83428571Y-85907200D01*
X83428571Y-85907200D02*
X83380952Y-85859580D01*
X83380952Y-85859580D02*
X83333333Y-85764342D01*
X83333333Y-85764342D02*
X83333333Y-85573866D01*
X83333333Y-85573866D02*
X83380952Y-85478628D01*
X83380952Y-85478628D02*
X83428571Y-85431009D01*
X83428571Y-85431009D02*
X83523809Y-85383390D01*
X74114819Y-89690476D02*
X74829104Y-89690476D01*
X74829104Y-89690476D02*
X74971961Y-89642857D01*
X74971961Y-89642857D02*
X75067200Y-89547619D01*
X75067200Y-89547619D02*
X75114819Y-89404762D01*
X75114819Y-89404762D02*
X75114819Y-89309524D01*
X75114819Y-90690476D02*
X75114819Y-90119048D01*
X75114819Y-90404762D02*
X74114819Y-90404762D01*
X74114819Y-90404762D02*
X74257676Y-90309524D01*
X74257676Y-90309524D02*
X74352914Y-90214286D01*
X74352914Y-90214286D02*
X74400533Y-90119048D01*
X75114819Y-91642857D02*
X75114819Y-91071429D01*
X75114819Y-91357143D02*
X74114819Y-91357143D01*
X74114819Y-91357143D02*
X74257676Y-91261905D01*
X74257676Y-91261905D02*
X74352914Y-91166667D01*
X74352914Y-91166667D02*
X74400533Y-91071429D01*
X81166666Y-34859580D02*
X81214285Y-34907200D01*
X81214285Y-34907200D02*
X81357142Y-34954819D01*
X81357142Y-34954819D02*
X81452380Y-34954819D01*
X81452380Y-34954819D02*
X81595237Y-34907200D01*
X81595237Y-34907200D02*
X81690475Y-34811961D01*
X81690475Y-34811961D02*
X81738094Y-34716723D01*
X81738094Y-34716723D02*
X81785713Y-34526247D01*
X81785713Y-34526247D02*
X81785713Y-34383390D01*
X81785713Y-34383390D02*
X81738094Y-34192914D01*
X81738094Y-34192914D02*
X81690475Y-34097676D01*
X81690475Y-34097676D02*
X81595237Y-34002438D01*
X81595237Y-34002438D02*
X81452380Y-33954819D01*
X81452380Y-33954819D02*
X81357142Y-33954819D01*
X81357142Y-33954819D02*
X81214285Y-34002438D01*
X81214285Y-34002438D02*
X81166666Y-34050057D01*
X80785713Y-34050057D02*
X80738094Y-34002438D01*
X80738094Y-34002438D02*
X80642856Y-33954819D01*
X80642856Y-33954819D02*
X80404761Y-33954819D01*
X80404761Y-33954819D02*
X80309523Y-34002438D01*
X80309523Y-34002438D02*
X80261904Y-34050057D01*
X80261904Y-34050057D02*
X80214285Y-34145295D01*
X80214285Y-34145295D02*
X80214285Y-34240533D01*
X80214285Y-34240533D02*
X80261904Y-34383390D01*
X80261904Y-34383390D02*
X80833332Y-34954819D01*
X80833332Y-34954819D02*
X80214285Y-34954819D01*
X5309523Y-92374819D02*
X5309523Y-93089104D01*
X5309523Y-93089104D02*
X5357142Y-93231961D01*
X5357142Y-93231961D02*
X5452380Y-93327200D01*
X5452380Y-93327200D02*
X5595237Y-93374819D01*
X5595237Y-93374819D02*
X5690475Y-93374819D01*
X4309523Y-93374819D02*
X4880951Y-93374819D01*
X4595237Y-93374819D02*
X4595237Y-92374819D01*
X4595237Y-92374819D02*
X4690475Y-92517676D01*
X4690475Y-92517676D02*
X4785713Y-92612914D01*
X4785713Y-92612914D02*
X4880951Y-92660533D01*
X3690475Y-92374819D02*
X3595237Y-92374819D01*
X3595237Y-92374819D02*
X3499999Y-92422438D01*
X3499999Y-92422438D02*
X3452380Y-92470057D01*
X3452380Y-92470057D02*
X3404761Y-92565295D01*
X3404761Y-92565295D02*
X3357142Y-92755771D01*
X3357142Y-92755771D02*
X3357142Y-92993866D01*
X3357142Y-92993866D02*
X3404761Y-93184342D01*
X3404761Y-93184342D02*
X3452380Y-93279580D01*
X3452380Y-93279580D02*
X3499999Y-93327200D01*
X3499999Y-93327200D02*
X3595237Y-93374819D01*
X3595237Y-93374819D02*
X3690475Y-93374819D01*
X3690475Y-93374819D02*
X3785713Y-93327200D01*
X3785713Y-93327200D02*
X3833332Y-93279580D01*
X3833332Y-93279580D02*
X3880951Y-93184342D01*
X3880951Y-93184342D02*
X3928570Y-92993866D01*
X3928570Y-92993866D02*
X3928570Y-92755771D01*
X3928570Y-92755771D02*
X3880951Y-92565295D01*
X3880951Y-92565295D02*
X3833332Y-92470057D01*
X3833332Y-92470057D02*
X3785713Y-92422438D01*
X3785713Y-92422438D02*
X3690475Y-92374819D01*
X79359580Y-45833333D02*
X79407200Y-45785714D01*
X79407200Y-45785714D02*
X79454819Y-45642857D01*
X79454819Y-45642857D02*
X79454819Y-45547619D01*
X79454819Y-45547619D02*
X79407200Y-45404762D01*
X79407200Y-45404762D02*
X79311961Y-45309524D01*
X79311961Y-45309524D02*
X79216723Y-45261905D01*
X79216723Y-45261905D02*
X79026247Y-45214286D01*
X79026247Y-45214286D02*
X78883390Y-45214286D01*
X78883390Y-45214286D02*
X78692914Y-45261905D01*
X78692914Y-45261905D02*
X78597676Y-45309524D01*
X78597676Y-45309524D02*
X78502438Y-45404762D01*
X78502438Y-45404762D02*
X78454819Y-45547619D01*
X78454819Y-45547619D02*
X78454819Y-45642857D01*
X78454819Y-45642857D02*
X78502438Y-45785714D01*
X78502438Y-45785714D02*
X78550057Y-45833333D01*
X79454819Y-46785714D02*
X79454819Y-46214286D01*
X79454819Y-46500000D02*
X78454819Y-46500000D01*
X78454819Y-46500000D02*
X78597676Y-46404762D01*
X78597676Y-46404762D02*
X78692914Y-46309524D01*
X78692914Y-46309524D02*
X78740533Y-46214286D01*
X75285714Y-33704819D02*
X75285714Y-34419104D01*
X75285714Y-34419104D02*
X75333333Y-34561961D01*
X75333333Y-34561961D02*
X75428571Y-34657200D01*
X75428571Y-34657200D02*
X75571428Y-34704819D01*
X75571428Y-34704819D02*
X75666666Y-34704819D01*
X74380952Y-33704819D02*
X74571428Y-33704819D01*
X74571428Y-33704819D02*
X74666666Y-33752438D01*
X74666666Y-33752438D02*
X74714285Y-33800057D01*
X74714285Y-33800057D02*
X74809523Y-33942914D01*
X74809523Y-33942914D02*
X74857142Y-34133390D01*
X74857142Y-34133390D02*
X74857142Y-34514342D01*
X74857142Y-34514342D02*
X74809523Y-34609580D01*
X74809523Y-34609580D02*
X74761904Y-34657200D01*
X74761904Y-34657200D02*
X74666666Y-34704819D01*
X74666666Y-34704819D02*
X74476190Y-34704819D01*
X74476190Y-34704819D02*
X74380952Y-34657200D01*
X74380952Y-34657200D02*
X74333333Y-34609580D01*
X74333333Y-34609580D02*
X74285714Y-34514342D01*
X74285714Y-34514342D02*
X74285714Y-34276247D01*
X74285714Y-34276247D02*
X74333333Y-34181009D01*
X74333333Y-34181009D02*
X74380952Y-34133390D01*
X74380952Y-34133390D02*
X74476190Y-34085771D01*
X74476190Y-34085771D02*
X74666666Y-34085771D01*
X74666666Y-34085771D02*
X74761904Y-34133390D01*
X74761904Y-34133390D02*
X74809523Y-34181009D01*
X74809523Y-34181009D02*
X74857142Y-34276247D01*
X73857142Y-34704819D02*
X73857142Y-33704819D01*
X73857142Y-34085771D02*
X73761904Y-34038152D01*
X73761904Y-34038152D02*
X73571428Y-34038152D01*
X73571428Y-34038152D02*
X73476190Y-34085771D01*
X73476190Y-34085771D02*
X73428571Y-34133390D01*
X73428571Y-34133390D02*
X73380952Y-34228628D01*
X73380952Y-34228628D02*
X73380952Y-34514342D01*
X73380952Y-34514342D02*
X73428571Y-34609580D01*
X73428571Y-34609580D02*
X73476190Y-34657200D01*
X73476190Y-34657200D02*
X73571428Y-34704819D01*
X73571428Y-34704819D02*
X73761904Y-34704819D01*
X73761904Y-34704819D02*
X73857142Y-34657200D01*
X53119104Y-56285714D02*
X53119104Y-56761904D01*
X53404819Y-56190476D02*
X52404819Y-56523809D01*
X52404819Y-56523809D02*
X53404819Y-56857142D01*
X53404819Y-57714285D02*
X53404819Y-57142857D01*
X53404819Y-57428571D02*
X52404819Y-57428571D01*
X52404819Y-57428571D02*
X52547676Y-57333333D01*
X52547676Y-57333333D02*
X52642914Y-57238095D01*
X52642914Y-57238095D02*
X52690533Y-57142857D01*
X31833333Y-74331009D02*
X32166666Y-74331009D01*
X32166666Y-74854819D02*
X32166666Y-73854819D01*
X32166666Y-73854819D02*
X31690476Y-73854819D01*
X30785714Y-74854819D02*
X31357142Y-74854819D01*
X31071428Y-74854819D02*
X31071428Y-73854819D01*
X31071428Y-73854819D02*
X31166666Y-73997676D01*
X31166666Y-73997676D02*
X31261904Y-74092914D01*
X31261904Y-74092914D02*
X31357142Y-74140533D01*
X73664819Y-39254285D02*
X74379104Y-39254285D01*
X74379104Y-39254285D02*
X74521961Y-39206666D01*
X74521961Y-39206666D02*
X74617200Y-39111428D01*
X74617200Y-39111428D02*
X74664819Y-38968571D01*
X74664819Y-38968571D02*
X74664819Y-38873333D01*
X73664819Y-40206666D02*
X73664819Y-39730476D01*
X73664819Y-39730476D02*
X74141009Y-39682857D01*
X74141009Y-39682857D02*
X74093390Y-39730476D01*
X74093390Y-39730476D02*
X74045771Y-39825714D01*
X74045771Y-39825714D02*
X74045771Y-40063809D01*
X74045771Y-40063809D02*
X74093390Y-40159047D01*
X74093390Y-40159047D02*
X74141009Y-40206666D01*
X74141009Y-40206666D02*
X74236247Y-40254285D01*
X74236247Y-40254285D02*
X74474342Y-40254285D01*
X74474342Y-40254285D02*
X74569580Y-40206666D01*
X74569580Y-40206666D02*
X74617200Y-40159047D01*
X74617200Y-40159047D02*
X74664819Y-40063809D01*
X74664819Y-40063809D02*
X74664819Y-39825714D01*
X74664819Y-39825714D02*
X74617200Y-39730476D01*
X74617200Y-39730476D02*
X74569580Y-39682857D01*
X74664819Y-40682857D02*
X73664819Y-40682857D01*
X74045771Y-40682857D02*
X73998152Y-40778095D01*
X73998152Y-40778095D02*
X73998152Y-40968571D01*
X73998152Y-40968571D02*
X74045771Y-41063809D01*
X74045771Y-41063809D02*
X74093390Y-41111428D01*
X74093390Y-41111428D02*
X74188628Y-41159047D01*
X74188628Y-41159047D02*
X74474342Y-41159047D01*
X74474342Y-41159047D02*
X74569580Y-41111428D01*
X74569580Y-41111428D02*
X74617200Y-41063809D01*
X74617200Y-41063809D02*
X74664819Y-40968571D01*
X74664819Y-40968571D02*
X74664819Y-40778095D01*
X74664819Y-40778095D02*
X74617200Y-40682857D01*
X71064819Y-25396666D02*
X71779104Y-25396666D01*
X71779104Y-25396666D02*
X71921961Y-25349047D01*
X71921961Y-25349047D02*
X72017200Y-25253809D01*
X72017200Y-25253809D02*
X72064819Y-25110952D01*
X72064819Y-25110952D02*
X72064819Y-25015714D01*
X71064819Y-26301428D02*
X71064819Y-26110952D01*
X71064819Y-26110952D02*
X71112438Y-26015714D01*
X71112438Y-26015714D02*
X71160057Y-25968095D01*
X71160057Y-25968095D02*
X71302914Y-25872857D01*
X71302914Y-25872857D02*
X71493390Y-25825238D01*
X71493390Y-25825238D02*
X71874342Y-25825238D01*
X71874342Y-25825238D02*
X71969580Y-25872857D01*
X71969580Y-25872857D02*
X72017200Y-25920476D01*
X72017200Y-25920476D02*
X72064819Y-26015714D01*
X72064819Y-26015714D02*
X72064819Y-26206190D01*
X72064819Y-26206190D02*
X72017200Y-26301428D01*
X72017200Y-26301428D02*
X71969580Y-26349047D01*
X71969580Y-26349047D02*
X71874342Y-26396666D01*
X71874342Y-26396666D02*
X71636247Y-26396666D01*
X71636247Y-26396666D02*
X71541009Y-26349047D01*
X71541009Y-26349047D02*
X71493390Y-26301428D01*
X71493390Y-26301428D02*
X71445771Y-26206190D01*
X71445771Y-26206190D02*
X71445771Y-26015714D01*
X71445771Y-26015714D02*
X71493390Y-25920476D01*
X71493390Y-25920476D02*
X71541009Y-25872857D01*
X71541009Y-25872857D02*
X71636247Y-25825238D01*
X50734819Y-78926666D02*
X51449104Y-78926666D01*
X51449104Y-78926666D02*
X51591961Y-78879047D01*
X51591961Y-78879047D02*
X51687200Y-78783809D01*
X51687200Y-78783809D02*
X51734819Y-78640952D01*
X51734819Y-78640952D02*
X51734819Y-78545714D01*
X50830057Y-79355238D02*
X50782438Y-79402857D01*
X50782438Y-79402857D02*
X50734819Y-79498095D01*
X50734819Y-79498095D02*
X50734819Y-79736190D01*
X50734819Y-79736190D02*
X50782438Y-79831428D01*
X50782438Y-79831428D02*
X50830057Y-79879047D01*
X50830057Y-79879047D02*
X50925295Y-79926666D01*
X50925295Y-79926666D02*
X51020533Y-79926666D01*
X51020533Y-79926666D02*
X51163390Y-79879047D01*
X51163390Y-79879047D02*
X51734819Y-79307619D01*
X51734819Y-79307619D02*
X51734819Y-79926666D01*
X43333333Y-74331009D02*
X43666666Y-74331009D01*
X43666666Y-74854819D02*
X43666666Y-73854819D01*
X43666666Y-73854819D02*
X43190476Y-73854819D01*
X42857142Y-73950057D02*
X42809523Y-73902438D01*
X42809523Y-73902438D02*
X42714285Y-73854819D01*
X42714285Y-73854819D02*
X42476190Y-73854819D01*
X42476190Y-73854819D02*
X42380952Y-73902438D01*
X42380952Y-73902438D02*
X42333333Y-73950057D01*
X42333333Y-73950057D02*
X42285714Y-74045295D01*
X42285714Y-74045295D02*
X42285714Y-74140533D01*
X42285714Y-74140533D02*
X42333333Y-74283390D01*
X42333333Y-74283390D02*
X42904761Y-74854819D01*
X42904761Y-74854819D02*
X42285714Y-74854819D01*
X82563333Y-36684819D02*
X82563333Y-37399104D01*
X82563333Y-37399104D02*
X82610952Y-37541961D01*
X82610952Y-37541961D02*
X82706190Y-37637200D01*
X82706190Y-37637200D02*
X82849047Y-37684819D01*
X82849047Y-37684819D02*
X82944285Y-37684819D01*
X81610952Y-36684819D02*
X82087142Y-36684819D01*
X82087142Y-36684819D02*
X82134761Y-37161009D01*
X82134761Y-37161009D02*
X82087142Y-37113390D01*
X82087142Y-37113390D02*
X81991904Y-37065771D01*
X81991904Y-37065771D02*
X81753809Y-37065771D01*
X81753809Y-37065771D02*
X81658571Y-37113390D01*
X81658571Y-37113390D02*
X81610952Y-37161009D01*
X81610952Y-37161009D02*
X81563333Y-37256247D01*
X81563333Y-37256247D02*
X81563333Y-37494342D01*
X81563333Y-37494342D02*
X81610952Y-37589580D01*
X81610952Y-37589580D02*
X81658571Y-37637200D01*
X81658571Y-37637200D02*
X81753809Y-37684819D01*
X81753809Y-37684819D02*
X81991904Y-37684819D01*
X81991904Y-37684819D02*
X82087142Y-37637200D01*
X82087142Y-37637200D02*
X82134761Y-37589580D01*
X9664819Y-33236666D02*
X10379104Y-33236666D01*
X10379104Y-33236666D02*
X10521961Y-33189047D01*
X10521961Y-33189047D02*
X10617200Y-33093809D01*
X10617200Y-33093809D02*
X10664819Y-32950952D01*
X10664819Y-32950952D02*
X10664819Y-32855714D01*
X10664819Y-34236666D02*
X10664819Y-33665238D01*
X10664819Y-33950952D02*
X9664819Y-33950952D01*
X9664819Y-33950952D02*
X9807676Y-33855714D01*
X9807676Y-33855714D02*
X9902914Y-33760476D01*
X9902914Y-33760476D02*
X9950533Y-33665238D01*
%TO.C,J8*%
D12*
X82620000Y-71580000D02*
X85380000Y-71580000D01*
X82620000Y-81850000D02*
X82620000Y-71580000D01*
X82620000Y-81850000D02*
X85380000Y-81850000D01*
X82620000Y-83120000D02*
X82620000Y-84500000D01*
X82620000Y-84500000D02*
X84000000Y-84500000D01*
X85380000Y-81850000D02*
X85380000Y-71580000D01*
%TO.C,J11*%
X75660000Y-89120000D02*
X75660000Y-90500000D01*
X77040000Y-89120000D02*
X75660000Y-89120000D01*
X78310000Y-89120000D02*
X78310000Y-91880000D01*
X78310000Y-89120000D02*
X83500000Y-89120000D01*
X78310000Y-91880000D02*
X83500000Y-91880000D01*
X83500000Y-89120000D02*
X83500000Y-91880000D01*
%TO.C,C2*%
X78380000Y-30630000D02*
X78380000Y-30967000D01*
X78380000Y-33033000D02*
X78380000Y-33370000D01*
X78380000Y-33370000D02*
X83620000Y-33370000D01*
X83620000Y-30630000D02*
X78380000Y-30630000D01*
X83620000Y-30967000D02*
X83620000Y-30630000D01*
X83620000Y-33370000D02*
X83620000Y-33033000D01*
%TO.C,J10*%
X3120000Y-81540000D02*
X5880000Y-81540000D01*
X3120000Y-89270000D02*
X3120000Y-81540000D01*
X3120000Y-89270000D02*
X5880000Y-89270000D01*
X3120000Y-90540000D02*
X3120000Y-91920000D01*
X3120000Y-91920000D02*
X4500000Y-91920000D01*
X5880000Y-89270000D02*
X5880000Y-81540000D01*
%TO.C,C1*%
X75130000Y-43380000D02*
X75130000Y-48620000D01*
X75130000Y-48620000D02*
X75467000Y-48620000D01*
X75467000Y-43380000D02*
X75130000Y-43380000D01*
X77533000Y-48620000D02*
X77870000Y-48620000D01*
X77870000Y-43380000D02*
X77533000Y-43380000D01*
X77870000Y-48620000D02*
X77870000Y-43380000D01*
%TO.C,J6b*%
X75751000Y-32000000D02*
G75*
G02*
X73249000Y-32000000I-1251000J0D01*
G01*
X73249000Y-32000000D02*
G75*
G02*
X75751000Y-32000000I1251000J0D01*
G01*
%TO.C,A1*%
X28250000Y-48000000D02*
X28250000Y-66000000D01*
X28250000Y-66000000D02*
X51750000Y-66000000D01*
X51750000Y-48000000D02*
X28250000Y-48000000D01*
X51750000Y-66000000D02*
X51750000Y-48000000D01*
D10*
X50760000Y-66620000D02*
G75*
G02*
X49560000Y-66620000I-600000J0D01*
G01*
X49560000Y-66620000D02*
G75*
G02*
X50760000Y-66620000I600000J0D01*
G01*
%TO.C,F1*%
D12*
X27850000Y-70300000D02*
X27850000Y-71798000D01*
X27850000Y-73202000D02*
X27850000Y-73500000D01*
X27850000Y-73500000D02*
X28112000Y-73500000D01*
X29788000Y-73500000D02*
X35150000Y-73500000D01*
X33212000Y-70300000D02*
X27850000Y-70300000D01*
X35150000Y-70300000D02*
X34888000Y-70300000D01*
X35150000Y-70598000D02*
X35150000Y-70300000D01*
X35150000Y-73500000D02*
X35150000Y-72002000D01*
%TO.C,J5b*%
X77711000Y-40040000D02*
G75*
G02*
X75209000Y-40040000I-1251000J0D01*
G01*
X75209000Y-40040000D02*
G75*
G02*
X77711000Y-40040000I1251000J0D01*
G01*
%TO.C,J6*%
X73050000Y-23130000D02*
X73050000Y-25730000D01*
X73050000Y-23130000D02*
X83330000Y-23130000D01*
X73050000Y-25730000D02*
X75650000Y-25730000D01*
X73050000Y-27000000D02*
X73050000Y-28330000D01*
X73050000Y-28330000D02*
X74380000Y-28330000D01*
X75650000Y-25730000D02*
X75650000Y-28330000D01*
X75650000Y-28330000D02*
X83330000Y-28330000D01*
X83330000Y-23130000D02*
X83330000Y-28330000D01*
%TO.C,J2*%
X11620000Y-80590000D02*
X11620000Y-77930000D01*
X47240000Y-77930000D02*
X11620000Y-77930000D01*
X47240000Y-80590000D02*
X11620000Y-80590000D01*
X47240000Y-80590000D02*
X47240000Y-77930000D01*
X49840000Y-77930000D02*
X48510000Y-77930000D01*
X49840000Y-79260000D02*
X49840000Y-77930000D01*
%TO.C,F2*%
X39350000Y-70300000D02*
X39350000Y-71798000D01*
X39350000Y-73202000D02*
X39350000Y-73500000D01*
X39350000Y-73500000D02*
X39612000Y-73500000D01*
X41288000Y-73500000D02*
X46650000Y-73500000D01*
X44712000Y-70300000D02*
X39350000Y-70300000D01*
X46650000Y-70300000D02*
X46388000Y-70300000D01*
X46650000Y-70598000D02*
X46650000Y-70300000D01*
X46650000Y-73500000D02*
X46650000Y-72002000D01*
%TO.C,J5*%
X79630000Y-38670000D02*
X79630000Y-40000000D01*
X79630000Y-41270000D02*
X79630000Y-48950000D01*
X80960000Y-38670000D02*
X79630000Y-38670000D01*
X82230000Y-38670000D02*
X82230000Y-41270000D01*
X82230000Y-41270000D02*
X79630000Y-41270000D01*
X84830000Y-38670000D02*
X82230000Y-38670000D01*
X84830000Y-38670000D02*
X84830000Y-48950000D01*
X84830000Y-48950000D02*
X79630000Y-48950000D01*
%TO.C,J1*%
X11650000Y-30970000D02*
X11650000Y-33570000D01*
X11650000Y-30970000D02*
X49870000Y-30970000D01*
X11650000Y-33570000D02*
X14250000Y-33570000D01*
X11650000Y-34840000D02*
X11650000Y-36170000D01*
X11650000Y-36170000D02*
X12980000Y-36170000D01*
X14250000Y-33570000D02*
X14250000Y-36170000D01*
X14250000Y-36170000D02*
X49870000Y-36170000D01*
X49870000Y-30970000D02*
X49870000Y-36170000D01*
%TD*%
M02*
