M48
; DRILL file KiCad 10.0.3 date 2026-07-12T15:16:26
; FORMAT={-:-/ absolute / metric / decimal}
; #@! TF.CreationDate,2026-07-12T15:16:26-04:00
; #@! TF.GenerationSoftware,Kicad,Pcbnew,10.0.3
; #@! TF.FileFunction,Plated,1,2,PTH
FMAT,2
METRIC
; #@! TA.AperFunction,Plated,PTH,ViaDrill
T1C0.300
; #@! TA.AperFunction,Plated,PTH,ComponentDrill
T2C0.800
; #@! TA.AperFunction,Plated,PTH,ComponentDrill
T3C1.000
; #@! TA.AperFunction,Plated,PTH,ComponentDrill
T4C1.010
; #@! TA.AperFunction,Plated,PTH,ComponentDrill
T5C1.100
%
G90
G05
T1
X11.177Y-39.496
X13.72Y-29.926
X16.488Y-62.994
X19.448Y-58.338
X24.958Y-46.852
X26.526Y-22.98
X31.559Y-80.654
X31.981Y-23.833
X32.35Y-61.546
X36.13Y-60.427
X36.19Y-51.887
X36.658Y-37.715
X37.722Y-36.541
X39.284Y-30.329
X44.982Y-61.546
X46.12Y-61.276
X47.788Y-45.08
X47.905Y-77.627
X48.165Y-60.427
X48.694Y-46.35
X49.018Y-67.424
X49.651Y-66.468
X53.559Y-48.5
X55.749Y-63.526
X59.73Y-59.578
X67.426Y-51.887
X79.619Y-41.937
X81.316Y-37.344
T2
X76.5Y-43.5
X76.5Y-48.5
X78.5Y-32.0
X83.5Y-32.0
T3
X4.5Y-82.92
X4.5Y-85.46
X4.5Y-88.0
X4.5Y-90.54
X5.5Y-38.99
X5.5Y-41.53
X5.5Y-44.07
X5.5Y-46.61
X5.5Y-49.15
X5.5Y-51.69
X5.5Y-54.23
X5.5Y-56.77
X5.5Y-59.31
X5.5Y-61.85
X5.5Y-64.39
X5.5Y-66.93
X5.5Y-69.47
X5.5Y-72.01
X6.84Y-25.0
X9.38Y-25.0
X11.92Y-25.0
X12.95Y-79.26
X12.98Y-32.3
X12.98Y-34.84
X14.46Y-25.0
X15.49Y-79.26
X15.52Y-32.3
X15.52Y-34.84
X17.0Y-25.0
X18.03Y-79.26
X18.06Y-32.3
X18.06Y-34.84
X19.54Y-25.0
X20.57Y-79.26
X20.6Y-32.3
X20.6Y-34.84
X22.08Y-25.0
X23.11Y-79.26
X23.14Y-32.3
X23.14Y-34.84
X24.62Y-25.0
X25.65Y-79.26
X25.68Y-32.3
X25.68Y-34.84
X28.19Y-79.26
X28.22Y-32.3
X28.22Y-34.84
X29.65Y-51.92
X29.65Y-54.46
X29.65Y-57.0
X29.65Y-59.54
X29.65Y-62.08
X29.84Y-49.38
X29.84Y-64.62
X30.73Y-79.26
X30.76Y-32.3
X30.76Y-34.84
X32.38Y-49.38
X32.38Y-64.62
X33.27Y-79.26
X33.3Y-32.3
X33.3Y-34.84
X34.92Y-49.38
X34.92Y-64.62
X35.81Y-79.26
X35.84Y-32.3
X35.84Y-34.84
X37.46Y-49.38
X37.46Y-64.62
X38.35Y-79.26
X38.38Y-32.3
X38.38Y-34.84
X40.0Y-49.38
X40.0Y-64.62
X40.89Y-79.26
X40.92Y-32.3
X40.92Y-34.84
X42.4Y-25.0
X42.54Y-49.38
X42.54Y-64.62
X43.43Y-79.26
X43.46Y-32.3
X43.46Y-34.84
X44.94Y-25.0
X45.08Y-49.38
X45.08Y-64.62
X45.97Y-79.26
X46.0Y-32.3
X46.0Y-34.84
X47.48Y-25.0
X47.62Y-49.38
X47.62Y-64.62
X48.51Y-79.26
X48.54Y-32.3
X48.54Y-34.84
X50.02Y-25.0
X50.16Y-49.38
X50.16Y-64.62
X52.56Y-25.0
X55.1Y-25.0
X57.64Y-25.0
X60.18Y-25.0
X62.72Y-25.0
X65.26Y-25.0
X74.38Y-24.46
X74.38Y-27.0
X74.5Y-32.0
X76.46Y-40.04
X76.92Y-24.46
X76.92Y-27.0
X77.04Y-90.5
X79.46Y-24.46
X79.46Y-27.0
X79.58Y-90.5
X80.96Y-40.0
X80.96Y-42.54
X80.96Y-45.08
X80.96Y-47.62
X82.0Y-24.46
X82.0Y-27.0
X82.12Y-90.5
X83.5Y-40.0
X83.5Y-42.54
X83.5Y-45.08
X83.5Y-47.62
X84.0Y-72.96
X84.0Y-75.5
X84.0Y-78.04
X84.0Y-80.58
X84.0Y-83.12
T4
X28.95Y-72.5
X34.05Y-71.3
X40.45Y-72.5
X45.55Y-71.3
T5
X16.75Y-85.75
X16.75Y-90.25
X23.25Y-85.75
X23.25Y-90.25
X31.75Y-85.75
X31.75Y-90.25
X38.25Y-85.75
X38.25Y-90.25
X46.75Y-85.75
X46.75Y-90.25
X53.25Y-85.75
X53.25Y-90.25
X61.75Y-85.75
X61.75Y-90.25
X68.25Y-85.75
X68.25Y-90.25
M30
