%TF.GenerationSoftware,KiCad,Pcbnew,10.0.3*%
%TF.CreationDate,2026-07-01T23:49:45-04:00*%
%TF.ProjectId,a7s_backplane_render,6137735f-6261-4636-9b70-6c616e655f72,rev?*%
%TF.SameCoordinates,Original*%
%TF.FileFunction,Copper,L1,Top*%
%TF.FilePolarity,Positive*%
%FSLAX46Y46*%
G04 Gerber Fmt 4.6, Leading zero omitted, Abs format (unit mm)*
G04 Created by KiCad (PCBNEW 10.0.3) date 2026-07-01 23:49:45*
%MOMM*%
%LPD*%
G01*
G04 APERTURE LIST*
%TA.AperFunction,SMDPad,CuDef*%
%ADD10C,1.000000*%
%TD*%
%TA.AperFunction,ComponentPad*%
%ADD11C,2.000000*%
%TD*%
%TA.AperFunction,ComponentPad*%
%ADD12C,1.600000*%
%TD*%
%TA.AperFunction,ComponentPad*%
%ADD13R,1.700000X1.700000*%
%TD*%
%TA.AperFunction,ComponentPad*%
%ADD14O,1.700000X1.700000*%
%TD*%
%TA.AperFunction,ComponentPad*%
%ADD15C,1.700000*%
%TD*%
%TA.AperFunction,ComponentPad*%
%ADD16C,2.010000*%
%TD*%
%TA.AperFunction,ViaPad*%
%ADD17C,0.600000*%
%TD*%
%TA.AperFunction,Conductor*%
%ADD18C,0.200000*%
%TD*%
G04 APERTURE END LIST*
D10*
%TO.P,TP2,1*%
%TO.N,CONSOLE_RX*%
X67500000Y-65000000D03*
%TD*%
D11*
%TO.P,SW2,1*%
%TO.N,BTN2*%
X46750000Y-85750000D03*
%TO.N,N/C*%
X53250000Y-85750000D03*
%TO.P,SW2,2*%
%TO.N,GND*%
X46750000Y-90250000D03*
%TO.N,N/C*%
X53250000Y-90250000D03*
%TD*%
%TO.P,SW1,1*%
%TO.N,BTN1*%
X61750000Y-85750000D03*
%TO.N,N/C*%
X68250000Y-85750000D03*
%TO.P,SW1,2*%
%TO.N,GND*%
X61750000Y-90250000D03*
%TO.N,N/C*%
X68250000Y-90250000D03*
%TD*%
%TO.P,SW4,1*%
%TO.N,BTN4*%
X16750000Y-85750000D03*
%TO.N,N/C*%
X23250000Y-85750000D03*
%TO.P,SW4,2*%
%TO.N,GND*%
X16750000Y-90250000D03*
%TO.N,N/C*%
X23250000Y-90250000D03*
%TD*%
D10*
%TO.P,TP1,1*%
%TO.N,CONSOLE_TX*%
X67500000Y-71000000D03*
%TD*%
D11*
%TO.P,SW3,1*%
%TO.N,BTN3*%
X31750000Y-85750000D03*
%TO.N,N/C*%
X38250000Y-85750000D03*
%TO.P,SW3,2*%
%TO.N,GND*%
X31750000Y-90250000D03*
%TO.N,N/C*%
X38250000Y-90250000D03*
%TD*%
D12*
%TO.P,J3,1*%
%TO.N,+5V*%
X5500000Y-38990000D03*
%TO.P,J3,2*%
%TO.N,GND*%
X5500000Y-41530000D03*
%TO.P,J3,3*%
%TO.N,TFT_CS*%
X5500000Y-44070000D03*
%TO.P,J3,4*%
%TO.N,TFT_RST*%
X5500000Y-46610000D03*
%TO.P,J3,5*%
%TO.N,TFT_DC*%
X5500000Y-49150000D03*
%TO.P,J3,6*%
%TO.N,SPI_MOSI*%
X5500000Y-51690000D03*
%TO.P,J3,7*%
%TO.N,SPI_SCK*%
X5500000Y-54230000D03*
%TO.P,J3,8*%
%TO.N,TFT_BL*%
X5500000Y-56770000D03*
%TO.P,J3,9*%
%TO.N,N/C*%
X5500000Y-59310000D03*
%TO.P,J3,10*%
%TO.N,SPI_SCK*%
X5500000Y-61850000D03*
%TO.P,J3,11*%
%TO.N,TOUCH_CS*%
X5500000Y-64390000D03*
%TO.P,J3,12*%
%TO.N,SPI_MOSI*%
X5500000Y-66930000D03*
%TO.P,J3,13*%
%TO.N,SPI_MISO*%
X5500000Y-69470000D03*
%TO.P,J3,14*%
%TO.N,TOUCH_IRQ*%
X5500000Y-72010000D03*
%TD*%
D13*
%TO.P,J12,1*%
%TO.N,+5V*%
X6840000Y-25000000D03*
D14*
%TO.P,J12,2*%
%TO.N,SPI_MOSI*%
X9380000Y-25000000D03*
%TO.P,J12,3*%
%TO.N,SPI_MISO*%
X11920000Y-25000000D03*
%TO.P,J12,4*%
%TO.N,SPARE0*%
X14460000Y-25000000D03*
%TO.P,J12,5*%
%TO.N,SPI_SCK*%
X17000000Y-25000000D03*
%TO.P,J12,6*%
%TO.N,SPARE1*%
X19540000Y-25000000D03*
%TO.P,J12,7*%
%TO.N,SPARE2*%
X22080000Y-25000000D03*
%TO.P,J12,8*%
%TO.N,GND*%
X24620000Y-25000000D03*
D13*
%TO.P,J12,9*%
%TO.N,+3V3*%
X42400000Y-25000000D03*
D14*
%TO.P,J12,10*%
%TO.N,N/C*%
X44940000Y-25000000D03*
%TO.P,J12,11*%
%TO.N,GND*%
X47480000Y-25000000D03*
%TO.P,J12,12*%
%TO.N,N/C*%
X50020000Y-25000000D03*
%TO.P,J12,13*%
%TO.N,UART3_TX*%
X52560000Y-25000000D03*
%TO.P,J12,14*%
%TO.N,UART3_RX*%
X55100000Y-25000000D03*
%TO.P,J12,15*%
%TO.N,I2C_SDA*%
X57640000Y-25000000D03*
%TO.P,J12,16*%
%TO.N,I2C_SCK*%
X60180000Y-25000000D03*
%TO.P,J12,17*%
%TO.N,SPARE3*%
X62720000Y-25000000D03*
%TO.P,J12,18*%
%TO.N,GND*%
X65260000Y-25000000D03*
%TD*%
D13*
%TO.P,J8,1*%
%TO.N,RP_3V3*%
X84000000Y-83120000D03*
D15*
%TO.P,J8,2*%
%TO.N,GND*%
X84000000Y-80580000D03*
%TO.P,J8,3*%
%TO.N,JOY_X*%
X84000000Y-78040000D03*
%TO.P,J8,4*%
%TO.N,JOY_Y*%
X84000000Y-75500000D03*
%TO.P,J8,5*%
%TO.N,JOY_SW*%
X84000000Y-72960000D03*
%TD*%
D13*
%TO.P,J11,1*%
%TO.N,BTN5*%
X77040000Y-90500000D03*
D15*
%TO.P,J11,2*%
%TO.N,BTN6*%
X79580000Y-90500000D03*
%TO.P,J11,3*%
%TO.N,GND*%
X82120000Y-90500000D03*
%TD*%
D12*
%TO.P,C2,1*%
%TO.N,+3V3*%
X52000000Y-44000000D03*
%TO.P,C2,2*%
%TO.N,GND*%
X57000000Y-44000000D03*
%TD*%
D13*
%TO.P,J10,1*%
%TO.N,ENC_A*%
X4500000Y-87000000D03*
D15*
%TO.P,J10,2*%
%TO.N,ENC_B*%
X4500000Y-84460000D03*
%TO.P,J10,3*%
%TO.N,ENC_SW*%
X4500000Y-81920000D03*
%TO.P,J10,4*%
%TO.N,GND*%
X4500000Y-79380000D03*
%TD*%
D12*
%TO.P,C1,1*%
%TO.N,+3V3*%
X52000000Y-52000000D03*
%TO.P,C1,2*%
%TO.N,GND*%
X57000000Y-52000000D03*
%TD*%
D11*
%TO.P,J6b,1*%
%TO.N,RADIO2_AUX*%
X74500000Y-32000000D03*
%TD*%
D15*
%TO.P,A1,3V3*%
%TO.N,RP_3V3*%
X38580000Y-61620000D03*
%TO.P,A1,5V*%
%TO.N,+5V*%
X43660000Y-61620000D03*
%TO.P,A1,GND*%
%TO.N,GND*%
X41120000Y-61620000D03*
%TO.P,A1,GP0*%
%TO.N,A7S_U2RX*%
X43660000Y-46380000D03*
%TO.P,A1,GP1*%
%TO.N,A7S_U2TX*%
X41120000Y-46380000D03*
%TO.P,A1,GP2*%
%TO.N,BTN1*%
X38580000Y-46380000D03*
%TO.P,A1,GP3*%
%TO.N,BTN2*%
X36040000Y-46380000D03*
%TO.P,A1,GP4*%
%TO.N,BTN3*%
X33500000Y-46380000D03*
%TO.P,A1,GP5*%
%TO.N,BTN4*%
X30960000Y-46380000D03*
%TO.P,A1,GP6*%
%TO.N,BTN5*%
X28420000Y-46380000D03*
%TO.P,A1,GP7*%
%TO.N,BTN6*%
X25880000Y-46380000D03*
%TO.P,A1,GP8*%
%TO.N,JOY_SW*%
X23340000Y-46380000D03*
%TO.P,A1,GP9*%
%TO.N,ENC_A*%
X23150000Y-59080000D03*
%TO.P,A1,GP10*%
%TO.N,ENC_B*%
X23150000Y-56540000D03*
%TO.P,A1,GP11*%
%TO.N,ENC_SW*%
X23150000Y-54000000D03*
%TO.P,A1,GP12*%
%TO.N,N/C*%
X23150000Y-51460000D03*
%TO.P,A1,GP13*%
X23150000Y-48920000D03*
%TO.P,A1,GP14*%
X23340000Y-61620000D03*
%TO.P,A1,GP15*%
X25880000Y-61620000D03*
%TO.P,A1,GP26*%
%TO.N,JOY_X*%
X28420000Y-61620000D03*
%TO.P,A1,GP27*%
%TO.N,JOY_Y*%
X30960000Y-61620000D03*
%TO.P,A1,GP28*%
%TO.N,N/C*%
X33500000Y-61620000D03*
%TO.P,A1,GP29*%
X36040000Y-61620000D03*
%TD*%
D16*
%TO.P,F1,1*%
%TO.N,+5V_IN*%
X22000000Y-69000000D03*
%TO.P,F1,2*%
%TO.N,+5V*%
X27100000Y-67800000D03*
%TD*%
D11*
%TO.P,J5b,1*%
%TO.N,RADIO1_AUX*%
X76460000Y-40040000D03*
%TD*%
D13*
%TO.P,J6,1*%
%TO.N,GND*%
X74380000Y-27000000D03*
D15*
%TO.P,J6,2*%
%TO.N,+3V3*%
X74380000Y-24460000D03*
%TO.P,J6,3*%
%TO.N,RADIO2_FLEXA*%
X76920000Y-27000000D03*
%TO.P,J6,4*%
%TO.N,RADIO2_CS*%
X76920000Y-24460000D03*
%TO.P,J6,5*%
%TO.N,SPI_SCK*%
X79460000Y-27000000D03*
%TO.P,J6,6*%
%TO.N,SPI_MOSI*%
X79460000Y-24460000D03*
%TO.P,J6,7*%
%TO.N,SPI_MISO*%
X82000000Y-27000000D03*
%TO.P,J6,8*%
%TO.N,RADIO2_FLEXB*%
X82000000Y-24460000D03*
%TD*%
D13*
%TO.P,J2,1*%
%TO.N,RADIO1_FLEXA*%
X14720000Y-32000000D03*
D15*
%TO.P,J2,2*%
%TO.N,TOUCH_CS*%
X17260000Y-32000000D03*
%TO.P,J2,3*%
%TO.N,TOUCH_IRQ*%
X19800000Y-32000000D03*
%TO.P,J2,4*%
%TO.N,GND*%
X22340000Y-32000000D03*
%TO.P,J2,5*%
%TO.N,TFT_BL*%
X24880000Y-32000000D03*
%TO.P,J2,6*%
%TO.N,SPARE3*%
X27420000Y-32000000D03*
%TO.P,J2,7*%
%TO.N,RADIO2_FLEXA*%
X29960000Y-32000000D03*
%TO.P,J2,8*%
%TO.N,RADIO2_CS*%
X32500000Y-32000000D03*
%TO.P,J2,9*%
%TO.N,GND*%
X35040000Y-32000000D03*
%TO.P,J2,10*%
%TO.N,RADIO2_FLEXB*%
X37580000Y-32000000D03*
%TO.P,J2,11*%
%TO.N,RADIO1_AUX*%
X40120000Y-32000000D03*
%TO.P,J2,12*%
%TO.N,RADIO2_AUX*%
X42660000Y-32000000D03*
%TO.P,J2,13*%
%TO.N,SPARE0*%
X45200000Y-32000000D03*
%TO.P,J2,14*%
%TO.N,SPARE1*%
X47740000Y-32000000D03*
%TO.P,J2,15*%
%TO.N,SPARE2*%
X50280000Y-32000000D03*
%TD*%
D16*
%TO.P,F2,1*%
%TO.N,+3V3_IN*%
X33950000Y-69100000D03*
%TO.P,F2,2*%
%TO.N,+3V3*%
X39050000Y-67900000D03*
%TD*%
D13*
%TO.P,J5,1*%
%TO.N,GND*%
X80960000Y-40000000D03*
D15*
%TO.P,J5,2*%
%TO.N,+3V3*%
X83500000Y-40000000D03*
%TO.P,J5,3*%
%TO.N,RADIO1_FLEXA*%
X80960000Y-42540000D03*
%TO.P,J5,4*%
%TO.N,RADIO1_CS*%
X83500000Y-42540000D03*
%TO.P,J5,5*%
%TO.N,SPI_SCK*%
X80960000Y-45080000D03*
%TO.P,J5,6*%
%TO.N,SPI_MOSI*%
X83500000Y-45080000D03*
%TO.P,J5,7*%
%TO.N,SPI_MISO*%
X80960000Y-47620000D03*
%TO.P,J5,8*%
%TO.N,RADIO1_FLEXB*%
X83500000Y-47620000D03*
%TD*%
D13*
%TO.P,J1,1*%
%TO.N,+3V3_IN*%
X14690000Y-78960000D03*
D15*
%TO.P,J1,2*%
%TO.N,+5V_IN*%
X14690000Y-76420000D03*
%TO.P,J1,3*%
%TO.N,UART3_RX*%
X17230000Y-78960000D03*
%TO.P,J1,4*%
%TO.N,+5V_IN*%
X17230000Y-76420000D03*
%TO.P,J1,5*%
%TO.N,UART3_TX*%
X19770000Y-78960000D03*
%TO.P,J1,6*%
%TO.N,GND*%
X19770000Y-76420000D03*
%TO.P,J1,7*%
%TO.N,A7S_U2TX*%
X22310000Y-78960000D03*
%TO.P,J1,8*%
%TO.N,CONSOLE_TX*%
X22310000Y-76420000D03*
%TO.P,J1,9*%
%TO.N,GND*%
X24850000Y-78960000D03*
%TO.P,J1,10*%
%TO.N,CONSOLE_RX*%
X24850000Y-76420000D03*
%TO.P,J1,11*%
%TO.N,A7S_U2RX*%
X27390000Y-78960000D03*
%TO.P,J1,12*%
%TO.N,N/C*%
X27390000Y-76420000D03*
%TO.P,J1,13*%
X29930000Y-78960000D03*
%TO.P,J1,14*%
%TO.N,GND*%
X29930000Y-76420000D03*
%TO.P,J1,15*%
%TO.N,N/C*%
X32470000Y-78960000D03*
%TO.P,J1,16*%
%TO.N,RADIO1_CS*%
X32470000Y-76420000D03*
%TO.P,J1,17*%
%TO.N,+3V3_IN*%
X35010000Y-78960000D03*
%TO.P,J1,18*%
%TO.N,RADIO1_FLEXB*%
X35010000Y-76420000D03*
%TO.P,J1,19*%
%TO.N,SPI_MOSI*%
X37550000Y-78960000D03*
%TO.P,J1,20*%
%TO.N,GND*%
X37550000Y-76420000D03*
%TO.P,J1,21*%
%TO.N,SPI_MISO*%
X40090000Y-78960000D03*
%TO.P,J1,22*%
%TO.N,N/C*%
X40090000Y-76420000D03*
%TO.P,J1,23*%
%TO.N,SPI_SCK*%
X42630000Y-78960000D03*
%TO.P,J1,24*%
%TO.N,TFT_CS*%
X42630000Y-76420000D03*
%TO.P,J1,25*%
%TO.N,GND*%
X45170000Y-78960000D03*
%TO.P,J1,26*%
%TO.N,TFT_DC*%
X45170000Y-76420000D03*
%TO.P,J1,27*%
%TO.N,I2C_SDA*%
X47710000Y-78960000D03*
%TO.P,J1,28*%
%TO.N,I2C_SCK*%
X47710000Y-76420000D03*
%TO.P,J1,29*%
%TO.N,TFT_RST*%
X50250000Y-78960000D03*
%TO.P,J1,30*%
%TO.N,GND*%
X50250000Y-76420000D03*
%TD*%
D17*
%TO.N,BTN2*%
X54730700Y-47190400D03*
%TO.N,GND*%
X38861500Y-77708500D03*
%TO.N,BTN1*%
X61750000Y-47832800D03*
%TO.N,SPI_SCK*%
X11727900Y-45162000D03*
%TO.N,SPI_MISO*%
X70673900Y-25730000D03*
%TO.N,+3V3*%
X81505100Y-35390800D03*
X49967000Y-38836000D03*
%TO.N,SPARE3*%
X27420000Y-26492100D03*
%TO.N,BTN5*%
X77040000Y-48208700D03*
%TO.N,BTN6*%
X79580000Y-48836200D03*
%TO.N,RADIO2_CS*%
X32500000Y-23232600D03*
%TO.N,RADIO2_FLEXB*%
X37580000Y-21268300D03*
%TO.N,RADIO1_CS*%
X46096100Y-44960200D03*
%TO.N,RADIO1_FLEXB*%
X43598300Y-69236800D03*
X36318100Y-69236800D03*
X52024900Y-55329400D03*
%TD*%
%TO.N,CONSOLE_RX*%
D18*
X23652600Y-77617400D02*
X23652600Y-79458300D01*
X64191300Y-65000000D02*
X67500000Y-65000000D01*
X24788000Y-80593700D02*
X50303700Y-80593700D01*
X52029900Y-78867500D02*
X52029900Y-77161400D01*
X50303700Y-80593700D02*
X52029900Y-78867500D01*
X24850000Y-76420000D02*
X23652600Y-77617400D01*
X23652600Y-79458300D02*
X24788000Y-80593700D01*
X52029900Y-77161400D02*
X64191300Y-65000000D01*
%TO.N,BTN2*%
X46438400Y-47190400D02*
X54730700Y-47190400D01*
X36040000Y-46380000D02*
X37208000Y-45212000D01*
X37208000Y-45212000D02*
X44460000Y-45212000D01*
X44460000Y-45212000D02*
X46438400Y-47190400D01*
%TO.N,GND*%
X48980000Y-77690000D02*
X46440000Y-77690000D01*
X48631700Y-25000000D02*
X48631700Y-24757400D01*
X65260000Y-25000000D02*
X64108300Y-25000000D01*
X46328300Y-24712000D02*
X45464600Y-23848300D01*
X29930000Y-76420000D02*
X28660000Y-77690000D01*
X39973900Y-23848300D02*
X38822200Y-25000000D01*
X64108300Y-24747700D02*
X64108300Y-25000000D01*
X33861000Y-30821000D02*
X23519000Y-30821000D01*
X63193800Y-23833200D02*
X64108300Y-24747700D01*
X82120000Y-90500000D02*
X80965100Y-91654900D01*
X26120000Y-77690000D02*
X24850000Y-78960000D01*
X35040000Y-32000000D02*
X33861000Y-30821000D01*
X80965100Y-91654900D02*
X63154900Y-91654900D01*
X49555900Y-23833200D02*
X63193800Y-23833200D01*
X4396900Y-40426900D02*
X4396900Y-37209000D01*
X48631700Y-24757400D02*
X49555900Y-23833200D01*
X48051700Y-91551700D02*
X46750000Y-90250000D01*
X33100100Y-91600100D02*
X45399900Y-91600100D01*
X60448300Y-91551700D02*
X48051700Y-91551700D01*
X18100100Y-91600100D02*
X30399900Y-91600100D01*
X65260000Y-25000000D02*
X66411700Y-25000000D01*
X5500000Y-41530000D02*
X4396900Y-40426900D01*
X18570500Y-75220500D02*
X19770000Y-76420000D01*
X63154900Y-91654900D02*
X61750000Y-90250000D01*
X50250000Y-76420000D02*
X48980000Y-77690000D01*
X46440000Y-77690000D02*
X45170000Y-78960000D01*
X28660000Y-77690000D02*
X26120000Y-77690000D01*
X37550000Y-76420000D02*
X38838500Y-77708500D01*
X8659500Y-75220500D02*
X18570500Y-75220500D01*
X23519000Y-30821000D02*
X22340000Y-32000000D01*
X11173100Y-30432800D02*
X20772800Y-30432800D01*
X31750000Y-90250000D02*
X33100100Y-91600100D01*
X68411700Y-27000000D02*
X66411700Y-25000000D01*
X38822200Y-25000000D02*
X24620000Y-25000000D01*
X16750000Y-90250000D02*
X18100100Y-91600100D01*
X46328300Y-25000000D02*
X46328300Y-24712000D01*
X47480000Y-25000000D02*
X46328300Y-25000000D01*
X4396900Y-37209000D02*
X11173100Y-30432800D01*
X61750000Y-90250000D02*
X60448300Y-91551700D01*
X20772800Y-30432800D02*
X22340000Y-32000000D01*
X45464600Y-23848300D02*
X39973900Y-23848300D01*
X38838500Y-77708500D02*
X38861500Y-77708500D01*
X47480000Y-25000000D02*
X48631700Y-25000000D01*
X30399900Y-91600100D02*
X31750000Y-90250000D01*
X45399900Y-91600100D02*
X46750000Y-90250000D01*
X4500000Y-79380000D02*
X8659500Y-75220500D01*
X74380000Y-27000000D02*
X68411700Y-27000000D01*
%TO.N,BTN1*%
X40032800Y-47832800D02*
X61750000Y-47832800D01*
X38580000Y-46380000D02*
X40032800Y-47832800D01*
%TO.N,CONSOLE_TX*%
X67500000Y-71000000D02*
X57459600Y-81040400D01*
X21110500Y-77619500D02*
X22310000Y-76420000D01*
X57459600Y-81040400D02*
X22711800Y-81040400D01*
X22711800Y-81040400D02*
X21110500Y-79439100D01*
X21110500Y-79439100D02*
X21110500Y-77619500D01*
%TO.N,+5V*%
X31560400Y-63339600D02*
X41940400Y-63339600D01*
X41940400Y-63339600D02*
X43660000Y-61620000D01*
X27100000Y-67800000D02*
X27445300Y-67454700D01*
X6939800Y-46949200D02*
X6939800Y-40429800D01*
X27445300Y-67454700D02*
X6939800Y-46949200D01*
X6939800Y-40429800D02*
X5500000Y-38990000D01*
X27445300Y-67454700D02*
X31560400Y-63339600D01*
%TO.N,TFT_CS*%
X4395300Y-45174700D02*
X5500000Y-44070000D01*
X4395300Y-49626100D02*
X4395300Y-45174700D01*
X5189200Y-50420000D02*
X4395300Y-49626100D01*
X37812200Y-71602200D02*
X33233200Y-71602200D01*
X32137600Y-70506600D02*
X26290700Y-70506600D01*
X6204100Y-50420000D02*
X5189200Y-50420000D01*
X33233200Y-71602200D02*
X32137600Y-70506600D01*
X26290700Y-70506600D02*
X6204100Y-50420000D01*
X42630000Y-76420000D02*
X37812200Y-71602200D01*
%TO.N,TFT_RST*%
X31873700Y-69106700D02*
X33260200Y-70493200D01*
X51457200Y-77752800D02*
X50250000Y-78960000D01*
X5500000Y-46610000D02*
X25793300Y-66903300D01*
X51457200Y-75882400D02*
X51457200Y-77752800D01*
X26558800Y-69106700D02*
X31873700Y-69106700D01*
X25793300Y-68341200D02*
X26558800Y-69106700D01*
X46068000Y-70493200D02*
X51457200Y-75882400D01*
X33260200Y-70493200D02*
X46068000Y-70493200D01*
X25793300Y-66903300D02*
X25793300Y-68341200D01*
%TO.N,TFT_DC*%
X5502100Y-49150000D02*
X5500000Y-49150000D01*
X39644900Y-70894900D02*
X33093900Y-70894900D01*
X25860500Y-69508400D02*
X5502100Y-49150000D01*
X45170000Y-76420000D02*
X39644900Y-70894900D01*
X33093900Y-70894900D02*
X31707400Y-69508400D01*
X31707400Y-69508400D02*
X25860500Y-69508400D01*
%TO.N,SPI_MOSI*%
X31760100Y-71529000D02*
X36280000Y-76048900D01*
X10531700Y-24731500D02*
X12636600Y-22626600D01*
X10531700Y-25000000D02*
X10531700Y-24731500D01*
X10099000Y-71529000D02*
X31760100Y-71529000D01*
X5500000Y-66930000D02*
X10099000Y-71529000D01*
X12636600Y-22626600D02*
X77626600Y-22626600D01*
X36280000Y-76048900D02*
X36280000Y-77690000D01*
X36280000Y-77690000D02*
X37550000Y-78960000D01*
X77626600Y-22626600D02*
X79460000Y-24460000D01*
X9380000Y-25000000D02*
X10531700Y-25000000D01*
%TO.N,SPI_SCK*%
X33108100Y-72045100D02*
X34810100Y-72045100D01*
X11727900Y-45162000D02*
X12129600Y-44760300D01*
X14558300Y-70908300D02*
X31971300Y-70908300D01*
X38938300Y-76173300D02*
X38938300Y-76932100D01*
X41360000Y-77690000D02*
X42630000Y-78960000D01*
X80476300Y-45563700D02*
X80960000Y-45080000D01*
X34810100Y-72045100D02*
X38938300Y-76173300D01*
X5500000Y-61850000D02*
X14558300Y-70908300D01*
X38938300Y-76932100D02*
X39696200Y-77690000D01*
X39696200Y-77690000D02*
X41360000Y-77690000D01*
X12129600Y-44760300D02*
X44776500Y-44760300D01*
X31971300Y-70908300D02*
X33108100Y-72045100D01*
X44776500Y-44760300D02*
X45579900Y-45563700D01*
X45579900Y-45563700D02*
X80476300Y-45563700D01*
%TO.N,SPI_MISO*%
X33542800Y-23866800D02*
X33978100Y-23431500D01*
X13071700Y-24731500D02*
X13991400Y-23811800D01*
X13071700Y-25000000D02*
X13071700Y-24731500D01*
X40090000Y-78960000D02*
X38900800Y-80149200D01*
X10798200Y-74768200D02*
X5500000Y-69470000D01*
X33740000Y-76838400D02*
X33740000Y-76054100D01*
X33978100Y-23431500D02*
X68375400Y-23431500D01*
X11920000Y-25000000D02*
X13071700Y-25000000D01*
X31916800Y-23866800D02*
X33542800Y-23866800D01*
X37083800Y-80149200D02*
X36280000Y-79345400D01*
X13991400Y-23811800D02*
X31861800Y-23811800D01*
X31861800Y-23811800D02*
X31916800Y-23866800D01*
X36280000Y-79345400D02*
X36280000Y-78575600D01*
X34591600Y-77690000D02*
X33740000Y-76838400D01*
X35394400Y-77690000D02*
X34591600Y-77690000D01*
X70673900Y-25730000D02*
X80730000Y-25730000D01*
X36280000Y-78575600D02*
X35394400Y-77690000D01*
X68375400Y-23431500D02*
X70673900Y-25730000D01*
X33740000Y-76054100D02*
X32454100Y-74768200D01*
X32454100Y-74768200D02*
X10798200Y-74768200D01*
X38900800Y-80149200D02*
X37083800Y-80149200D01*
X80730000Y-25730000D02*
X82000000Y-27000000D01*
%TO.N,SPARE0*%
X15611700Y-25268500D02*
X15611700Y-25000000D01*
X45200000Y-32000000D02*
X42512800Y-29312800D01*
X19656000Y-29312800D02*
X15611700Y-25268500D01*
X42512800Y-29312800D02*
X19656000Y-29312800D01*
X14460000Y-25000000D02*
X15611700Y-25000000D01*
%TO.N,SPARE1*%
X43968400Y-28228400D02*
X23653700Y-28228400D01*
X19540000Y-25000000D02*
X20691700Y-25000000D01*
X23653700Y-28228400D02*
X20691700Y-25266400D01*
X47740000Y-32000000D02*
X43968400Y-28228400D01*
X20691700Y-25266400D02*
X20691700Y-25000000D01*
%TO.N,SPARE2*%
X45520300Y-27240300D02*
X25203500Y-27240300D01*
X50280000Y-32000000D02*
X45520300Y-27240300D01*
X22080000Y-25000000D02*
X23231700Y-25000000D01*
X23231700Y-25268500D02*
X23231700Y-25000000D01*
X25203500Y-27240300D02*
X23231700Y-25268500D01*
%TO.N,+3V3*%
X83500000Y-37385700D02*
X81505100Y-35390800D01*
X77819900Y-35390800D02*
X74374700Y-38836000D01*
X81505100Y-35390800D02*
X77819900Y-35390800D01*
X83500000Y-40000000D02*
X83500000Y-37385700D01*
X74374700Y-38836000D02*
X49967000Y-38836000D01*
%TO.N,SPARE3*%
X61568300Y-25000000D02*
X61568300Y-25268500D01*
X61568300Y-25268500D02*
X60344700Y-26492100D01*
X62720000Y-25000000D02*
X61568300Y-25000000D01*
X60344700Y-26492100D02*
X27420000Y-26492100D01*
%TO.N,RP_3V3*%
X40146400Y-60053600D02*
X66840200Y-60053600D01*
X83556600Y-76770000D02*
X84453000Y-76770000D01*
X84453000Y-76770000D02*
X85151700Y-77468700D01*
X85151700Y-77468700D02*
X85151700Y-81104600D01*
X84000000Y-83120000D02*
X84000000Y-81968300D01*
X84288000Y-81968300D02*
X84000000Y-81968300D01*
X85151700Y-81104600D02*
X84288000Y-81968300D01*
X38580000Y-61620000D02*
X40146400Y-60053600D01*
X66840200Y-60053600D02*
X83556600Y-76770000D01*
%TO.N,JOY_X*%
X41600200Y-62771700D02*
X42390100Y-61981800D01*
X43128300Y-60455300D02*
X66415300Y-60455300D01*
X29571700Y-62771700D02*
X41600200Y-62771700D01*
X28420000Y-61620000D02*
X29571700Y-62771700D01*
X42390100Y-61981800D02*
X42390100Y-61193500D01*
X66415300Y-60455300D02*
X84000000Y-78040000D01*
X42390100Y-61193500D02*
X43128300Y-60455300D01*
%TO.N,JOY_Y*%
X32978100Y-59601900D02*
X30960000Y-61620000D01*
X68101900Y-59601900D02*
X32978100Y-59601900D01*
X84000000Y-75500000D02*
X68101900Y-59601900D01*
%TO.N,JOY_SW*%
X23340000Y-46380000D02*
X32891100Y-55931100D01*
X66971100Y-55931100D02*
X84000000Y-72960000D01*
X32891100Y-55931100D02*
X66971100Y-55931100D01*
%TO.N,BTN5*%
X76814200Y-48434500D02*
X77040000Y-48208700D01*
X30474500Y-48434500D02*
X76814200Y-48434500D01*
X28420000Y-46380000D02*
X30474500Y-48434500D01*
%TO.N,BTN6*%
X28336200Y-48836200D02*
X79580000Y-48836200D01*
X25880000Y-46380000D02*
X28336200Y-48836200D01*
%TO.N,RADIO2_AUX*%
X53227700Y-31824500D02*
X74324500Y-31824500D01*
X74324500Y-31824500D02*
X74500000Y-32000000D01*
X42660000Y-32000000D02*
X43831500Y-33171500D01*
X51880700Y-33171500D02*
X53227700Y-31824500D01*
X43831500Y-33171500D02*
X51880700Y-33171500D01*
%TO.N,+5V_IN*%
X17230000Y-76420000D02*
X14690000Y-76420000D01*
%TO.N,RADIO1_AUX*%
X40120000Y-32000000D02*
X48160000Y-40040000D01*
X48160000Y-40040000D02*
X76460000Y-40040000D01*
%TO.N,RADIO2_FLEXA*%
X41508300Y-32516000D02*
X44631400Y-35639100D01*
X40666400Y-30829000D02*
X41508300Y-31670900D01*
X38850000Y-32418500D02*
X38850000Y-31598800D01*
X29960000Y-32000000D02*
X31159900Y-33199900D01*
X31159900Y-33199900D02*
X38068600Y-33199900D01*
X38850000Y-31598800D02*
X39619800Y-30829000D01*
X76920000Y-31447500D02*
X76920000Y-27000000D01*
X41508300Y-31670900D02*
X41508300Y-32516000D01*
X39619800Y-30829000D02*
X40666400Y-30829000D01*
X38068600Y-33199900D02*
X38850000Y-32418500D01*
X44631400Y-35639100D02*
X72728400Y-35639100D01*
X72728400Y-35639100D02*
X76920000Y-31447500D01*
%TO.N,RADIO2_CS*%
X75489800Y-23029800D02*
X76920000Y-24460000D01*
X32500000Y-23232600D02*
X32702800Y-23029800D01*
X32702800Y-23029800D02*
X75489800Y-23029800D01*
%TO.N,RADIO2_FLEXB*%
X82000000Y-24460000D02*
X78808300Y-21268300D01*
X78808300Y-21268300D02*
X37580000Y-21268300D01*
%TO.N,RADIO1_FLEXA*%
X18411700Y-32253600D02*
X18411700Y-31522900D01*
X16783000Y-30848300D02*
X15942000Y-31689300D01*
X18411700Y-31522900D02*
X17737100Y-30848300D01*
X17737100Y-30848300D02*
X16783000Y-30848300D01*
X80960000Y-42540000D02*
X28698100Y-42540000D01*
X15941900Y-31929800D02*
X15871700Y-32000000D01*
X15942000Y-31929800D02*
X15941900Y-31929800D01*
X15942000Y-31689300D02*
X15942000Y-31929800D01*
X14720000Y-32000000D02*
X15871700Y-32000000D01*
X28698100Y-42540000D02*
X18411700Y-32253600D01*
%TO.N,+3V3_IN*%
X14690000Y-78960000D02*
X15841700Y-78960000D01*
X16705400Y-77808300D02*
X15841700Y-78672000D01*
X31200000Y-75997900D02*
X30421900Y-75219800D01*
X20921700Y-76937200D02*
X20050600Y-77808300D01*
X31200000Y-79357800D02*
X31200000Y-75997900D01*
X33818900Y-80151100D02*
X31993300Y-80151100D01*
X35010000Y-78960000D02*
X33818900Y-80151100D01*
X21831700Y-75219800D02*
X20921700Y-76129800D01*
X30421900Y-75219800D02*
X21831700Y-75219800D01*
X20050600Y-77808300D02*
X16705400Y-77808300D01*
X31993300Y-80151100D02*
X31200000Y-79357800D01*
X15841700Y-78672000D02*
X15841700Y-78960000D01*
X20921700Y-76129800D02*
X20921700Y-76937200D01*
%TO.N,RADIO1_CS*%
X46096100Y-44960200D02*
X46247900Y-45112000D01*
X46247900Y-45112000D02*
X57750000Y-45112000D01*
X59052000Y-43810000D02*
X82230000Y-43810000D01*
X57750000Y-45112000D02*
X59052000Y-43810000D01*
X82230000Y-43810000D02*
X83500000Y-42540000D01*
%TO.N,RADIO1_FLEXB*%
X36318100Y-69236800D02*
X43598300Y-69236800D01*
X75790600Y-55329400D02*
X83500000Y-47620000D01*
X52024900Y-55329400D02*
X75790600Y-55329400D01*
%TD*%
M02*
