M48
; DRILL file KiCad 10.0.3 date 2026-07-01T23:49:38
; FORMAT={-:-/ absolute / metric / decimal}
; #@! TF.CreationDate,2026-07-01T23:49:38-04:00
; #@! TF.GenerationSoftware,Kicad,Pcbnew,10.0.3
; #@! TF.FileFunction,Plated,1,2,PTH
FMAT,2
METRIC
; #@! TA.AperFunction,Plated,PTH,ViaDrill
T1C0.300
; #@! TA.AperFunction,Plated,PTH,ComponentDrill
T2C0.800
; #@! TA.AperFunction,Plated,PTH,ComponentDrill
T3C1.000
; #@! TA.AperFunction,Plated,PTH,ComponentDrill
T4C1.010
; #@! TA.AperFunction,Plated,PTH,ComponentDrill
T5C1.100
%
G90
G05
T1
X11.728Y-45.162
X27.42Y-26.492
X32.5Y-23.233
X36.318Y-69.237
X37.58Y-21.268
X38.861Y-77.709
X43.598Y-69.237
X46.096Y-44.96
X49.967Y-38.836
X52.025Y-55.329
X54.731Y-47.19
X61.75Y-47.833
X70.674Y-25.73
X77.04Y-48.209
X79.58Y-48.836
X81.505Y-35.391
T2
X52.0Y-44.0
X52.0Y-52.0
X57.0Y-44.0
X57.0Y-52.0
T3
X4.5Y-79.38
X4.5Y-81.92
X4.5Y-84.46
X4.5Y-87.0
X5.5Y-38.99
X5.5Y-41.53
X5.5Y-44.07
X5.5Y-46.61
X5.5Y-49.15
X5.5Y-51.69
X5.5Y-54.23
X5.5Y-56.77
X5.5Y-59.31
X5.5Y-61.85
X5.5Y-64.39
X5.5Y-66.93
X5.5Y-69.47
X5.5Y-72.01
X6.84Y-25.0
X9.38Y-25.0
X11.92Y-25.0
X14.46Y-25.0
X14.69Y-76.42
X14.69Y-78.96
X14.72Y-32.0
X17.0Y-25.0
X17.23Y-76.42
X17.23Y-78.96
X17.26Y-32.0
X19.54Y-25.0
X19.77Y-76.42
X19.77Y-78.96
X19.8Y-32.0
X22.08Y-25.0
X22.31Y-76.42
X22.31Y-78.96
X22.34Y-32.0
X23.15Y-48.92
X23.15Y-51.46
X23.15Y-54.0
X23.15Y-56.54
X23.15Y-59.08
X23.34Y-46.38
X23.34Y-61.62
X24.62Y-25.0
X24.85Y-76.42
X24.85Y-78.96
X24.88Y-32.0
X25.88Y-46.38
X25.88Y-61.62
X27.39Y-76.42
X27.39Y-78.96
X27.42Y-32.0
X28.42Y-46.38
X28.42Y-61.62
X29.93Y-76.42
X29.93Y-78.96
X29.96Y-32.0
X30.96Y-46.38
X30.96Y-61.62
X32.47Y-76.42
X32.47Y-78.96
X32.5Y-32.0
X33.5Y-46.38
X33.5Y-61.62
X35.01Y-76.42
X35.01Y-78.96
X35.04Y-32.0
X36.04Y-46.38
X36.04Y-61.62
X37.55Y-76.42
X37.55Y-78.96
X37.58Y-32.0
X38.58Y-46.38
X38.58Y-61.62
X40.09Y-76.42
X40.09Y-78.96
X40.12Y-32.0
X41.12Y-46.38
X41.12Y-61.62
X42.4Y-25.0
X42.63Y-76.42
X42.63Y-78.96
X42.66Y-32.0
X43.66Y-46.38
X43.66Y-61.62
X44.94Y-25.0
X45.17Y-76.42
X45.17Y-78.96
X45.2Y-32.0
X47.48Y-25.0
X47.71Y-76.42
X47.71Y-78.96
X47.74Y-32.0
X50.02Y-25.0
X50.25Y-76.42
X50.25Y-78.96
X50.28Y-32.0
X52.56Y-25.0
X55.1Y-25.0
X57.64Y-25.0
X60.18Y-25.0
X62.72Y-25.0
X65.26Y-25.0
X74.38Y-24.46
X74.38Y-27.0
X74.5Y-32.0
X76.46Y-40.04
X76.92Y-24.46
X76.92Y-27.0
X77.04Y-90.5
X79.46Y-24.46
X79.46Y-27.0
X79.58Y-90.5
X80.96Y-40.0
X80.96Y-42.54
X80.96Y-45.08
X80.96Y-47.62
X82.0Y-24.46
X82.0Y-27.0
X82.12Y-90.5
X83.5Y-40.0
X83.5Y-42.54
X83.5Y-45.08
X83.5Y-47.62
X84.0Y-72.96
X84.0Y-75.5
X84.0Y-78.04
X84.0Y-80.58
X84.0Y-83.12
T4
X22.0Y-69.0
X27.1Y-67.8
X33.95Y-69.1
X39.05Y-67.9
T5
X16.75Y-85.75
X16.75Y-90.25
X23.25Y-85.75
X23.25Y-90.25
X31.75Y-85.75
X31.75Y-90.25
X38.25Y-85.75
X38.25Y-90.25
X46.75Y-85.75
X46.75Y-90.25
X53.25Y-85.75
X53.25Y-90.25
X61.75Y-85.75
X61.75Y-90.25
X68.25Y-85.75
X68.25Y-90.25
M30
