%TF.GenerationSoftware,KiCad,Pcbnew,10.0.3*%
%TF.CreationDate,2026-07-01T23:49:45-04:00*%
%TF.ProjectId,a7s_backplane_render,6137735f-6261-4636-9b70-6c616e655f72,rev?*%
%TF.SameCoordinates,Original*%
%TF.FileFunction,Legend,Bot*%
%TF.FilePolarity,Positive*%
%FSLAX46Y46*%
G04 Gerber Fmt 4.6, Leading zero omitted, Abs format (unit mm)*
G04 Created by KiCad (PCBNEW 10.0.3) date 2026-07-01 23:49:45*
%MOMM*%
%LPD*%
G01*
G04 APERTURE LIST*
%ADD10C,0.150000*%
%ADD11C,0.120000*%
%ADD12C,0.200000*%
G04 APERTURE END LIST*
D10*
X84333333Y-84954819D02*
X84333333Y-85669104D01*
X84333333Y-85669104D02*
X84380952Y-85811961D01*
X84380952Y-85811961D02*
X84476190Y-85907200D01*
X84476190Y-85907200D02*
X84619047Y-85954819D01*
X84619047Y-85954819D02*
X84714285Y-85954819D01*
X83714285Y-85383390D02*
X83809523Y-85335771D01*
X83809523Y-85335771D02*
X83857142Y-85288152D01*
X83857142Y-85288152D02*
X83904761Y-85192914D01*
X83904761Y-85192914D02*
X83904761Y-85145295D01*
X83904761Y-85145295D02*
X83857142Y-85050057D01*
X83857142Y-85050057D02*
X83809523Y-85002438D01*
X83809523Y-85002438D02*
X83714285Y-84954819D01*
X83714285Y-84954819D02*
X83523809Y-84954819D01*
X83523809Y-84954819D02*
X83428571Y-85002438D01*
X83428571Y-85002438D02*
X83380952Y-85050057D01*
X83380952Y-85050057D02*
X83333333Y-85145295D01*
X83333333Y-85145295D02*
X83333333Y-85192914D01*
X83333333Y-85192914D02*
X83380952Y-85288152D01*
X83380952Y-85288152D02*
X83428571Y-85335771D01*
X83428571Y-85335771D02*
X83523809Y-85383390D01*
X83523809Y-85383390D02*
X83714285Y-85383390D01*
X83714285Y-85383390D02*
X83809523Y-85431009D01*
X83809523Y-85431009D02*
X83857142Y-85478628D01*
X83857142Y-85478628D02*
X83904761Y-85573866D01*
X83904761Y-85573866D02*
X83904761Y-85764342D01*
X83904761Y-85764342D02*
X83857142Y-85859580D01*
X83857142Y-85859580D02*
X83809523Y-85907200D01*
X83809523Y-85907200D02*
X83714285Y-85954819D01*
X83714285Y-85954819D02*
X83523809Y-85954819D01*
X83523809Y-85954819D02*
X83428571Y-85907200D01*
X83428571Y-85907200D02*
X83380952Y-85859580D01*
X83380952Y-85859580D02*
X83333333Y-85764342D01*
X83333333Y-85764342D02*
X83333333Y-85573866D01*
X83333333Y-85573866D02*
X83380952Y-85478628D01*
X83380952Y-85478628D02*
X83428571Y-85431009D01*
X83428571Y-85431009D02*
X83523809Y-85383390D01*
X74114819Y-89690476D02*
X74829104Y-89690476D01*
X74829104Y-89690476D02*
X74971961Y-89642857D01*
X74971961Y-89642857D02*
X75067200Y-89547619D01*
X75067200Y-89547619D02*
X75114819Y-89404762D01*
X75114819Y-89404762D02*
X75114819Y-89309524D01*
X75114819Y-90690476D02*
X75114819Y-90119048D01*
X75114819Y-90404762D02*
X74114819Y-90404762D01*
X74114819Y-90404762D02*
X74257676Y-90309524D01*
X74257676Y-90309524D02*
X74352914Y-90214286D01*
X74352914Y-90214286D02*
X74400533Y-90119048D01*
X75114819Y-91642857D02*
X75114819Y-91071429D01*
X75114819Y-91357143D02*
X74114819Y-91357143D01*
X74114819Y-91357143D02*
X74257676Y-91261905D01*
X74257676Y-91261905D02*
X74352914Y-91166667D01*
X74352914Y-91166667D02*
X74400533Y-91071429D01*
X54666666Y-46859580D02*
X54714285Y-46907200D01*
X54714285Y-46907200D02*
X54857142Y-46954819D01*
X54857142Y-46954819D02*
X54952380Y-46954819D01*
X54952380Y-46954819D02*
X55095237Y-46907200D01*
X55095237Y-46907200D02*
X55190475Y-46811961D01*
X55190475Y-46811961D02*
X55238094Y-46716723D01*
X55238094Y-46716723D02*
X55285713Y-46526247D01*
X55285713Y-46526247D02*
X55285713Y-46383390D01*
X55285713Y-46383390D02*
X55238094Y-46192914D01*
X55238094Y-46192914D02*
X55190475Y-46097676D01*
X55190475Y-46097676D02*
X55095237Y-46002438D01*
X55095237Y-46002438D02*
X54952380Y-45954819D01*
X54952380Y-45954819D02*
X54857142Y-45954819D01*
X54857142Y-45954819D02*
X54714285Y-46002438D01*
X54714285Y-46002438D02*
X54666666Y-46050057D01*
X54285713Y-46050057D02*
X54238094Y-46002438D01*
X54238094Y-46002438D02*
X54142856Y-45954819D01*
X54142856Y-45954819D02*
X53904761Y-45954819D01*
X53904761Y-45954819D02*
X53809523Y-46002438D01*
X53809523Y-46002438D02*
X53761904Y-46050057D01*
X53761904Y-46050057D02*
X53714285Y-46145295D01*
X53714285Y-46145295D02*
X53714285Y-46240533D01*
X53714285Y-46240533D02*
X53761904Y-46383390D01*
X53761904Y-46383390D02*
X54333332Y-46954819D01*
X54333332Y-46954819D02*
X53714285Y-46954819D01*
X5309523Y-88834819D02*
X5309523Y-89549104D01*
X5309523Y-89549104D02*
X5357142Y-89691961D01*
X5357142Y-89691961D02*
X5452380Y-89787200D01*
X5452380Y-89787200D02*
X5595237Y-89834819D01*
X5595237Y-89834819D02*
X5690475Y-89834819D01*
X4309523Y-89834819D02*
X4880951Y-89834819D01*
X4595237Y-89834819D02*
X4595237Y-88834819D01*
X4595237Y-88834819D02*
X4690475Y-88977676D01*
X4690475Y-88977676D02*
X4785713Y-89072914D01*
X4785713Y-89072914D02*
X4880951Y-89120533D01*
X3690475Y-88834819D02*
X3595237Y-88834819D01*
X3595237Y-88834819D02*
X3499999Y-88882438D01*
X3499999Y-88882438D02*
X3452380Y-88930057D01*
X3452380Y-88930057D02*
X3404761Y-89025295D01*
X3404761Y-89025295D02*
X3357142Y-89215771D01*
X3357142Y-89215771D02*
X3357142Y-89453866D01*
X3357142Y-89453866D02*
X3404761Y-89644342D01*
X3404761Y-89644342D02*
X3452380Y-89739580D01*
X3452380Y-89739580D02*
X3499999Y-89787200D01*
X3499999Y-89787200D02*
X3595237Y-89834819D01*
X3595237Y-89834819D02*
X3690475Y-89834819D01*
X3690475Y-89834819D02*
X3785713Y-89787200D01*
X3785713Y-89787200D02*
X3833332Y-89739580D01*
X3833332Y-89739580D02*
X3880951Y-89644342D01*
X3880951Y-89644342D02*
X3928570Y-89453866D01*
X3928570Y-89453866D02*
X3928570Y-89215771D01*
X3928570Y-89215771D02*
X3880951Y-89025295D01*
X3880951Y-89025295D02*
X3833332Y-88930057D01*
X3833332Y-88930057D02*
X3785713Y-88882438D01*
X3785713Y-88882438D02*
X3690475Y-88834819D01*
X54666666Y-54859580D02*
X54714285Y-54907200D01*
X54714285Y-54907200D02*
X54857142Y-54954819D01*
X54857142Y-54954819D02*
X54952380Y-54954819D01*
X54952380Y-54954819D02*
X55095237Y-54907200D01*
X55095237Y-54907200D02*
X55190475Y-54811961D01*
X55190475Y-54811961D02*
X55238094Y-54716723D01*
X55238094Y-54716723D02*
X55285713Y-54526247D01*
X55285713Y-54526247D02*
X55285713Y-54383390D01*
X55285713Y-54383390D02*
X55238094Y-54192914D01*
X55238094Y-54192914D02*
X55190475Y-54097676D01*
X55190475Y-54097676D02*
X55095237Y-54002438D01*
X55095237Y-54002438D02*
X54952380Y-53954819D01*
X54952380Y-53954819D02*
X54857142Y-53954819D01*
X54857142Y-53954819D02*
X54714285Y-54002438D01*
X54714285Y-54002438D02*
X54666666Y-54050057D01*
X53714285Y-54954819D02*
X54285713Y-54954819D01*
X53999999Y-54954819D02*
X53999999Y-53954819D01*
X53999999Y-53954819D02*
X54095237Y-54097676D01*
X54095237Y-54097676D02*
X54190475Y-54192914D01*
X54190475Y-54192914D02*
X54285713Y-54240533D01*
X75285714Y-33704819D02*
X75285714Y-34419104D01*
X75285714Y-34419104D02*
X75333333Y-34561961D01*
X75333333Y-34561961D02*
X75428571Y-34657200D01*
X75428571Y-34657200D02*
X75571428Y-34704819D01*
X75571428Y-34704819D02*
X75666666Y-34704819D01*
X74380952Y-33704819D02*
X74571428Y-33704819D01*
X74571428Y-33704819D02*
X74666666Y-33752438D01*
X74666666Y-33752438D02*
X74714285Y-33800057D01*
X74714285Y-33800057D02*
X74809523Y-33942914D01*
X74809523Y-33942914D02*
X74857142Y-34133390D01*
X74857142Y-34133390D02*
X74857142Y-34514342D01*
X74857142Y-34514342D02*
X74809523Y-34609580D01*
X74809523Y-34609580D02*
X74761904Y-34657200D01*
X74761904Y-34657200D02*
X74666666Y-34704819D01*
X74666666Y-34704819D02*
X74476190Y-34704819D01*
X74476190Y-34704819D02*
X74380952Y-34657200D01*
X74380952Y-34657200D02*
X74333333Y-34609580D01*
X74333333Y-34609580D02*
X74285714Y-34514342D01*
X74285714Y-34514342D02*
X74285714Y-34276247D01*
X74285714Y-34276247D02*
X74333333Y-34181009D01*
X74333333Y-34181009D02*
X74380952Y-34133390D01*
X74380952Y-34133390D02*
X74476190Y-34085771D01*
X74476190Y-34085771D02*
X74666666Y-34085771D01*
X74666666Y-34085771D02*
X74761904Y-34133390D01*
X74761904Y-34133390D02*
X74809523Y-34181009D01*
X74809523Y-34181009D02*
X74857142Y-34276247D01*
X73857142Y-34704819D02*
X73857142Y-33704819D01*
X73857142Y-34085771D02*
X73761904Y-34038152D01*
X73761904Y-34038152D02*
X73571428Y-34038152D01*
X73571428Y-34038152D02*
X73476190Y-34085771D01*
X73476190Y-34085771D02*
X73428571Y-34133390D01*
X73428571Y-34133390D02*
X73380952Y-34228628D01*
X73380952Y-34228628D02*
X73380952Y-34514342D01*
X73380952Y-34514342D02*
X73428571Y-34609580D01*
X73428571Y-34609580D02*
X73476190Y-34657200D01*
X73476190Y-34657200D02*
X73571428Y-34704819D01*
X73571428Y-34704819D02*
X73761904Y-34704819D01*
X73761904Y-34704819D02*
X73857142Y-34657200D01*
X46619104Y-53285714D02*
X46619104Y-53761904D01*
X46904819Y-53190476D02*
X45904819Y-53523809D01*
X45904819Y-53523809D02*
X46904819Y-53857142D01*
X46904819Y-54714285D02*
X46904819Y-54142857D01*
X46904819Y-54428571D02*
X45904819Y-54428571D01*
X45904819Y-54428571D02*
X46047676Y-54333333D01*
X46047676Y-54333333D02*
X46142914Y-54238095D01*
X46142914Y-54238095D02*
X46190533Y-54142857D01*
X24883333Y-70831009D02*
X25216666Y-70831009D01*
X25216666Y-71354819D02*
X25216666Y-70354819D01*
X25216666Y-70354819D02*
X24740476Y-70354819D01*
X23835714Y-71354819D02*
X24407142Y-71354819D01*
X24121428Y-71354819D02*
X24121428Y-70354819D01*
X24121428Y-70354819D02*
X24216666Y-70497676D01*
X24216666Y-70497676D02*
X24311904Y-70592914D01*
X24311904Y-70592914D02*
X24407142Y-70640533D01*
X73664819Y-39254285D02*
X74379104Y-39254285D01*
X74379104Y-39254285D02*
X74521961Y-39206666D01*
X74521961Y-39206666D02*
X74617200Y-39111428D01*
X74617200Y-39111428D02*
X74664819Y-38968571D01*
X74664819Y-38968571D02*
X74664819Y-38873333D01*
X73664819Y-40206666D02*
X73664819Y-39730476D01*
X73664819Y-39730476D02*
X74141009Y-39682857D01*
X74141009Y-39682857D02*
X74093390Y-39730476D01*
X74093390Y-39730476D02*
X74045771Y-39825714D01*
X74045771Y-39825714D02*
X74045771Y-40063809D01*
X74045771Y-40063809D02*
X74093390Y-40159047D01*
X74093390Y-40159047D02*
X74141009Y-40206666D01*
X74141009Y-40206666D02*
X74236247Y-40254285D01*
X74236247Y-40254285D02*
X74474342Y-40254285D01*
X74474342Y-40254285D02*
X74569580Y-40206666D01*
X74569580Y-40206666D02*
X74617200Y-40159047D01*
X74617200Y-40159047D02*
X74664819Y-40063809D01*
X74664819Y-40063809D02*
X74664819Y-39825714D01*
X74664819Y-39825714D02*
X74617200Y-39730476D01*
X74617200Y-39730476D02*
X74569580Y-39682857D01*
X74664819Y-40682857D02*
X73664819Y-40682857D01*
X74045771Y-40682857D02*
X73998152Y-40778095D01*
X73998152Y-40778095D02*
X73998152Y-40968571D01*
X73998152Y-40968571D02*
X74045771Y-41063809D01*
X74045771Y-41063809D02*
X74093390Y-41111428D01*
X74093390Y-41111428D02*
X74188628Y-41159047D01*
X74188628Y-41159047D02*
X74474342Y-41159047D01*
X74474342Y-41159047D02*
X74569580Y-41111428D01*
X74569580Y-41111428D02*
X74617200Y-41063809D01*
X74617200Y-41063809D02*
X74664819Y-40968571D01*
X74664819Y-40968571D02*
X74664819Y-40778095D01*
X74664819Y-40778095D02*
X74617200Y-40682857D01*
X71064819Y-25396666D02*
X71779104Y-25396666D01*
X71779104Y-25396666D02*
X71921961Y-25349047D01*
X71921961Y-25349047D02*
X72017200Y-25253809D01*
X72017200Y-25253809D02*
X72064819Y-25110952D01*
X72064819Y-25110952D02*
X72064819Y-25015714D01*
X71064819Y-26301428D02*
X71064819Y-26110952D01*
X71064819Y-26110952D02*
X71112438Y-26015714D01*
X71112438Y-26015714D02*
X71160057Y-25968095D01*
X71160057Y-25968095D02*
X71302914Y-25872857D01*
X71302914Y-25872857D02*
X71493390Y-25825238D01*
X71493390Y-25825238D02*
X71874342Y-25825238D01*
X71874342Y-25825238D02*
X71969580Y-25872857D01*
X71969580Y-25872857D02*
X72017200Y-25920476D01*
X72017200Y-25920476D02*
X72064819Y-26015714D01*
X72064819Y-26015714D02*
X72064819Y-26206190D01*
X72064819Y-26206190D02*
X72017200Y-26301428D01*
X72017200Y-26301428D02*
X71969580Y-26349047D01*
X71969580Y-26349047D02*
X71874342Y-26396666D01*
X71874342Y-26396666D02*
X71636247Y-26396666D01*
X71636247Y-26396666D02*
X71541009Y-26349047D01*
X71541009Y-26349047D02*
X71493390Y-26301428D01*
X71493390Y-26301428D02*
X71445771Y-26206190D01*
X71445771Y-26206190D02*
X71445771Y-26015714D01*
X71445771Y-26015714D02*
X71493390Y-25920476D01*
X71493390Y-25920476D02*
X71541009Y-25872857D01*
X71541009Y-25872857D02*
X71636247Y-25825238D01*
X11404819Y-31666666D02*
X12119104Y-31666666D01*
X12119104Y-31666666D02*
X12261961Y-31619047D01*
X12261961Y-31619047D02*
X12357200Y-31523809D01*
X12357200Y-31523809D02*
X12404819Y-31380952D01*
X12404819Y-31380952D02*
X12404819Y-31285714D01*
X11500057Y-32095238D02*
X11452438Y-32142857D01*
X11452438Y-32142857D02*
X11404819Y-32238095D01*
X11404819Y-32238095D02*
X11404819Y-32476190D01*
X11404819Y-32476190D02*
X11452438Y-32571428D01*
X11452438Y-32571428D02*
X11500057Y-32619047D01*
X11500057Y-32619047D02*
X11595295Y-32666666D01*
X11595295Y-32666666D02*
X11690533Y-32666666D01*
X11690533Y-32666666D02*
X11833390Y-32619047D01*
X11833390Y-32619047D02*
X12404819Y-32047619D01*
X12404819Y-32047619D02*
X12404819Y-32666666D01*
X36833333Y-70931009D02*
X37166666Y-70931009D01*
X37166666Y-71454819D02*
X37166666Y-70454819D01*
X37166666Y-70454819D02*
X36690476Y-70454819D01*
X36357142Y-70550057D02*
X36309523Y-70502438D01*
X36309523Y-70502438D02*
X36214285Y-70454819D01*
X36214285Y-70454819D02*
X35976190Y-70454819D01*
X35976190Y-70454819D02*
X35880952Y-70502438D01*
X35880952Y-70502438D02*
X35833333Y-70550057D01*
X35833333Y-70550057D02*
X35785714Y-70645295D01*
X35785714Y-70645295D02*
X35785714Y-70740533D01*
X35785714Y-70740533D02*
X35833333Y-70883390D01*
X35833333Y-70883390D02*
X36404761Y-71454819D01*
X36404761Y-71454819D02*
X35785714Y-71454819D01*
X82563333Y-36684819D02*
X82563333Y-37399104D01*
X82563333Y-37399104D02*
X82610952Y-37541961D01*
X82610952Y-37541961D02*
X82706190Y-37637200D01*
X82706190Y-37637200D02*
X82849047Y-37684819D01*
X82849047Y-37684819D02*
X82944285Y-37684819D01*
X81610952Y-36684819D02*
X82087142Y-36684819D01*
X82087142Y-36684819D02*
X82134761Y-37161009D01*
X82134761Y-37161009D02*
X82087142Y-37113390D01*
X82087142Y-37113390D02*
X81991904Y-37065771D01*
X81991904Y-37065771D02*
X81753809Y-37065771D01*
X81753809Y-37065771D02*
X81658571Y-37113390D01*
X81658571Y-37113390D02*
X81610952Y-37161009D01*
X81610952Y-37161009D02*
X81563333Y-37256247D01*
X81563333Y-37256247D02*
X81563333Y-37494342D01*
X81563333Y-37494342D02*
X81610952Y-37589580D01*
X81610952Y-37589580D02*
X81658571Y-37637200D01*
X81658571Y-37637200D02*
X81753809Y-37684819D01*
X81753809Y-37684819D02*
X81991904Y-37684819D01*
X81991904Y-37684819D02*
X82087142Y-37637200D01*
X82087142Y-37637200D02*
X82134761Y-37589580D01*
X11374819Y-77356666D02*
X12089104Y-77356666D01*
X12089104Y-77356666D02*
X12231961Y-77309047D01*
X12231961Y-77309047D02*
X12327200Y-77213809D01*
X12327200Y-77213809D02*
X12374819Y-77070952D01*
X12374819Y-77070952D02*
X12374819Y-76975714D01*
X12374819Y-78356666D02*
X12374819Y-77785238D01*
X12374819Y-78070952D02*
X11374819Y-78070952D01*
X11374819Y-78070952D02*
X11517676Y-77975714D01*
X11517676Y-77975714D02*
X11612914Y-77880476D01*
X11612914Y-77880476D02*
X11660533Y-77785238D01*
%TO.C,J8*%
D11*
X82620000Y-71580000D02*
X85380000Y-71580000D01*
X82620000Y-81850000D02*
X82620000Y-71580000D01*
X82620000Y-81850000D02*
X85380000Y-81850000D01*
X82620000Y-83120000D02*
X82620000Y-84500000D01*
X82620000Y-84500000D02*
X84000000Y-84500000D01*
X85380000Y-81850000D02*
X85380000Y-71580000D01*
%TO.C,J11*%
X75660000Y-89120000D02*
X75660000Y-90500000D01*
X77040000Y-89120000D02*
X75660000Y-89120000D01*
X78310000Y-89120000D02*
X78310000Y-91880000D01*
X78310000Y-89120000D02*
X83500000Y-89120000D01*
X78310000Y-91880000D02*
X83500000Y-91880000D01*
X83500000Y-89120000D02*
X83500000Y-91880000D01*
%TO.C,C2*%
X51880000Y-42630000D02*
X51880000Y-42967000D01*
X51880000Y-45033000D02*
X51880000Y-45370000D01*
X51880000Y-45370000D02*
X57120000Y-45370000D01*
X57120000Y-42630000D02*
X51880000Y-42630000D01*
X57120000Y-42967000D02*
X57120000Y-42630000D01*
X57120000Y-45370000D02*
X57120000Y-45033000D01*
%TO.C,J10*%
X3120000Y-78000000D02*
X5880000Y-78000000D01*
X3120000Y-85730000D02*
X3120000Y-78000000D01*
X3120000Y-85730000D02*
X5880000Y-85730000D01*
X3120000Y-87000000D02*
X3120000Y-88380000D01*
X3120000Y-88380000D02*
X4500000Y-88380000D01*
X5880000Y-85730000D02*
X5880000Y-78000000D01*
%TO.C,C1*%
X51880000Y-50630000D02*
X51880000Y-50967000D01*
X51880000Y-53033000D02*
X51880000Y-53370000D01*
X51880000Y-53370000D02*
X57120000Y-53370000D01*
X57120000Y-50630000D02*
X51880000Y-50630000D01*
X57120000Y-50967000D02*
X57120000Y-50630000D01*
X57120000Y-53370000D02*
X57120000Y-53033000D01*
%TO.C,J6b*%
X75751000Y-32000000D02*
G75*
G02*
X73249000Y-32000000I-1251000J0D01*
G01*
X73249000Y-32000000D02*
G75*
G02*
X75751000Y-32000000I1251000J0D01*
G01*
%TO.C,A1*%
X21750000Y-45000000D02*
X21750000Y-63000000D01*
X21750000Y-63000000D02*
X45250000Y-63000000D01*
X45250000Y-45000000D02*
X21750000Y-45000000D01*
X45250000Y-63000000D02*
X45250000Y-45000000D01*
D12*
X44260000Y-63620000D02*
G75*
G02*
X43060000Y-63620000I-600000J0D01*
G01*
X43060000Y-63620000D02*
G75*
G02*
X44260000Y-63620000I600000J0D01*
G01*
%TO.C,F1*%
D11*
X20900000Y-66800000D02*
X20900000Y-68298000D01*
X20900000Y-69702000D02*
X20900000Y-70000000D01*
X20900000Y-70000000D02*
X21162000Y-70000000D01*
X22838000Y-70000000D02*
X28200000Y-70000000D01*
X26262000Y-66800000D02*
X20900000Y-66800000D01*
X28200000Y-66800000D02*
X27938000Y-66800000D01*
X28200000Y-67098000D02*
X28200000Y-66800000D01*
X28200000Y-70000000D02*
X28200000Y-68502000D01*
%TO.C,J5b*%
X77711000Y-40040000D02*
G75*
G02*
X75209000Y-40040000I-1251000J0D01*
G01*
X75209000Y-40040000D02*
G75*
G02*
X77711000Y-40040000I1251000J0D01*
G01*
%TO.C,J6*%
X73050000Y-23130000D02*
X73050000Y-25730000D01*
X73050000Y-23130000D02*
X83330000Y-23130000D01*
X73050000Y-25730000D02*
X75650000Y-25730000D01*
X73050000Y-27000000D02*
X73050000Y-28330000D01*
X73050000Y-28330000D02*
X74380000Y-28330000D01*
X75650000Y-25730000D02*
X75650000Y-28330000D01*
X75650000Y-28330000D02*
X83330000Y-28330000D01*
X83330000Y-23130000D02*
X83330000Y-28330000D01*
%TO.C,J2*%
X13390000Y-32000000D02*
X13390000Y-33330000D01*
X13390000Y-33330000D02*
X14720000Y-33330000D01*
X15990000Y-30670000D02*
X15990000Y-33330000D01*
X15990000Y-30670000D02*
X51610000Y-30670000D01*
X15990000Y-33330000D02*
X51610000Y-33330000D01*
X51610000Y-30670000D02*
X51610000Y-33330000D01*
%TO.C,F2*%
X32850000Y-66900000D02*
X32850000Y-68398000D01*
X32850000Y-69802000D02*
X32850000Y-70100000D01*
X32850000Y-70100000D02*
X33112000Y-70100000D01*
X34788000Y-70100000D02*
X40150000Y-70100000D01*
X38212000Y-66900000D02*
X32850000Y-66900000D01*
X40150000Y-66900000D02*
X39888000Y-66900000D01*
X40150000Y-67198000D02*
X40150000Y-66900000D01*
X40150000Y-70100000D02*
X40150000Y-68602000D01*
%TO.C,J5*%
X79630000Y-38670000D02*
X79630000Y-40000000D01*
X79630000Y-41270000D02*
X79630000Y-48950000D01*
X80960000Y-38670000D02*
X79630000Y-38670000D01*
X82230000Y-38670000D02*
X82230000Y-41270000D01*
X82230000Y-41270000D02*
X79630000Y-41270000D01*
X84830000Y-38670000D02*
X82230000Y-38670000D01*
X84830000Y-38670000D02*
X84830000Y-48950000D01*
X84830000Y-48950000D02*
X79630000Y-48950000D01*
%TO.C,J1*%
X13360000Y-75090000D02*
X13360000Y-77690000D01*
X13360000Y-75090000D02*
X51580000Y-75090000D01*
X13360000Y-77690000D02*
X15960000Y-77690000D01*
X13360000Y-78960000D02*
X13360000Y-80290000D01*
X13360000Y-80290000D02*
X14690000Y-80290000D01*
X15960000Y-77690000D02*
X15960000Y-80290000D01*
X15960000Y-80290000D02*
X51580000Y-80290000D01*
X51580000Y-75090000D02*
X51580000Y-80290000D01*
%TD*%
M02*
