%TF.GenerationSoftware,KiCad,Pcbnew,10.0.3*%
%TF.CreationDate,2026-07-01T23:49:45-04:00*%
%TF.ProjectId,a7s_backplane_render,6137735f-6261-4636-9b70-6c616e655f72,rev?*%
%TF.SameCoordinates,Original*%
%TF.FileFunction,Copper,L2,Bot*%
%TF.FilePolarity,Positive*%
%FSLAX46Y46*%
G04 Gerber Fmt 4.6, Leading zero omitted, Abs format (unit mm)*
G04 Created by KiCad (PCBNEW 10.0.3) date 2026-07-01 23:49:45*
%MOMM*%
%LPD*%
G01*
G04 APERTURE LIST*
%TA.AperFunction,ComponentPad*%
%ADD10C,2.000000*%
%TD*%
%TA.AperFunction,ComponentPad*%
%ADD11C,1.600000*%
%TD*%
%TA.AperFunction,ComponentPad*%
%ADD12R,1.700000X1.700000*%
%TD*%
%TA.AperFunction,ComponentPad*%
%ADD13O,1.700000X1.700000*%
%TD*%
%TA.AperFunction,ComponentPad*%
%ADD14C,1.700000*%
%TD*%
%TA.AperFunction,ComponentPad*%
%ADD15C,2.010000*%
%TD*%
%TA.AperFunction,ViaPad*%
%ADD16C,0.600000*%
%TD*%
%TA.AperFunction,Conductor*%
%ADD17C,0.200000*%
%TD*%
G04 APERTURE END LIST*
D10*
%TO.P,SW2,1*%
%TO.N,BTN2*%
X46750000Y-85750000D03*
%TO.N,N/C*%
X53250000Y-85750000D03*
%TO.P,SW2,2*%
%TO.N,GND*%
X46750000Y-90250000D03*
%TO.N,N/C*%
X53250000Y-90250000D03*
%TD*%
%TO.P,SW1,1*%
%TO.N,BTN1*%
X61750000Y-85750000D03*
%TO.N,N/C*%
X68250000Y-85750000D03*
%TO.P,SW1,2*%
%TO.N,GND*%
X61750000Y-90250000D03*
%TO.N,N/C*%
X68250000Y-90250000D03*
%TD*%
%TO.P,SW4,1*%
%TO.N,BTN4*%
X16750000Y-85750000D03*
%TO.N,N/C*%
X23250000Y-85750000D03*
%TO.P,SW4,2*%
%TO.N,GND*%
X16750000Y-90250000D03*
%TO.N,N/C*%
X23250000Y-90250000D03*
%TD*%
%TO.P,SW3,1*%
%TO.N,BTN3*%
X31750000Y-85750000D03*
%TO.N,N/C*%
X38250000Y-85750000D03*
%TO.P,SW3,2*%
%TO.N,GND*%
X31750000Y-90250000D03*
%TO.N,N/C*%
X38250000Y-90250000D03*
%TD*%
D11*
%TO.P,J3,1*%
%TO.N,+5V*%
X5500000Y-38990000D03*
%TO.P,J3,2*%
%TO.N,GND*%
X5500000Y-41530000D03*
%TO.P,J3,3*%
%TO.N,TFT_CS*%
X5500000Y-44070000D03*
%TO.P,J3,4*%
%TO.N,TFT_RST*%
X5500000Y-46610000D03*
%TO.P,J3,5*%
%TO.N,TFT_DC*%
X5500000Y-49150000D03*
%TO.P,J3,6*%
%TO.N,SPI_MOSI*%
X5500000Y-51690000D03*
%TO.P,J3,7*%
%TO.N,SPI_SCK*%
X5500000Y-54230000D03*
%TO.P,J3,8*%
%TO.N,TFT_BL*%
X5500000Y-56770000D03*
%TO.P,J3,9*%
%TO.N,N/C*%
X5500000Y-59310000D03*
%TO.P,J3,10*%
%TO.N,SPI_SCK*%
X5500000Y-61850000D03*
%TO.P,J3,11*%
%TO.N,TOUCH_CS*%
X5500000Y-64390000D03*
%TO.P,J3,12*%
%TO.N,SPI_MOSI*%
X5500000Y-66930000D03*
%TO.P,J3,13*%
%TO.N,SPI_MISO*%
X5500000Y-69470000D03*
%TO.P,J3,14*%
%TO.N,TOUCH_IRQ*%
X5500000Y-72010000D03*
%TD*%
D12*
%TO.P,J12,1*%
%TO.N,+5V*%
X6840000Y-25000000D03*
D13*
%TO.P,J12,2*%
%TO.N,SPI_MOSI*%
X9380000Y-25000000D03*
%TO.P,J12,3*%
%TO.N,SPI_MISO*%
X11920000Y-25000000D03*
%TO.P,J12,4*%
%TO.N,SPARE0*%
X14460000Y-25000000D03*
%TO.P,J12,5*%
%TO.N,SPI_SCK*%
X17000000Y-25000000D03*
%TO.P,J12,6*%
%TO.N,SPARE1*%
X19540000Y-25000000D03*
%TO.P,J12,7*%
%TO.N,SPARE2*%
X22080000Y-25000000D03*
%TO.P,J12,8*%
%TO.N,GND*%
X24620000Y-25000000D03*
D12*
%TO.P,J12,9*%
%TO.N,+3V3*%
X42400000Y-25000000D03*
D13*
%TO.P,J12,10*%
%TO.N,N/C*%
X44940000Y-25000000D03*
%TO.P,J12,11*%
%TO.N,GND*%
X47480000Y-25000000D03*
%TO.P,J12,12*%
%TO.N,N/C*%
X50020000Y-25000000D03*
%TO.P,J12,13*%
%TO.N,UART3_TX*%
X52560000Y-25000000D03*
%TO.P,J12,14*%
%TO.N,UART3_RX*%
X55100000Y-25000000D03*
%TO.P,J12,15*%
%TO.N,I2C_SDA*%
X57640000Y-25000000D03*
%TO.P,J12,16*%
%TO.N,I2C_SCK*%
X60180000Y-25000000D03*
%TO.P,J12,17*%
%TO.N,SPARE3*%
X62720000Y-25000000D03*
%TO.P,J12,18*%
%TO.N,GND*%
X65260000Y-25000000D03*
%TD*%
D12*
%TO.P,J8,1*%
%TO.N,RP_3V3*%
X84000000Y-83120000D03*
D14*
%TO.P,J8,2*%
%TO.N,GND*%
X84000000Y-80580000D03*
%TO.P,J8,3*%
%TO.N,JOY_X*%
X84000000Y-78040000D03*
%TO.P,J8,4*%
%TO.N,JOY_Y*%
X84000000Y-75500000D03*
%TO.P,J8,5*%
%TO.N,JOY_SW*%
X84000000Y-72960000D03*
%TD*%
D12*
%TO.P,J11,1*%
%TO.N,BTN5*%
X77040000Y-90500000D03*
D14*
%TO.P,J11,2*%
%TO.N,BTN6*%
X79580000Y-90500000D03*
%TO.P,J11,3*%
%TO.N,GND*%
X82120000Y-90500000D03*
%TD*%
D11*
%TO.P,C2,1*%
%TO.N,+3V3*%
X52000000Y-44000000D03*
%TO.P,C2,2*%
%TO.N,GND*%
X57000000Y-44000000D03*
%TD*%
D12*
%TO.P,J10,1*%
%TO.N,ENC_A*%
X4500000Y-87000000D03*
D14*
%TO.P,J10,2*%
%TO.N,ENC_B*%
X4500000Y-84460000D03*
%TO.P,J10,3*%
%TO.N,ENC_SW*%
X4500000Y-81920000D03*
%TO.P,J10,4*%
%TO.N,GND*%
X4500000Y-79380000D03*
%TD*%
D11*
%TO.P,C1,1*%
%TO.N,+3V3*%
X52000000Y-52000000D03*
%TO.P,C1,2*%
%TO.N,GND*%
X57000000Y-52000000D03*
%TD*%
D10*
%TO.P,J6b,1*%
%TO.N,RADIO2_AUX*%
X74500000Y-32000000D03*
%TD*%
D14*
%TO.P,A1,3V3*%
%TO.N,RP_3V3*%
X38580000Y-61620000D03*
%TO.P,A1,5V*%
%TO.N,+5V*%
X43660000Y-61620000D03*
%TO.P,A1,GND*%
%TO.N,GND*%
X41120000Y-61620000D03*
%TO.P,A1,GP0*%
%TO.N,A7S_U2RX*%
X43660000Y-46380000D03*
%TO.P,A1,GP1*%
%TO.N,A7S_U2TX*%
X41120000Y-46380000D03*
%TO.P,A1,GP2*%
%TO.N,BTN1*%
X38580000Y-46380000D03*
%TO.P,A1,GP3*%
%TO.N,BTN2*%
X36040000Y-46380000D03*
%TO.P,A1,GP4*%
%TO.N,BTN3*%
X33500000Y-46380000D03*
%TO.P,A1,GP5*%
%TO.N,BTN4*%
X30960000Y-46380000D03*
%TO.P,A1,GP6*%
%TO.N,BTN5*%
X28420000Y-46380000D03*
%TO.P,A1,GP7*%
%TO.N,BTN6*%
X25880000Y-46380000D03*
%TO.P,A1,GP8*%
%TO.N,JOY_SW*%
X23340000Y-46380000D03*
%TO.P,A1,GP9*%
%TO.N,ENC_A*%
X23150000Y-59080000D03*
%TO.P,A1,GP10*%
%TO.N,ENC_B*%
X23150000Y-56540000D03*
%TO.P,A1,GP11*%
%TO.N,ENC_SW*%
X23150000Y-54000000D03*
%TO.P,A1,GP12*%
%TO.N,N/C*%
X23150000Y-51460000D03*
%TO.P,A1,GP13*%
X23150000Y-48920000D03*
%TO.P,A1,GP14*%
X23340000Y-61620000D03*
%TO.P,A1,GP15*%
X25880000Y-61620000D03*
%TO.P,A1,GP26*%
%TO.N,JOY_X*%
X28420000Y-61620000D03*
%TO.P,A1,GP27*%
%TO.N,JOY_Y*%
X30960000Y-61620000D03*
%TO.P,A1,GP28*%
%TO.N,N/C*%
X33500000Y-61620000D03*
%TO.P,A1,GP29*%
X36040000Y-61620000D03*
%TD*%
D15*
%TO.P,F1,1*%
%TO.N,+5V_IN*%
X22000000Y-69000000D03*
%TO.P,F1,2*%
%TO.N,+5V*%
X27100000Y-67800000D03*
%TD*%
D10*
%TO.P,J5b,1*%
%TO.N,RADIO1_AUX*%
X76460000Y-40040000D03*
%TD*%
D12*
%TO.P,J6,1*%
%TO.N,GND*%
X74380000Y-27000000D03*
D14*
%TO.P,J6,2*%
%TO.N,+3V3*%
X74380000Y-24460000D03*
%TO.P,J6,3*%
%TO.N,RADIO2_FLEXA*%
X76920000Y-27000000D03*
%TO.P,J6,4*%
%TO.N,RADIO2_CS*%
X76920000Y-24460000D03*
%TO.P,J6,5*%
%TO.N,SPI_SCK*%
X79460000Y-27000000D03*
%TO.P,J6,6*%
%TO.N,SPI_MOSI*%
X79460000Y-24460000D03*
%TO.P,J6,7*%
%TO.N,SPI_MISO*%
X82000000Y-27000000D03*
%TO.P,J6,8*%
%TO.N,RADIO2_FLEXB*%
X82000000Y-24460000D03*
%TD*%
D12*
%TO.P,J2,1*%
%TO.N,RADIO1_FLEXA*%
X14720000Y-32000000D03*
D14*
%TO.P,J2,2*%
%TO.N,TOUCH_CS*%
X17260000Y-32000000D03*
%TO.P,J2,3*%
%TO.N,TOUCH_IRQ*%
X19800000Y-32000000D03*
%TO.P,J2,4*%
%TO.N,GND*%
X22340000Y-32000000D03*
%TO.P,J2,5*%
%TO.N,TFT_BL*%
X24880000Y-32000000D03*
%TO.P,J2,6*%
%TO.N,SPARE3*%
X27420000Y-32000000D03*
%TO.P,J2,7*%
%TO.N,RADIO2_FLEXA*%
X29960000Y-32000000D03*
%TO.P,J2,8*%
%TO.N,RADIO2_CS*%
X32500000Y-32000000D03*
%TO.P,J2,9*%
%TO.N,GND*%
X35040000Y-32000000D03*
%TO.P,J2,10*%
%TO.N,RADIO2_FLEXB*%
X37580000Y-32000000D03*
%TO.P,J2,11*%
%TO.N,RADIO1_AUX*%
X40120000Y-32000000D03*
%TO.P,J2,12*%
%TO.N,RADIO2_AUX*%
X42660000Y-32000000D03*
%TO.P,J2,13*%
%TO.N,SPARE0*%
X45200000Y-32000000D03*
%TO.P,J2,14*%
%TO.N,SPARE1*%
X47740000Y-32000000D03*
%TO.P,J2,15*%
%TO.N,SPARE2*%
X50280000Y-32000000D03*
%TD*%
D15*
%TO.P,F2,1*%
%TO.N,+3V3_IN*%
X33950000Y-69100000D03*
%TO.P,F2,2*%
%TO.N,+3V3*%
X39050000Y-67900000D03*
%TD*%
D12*
%TO.P,J5,1*%
%TO.N,GND*%
X80960000Y-40000000D03*
D14*
%TO.P,J5,2*%
%TO.N,+3V3*%
X83500000Y-40000000D03*
%TO.P,J5,3*%
%TO.N,RADIO1_FLEXA*%
X80960000Y-42540000D03*
%TO.P,J5,4*%
%TO.N,RADIO1_CS*%
X83500000Y-42540000D03*
%TO.P,J5,5*%
%TO.N,SPI_SCK*%
X80960000Y-45080000D03*
%TO.P,J5,6*%
%TO.N,SPI_MOSI*%
X83500000Y-45080000D03*
%TO.P,J5,7*%
%TO.N,SPI_MISO*%
X80960000Y-47620000D03*
%TO.P,J5,8*%
%TO.N,RADIO1_FLEXB*%
X83500000Y-47620000D03*
%TD*%
D12*
%TO.P,J1,1*%
%TO.N,+3V3_IN*%
X14690000Y-78960000D03*
D14*
%TO.P,J1,2*%
%TO.N,+5V_IN*%
X14690000Y-76420000D03*
%TO.P,J1,3*%
%TO.N,UART3_RX*%
X17230000Y-78960000D03*
%TO.P,J1,4*%
%TO.N,+5V_IN*%
X17230000Y-76420000D03*
%TO.P,J1,5*%
%TO.N,UART3_TX*%
X19770000Y-78960000D03*
%TO.P,J1,6*%
%TO.N,GND*%
X19770000Y-76420000D03*
%TO.P,J1,7*%
%TO.N,A7S_U2TX*%
X22310000Y-78960000D03*
%TO.P,J1,8*%
%TO.N,CONSOLE_TX*%
X22310000Y-76420000D03*
%TO.P,J1,9*%
%TO.N,GND*%
X24850000Y-78960000D03*
%TO.P,J1,10*%
%TO.N,CONSOLE_RX*%
X24850000Y-76420000D03*
%TO.P,J1,11*%
%TO.N,A7S_U2RX*%
X27390000Y-78960000D03*
%TO.P,J1,12*%
%TO.N,N/C*%
X27390000Y-76420000D03*
%TO.P,J1,13*%
X29930000Y-78960000D03*
%TO.P,J1,14*%
%TO.N,GND*%
X29930000Y-76420000D03*
%TO.P,J1,15*%
%TO.N,N/C*%
X32470000Y-78960000D03*
%TO.P,J1,16*%
%TO.N,RADIO1_CS*%
X32470000Y-76420000D03*
%TO.P,J1,17*%
%TO.N,+3V3_IN*%
X35010000Y-78960000D03*
%TO.P,J1,18*%
%TO.N,RADIO1_FLEXB*%
X35010000Y-76420000D03*
%TO.P,J1,19*%
%TO.N,SPI_MOSI*%
X37550000Y-78960000D03*
%TO.P,J1,20*%
%TO.N,GND*%
X37550000Y-76420000D03*
%TO.P,J1,21*%
%TO.N,SPI_MISO*%
X40090000Y-78960000D03*
%TO.P,J1,22*%
%TO.N,N/C*%
X40090000Y-76420000D03*
%TO.P,J1,23*%
%TO.N,SPI_SCK*%
X42630000Y-78960000D03*
%TO.P,J1,24*%
%TO.N,TFT_CS*%
X42630000Y-76420000D03*
%TO.P,J1,25*%
%TO.N,GND*%
X45170000Y-78960000D03*
%TO.P,J1,26*%
%TO.N,TFT_DC*%
X45170000Y-76420000D03*
%TO.P,J1,27*%
%TO.N,I2C_SDA*%
X47710000Y-78960000D03*
%TO.P,J1,28*%
%TO.N,I2C_SCK*%
X47710000Y-76420000D03*
%TO.P,J1,29*%
%TO.N,TFT_RST*%
X50250000Y-78960000D03*
%TO.P,J1,30*%
%TO.N,GND*%
X50250000Y-76420000D03*
%TD*%
D16*
%TO.N,BTN2*%
X54730700Y-47190400D03*
%TO.N,GND*%
X38861500Y-77708500D03*
%TO.N,BTN1*%
X61750000Y-47832800D03*
%TO.N,SPI_SCK*%
X11727900Y-45162000D03*
%TO.N,SPI_MISO*%
X70673900Y-25730000D03*
%TO.N,+3V3*%
X81505100Y-35390800D03*
X49967000Y-38836000D03*
%TO.N,SPARE3*%
X27420000Y-26492100D03*
%TO.N,BTN5*%
X77040000Y-48208700D03*
%TO.N,BTN6*%
X79580000Y-48836200D03*
%TO.N,RADIO2_CS*%
X32500000Y-23232600D03*
%TO.N,RADIO2_FLEXB*%
X37580000Y-21268300D03*
%TO.N,RADIO1_CS*%
X46096100Y-44960200D03*
%TO.N,RADIO1_FLEXB*%
X43598300Y-69236800D03*
X36318100Y-69236800D03*
X52024900Y-55329400D03*
%TD*%
%TO.N,BTN2*%
D17*
X48980000Y-89867300D02*
X48980000Y-75802800D01*
X45402700Y-87097300D02*
X45402700Y-90789500D01*
X48980000Y-75802800D02*
X54730700Y-70052100D01*
X46165300Y-91552100D02*
X47295200Y-91552100D01*
X45402700Y-90789500D02*
X46165300Y-91552100D01*
X54730700Y-70052100D02*
X54730700Y-47190400D01*
X47295200Y-91552100D02*
X48980000Y-89867300D01*
X46750000Y-85750000D02*
X45402700Y-87097300D01*
%TO.N,GND*%
X18618300Y-88381700D02*
X18618300Y-78440700D01*
X43918500Y-77708500D02*
X38861500Y-77708500D01*
X82120000Y-82460000D02*
X84000000Y-80580000D01*
X82120000Y-90500000D02*
X82120000Y-82460000D01*
X45170000Y-78960000D02*
X43918500Y-77708500D01*
X18618300Y-78440700D02*
X19890300Y-77168700D01*
X57000000Y-69670000D02*
X50250000Y-76420000D01*
X24850000Y-78960000D02*
X23580000Y-77690000D01*
X41120000Y-61620000D02*
X37550000Y-65190000D01*
X74380000Y-29129600D02*
X74380000Y-27000000D01*
X22340000Y-28431700D02*
X24620000Y-26151700D01*
X19770000Y-77048400D02*
X19770000Y-76420000D01*
X22340000Y-32000000D02*
X22340000Y-28431700D01*
X37550000Y-65190000D02*
X37550000Y-76420000D01*
X80960000Y-40000000D02*
X80960000Y-35709600D01*
X57000000Y-52000000D02*
X57000000Y-69670000D01*
X16750000Y-90250000D02*
X18618300Y-88381700D01*
X48070400Y-88929600D02*
X46750000Y-90250000D01*
X23580000Y-77690000D02*
X20411600Y-77690000D01*
X24620000Y-25000000D02*
X24620000Y-26151700D01*
X19890300Y-77168700D02*
X19770000Y-77048400D01*
X20411600Y-77690000D02*
X19890300Y-77168700D01*
X65260000Y-35740000D02*
X65260000Y-25000000D01*
X57000000Y-44000000D02*
X65260000Y-35740000D01*
X57000000Y-44000000D02*
X57000000Y-52000000D01*
X48070400Y-81860400D02*
X48070400Y-88929600D01*
X80960000Y-35709600D02*
X74380000Y-29129600D01*
X45170000Y-78960000D02*
X48070400Y-81860400D01*
%TO.N,BTN1*%
X61750000Y-85750000D02*
X61750000Y-47832800D01*
%TO.N,BTN4*%
X16068800Y-72550000D02*
X16068800Y-85068800D01*
X24610000Y-64008800D02*
X16068800Y-72550000D01*
X30960000Y-46380000D02*
X24610000Y-52730000D01*
X16068800Y-85068800D02*
X16750000Y-85750000D01*
X24610000Y-52730000D02*
X24610000Y-64008800D01*
%TO.N,BTN3*%
X26234900Y-80234900D02*
X31750000Y-85750000D01*
X33500000Y-46380000D02*
X33500000Y-53249200D01*
X29690000Y-67058000D02*
X26234900Y-70513100D01*
X33500000Y-53249200D02*
X29690000Y-57059200D01*
X29690000Y-57059200D02*
X29690000Y-67058000D01*
X26234900Y-70513100D02*
X26234900Y-80234900D01*
%TO.N,+5V*%
X6840000Y-26151700D02*
X5500000Y-27491700D01*
X6840000Y-25000000D02*
X6840000Y-26151700D01*
X5500000Y-27491700D02*
X5500000Y-38990000D01*
%TO.N,SPI_MOSI*%
X9380000Y-25000000D02*
X9380000Y-26151700D01*
X82421800Y-25730000D02*
X80730000Y-25730000D01*
X83500000Y-45080000D02*
X84659800Y-43920200D01*
X6638100Y-50551900D02*
X5500000Y-51690000D01*
X84659800Y-43920200D02*
X84659800Y-27968000D01*
X9380000Y-26151700D02*
X6638100Y-28893600D01*
X5500000Y-51690000D02*
X3567200Y-53622800D01*
X6638100Y-28893600D02*
X6638100Y-50551900D01*
X80730000Y-25730000D02*
X79460000Y-24460000D01*
X84659800Y-27968000D02*
X82421800Y-25730000D01*
X3567200Y-53622800D02*
X3567200Y-64997200D01*
X3567200Y-64997200D02*
X5500000Y-66930000D01*
%TO.N,SPI_SCK*%
X80960000Y-45080000D02*
X82115000Y-43925000D01*
X17000000Y-26151700D02*
X13173700Y-29978000D01*
X82115000Y-29655000D02*
X79460000Y-27000000D01*
X13173700Y-29978000D02*
X13173700Y-43716200D01*
X13173700Y-43716200D02*
X11727900Y-45162000D01*
X4370600Y-60720600D02*
X4370600Y-55359400D01*
X11727900Y-45162000D02*
X11727900Y-48002100D01*
X82115000Y-43925000D02*
X82115000Y-29655000D01*
X11727900Y-48002100D02*
X5500000Y-54230000D01*
X4370600Y-55359400D02*
X5500000Y-54230000D01*
X17000000Y-25000000D02*
X17000000Y-26151700D01*
X5500000Y-61850000D02*
X4370600Y-60720600D01*
%TO.N,TFT_BL*%
X15930000Y-31681900D02*
X16826500Y-30785400D01*
X20290500Y-30785400D02*
X21070000Y-31564900D01*
X21070000Y-31564900D02*
X21070000Y-32392600D01*
X5500000Y-56770000D02*
X15930000Y-46340000D01*
X23725200Y-33154800D02*
X24880000Y-32000000D01*
X16826500Y-30785400D02*
X20290500Y-30785400D01*
X15930000Y-46340000D02*
X15930000Y-31681900D01*
X21070000Y-32392600D02*
X21832200Y-33154800D01*
X21832200Y-33154800D02*
X23725200Y-33154800D01*
%TO.N,TOUCH_CS*%
X17260000Y-52630000D02*
X5500000Y-64390000D01*
X17260000Y-32000000D02*
X17260000Y-52630000D01*
%TO.N,SPI_MISO*%
X6620900Y-68349100D02*
X6620900Y-66478300D01*
X5380300Y-52791700D02*
X5994800Y-52791700D01*
X80960000Y-47620000D02*
X70673900Y-37333900D01*
X6620900Y-66478300D02*
X5634300Y-65491700D01*
X5994800Y-52791700D02*
X7923400Y-50863100D01*
X5500000Y-69470000D02*
X6620900Y-68349100D01*
X70673900Y-37333900D02*
X70673900Y-25730000D01*
X3968900Y-64416900D02*
X3968900Y-54203100D01*
X3968900Y-54203100D02*
X5380300Y-52791700D01*
X11920000Y-25000000D02*
X11920000Y-26151700D01*
X5634300Y-65491700D02*
X5043700Y-65491700D01*
X5043700Y-65491700D02*
X3968900Y-64416900D01*
X7923400Y-50863100D02*
X7923400Y-30148300D01*
X7923400Y-30148300D02*
X11920000Y-26151700D01*
%TO.N,TOUCH_IRQ*%
X19800000Y-57710000D02*
X5500000Y-72010000D01*
X19800000Y-32000000D02*
X19800000Y-57710000D01*
%TO.N,+3V3*%
X49967000Y-41967000D02*
X49967000Y-38836000D01*
X52000000Y-44000000D02*
X49967000Y-41967000D01*
X75531700Y-29417400D02*
X81505100Y-35390800D01*
X45629000Y-58371000D02*
X45629000Y-61321000D01*
X52000000Y-52000000D02*
X52000000Y-44000000D01*
X42400000Y-26151700D02*
X46470000Y-30221700D01*
X45629000Y-61321000D02*
X39050000Y-67900000D01*
X74380000Y-24460000D02*
X75531700Y-25611700D01*
X46470000Y-35339000D02*
X49967000Y-38836000D01*
X52000000Y-52000000D02*
X45629000Y-58371000D01*
X75531700Y-25611700D02*
X75531700Y-29417400D01*
X46470000Y-30221700D02*
X46470000Y-35339000D01*
X42400000Y-25000000D02*
X42400000Y-26151700D01*
%TO.N,UART3_TX*%
X32519000Y-87487700D02*
X28297700Y-87487700D01*
X36280000Y-83726700D02*
X32519000Y-87487700D01*
X53152700Y-43352700D02*
X53152700Y-61017600D01*
X52420800Y-26290900D02*
X52420800Y-42620800D01*
X37131600Y-77690000D02*
X36280000Y-78541600D01*
X53152700Y-61017600D02*
X38796900Y-75373400D01*
X52560000Y-26151700D02*
X52420800Y-26290900D01*
X37947900Y-77690000D02*
X37131600Y-77690000D01*
X52560000Y-25000000D02*
X52560000Y-26151700D01*
X38796900Y-76841000D02*
X37947900Y-77690000D01*
X28297700Y-87487700D02*
X19770000Y-78960000D01*
X38796900Y-75373400D02*
X38796900Y-76841000D01*
X52420800Y-42620800D02*
X53152700Y-43352700D01*
X36280000Y-78541600D02*
X36280000Y-83726700D01*
%TO.N,UART3_RX*%
X38850000Y-26397200D02*
X38850000Y-39401300D01*
X53948300Y-24712000D02*
X53084600Y-23848300D01*
X32212100Y-53737200D02*
X27149900Y-58799400D01*
X53084600Y-23848300D02*
X41398900Y-23848300D01*
X38850000Y-39401300D02*
X32212100Y-46039200D01*
X18500000Y-74362500D02*
X18500000Y-77690000D01*
X41398900Y-23848300D02*
X38850000Y-26397200D01*
X27149900Y-65712600D02*
X18500000Y-74362500D01*
X18500000Y-77690000D02*
X17230000Y-78960000D01*
X53948300Y-25000000D02*
X53948300Y-24712000D01*
X27149900Y-58799400D02*
X27149900Y-65712600D01*
X32212100Y-46039200D02*
X32212100Y-53737200D01*
X55100000Y-25000000D02*
X53948300Y-25000000D01*
%TO.N,I2C_SDA*%
X46519500Y-77769500D02*
X47710000Y-78960000D01*
X46519500Y-74783500D02*
X46519500Y-77769500D01*
X57640000Y-25000000D02*
X57640000Y-34779700D01*
X53657000Y-38762700D02*
X53657000Y-67646000D01*
X57640000Y-34779700D02*
X53657000Y-38762700D01*
X53657000Y-67646000D02*
X46519500Y-74783500D01*
%TO.N,I2C_SCK*%
X60180000Y-25000000D02*
X60180000Y-37375900D01*
X60180000Y-37375900D02*
X54058800Y-43497100D01*
X54058800Y-43497100D02*
X54058800Y-70071200D01*
X54058800Y-70071200D02*
X47710000Y-76420000D01*
%TO.N,SPARE3*%
X27420000Y-32000000D02*
X27420000Y-26492100D01*
%TO.N,BTN5*%
X77040000Y-90500000D02*
X77040000Y-48208700D01*
%TO.N,BTN6*%
X79580000Y-90500000D02*
X79580000Y-48836200D01*
%TO.N,ENC_A*%
X12517100Y-75400800D02*
X12517100Y-78335100D01*
X21871400Y-66046500D02*
X12517100Y-75400800D01*
X12517100Y-78335100D02*
X5003900Y-85848300D01*
X5003900Y-85848300D02*
X4500000Y-85848300D01*
X21871400Y-60358600D02*
X21871400Y-66046500D01*
X23150000Y-59080000D02*
X21871400Y-60358600D01*
X4500000Y-87000000D02*
X4500000Y-85848300D01*
%TO.N,ENC_B*%
X7936400Y-75253700D02*
X7936400Y-81023600D01*
X21435800Y-61754300D02*
X7936400Y-75253700D01*
X23150000Y-56540000D02*
X21435800Y-58254200D01*
X21435800Y-58254200D02*
X21435800Y-61754300D01*
X7936400Y-81023600D02*
X4500000Y-84460000D01*
%TO.N,ENC_SW*%
X20353000Y-56797000D02*
X20353000Y-61447000D01*
X20353000Y-61447000D02*
X5889800Y-75910200D01*
X5889800Y-75910200D02*
X5889800Y-80530200D01*
X23150000Y-54000000D02*
X20353000Y-56797000D01*
X5889800Y-80530200D02*
X4500000Y-81920000D01*
%TO.N,A7S_U2RX*%
X42505600Y-45225600D02*
X43660000Y-46380000D01*
X34770000Y-62711800D02*
X34770000Y-45985300D01*
X27390000Y-78960000D02*
X28661500Y-77688500D01*
X35529700Y-45225600D02*
X42505600Y-45225600D01*
X28661500Y-77688500D02*
X28661500Y-68820300D01*
X28661500Y-68820300D02*
X34770000Y-62711800D01*
X34770000Y-45985300D02*
X35529700Y-45225600D01*
%TO.N,A7S_U2TX*%
X33670700Y-85734900D02*
X32325800Y-87079800D01*
X32325800Y-87079800D02*
X30429800Y-87079800D01*
X41120000Y-46380000D02*
X37310000Y-50190000D01*
X37310000Y-62770200D02*
X31316800Y-68763400D01*
X33670700Y-78529100D02*
X33670700Y-85734900D01*
X32169900Y-77808300D02*
X32949900Y-77808300D01*
X31316800Y-76955200D02*
X32169900Y-77808300D01*
X30429800Y-87079800D02*
X22310000Y-78960000D01*
X31316800Y-68763400D02*
X31316800Y-76955200D01*
X37310000Y-50190000D02*
X37310000Y-62770200D01*
X32949900Y-77808300D02*
X33670700Y-78529100D01*
%TO.N,+5V_IN*%
X17230000Y-73770000D02*
X22000000Y-69000000D01*
X17230000Y-76420000D02*
X17230000Y-73770000D01*
%TO.N,RADIO2_CS*%
X32500000Y-32000000D02*
X32500000Y-23232600D01*
%TO.N,RADIO2_FLEXB*%
X37580000Y-32000000D02*
X37580000Y-21268300D01*
%TO.N,+3V3_IN*%
X35010000Y-78960000D02*
X33845000Y-77795000D01*
X33845000Y-69205000D02*
X33950000Y-69100000D01*
X33845000Y-77795000D02*
X33845000Y-69205000D01*
%TO.N,RADIO1_CS*%
X36264900Y-64879600D02*
X36967100Y-64879600D01*
X39931700Y-53608800D02*
X46096100Y-47444400D01*
X32470000Y-76420000D02*
X32470000Y-68674500D01*
X36967100Y-64879600D02*
X39931700Y-61915000D01*
X32470000Y-68674500D02*
X36264900Y-64879600D01*
X39931700Y-61915000D02*
X39931700Y-53608800D01*
X46096100Y-47444400D02*
X46096100Y-44960200D01*
%TO.N,RADIO1_FLEXB*%
X35010000Y-70544900D02*
X36318100Y-69236800D01*
X52024900Y-60810200D02*
X43598300Y-69236800D01*
X52024900Y-55329400D02*
X52024900Y-60810200D01*
X35010000Y-76420000D02*
X35010000Y-70544900D01*
%TD*%
M02*
