%TF.GenerationSoftware,KiCad,Pcbnew,10.0.3*%
%TF.CreationDate,2026-07-01T23:49:45-04:00*%
%TF.ProjectId,a7s_backplane_render,6137735f-6261-4636-9b70-6c616e655f72,rev?*%
%TF.SameCoordinates,Original*%
%TF.FileFunction,Soldermask,Bot*%
%TF.FilePolarity,Negative*%
%FSLAX46Y46*%
G04 Gerber Fmt 4.6, Leading zero omitted, Abs format (unit mm)*
G04 Created by KiCad (PCBNEW 10.0.3) date 2026-07-01 23:49:45*
%MOMM*%
%LPD*%
G01*
G04 APERTURE LIST*
%ADD10C,2.700000*%
%ADD11C,2.000000*%
%ADD12C,1.600000*%
%ADD13R,1.700000X1.700000*%
%ADD14O,1.700000X1.700000*%
%ADD15C,1.700000*%
%ADD16C,2.010000*%
G04 APERTURE END LIST*
D10*
%TO.C,H2*%
X10590000Y-77530000D03*
%TD*%
%TO.C,H3*%
X54390000Y-33730000D03*
%TD*%
D11*
%TO.C,SW2*%
X46750000Y-85750000D03*
X53250000Y-85750000D03*
X46750000Y-90250000D03*
X53250000Y-90250000D03*
%TD*%
%TO.C,SW1*%
X61750000Y-85750000D03*
X68250000Y-85750000D03*
X61750000Y-90250000D03*
X68250000Y-90250000D03*
%TD*%
%TO.C,SW4*%
X16750000Y-85750000D03*
X23250000Y-85750000D03*
X16750000Y-90250000D03*
X23250000Y-90250000D03*
%TD*%
%TO.C,SW3*%
X31750000Y-85750000D03*
X38250000Y-85750000D03*
X31750000Y-90250000D03*
X38250000Y-90250000D03*
%TD*%
D10*
%TO.C,H4*%
X10590000Y-33730000D03*
%TD*%
%TO.C,H1*%
X54390000Y-77530000D03*
%TD*%
D12*
%TO.C,J3*%
X5500000Y-38990000D03*
X5500000Y-41530000D03*
X5500000Y-44070000D03*
X5500000Y-46610000D03*
X5500000Y-49150000D03*
X5500000Y-51690000D03*
X5500000Y-54230000D03*
X5500000Y-56770000D03*
X5500000Y-59310000D03*
X5500000Y-61850000D03*
X5500000Y-64390000D03*
X5500000Y-66930000D03*
X5500000Y-69470000D03*
X5500000Y-72010000D03*
%TD*%
D13*
%TO.C,J12*%
X6840000Y-25000000D03*
D14*
X9380000Y-25000000D03*
X11920000Y-25000000D03*
X14460000Y-25000000D03*
X17000000Y-25000000D03*
X19540000Y-25000000D03*
X22080000Y-25000000D03*
X24620000Y-25000000D03*
D13*
X42400000Y-25000000D03*
D14*
X44940000Y-25000000D03*
X47480000Y-25000000D03*
X50020000Y-25000000D03*
X52560000Y-25000000D03*
X55100000Y-25000000D03*
X57640000Y-25000000D03*
X60180000Y-25000000D03*
X62720000Y-25000000D03*
X65260000Y-25000000D03*
%TD*%
D13*
%TO.C,J8*%
X84000000Y-83120000D03*
D15*
X84000000Y-80580000D03*
X84000000Y-78040000D03*
X84000000Y-75500000D03*
X84000000Y-72960000D03*
%TD*%
D13*
%TO.C,J11*%
X77040000Y-90500000D03*
D15*
X79580000Y-90500000D03*
X82120000Y-90500000D03*
%TD*%
D12*
%TO.C,C2*%
X52000000Y-44000000D03*
X57000000Y-44000000D03*
%TD*%
D13*
%TO.C,J10*%
X4500000Y-87000000D03*
D15*
X4500000Y-84460000D03*
X4500000Y-81920000D03*
X4500000Y-79380000D03*
%TD*%
D12*
%TO.C,C1*%
X52000000Y-52000000D03*
X57000000Y-52000000D03*
%TD*%
D11*
%TO.C,J6b*%
X74500000Y-32000000D03*
%TD*%
D15*
%TO.C,A1*%
X38580000Y-61620000D03*
X43660000Y-61620000D03*
X41120000Y-61620000D03*
X43660000Y-46380000D03*
X41120000Y-46380000D03*
X38580000Y-46380000D03*
X36040000Y-46380000D03*
X33500000Y-46380000D03*
X30960000Y-46380000D03*
X28420000Y-46380000D03*
X25880000Y-46380000D03*
X23340000Y-46380000D03*
X23150000Y-59080000D03*
X23150000Y-56540000D03*
X23150000Y-54000000D03*
X23150000Y-51460000D03*
X23150000Y-48920000D03*
X23340000Y-61620000D03*
X25880000Y-61620000D03*
X28420000Y-61620000D03*
X30960000Y-61620000D03*
X33500000Y-61620000D03*
X36040000Y-61620000D03*
%TD*%
D16*
%TO.C,F1*%
X22000000Y-69000000D03*
X27100000Y-67800000D03*
%TD*%
D11*
%TO.C,J5b*%
X76460000Y-40040000D03*
%TD*%
D13*
%TO.C,J6*%
X74380000Y-27000000D03*
D15*
X74380000Y-24460000D03*
X76920000Y-27000000D03*
X76920000Y-24460000D03*
X79460000Y-27000000D03*
X79460000Y-24460000D03*
X82000000Y-27000000D03*
X82000000Y-24460000D03*
%TD*%
D13*
%TO.C,J2*%
X14720000Y-32000000D03*
D15*
X17260000Y-32000000D03*
X19800000Y-32000000D03*
X22340000Y-32000000D03*
X24880000Y-32000000D03*
X27420000Y-32000000D03*
X29960000Y-32000000D03*
X32500000Y-32000000D03*
X35040000Y-32000000D03*
X37580000Y-32000000D03*
X40120000Y-32000000D03*
X42660000Y-32000000D03*
X45200000Y-32000000D03*
X47740000Y-32000000D03*
X50280000Y-32000000D03*
%TD*%
D16*
%TO.C,F2*%
X33950000Y-69100000D03*
X39050000Y-67900000D03*
%TD*%
D13*
%TO.C,J5*%
X80960000Y-40000000D03*
D15*
X83500000Y-40000000D03*
X80960000Y-42540000D03*
X83500000Y-42540000D03*
X80960000Y-45080000D03*
X83500000Y-45080000D03*
X80960000Y-47620000D03*
X83500000Y-47620000D03*
%TD*%
D13*
%TO.C,J1*%
X14690000Y-78960000D03*
D15*
X14690000Y-76420000D03*
X17230000Y-78960000D03*
X17230000Y-76420000D03*
X19770000Y-78960000D03*
X19770000Y-76420000D03*
X22310000Y-78960000D03*
X22310000Y-76420000D03*
X24850000Y-78960000D03*
X24850000Y-76420000D03*
X27390000Y-78960000D03*
X27390000Y-76420000D03*
X29930000Y-78960000D03*
X29930000Y-76420000D03*
X32470000Y-78960000D03*
X32470000Y-76420000D03*
X35010000Y-78960000D03*
X35010000Y-76420000D03*
X37550000Y-78960000D03*
X37550000Y-76420000D03*
X40090000Y-78960000D03*
X40090000Y-76420000D03*
X42630000Y-78960000D03*
X42630000Y-76420000D03*
X45170000Y-78960000D03*
X45170000Y-76420000D03*
X47710000Y-78960000D03*
X47710000Y-76420000D03*
X50250000Y-78960000D03*
X50250000Y-76420000D03*
%TD*%
M02*
